<svg data-name="图层 1" xmlns="http://www.w3.org/2000/svg" width="32" height="32" viewBox="0 0 32 32"><path fill="#0052D9" d="M16.21,2.15a22.37,22.37,0,0,1,12.86,4v.13A27.56,27.56,0,0,1,16.2,29.52,27.6,27.6,0,0,1,3.34,6.33V6.18a22.36,22.36,0,0,1,12.87-4m0-2A24.47,24.47,0,0,0,1.51,5l-.15.11v.18c0,.33,0,.66,0,1A29.5,29.5,0,0,0,16,31.74l.19.11.19-.11A29.49,29.49,0,0,0,31.07,6.32c0-.33,0-.66,0-1V5.15L30.91,5A24.51,24.51,0,0,0,16.21.15Z"/><path fill="#0052D9" d="M19.3,20.08a4.54,4.54,0,1,1,3.26-1.36A4.55,4.55,0,0,1,19.3,20.08Zm0-7.41a2.86,2.86,0,0,0,0,5.71,2.87,2.87,0,0,0,2.86-2.85A2.86,2.86,0,0,0,19.3,12.67Z"/><path fill="#0052D9" transform="rotate(-45 22.693 19.03)" d="M21.84 17.86H23.54V20.18H21.84z"/><path fill="#0052D9" d="M18.45 13.68H20.15V15.83H18.45zM18.45 16.5H20.15V17.29H18.45zM8.73 8.76H10.43V19.23H8.73zM11.95 10.57H13.649999999999999V19.23H11.95zM17 6.55v3.73a6.14 6.14 0 011.7-.42V6.55zM21.17 8.28v1.84a6.1 6.1 0 011.7.88V8.28z"/></svg>