<svg width="32" height="32" viewBox="0 0 32 32" xmlns="http://www.w3.org/2000/svg"><g fill="#0052D9" fill-rule="nonzero"><path d="M24.0050116,5.85731121 C19.6135851,2.33091429 13.2572389,1.95788499 8.41133499,5.35102342 C3.08719713,9.07902489 1.41149281,16.0752406 4.19694458,21.7304918 L2.54166355,22.8895321 C-0.866698647,16.3171714 1.03358579,8.07542986 7.26418212,3.71271934 C12.809827,-0.170383029 20.0698664,0.221220827 25.1319654,4.1976807 C25.3945112,4.07100144 25.688964,4 26,4 C27.1045695,4 28,4.8954305 28,6 C28,7.1045695 27.1045695,8 26,8 C24.8954305,8 24,7.1045695 24,6 C24,5.95202378 24.0016893,5.9044421 24.0050116,5.85731121 Z M28.2975037,12.1797462 L30.0077015,10.9822528 C32.2116201,17.1816614 30.1228559,24.3301413 24.4714752,28.2872807 C18.8200945,32.24442 11.3883213,31.7622922 6.31656733,27.5709635 L8.02676515,26.3734701 C12.404287,29.6838258 18.5862801,29.9665895 23.3243223,26.6489766 C28.0623646,23.3313637 29.9110198,17.4254796 28.2975037,12.1797462 Z M16,13 C17.1045695,13 18,12.1045695 18,11 C18,9.8954305 17.1045695,9 16,9 C14.8954305,9 14,9.8954305 14,11 C14,12.1045695 14.8954305,13 16,13 Z M16,15 C13.790861,15 12,13.209139 12,11 C12,8.790861 13.790861,7 16,7 C18.209139,7 20,8.790861 20,11 C20,13.209139 18.209139,15 16,15 Z M17,16 L24,16 L24,19.622702 C24,21.6858271 22.6585415,23.4911159 20.7425476,23.9701395 L20.5,24.0307796 L20.2574524,23.9701395 C18.3414585,23.4911159 17,21.6858271 17,19.622702 L17,16 Z M19,19.622702 C19,20.6913275 19.6203516,21.6140872 20.5,21.9530844 C21.3796484,21.6140872 22,20.6913275 22,19.622702 L22,18 L19,18 L19,19.622702 Z M15,16 L15,18 L14,18 C11.790861,18 10,19.790861 10,22 L10,24 L8,24 L8,22 C8,18.6862915 10.6862915,16 14,16 L15,16 Z"/><circle cx="7" cy="27" r="2"/></g></svg>