<svg data-name="图层 1" xmlns="http://www.w3.org/2000/svg" width="32" height="32" viewBox="0 0 32 32"><path fill="#0052D9" d="M16.21,2.16a22.35,22.35,0,0,1,12.86,4v.13A27.55,27.55,0,0,1,16.21,29.51,27.54,27.54,0,0,1,3.36,6.34V6.19a22.32,22.32,0,0,1,12.85-4m0-2A24.5,24.5,0,0,0,1.52,5.05l-.14.11v.18c0,.32,0,.65,0,1A29.48,29.48,0,0,0,16,31.74l.19.1.19-.1A29.48,29.48,0,0,0,31.07,6.32c0-.33,0-.66,0-1V5.16l-.14-.11A24.51,24.51,0,0,0,16.21.16Z"/><path fill="#0052D9" d="M17.05 7.55a6 6 0 015.13 5.17h1.75l.28 0a8.06 8.06 0 00-7.15-7.16v2zM10.25 12.72a6 6 0 015.13-5.17v-2a8.07 8.07 0 00-7.16 7.16l.29 0zM15.38 19.51a6 6 0 01-5.12-5.14h-2a8.07 8.07 0 007.16 7.16v-2zM22.17 14.37a6 6 0 01-5.12 5.14v2a8.06 8.06 0 007.15-7.16h-2z"/><path fill="#0052D9" d="M19.48 9.59L17.45 9.59 16.31 11.5 15.13 9.59 13.12 9.59 13.09 9.61 14.56 12 13.14 12 13.14 13.75 15.29 13.75 15.29 14.85 13.14 14.85 13.14 16.6 15.29 16.6 15.29 17.97 17.29 17.97 17.29 16.6 19.45 16.6 19.45 14.85 17.29 14.85 17.29 13.75 19.45 13.75 19.45 12 18.05 12 19.48 9.59z"/></svg>