<svg data-name="图层 1" xmlns="http://www.w3.org/2000/svg" width="32" height="32" viewBox="0 0 32 32"><path fill="#0052D9" d="M31.06,5.34V5.16l-.14-.11a24.54,24.54,0,0,0-29.4,0l-.15.11v.18c0,.33,0,.66,0,1A29.49,29.49,0,0,0,16,31.75l.19.11.19-.11A29.49,29.49,0,0,0,31.08,6.33C31.08,6,31.07,5.67,31.06,5.34ZM16.21,29.53A27.6,27.6,0,0,1,3.35,6.34V6.19a22.55,22.55,0,0,1,25.73,0v.13A27.56,27.56,0,0,1,16.21,29.53Z"/><path fill="#0052D9" d="M8.93,9.63V18l7.21,4.16L23.35,18V9.63L16.14,5.47Zm10.34,4.92-1,1.74,2,1.12-3.17,1.83V14.11l4.21-2.32V15.7Zm-6.39,0-2,1.07V11.88l4.21,2.22v5.14l-3.25-1.88,2-1.08Zm3.27-2.17L12,10.18l3.15-1.82v2.08h2V8.36l3.07,1.77Z"/></svg>