<svg width="32" height="32" viewBox="0 0 32 32" xmlns="http://www.w3.org/2000/svg" xmlns:xlink="http://www.w3.org/1999/xlink"><defs><path d="M0 0H32V32H0z"/></defs><g fill="none" fill-rule="evenodd"><mask fill="#0052D9"><use xlink:href="#a"/></mask><path d="M31.5940649,12.3851048 C33.1460227,19.0657868 30.2513714,26.2502599 24.0036492,29.857384 C18.2372095,33.1866396 11.2598061,32.5184901 6.28021709,28.7127252 C4.8835718,29.3748045 3.18879306,28.8628969 2.40192411,27.4999999 C1.57349699,26.065122 2.06512245,24.2303508 3.50000032,23.4019237 C4.93487819,22.5734965 6.76964941,23.065122 7.59807654,24.4999999 C8.10968859,25.386138 8.1178416,26.4247926 7.71128598,27.2847428 C12.0522427,30.471992 18.0405514,30.9907791 23.0036492,28.1253332 C28.283612,25.0769453 30.8267122,19.1086333 29.7708744,13.4377068 L31.5940649,12.3851048 Z M4.50000032,25.1339745 C4.0217077,25.4101169 3.85783255,26.0217073 4.13397492,26.4999999 C4.41011729,26.9782925 5.0217077,27.1421677 5.50000032,26.8660253 C5.97829295,26.5898829 6.1421681,25.9782925 5.86602573,25.4999999 C5.58988335,25.0217073 4.97829295,24.8578321 4.50000032,25.1339745 Z M16,8.34314575 L27.3137085,14 L22.9999776,16.156306 L23.0000003,20.1187084 C23.0000003,21.7100018 19.8659935,22.9999999 16.0000003,22.9999999 C12.2306568,22.9999999 9.15715809,21.7736954 9.00583899,20.237475 L9.00000026,20.1187084 L8.99997764,16.156306 L4.6862915,14 L16,8.34314575 Z M20.9999776,17.156306 L16,19.6568542 L10.9999776,17.156306 L11.0000002,19.5594696 C11.0000002,20.3550525 13.2385765,20.9999999 16.0000002,20.9999999 C18.761424,20.9999999 21.0000002,20.3550525 21.0000002,19.5594696 L20.9999776,17.156306 Z M26.1602431,3.6323756 C26.2655053,3.54826157 26.3794224,3.4715394 26.5000003,3.40192367 C27.9348782,2.57349655 29.7696494,3.06512201 30.5980765,4.49999988 C31.4265037,5.93487775 30.9348782,7.76964897 29.5000003,8.59807609 C28.0651225,9.42650322 26.2303512,8.93487775 25.4019241,7.49999988 C25.0081747,6.81800585 24.9126355,6.04567278 25.0748481,5.33399324 L25.0979776,5.35230596 L24.8479629,5.14353543 C20.4727462,1.5809244 14.1804895,0.887771809 9.00364924,3.87662191 C3.72530234,6.92407692 1.18214307,12.8896691 2.23545571,18.5590418 L0.412051718,19.6117588 C-1.1372533,12.9325183 1.75751422,5.75077884 8.00364924,2.1445711 C13.9393154,-1.28238734 21.1580638,-0.473876256 26.1602431,3.6323756 Z M16,10.4644661 L8.92893219,14 L10.9279776,14.999306 L11.0000002,14.9999999 L10.9999776,15.035306 L16,17.5355339 L20.9999776,15.035306 L21.0000002,14.9999999 L21.0709776,14.999306 L23.0710678,14 L16,10.4644661 Z M27.5000003,5.13397448 C27.0217077,5.41011685 26.8578326,6.02170726 27.1339749,6.49999988 C27.4101173,6.97829251 28.0217077,7.14216766 28.5000003,6.86602529 C28.978293,6.58988291 29.1421681,5.97829251 28.8660257,5.49999988 C28.5898834,5.02170726 27.978293,4.8578321 27.5000003,5.13397448 Z" fill="#0052D9" mask="url(#b)"/></g></svg>