<svg width="32" height="32" viewBox="0 0 32 32" xmlns="http://www.w3.org/2000/svg"><path d="M23,26 L23,6 L9,6 L9,26 L23,26 Z M25,26 L28.2675644,26 C28.6133738,25.4021986 29.2597176,25 30,25 C31.1045695,25 32,25.8954305 32,27 C32,28.1045695 31.1045695,29 30,29 C29.2597176,29 28.6133738,28.5978014 28.2675644,28 L1.33333333,28 L1,28 L1,10 L3,10 L3,11 L7,11 L7,6 L3.73243561,6 C3.38662619,6.59780137 2.74028236,7 2,7 C0.8954305,7 0,6.1045695 0,5 C0,3.8954305 0.8954305,3 2,3 C2.74028236,3 3.38662619,3.40219863 3.73243561,4 L30.6666667,4 L31,4 L31,22 L29,22 L29,21 L25,21 L25,26 Z M25,19 L29,19 L29,13 L25,13 L25,19 Z M25,11 L29,11 L29,6 L25,6 L25,11 Z M17,13 L17,22 L15,22 L15,13 L11,13 L11,11 L21,11 L21,13 L17,13 Z M7,26 L7,21 L3,21 L3,26 L7,26 Z M7,13 L3,13 L3,19 L7,19 L7,13 Z" fill="#0052D9" fill-rule="evenodd"/></svg>