<svg data-name="图层 1" xmlns="http://www.w3.org/2000/svg" width="32" height="32" viewBox="0 0 32 32"><g fill="#0052D9"><path d="M16.13,2.16A22.37,22.37,0,0,1,29,6.19v.13A27.58,27.58,0,0,1,16.13,29.51,27.54,27.54,0,0,1,3.28,6.34V6.19a22.32,22.32,0,0,1,12.85-4m0-2A24.46,24.46,0,0,0,1.44,5.05l-.15.11v.18c0,.32,0,.65,0,1a29.45,29.45,0,0,0,14.66,25.4l.19.1.18-.1A29.49,29.49,0,0,0,31,6.32c0-.33,0-.66,0-1V5.16l-.15-.11A24.46,24.46,0,0,0,16.13.16Z"/><path d="M15.92,7.55a5.85,5.85,0,1,1-5.84,5.85,5.85,5.85,0,0,1,5.84-5.85m0-2a7.85,7.85,0,1,0,7.85,7.85,7.84,7.84,0,0,0-7.85-7.85Z"/><path transform="rotate(-45.01 21.755 19.364)" d="M20.76 17.68H22.76V21.06H20.76z"/><path d="M13.06 15.79L11.64 14.38 15.04 10.98 16.9 12.84 18.97 10.76 20.38 12.18 16.9 15.66 15.04 13.81 13.06 15.79z"/></g></svg>