<?xml version="1.0" encoding="UTF-8"?>
<svg width="32px" height="32px" viewBox="0 0 32 32" version="1.1" xmlns="http://www.w3.org/2000/svg" xmlns:xlink="http://www.w3.org/1999/xlink">
    <title>正版曲库直通车 AME 32px</title>
    <g id="页面-2" stroke="none" stroke-width="1" fill="none" fill-rule="evenodd">
        <g id="正版曲库直通车-AME-32px" fill-rule="nonzero">
            <rect id="Rectangle-Copy" fill="#0052d9" opacity="0" x="0" y="0" width="32" height="32"></rect>
            <path d="M27,1 L27,25 L25,25 L25,3 L7,3 L7,29 L27,29 L27,31 L5,31 L5,1 L27,1 Z M18,23 L18,25 L14,25 L14,23 L18,23 Z M13,14 L13,16 L9,16 L9,14 L13,14 Z M22.402,5 C22.402,5 23.402,7.837 20.07,7.872 L20.07,7.872 L22.708,12.645 C22.741,12.699 22.772,12.754 22.8,12.811 L22.8,12.811 L22.804,12.818 C22.879,12.974 22.936,13.142 22.968,13.318 C23.189,14.516 22.263,15.695 20.9,15.951 C19.537,16.207 18.253,15.443 18.033,14.245 C17.811,13.047 18.737,11.868 20.1,11.612 C20.569,11.524 21.028,11.556 21.437,11.685 L21.437,11.685 L18.533,7.44 C18.533,7.44 18.405,7.216 18.533,7.035 C18.533,7.035 19.071,6.078 20.668,5.862 C20.668,5.862 21.932,5.759 22.402,5 Z M17,10 L17,12 L9,12 L9,10 L17,10 Z M17,6 L17,8 L9,8 L9,6 L17,6 Z" id="形状结合" fill="#0052d9"></path>
        </g>
    </g>
</svg>