<svg width="32" height="33" viewBox="0 0 32 33" xmlns="http://www.w3.org/2000/svg"><g fill="none" fill-rule="evenodd"><path fill-opacity=".01" fill="#0052D9" d="M0 0H32V32H0z"/><path d="M15.9993934,31.2427209 L15.6812254,31.0581834 C7.22047117,26.1431483 2.01005595,17.1012603 2,7.31648489 C2,7.01104358 2,6.71408675 2,6.4256144 L2,6.09471965 L2.24817106,5.91018219 C10.3906791,-0.192282953 21.5826542,-0.192282953 29.7251623,5.91018219 L29.9733333,6.09471965 L29.9733333,6.4256144 C29.9733333,6.73105571 29.9733333,7.03649702 29.9733333,7.34193833 C29.9478285,17.1059116 24.7450147,26.1236377 16.3048347,31.03273 L15.9993934,31.2427209 Z" stroke="#0052D9" stroke-width="2"/><path fill="#0052D9" d="M15.004 20H17.003999999999998V24H15.004z"/><rect stroke="#0052D9" stroke-width="2" x="12.274" y="6.667" width="7.451" height="10.453" rx="3.725"/><path d="M10,16.3930131 C10.3014915,16.995986 10.6908456,17.5471916 11.1512368,18.0297692 C12.3721748,19.3095443 14.0927084,20.1066667 15.9990288,20.1066667 C17.9129664,20.1066667 19.6396295,19.3031614 20.8614325,18.0144051 C21.3189494,17.5318168 21.7056745,16.9811863 22.0049323,16.3792243" stroke="#0052D9" stroke-width="2"/></g></svg>