<svg width="32" height="32" viewBox="0 0 32 32" xmlns="http://www.w3.org/2000/svg"><g fill="#0052D9" fill-rule="evenodd"><path d="M26,0 L26,2 L2,2 L2,15.2 C2,15.6 2.3,24.3 13,26.9 C17.5,25.7 20.8,23.4 22.6,20 C23.4105534,18.5210042 23.8883505,16.8828428 24,15.2 L24,6 L26,6 L26,15.2 C26,15.2 25.9,26 13,29 C0.1,26 0,15.2 0,15.2 L0,0 L26,0 Z M7,6 L9,6 L9,19 L7,19 L7,6 Z M12,6 L14,6 L14,19 L12,19 L12,6 Z" transform="translate(3 2)"/><path fill-rule="nonzero" d="M16 8H21V10H16zM16 14H21V16H16zM21 8L21 8C22.1045695 8 23 8.8954305 23 10L23 14C23 15.1045695 22.1045695 16 21 16L21 8z"/></g></svg>