<svg width="32" height="32" viewBox="0 0 32 32" xmlns="http://www.w3.org/2000/svg"><path d="M29,2 L29,4 L5,4 L5,17.2 C5,17.6 5.3,26.3 16,28.9 C20.5,27.7 23.8,25.4 25.6,22 C26.4105534,20.5210042 26.8883505,18.8828428 27,17.2 L27,8 L29,8 L29,17.2 C29,17.2 28.9,28 16,31 C3.1,28 3,17.2 3,17.2 L3,2 L29,2 Z M16,16 C14.8954305,16 14,15.1045695 14,14 C14,12.8954305 14.8954305,12 16,12 C17.1045695,12 18,12.8954305 18,14 C18,15.1045695 17.1045695,16 16,16 Z M22,14 L23.4142136,15.4142136 L22,16.8284271 L20.5857864,15.4142136 L19.1715729,14 L22,11.1715729 L23.4142136,12.5857864 L22,14 Z M10,14 L8.58578644,12.5857864 L10,11.1715729 L12.8284271,14 L11.4142136,15.4142136 L10,16.8284271 L8.58578644,15.4142136 L10,14 Z M16,20 L14.5857864,21.4142136 L13.1715729,20 L14.5857864,18.5857864 L16,17.1715729 L18.8284271,20 L17.4142136,21.4142136 L16,20 Z M16,8 L17.4142136,6.58578644 L18.8284271,8 L16,10.8284271 L14.5857864,9.41421356 L13.1715729,8 L14.5857864,6.58578644 L16,8 Z" fill="#0052D9" fill-rule="evenodd"/></svg>