<svg data-name="图层 1" xmlns="http://www.w3.org/2000/svg" width="32" height="32" viewBox="0 0 32 32"><g fill="#0052D9"><path d="M16,2.21a22.32,22.32,0,0,1,12.85,4v.13A27.53,27.53,0,0,1,16,29.56,27.52,27.52,0,0,1,3.15,6.39V6.24A22.3,22.3,0,0,1,16,2.21m0-2A24.46,24.46,0,0,0,1.31,5.1l-.15.11v.18c0,.33,0,.66,0,1a29.43,29.43,0,0,0,14.66,25.4l.19.11.18-.11A29.46,29.46,0,0,0,30.85,6.38c0-.33,0-.66,0-1V5.21l-.15-.11A24.46,24.46,0,0,0,16,.21Z"/><path d="M16,7.5A5.51,5.51,0,1,1,10.49,13,5.51,5.51,0,0,1,16,7.5m0-2A7.51,7.51,0,1,0,23.51,13,7.51,7.51,0,0,0,16,5.5Z"/><path d="M15 3.97H17V5.88H15zM15 20.37H17V22.28H15z"/><path transform="rotate(-45 21.797 7.331)" d="M20.85 6.33H22.76V8.33H20.85z"/><path transform="rotate(-45 10.208 18.922)" d="M9.25 17.93H11.16V19.93H9.25z"/><path d="M23.25 12.13H25.16V14.13H23.25zM6.85 12.13H8.76V14.13H6.85z"/><path transform="rotate(-45 15.911 13.04)" d="M14.91 4.01H16.91V22.07H14.91z"/><circle cx="14.12" cy="11.71" r="1.99"/><circle cx="19.11" cy="11.1" r=".94"/><circle cx="16" cy="16.48" r="1.15"/></g></svg>