<svg data-name="图层 1" xmlns="http://www.w3.org/2000/svg" width="32" height="32" viewBox="0 0 32 32"><path fill="#0052D9" d="M16.21,2.16a22.32,22.32,0,0,1,12.85,4v.13A27.55,27.55,0,0,1,16.2,29.51,27.58,27.58,0,0,1,3.35,6.34V6.19a22.35,22.35,0,0,1,12.86-4m0-2A24.46,24.46,0,0,0,1.52,5.05l-.15.11v.18c0,.32,0,.65,0,1A29.46,29.46,0,0,0,16,31.74l.18.1.19-.1A29.46,29.46,0,0,0,31.06,6.32c0-.33,0-.66,0-1V5.16l-.15-.11A24.46,24.46,0,0,0,16.21.16Z"/><path fill="#0052D9" d="M19.79,7.7V20.77H12.14V7.7h7.65m2-2H10.14V22.77H21.79V5.7Z"/><path fill="#0052D9" d="M11.44 16.61H20.549999999999997V18.61H11.44zM15.17 10.05L15.17 11.67 15.96 12.44 16.76 11.66 16.76 10.05 15.17 10.05zM16.76 15.64L16.76 14.03 15.97 13.26 15.17 14.03 15.17 15.64 16.76 15.64zM13.17 13.64L14.79 13.64 15.56 12.85 14.78 12.05 13.17 12.05 13.17 13.64zM18.76 12.05L17.15 12.05 16.38 12.84 17.16 13.64 18.76 13.64 18.76 12.05z"/></svg>