<svg width="32" height="32" viewBox="0 0 32 32" xmlns="http://www.w3.org/2000/svg"><g fill="#0052D9" fill-rule="evenodd"><path d="M15.9971143,23.0397858 L22.9942286,19 L23.9942286,20.7320508 L16.0034652,25.3455202 L14.5982276,24.5361606 L14.5958151,24.531982 L8.46509877,21 L8.46150879,21 L8.06364306,20.7687164 L8,20.7320508 L8,11.6169482 L9.07464534,11 L10,11 L10,15.5773503 L16.0147197,19.0499503 L16.0147197,21.3436799 L10,17.8828407 L10,19.5773503 L15.9971143,23.0397858 Z"/><path d="M15.9971143,9.30573437 L9,13.3455202 L8,11.6134694 L14.5958151,7.81353819 L14.5982276,7.80935958 L16.0034652,7 L23.9942286,11.6134694 L22.9942286,13.3455202 L15.9971143,9.30573437 Z"/><path d="M15.9971143,13.6870754 L13.0006384,15.4170916 L13.0006384,13.1131281 L14.5898821,12.2051554 L14.5982276,12.1907006 L16.0110837,11.3759149 L23.343125,15.6188955 L22.343125,17.3509463 L15.9971143,13.6870754 Z" transform="matrix(1 0 0 -1 0 28.727)"/><path d="M22 11L22.9152741 11 24 11.6095833 24 20.7289358 23.5369712 21 22 21z"/><circle cx="23" cy="12" r="2"/><circle cx="9" cy="16" r="2"/><path d="M31.7193022,13.0004945 L29.6779284,13.0004945 C28.3047737,6.70988283 22.7024129,2 16,2 C8.2680135,2 2,8.2680135 2,16 C2,23.7319865 8.2680135,30 16,30 C23.0527724,30 28.8874794,24.7848417 29.8581515,18.0004945 L31.8761508,18.0004945 C30.8917351,25.8928783 24.1590649,32 16,32 C7.163444,32 -2.0250468e-13,24.836556 -2.0250468e-13,16 C-2.0250468e-13,7.163444 7.163444,0 16,0 C23.8113418,0 30.3152783,5.59766728 31.7193022,13.0004945 Z" fill-rule="nonzero"/></g></svg>