<svg width="32" height="32" viewBox="0 0 32 32" xmlns="http://www.w3.org/2000/svg"><path d="M16,1 C23.6062879,1 29.8902661,6.66148088 30.8678804,14.0003885 L28.847129,14.0001641 C27.8851879,7.76990363 22.4996293,3 16,3 C8.82029825,3 3,8.82029825 3,16 C3,23.1797017 8.82029825,29 16,29 C22.4992816,29 27.8846117,24.2306067 28.8469746,18.0008357 L30.8677469,18.0006132 C29.8896942,25.3390343 23.6059418,31 16,31 C7.71572875,31 1,24.2842712 1,16 C1,7.71572875 7.71572875,1 16,1 Z M21.5,9 L23.169,14.006 L20.0042656,14.0063252 C19.5082911,14.1880603 19.1758467,14.5193584 19.0069325,15.0002198 L11.5,15 L11,16 L11,18 L19.002,18 L19.0022693,18.5 C18.4515211,18.9981318 18.0653416,19.4982459 17.843731,20.0003423 L12.5,20 L11.5,22 L9.5,22 L9.5,20 L9,20 L9,17 L9.4,15.4 L8,14 L9.41421356,12.5857864 L10.082,13.254 L11.5,9 L21.5,9 Z M23.4868425,15 L23.4852108,17.1168816 C23.4693982,17.9370175 23.3332039,18.310889 22.8042931,18.5406225 C22.7622336,18.5625152 22.7622336,18.6945421 22.8042931,18.7927561 C22.8463526,18.89097 22.8670465,18.9350552 23.0105715,19.0074931 C23.1540966,19.079931 23.2135027,19.079931 23.4261885,19.1882226 C23.6388744,19.2965142 24.724133,19.7197708 24.724133,20.8026137 L24.724133,21.2100476 C24.724133,21.6603202 24.5064917,21.9236377 24.0712092,22 L19.5484159,22 C19.1061897,22 18.7452701,21.6497377 18.7250132,21.2100476 L18.724133,20.8026137 C18.724133,20.0959465 19.5573044,19.3016868 20.1570874,19.079931 L20.5270566,18.9552784 C20.6047669,18.9292187 20.6669115,18.8695858 20.6964326,18.7927561 C20.7379446,18.6847173 20.735175,18.6005469 20.6881237,18.5402015 C20.1991469,18.3262398 20.041268,17.9626994 20.011865,17.272441 L20.0063795,16.3815747 C20.0063795,15.6335078 20.5975959,15.0243325 21.3357845,15.0007125 L23.4868425,15 Z M20.4994982,11 L12.5,11 L12,13 L21,13 L20.4994982,11 Z" fill="#0052D9" fill-rule="nonzero"/></svg>