<svg width="32" height="32" viewBox="0 0 32 32" xmlns="http://www.w3.org/2000/svg"><g fill="#0052D9" fill-rule="evenodd"><path d="M22,24 L22,0 L0,0 L0,30 L22,30 L22,28 L2,28 L2,2 L20,2 L20,24 L22,24 Z M13,24 L13,22 L9,22 L9,24 L13,24 Z" transform="translate(5 1)" fill-rule="nonzero"/><circle cx="12.5" cy="7.5" r="1.5"/><path d="M19,10.803 L16.868,14 L8.833,13.9992244 L12.5,10 L15.181,12.9242244 L19,7.19722436 L23.534,13.9992244 L21.131,14 L19,10.803 Z M12.5,12.96 L11.546,14 L13.453,14 L12.5,12.96 Z" fill-rule="nonzero"/></g></svg>