<svg width="32" height="32" viewBox="0 0 32 32" xmlns="http://www.w3.org/2000/svg"><g fill="#0052D9" fill-rule="nonzero"><path d="M.074 4H16.074V6H.074zM.074 15H16.074V17H.074z" transform="translate(8 7)"/><path d="M.074 4H2.074V7H.074zM.074 14H2.074V17H.074zM14.074 14H16.073999999999998V17H14.074zM14.074 4H16.073999999999998V7H14.074zM3.074 0H5.074V4H3.074zM11.074 0H13.074V4H11.074z" transform="translate(8 7)"/><path d="M9.074 15H11.074V20H9.074zM12.074 15H14.074V20H12.074z"/><path d="M10.074 15H13.074V16H10.074zM10.074 17H13.074V18H10.074zM16.074 15H20.074V16H16.074zM15.074 17H19.073999999999998V18H15.074z"/><path d="M15.074 15H17.073999999999998V20H15.074zM18.074 15H20.074V18H18.074zM21.074 15H23.074V20H21.074z"/><path d="M31.7193022,13.0004945 L29.6779284,13.0004945 C28.3047737,6.70988283 22.7024129,2 16,2 C8.2680135,2 2,8.2680135 2,16 C2,23.7319865 8.2680135,30 16,30 C23.0527724,30 28.8874794,24.7848417 29.8581515,18.0004945 L31.8761508,18.0004945 C30.8917351,25.8928783 24.1590649,32 16,32 C7.163444,32 -2.0250468e-13,24.836556 -2.0250468e-13,16 C-2.0250468e-13,7.163444 7.163444,0 16,0 C23.8113418,0 30.3152783,5.59766728 31.7193022,13.0004945 Z"/></g></svg>