<svg width="32" height="32" viewBox="0 0 32 32" xmlns="http://www.w3.org/2000/svg"><g fill="#0052D9" fill-rule="evenodd"><g transform="translate(1 3)"><path d="M2 1H29V3H2zM1 23H29V25H1z"/><path d="M1 8H3V25H1zM27 1H29V18H27z"/><circle cx="2" cy="2" r="2"/><circle cx="28" cy="24" r="2"/></g><path d="M14,22 L16,22 L16,24 L10,24 L10,22 L12,22 L12,19 L14,19 L14,22 Z M14,11 L14,10.75 C14,10.243739 13.5522847,9.83333333 13,9.83333333 C12.4477153,9.83333333 12,10.243739 12,10.75 L12,11 L12,19 L10,19 L10,10.75 C10,9.23121694 11.3431458,8 13,8 C14.6568542,8 16,9.23121694 16,10.75 L16,11 L14,11 Z M16,12 L18,12 L18,15 L16,15 L16,12 Z M22,12 L24,12 L24,15 L22,15 L22,12 Z M19,10 L21,10 L21,17 L19,17 L19,10 Z" fill-rule="nonzero"/><path d="M15.907776,17 L17.938968,17 C17.6626101,19.2499752 15.5431249,21 12.969484,21 C10.3958431,21 8.27635794,19.2499752 8,17 L10.031192,17 C10.3078699,18.1105503 11.4856768,19 12.969484,19 C14.4532913,19 15.6310981,18.1105503 15.907776,17 Z" fill-rule="nonzero"/></g></svg>