<svg width="32" height="32" viewBox="0 0 32 32" xmlns="http://www.w3.org/2000/svg"><g fill="#0052D9" fill-rule="nonzero"><path d="M28.9352234,13.6933096 C28.3733256,13.3392368 28,12.7132158 28,12 C28,10.8954305 28.8954305,10 30,10 C31.1045695,10 32,10.8954305 32,12 C32,12.7609481 31.5750323,13.4226397 30.9494824,13.7606894 C30.9830721,14.171065 31,14.5844202 31,15 C31,23.2842712 24.2842712,30 16,30 C10.6831171,30 5.84733799,27.2101142 3.14996028,22.7420315 L4.86214557,21.7083867 C7.20108387,25.5827309 11.390997,28 16,28 C23.1797017,28 29,22.1797017 29,15 C29,14.5609781 28.9782681,14.1250408 28.9352234,13.6933096 Z M3.00272646,15.2691444 C3.59902395,15.6153402 4,16.2608436 4,17 C4,18.1045695 3.1045695,19 2,19 C0.8954305,19 0,18.1045695 0,17 C0,16.2587612 0.403238605,15.6117038 1.00231811,15.2662255 C1.00077338,15.1775817 1,15.0888375 1,15 C1,6.71572875 7.71572875,0 16,0 C20.8881244,0 25.3834233,2.35595998 28.184178,6.24915012 L26.5606463,7.41711622 C24.131791,4.04088499 20.2376722,2 16,2 C8.82029825,2 3,7.82029825 3,15 C3,15.0898397 3.00090979,15.1795575 3.00272646,15.2691444 Z" transform="translate(0 1)"/><path d="M5 9L9 9C11.761 9 14 11.238 14 14L12 14C12 12.346 10.654 11 9 11L5 11C3.346 11 2 12.346 2 14L0 14C0 11.239 2.239 9 5 9zM3 4C3 1.791 4.791 0 7 0 9.209 0 11 1.791 11 4 11 6.209 9.209 8 7 8 4.791 8 3 6.209 3 4zM7 6C8.105 6 9 5.105 9 4 9 2.895 8.105 2 7 2 5.895 2 5 2.895 5 4 5 5.105 5.895 6 7 6z" transform="translate(9 9)"/></g></svg>