<svg data-name="图层 1" xmlns="http://www.w3.org/2000/svg" width="32" height="32" viewBox="0 0 32 32"><path fill="#0052D9" d="M16.21,2.16a22.32,22.32,0,0,1,12.85,4v.13A27.55,27.55,0,0,1,16.2,29.51,27.58,27.58,0,0,1,3.35,6.34V6.19a22.35,22.35,0,0,1,12.86-4m0-2A24.46,24.46,0,0,0,1.52,5.05l-.15.11v.18c0,.32,0,.65,0,1A29.46,29.46,0,0,0,16,31.74l.18.1.19-.1A29.46,29.46,0,0,0,31.06,6.32c0-.33,0-.66,0-1V5.16l-.15-.11A24.46,24.46,0,0,0,16.21.16Z"/><path fill="#0052D9" d="M18.94,19.78a3.66,3.66,0,0,1-3.66-3.65v-6h2v6a1.65,1.65,0,0,0,1.66,1.65,1.7,1.7,0,0,0,1.7-1.65V10.87h2v5.26A3.68,3.68,0,0,1,18.94,19.78Z"/><path fill="#0052D9" d="M12,16.6H10V10.1a3.66,3.66,0,0,1,7.31,0v6.07h-2V10.1a1.66,1.66,0,0,0-1.66-1.65A1.63,1.63,0,0,0,12,10.1Z"/><circle fill="#0052D9" cx="21.64" cy="8.99" r="2.2"/><circle fill="#0052D9" cx="10.97" cy="17.79" r="1.95"/></svg>