<svg width="32" height="32" viewBox="0 0 32 32" xmlns="http://www.w3.org/2000/svg"><g fill="#0052D9" fill-rule="nonzero"><path d="M23.9953261 15.8947857L23.9953261 11.6101249 21.0702676 9.99950545 18.9273675 11.2177945 21.5524201 12.6425733 16.495176 15.4301839 11.4379319 12.6425733 14.0308409 11.2177945 11.8879409 9.99950545 8.99502581 11.6101249 8.99502581 15.8947857 11.1379259 17.1337237 11.1379259 14.8520128 15.4237259 17.2163196 15.4237259 21.0363786 13.2808259 19.8697119 13.2808259 22.2443432 16.495176 23.9995055 19.709526 22.2340187 19.709526 19.8697119 17.566626 21.0467031 17.566626 17.2266441 21.8524261 14.8623373 21.8524261 17.1440482z"/><path d="M32.7143281,13 L30.6729542,13 C29.2997995,6.70938829 23.6974387,1.99950545 16.9950258,1.99950545 C9.26303931,1.99950545 2.99502581,8.26751895 2.99502581,15.9995055 C2.99502581,23.7314919 9.26303931,29.9995055 16.9950258,29.9995055 C24.0477983,29.9995055 29.8825052,24.7843472 30.8531773,18 L32.8711766,18 C31.8867609,25.8923837 25.1540907,31.9995055 16.9950258,31.9995055 C8.15846981,31.9995055 0.995025809,24.8360614 0.995025809,15.9995055 C0.995025809,7.16294945 8.15846981,-0.000494549094 16.9950258,-0.000494549094 C24.8063676,-0.000494549094 31.3103041,5.59717273 32.7143281,13 Z"/></g></svg>