<svg width="32" height="32" viewBox="0 0 32 32" xmlns="http://www.w3.org/2000/svg"><g fill="none" fill-rule="evenodd"><path fill="#0052D9" fill-rule="nonzero" d="M15 18H17V20H15zM12 18H14V20H12zM18 18H20V20H18z"/><path stroke="#0052D9" stroke-width="2" d="M10 16H22V22H10zM18 13.1640536C17.6031821 12.4687265 16.8547613 12 15.9968635 12 15.1434655 12 14.398399 12.4638224 14 13.1531312"/><path d="M21.8398631,14.0215474 C21.3726929,11.1732398 18.8997636,9 15.919247,9 C12.9416299,9 10.470613,11.1690134 10,14.0132365" stroke="#0052D9" stroke-width="2"/><path d="M31.7193022,13.0004945 L29.6779284,13.0004945 C28.3047737,6.70988283 22.7024129,2 16,2 C8.2680135,2 2,8.2680135 2,16 C2,23.7319865 8.2680135,30 16,30 C23.0527724,30 28.8874794,24.7848417 29.8581515,18.0004945 L31.8761508,18.0004945 C30.8917351,25.8928783 24.1590649,32 16,32 C7.163444,32 -2.0250468e-13,24.836556 -2.0250468e-13,16 C-2.0250468e-13,7.163444 7.163444,0 16,0 C23.8113418,0 30.3152783,5.59766728 31.7193022,13.0004945 Z" fill="#0052D9" fill-rule="nonzero"/></g></svg>