<svg width="32" height="32" viewBox="0 0 32 32" xmlns="http://www.w3.org/2000/svg"><g fill="#0052D9" fill-rule="evenodd"><path d="M32.7143281,13 L30.6729542,13 C29.2997995,6.70938829 23.6974387,1.99950545 16.9950258,1.99950545 C9.26303931,1.99950545 2.99502581,8.26751895 2.99502581,15.9995055 C2.99502581,23.7314919 9.26303931,29.9995055 16.9950258,29.9995055 C24.0477983,29.9995055 29.8825052,24.7843472 30.8531773,18 L32.8711766,18 C31.8867609,25.8923837 25.1540907,31.9995055 16.9950258,31.9995055 C8.15846981,31.9995055 0.995025809,24.8360614 0.995025809,15.9995055 C0.995025809,7.16294945 8.15846981,-0.000494549094 16.9950258,-0.000494549094 C24.8063676,-0.000494549094 31.3103041,5.59717273 32.7143281,13 Z" fill-rule="nonzero"/><g transform="translate(8.733 7)"><path d="M7.27537309 3.71694399L7.27537309 6.17384238C7.58884976 6.06202905 7.92129477 5.99014904 8.27370644 5.99014904 8.62611812 5.99014904 8.95856313 6.06202905 9.2720398 6.17384238L9.2720398 3.71694399C9.86604815 3.37052231 10.2703732 2.73458397 10.2703732 1.99681562 10.2703732.893657255 9.3768648.000148900402 8.27370644.000148900402 7.17054808.000148900402 6.27703973.893657255 6.27703973 1.99681562 6.27703973 2.73358563 6.68136474 3.37052231 7.27537309 3.71694399zM8.27370644 6.9884824C7.17054808 6.9884824 6.27703973 7.88199076 6.27703973 8.98514912 6.27703973 9.72191913 6.68136474 10.3588558 7.27537309 10.7052775L7.27537309 13.1621759C7.58884976 13.0503625 7.92129477 12.9784825 8.27370644 12.9784825 8.62611812 12.9784825 8.95856313 13.0503625 9.2720398 13.1621759L9.2720398 10.7052775C9.86604815 10.3588558 10.2703732 9.72291747 10.2703732 8.98514912 10.2703732 7.88199076 9.3768648 6.9884824 8.27370644 6.9884824z"/><circle cx="8.274" cy="15.973" r="1.997"/><circle cx="2.284" cy="12.978" r="1.997"/><circle cx="14.264" cy="12.978" r="1.997"/><path d="M4.25840968 4.77417902C4.14859301 3.77484732 3.31198966 2.99514897 2.2837063 2.99514897 1.18054794 2.99514897.287039585 3.88865733.287039585 4.99181569.287039585 5.72858571.691364595 6.36552239 1.28537294 6.71194406L1.28537294 10.1671758C1.59884962 10.0553625 1.93129462 9.98348247 2.2837063 9.98348247 2.63611797 9.98348247 2.96856298 10.0553625 3.28203966 10.1671758L3.28203966 6.82275906 5.32562804 8.52491744C5.44942138 7.72525242 5.88569305 7.03440574 6.5096514 6.57617073L4.25840968 4.77417902zM13.2653732 10.1671758C13.5788499 10.0553625 13.9112949 9.98348247 14.2637066 9.98348247 14.6161183 9.98348247 14.9485633 10.0553625 15.2620399 10.1671758L15.2620399 6.71194406C15.8560483 6.36552239 16.2603733 5.72958404 16.2603733 4.99181569 16.2603733 3.88865733 15.3668649 2.99514897 14.2637066 2.99514897 13.2354232 2.99514897 12.3988199 3.77484732 12.2890032 4.77417902L10.0377615 6.57517239C10.6627182 7.0334074 11.0979915 7.72525242 11.2217848 8.52391911L13.2653732 6.82176073 13.2653732 10.1671758z"/></g></g></svg>