<svg width="32" height="32" viewBox="0 0 32 32" xmlns="http://www.w3.org/2000/svg"><g fill="none" fill-rule="evenodd"><path d="M19.0027636,2.31029358 C25.3652077,3.6985124 30,9.36407143 30,15.9879795 C30,22.6036832 25.3765156,28.2642946 19.0245358,29.6608928 L19.0261608,31.7022028 C26.4157656,30.2876389 32,23.7899431 32,15.9879795 C32,8.17721222 26.403156,1.67365786 19.0011386,0.26898713 L19.0027636,2.31029358 Z M12.982379,29.6624122 L12.979174,31.7032231 C5.58692221,30.2907659 0,23.7918205 0,15.9879795 C0,8.16677342 5.61181397,1.65627668 13.0285486,0.26338259 L13.0253437,2.30418665 C6.64932669,3.68157356 2,9.3535501 2,15.9879795 C2,22.6062215 6.62699764,28.2684497 12.982379,29.6624122 Z" fill="#0052D9" fill-rule="nonzero" transform="rotate(45 16 15.983)"/><circle fill="#0052D9" cx="29" cy="8" r="2"/><circle fill="#0052D9" cx="3" cy="24" r="2"/><circle stroke="#0052D9" stroke-width="2" cx="16" cy="12" r="3"/><path d="M19.4786958,17 L20.5105652,17.749697 L18.6942088,23.3398669 L12.8163563,23.3398669 L11,17.749697 L12.0318693,17 C13.0549363,17.8106859 14.3485761,18.2947819 15.7552826,18.2947819 C17.1619891,18.2947819 18.4556288,17.8106859 19.4786958,17 Z" stroke="#0052D9" stroke-width="2"/></g></svg>