<svg data-name="图层 1" xmlns="http://www.w3.org/2000/svg" width="32" height="32" viewBox="0 0 32 32"><path fill="#0052D9" d="M16.21,2.16a22.32,22.32,0,0,1,12.85,4v.13A27.55,27.55,0,0,1,16.2,29.51,27.58,27.58,0,0,1,3.35,6.34V6.19a22.35,22.35,0,0,1,12.86-4m0-2A24.46,24.46,0,0,0,1.52,5.05l-.15.11v.18c0,.32,0,.65,0,1A29.46,29.46,0,0,0,16,31.74l.18.1.19-.1A29.46,29.46,0,0,0,31.06,6.32c0-.33,0-.66,0-1V5.16l-.15-.11A24.46,24.46,0,0,0,16.21.16Z"/><path fill="#0052D9" d="M11.95 4.93H13.95V9.309999999999999H11.95zM18.44 4.93H20.44V9.309999999999999H18.44zM12.56 15.28L13.79 15.28 13.79 19.86 15.79 19.86 15.79 15.28 15.79 14.09 15.79 11.59 12.56 15.28zM19.86 18.17L18.63 18.17 18.63 13.59 16.63 13.59 16.63 18.17 16.63 19.36 16.63 21.86 19.86 18.17z"/><path fill="#0052D9" d="M8.56 8.62L8.56 17.72 12.05 17.72 12.05 15.72 10.56 15.72 10.56 10.62 21.85 10.62 21.85 15.72 20.37 15.72 20.37 17.72 23.85 17.72 23.85 8.62 8.56 8.62z"/></svg>