<svg width="32" height="32" viewBox="0 0 32 32" xmlns="http://www.w3.org/2000/svg"><g fill="#0052D9" fill-rule="evenodd"><path fill-rule="nonzero" d="M4 4H30V6H4zM2 26H30V28H2z"/><path fill-rule="nonzero" d="M2 11H4V28H2zM28 4H30V21H28z"/><circle fill-rule="nonzero" cx="3" cy="5" r="2"/><circle fill-rule="nonzero" cx="29" cy="27" r="2"/><path d="M26,10 L26,24 L6,24 L6,10 L13.1713525,9.99817202 C13.0603889,10.3114674 13,10.6486814 13,11 C13,11.3506022 13.0601428,11.6871573 13.1706743,11.9999111 L8,12 L8,22 L24,22 L24,12 L18.8293257,11.9999111 C18.9398572,11.6871573 19,11.3506022 19,11 C19,10.6486814 18.9396111,10.3114674 18.8286475,9.99817202 L26,10 Z" fill-rule="nonzero"/><path d="M15 18H22V20H15zM10 18H13V20H10z"/><path d="M16,15 C18.209139,15 20,13.209139 20,11 C20,8.790861 18.209139,7 16,7 C13.790861,7 12,8.790861 12,11 C12,13.209139 13.790861,15 16,15 Z M16,13 C14.8954305,13 14,12.1045695 14,11 C14,9.8954305 14.8954305,9 16,9 C17.1045695,9 18,9.8954305 18,11 C18,12.1045695 17.1045695,13 16,13 Z" fill-rule="nonzero"/><path d="M14.5 13L17.5 13 19 16 13 16z"/></g></svg>