<svg width="32" height="32" viewBox="0 0 32 32" xmlns="http://www.w3.org/2000/svg"><g fill="none" fill-rule="evenodd"><g transform="translate(1 3)" fill="#0052D9"><g fill-rule="nonzero"><path transform="rotate(90 6.783 18.802)" d="M-4 4H6V6H-4z"/><path transform="rotate(90 10.783 18.802)" d="M0 4H10V6H0z"/><path transform="rotate(90 8.783 14.802)" d="M2 0H4V2H2z"/><path transform="rotate(90 8.783 18.802)" d="M2 4H4V6H2z"/></g><path d="M4.09254928,0 C5.14500501,0 6,0.84345679 6,1.87950617 L6,8.11950617 C6,9.15753086 5.14500501,10 4.09254928,10 L0,10 L0,0 L4.09254928,0 Z M3.995,6 L2,6 L2,8.024 L3.99532242,8.02469136 L3.995,6 Z M3.99532242,1.97530864 L2,1.975 L2,4 L3.995,4 L3.99532242,1.97530864 Z" fill-rule="nonzero" transform="translate(4.597 8.019)"/><path d="M14 10L14 0 12 0 10.5 5 9 0 7 0 7 10 9 10 9 6.25 10.5 10 12 6.25 12 10z" transform="translate(4.597 8.019)"/><path d="M1 8H3V25H1zM2 1H29V3H2z"/><path d="M1 23H29V25H1zM27 1H29V18H27z"/><circle cx="2" cy="2" r="2"/><circle cx="28" cy="24" r="2"/></g></g></svg>