<svg width="32" height="32" viewBox="0 0 32 32" xmlns="http://www.w3.org/2000/svg"><g fill="none" fill-rule="evenodd"><path d="M16,0 C23.811235,0 30.3151005,5.59751424 31.7192447,13.000191 L29.677892,13.0003278 C28.3046747,6.70979962 22.7023537,2 16,2 C8.2680135,2 2,8.2680135 2,16 C2,23.7319865 8.2680135,30 16,30 C23.052652,30 28.8872801,24.7850199 29.8581018,18.0008423 L31.8761139,18.0007904 C30.8915668,25.8930309 24.1589629,32 16,32 C7.163444,32 3.55271368e-15,24.836556 3.55271368e-15,16 C3.55271368e-15,7.163444 7.163444,0 16,0 Z" fill="#0052D9" fill-rule="nonzero"/><g transform="translate(8 9)"><path d="M11.9112999,1.08207052e-05 C12.6787247,1.08207052e-05 13.3552928,0.508697641 13.5741488,1.25011174 L14.386,4 L12.293,4 L11.7155276,2.04463817 L4.28331592,2.04463817 L3.06127388,6.19064427 C2.97775294,6.47484788 2.86148101,6.74783138 2.71410227,7.00653546 L2.59776138,7.19783832 L2.0212949,8.08237983 L2.63739008,11.4724736 L3.47855201,10.204685 L6,10.204 L6,12.249 L4.5416218,12.2499904 L3.89591068,13.2235704 C3.5710869,13.7102905 3.03112161,14.0010823 2.45420348,14.0000108 L2.21991891,14.0000108 C1.55132563,14.0028394 0.975671029,13.5188938 0.85021136,12.8484884 L0.0285011188,8.33117064 C-0.052082424,7.88793063 0.0397504514,7.43008088 0.284499855,7.0548417 L0.929639553,6.06492846 C1.02221053,5.92201228 1.09421017,5.76626282 1.14220994,5.60293006 L2.42563219,1.2512784 C2.64909952,0.505590383 3.32459951,-0.0027037947 4.08848116,1.08207052e-05 L11.9112999,1.08207052e-05 Z" fill="#0052D9" fill-rule="nonzero"/><rect stroke="#0052D9" stroke-width="2" x="8" y="9" width="7" height="4" rx=".1"/><path d="M14,7.00001082 L12,7.00001082 L12,6.00001082 L11,6.00001082 L11,7.00001082 L9,7.00001082 L9,6.00001082 C9,5.44772607 9.44771525,5.00001082 10,5.00001082 L13,5.00001082 C13.5128358,5.00001082 13.9355072,5.38605101 13.9932723,5.8833897 L14,6.00001082 L14,7.00001082 Z" fill="#0052D9"/></g></g></svg>