<svg width="32" height="32" viewBox="0 0 32 32" xmlns="http://www.w3.org/2000/svg"><path d="M16.0743669,29 C22.6045826,29 27.999196,24.228 28.9679753,18 L30.998995,18 C30.0141364,25.336 23.7160659,31 16.0743669,31 C7.74929653,31 1,24.284 1,16 C1,7.716 7.74929653,1 16.0743669,1 C23.7160659,1 30.0141364,6.664 31,14 L28.9689803,14 C27.999196,7.772 22.6045826,3 16.0743669,3 C8.85876993,3 3.00991558,8.82 3.00991558,16 C3.00991558,23.18 8.85876993,29 16.0743669,29 Z M12.4142136,19.6568542 L11,18.2426407 L12.4142,16.8284407 L13.8284136,18.2426542 L16.6567461,15.4143217 L18.0709461,16.8285217 L13.8284136,21.0710542 L12.4142136,19.6568542 Z M10,12 L10,9 L24,9 L24,22 L21,22 L21,24 L8,24 L8,12 L10,12 Z M12,12 L21,12 L21,20 L22,20 L22,11 L12,11 L12,12 Z M10,14 L10,22 L19,22 L19,14 L10,14 Z" fill="#0052D9" fill-rule="nonzero"/></svg>