<svg width="32" height="32" viewBox="0 0 32 32" xmlns="http://www.w3.org/2000/svg"><g fill="none" fill-rule="evenodd"><g fill="#0052D9"><path d="M27.8,17 C26.8,23.2 21.5,28 15,28 C7.8,28 2,22.2 2,15 C2,7.8 7.8,2 15,2 C21.5,2 26.9,6.8 27.8,13 L29.8,13 C28.9,5.7 22.6,0 15,0 C6.7,0 0,6.7 0,15 C0,23.3 6.7,30 15,30 C22.6,30 28.9,24.3 29.9,17 L27.8,17 Z" transform="translate(1 1)" fill-rule="nonzero"/><path d="M23,8 L23,14 L20.999,14 L21,10 L11,10 L11,22 L15.999,22 L16,24 L9,24 L9,8 L23,8 Z M21,15 C22.6568542,15 24,16.3431458 24,18 C24,19.3058822 23.1656226,20.4168852 22.0009007,20.8289758 L22,22 L24,22 L24,24 L18,24 L18,22 L20,22 L20.0000889,20.8293257 C18.8348501,20.4175144 18,19.3062521 18,18 C18,16.3431458 19.3431458,15 21,15 Z M21,17 C20.4477153,17 20,17.4477153 20,18 C20,18.5522847 20.4477153,19 21,19 C21.5522847,19 22,18.5522847 22,18 C22,17.4477153 21.5522847,17 21,17 Z M17,16 L17,18 L13,18 L13,16 L17,16 Z M19,12 L19,14 L13,14 L13,12 L19,12 Z"/></g><path d="M1.73564892,36.2179599 L42.2048316,36.2179599 L42.2048317,36.2179599 C43.1148685,36.2179599 43.8526003,35.4801947 43.8526003,34.5701578 L43.8526003,27.8033147 C43.8526003,25.2877237 41.4578464,23.2444708 38.5248082,23.2444708 L33.8121912,23.2444708 C30.1102047,23.2444708 26.4411832,21.5857167 26.2654307,19.8281008 L26.2654307,19.3447566 C26.2654307,17.9386622 27.8143333,15.6757269 28.8249639,14.5332942 L28.8249642,14.5332939 C30.1482257,12.9468449 30.8646089,10.9417528 30.8462254,8.87597612 L30.8462254,8.87597612 C30.8462254,3.97391585 26.8723174,2.02381971e-05 21.9702695,2.02381971e-05 C17.0682093,2.02381971e-05 13.0943137,3.97392823 13.0943137,8.87597612 L13.0943136,8.87594656 C13.0979608,10.947484 13.8332783,12.9511452 15.170482,14.5333055 C15.9943663,15.4560558 17.6970585,17.8288426 17.6970585,19.3008504 L17.6970585,19.7841946 C17.5212965,21.5418146 13.852268,23.2005646 10.1502981,23.2005646 L5.41574292,23.2005646 C2.48271707,23.2005646 0.0879508352,25.2437969 0.0879508352,27.7594085 L0.0879508352,34.5262516 L0.0879508035,34.5262528 C0.0636837598,35.435968 0.781480475,36.1931059 1.69119152,36.2173739 C1.7060304,36.2179599 1.72087394,36.2179599 1.7357181,36.2179599 L1.73564892,36.2179599 Z M3.383417,27.8033312 C3.383417,27.2101355 4.25123986,26.5400409 5.41566422,26.5400409 L10.1282812,26.5400409 C15.1374755,26.5400409 20.5531438,24.1562684 20.9486076,20.1466821 L20.9486076,20.1466827 C20.9653019,19.8796386 20.9653019,19.6118127 20.9486077,19.3447695 C20.9486077,16.2249973 17.9277014,12.7536789 17.6530706,12.4131429 L17.6530703,12.4131425 C16.8165386,11.4265243 16.3675202,10.169267 16.3897841,8.87593545 L16.3897841,8.87593629 C16.3897836,5.79394554 18.8882328,3.2954845 21.9702359,3.2954845 C25.0522266,3.2954845 27.5506877,5.79393317 27.5506877,8.87593629 C27.5506877,8.87593629 27.5506877,8.87593629 27.5506877,8.87593629 L27.5506876,8.87593146 C27.5826336,10.1476465 27.1622196,11.3894276 26.3642962,12.380186 C26.0127726,12.764665 22.9918643,16.2249765 22.9918643,19.344761 L22.9918644,19.3447601 C22.9751701,19.6118041 22.9751701,19.87963 22.9918642,20.1466732 C23.3873284,24.156243 28.8029964,26.5400319 33.8121906,26.5400319 L38.5248076,26.5400319 C39.689232,26.5400319 40.5570544,27.2101224 40.5570544,27.8033223 L40.5570544,32.9223721 L3.383417,32.9223721 L3.383417,27.8033312 Z M42.2926832,38.9312451 L1.64774792,38.9312451 L1.64774786,38.9312451 C0.737711037,38.9313891 0.000239112195,39.6692366 0.000239112195,40.5792734 C0.000239112195,41.4891082 0.737913099,42.2266378 1.64774786,42.2267822 L42.2926831,42.2267822 L42.292683,42.2267822 C43.2027198,42.2266382 43.9401918,41.4887906 43.9401918,40.5787538 C43.9401918,39.6689191 43.2025178,38.9313894 42.292683,38.9312451 L42.2926832,38.9312451 Z" transform="translate(29 25)" fill="#0052D9" fill-rule="nonzero"/></g></svg>