<svg data-name="图层 1" xmlns="http://www.w3.org/2000/svg" width="32" height="32" viewBox="0 0 32 32"><path fill="none" d="M0 0H32V32H0z"/><path fill="#0052D9" d="M16.21.15A24.47,24.47,0,0,0,1.51,5l-.15.11v.18c0,.33,0,.66,0,1A29.49,29.49,0,0,0,16,31.74l.19.11.19-.11A29.49,29.49,0,0,0,31.07,6.32c0-.33,0-.66,0-1V5.15L30.91,5A24.51,24.51,0,0,0,16.21.15Zm0,29.37A27.6,27.6,0,0,1,3.34,6.33V6.18a22.55,22.55,0,0,1,25.73,0v.13A27.56,27.56,0,0,1,16.2,29.52Z"/><path fill="#0052D9" d="M16,22.33A9.76,9.76,0,0,1,9.24,5.52L10.63,7a7.68,7.68,0,0,0-2.4,5.61,7.77,7.77,0,0,0,15.53,0A7.68,7.68,0,0,0,21.39,7l1.39-1.44A9.76,9.76,0,0,1,16,22.33Z"/><path fill="#0052D9" d="M12.11,16.33a5.57,5.57,0,0,1-1.74-4.06,5.63,5.63,0,1,1,9.54,4l-1.39-1.43a3.63,3.63,0,1,0-5,0Z"/><path fill="#0052D9" d="M16.66 11.09L15.43 11.09 14.46 14.43 15.75 14.43 15.15 17.7 17.37 13.02 16.06 13.02 16.66 11.09 16.66 11.09z"/></svg>