<svg width="32" height="32" viewBox="0 0 32 32" xmlns="http://www.w3.org/2000/svg"><g stroke="#0052D9" stroke-width="2" fill="none" fill-rule="evenodd"><path d="M14.652,1 C9.56084824,1 4.8470404,2.65194412 1,5.94336187 C1,16.3512368 6.46868061,25.4750128 14.6518636,30.5131087 C22.834527,25.4750295 28.304,16.3512541 28.2997111,5.45586052 C24.456774,2.6521593 19.7432081,1 14.652,1 Z" transform="translate(1)"/><path d="M7.92,25.344 C15.84,22.88 19.8,19.272 19.8,14.52 C19.8,10.56 17.16,8.58 14.52,8.58 C11.88,8.58 9.24,10.56 9.24,14.52 C9.24,18.48 12.34,20.34 13,21" transform="translate(1)"/><path d="M17.3709411,22.5459775 L20.4486434,25.8175777 L17.3709411,22.5459775 Z" transform="rotate(-15 19.41 20.384)"/></g></svg>