<svg width="32" height="32" viewBox="0 0 32 32" xmlns="http://www.w3.org/2000/svg"><g fill="#0052D9" fill-rule="evenodd"><path d="M26,2 L26,0 L0,0 L0,15.2 C0,15.2 0.1,26 13,29 C25.9,26 26,15.2 26,15.2 L26,6 L24,6 L24,15.2 C23.8883505,16.8828428 23.4105534,18.5210042 22.6,20 C20.8,23.4 17.5,25.7 13,26.9 C2.3,24.3 2,15.6 2,15.2 L2,2 L26,2 Z" transform="translate(3 2)"/><path d="M11,13.085 L15,13.085 L15,11.085 L11,11.085 L11,13.085 Z M9.544,8.085 L7,8.085 L4,12.085 L7,16.085 L9.539,16.085 L6.539,12.085 L9.544,8.085 Z M19,8.085 L16.458,8.085 L19.458,12.085 L16.458,16.085 L19,16.085 L22,12.085 L19,8.085 Z" fill-rule="nonzero" transform="translate(3 2)"/></g></svg>