<svg data-name="图层 1" xmlns="http://www.w3.org/2000/svg" width="32" height="32" viewBox="0 0 32 32"><path fill="#0052D9" d="M16.21,2.15a22.37,22.37,0,0,1,12.86,4v.13A27.56,27.56,0,0,1,16.2,29.52,27.6,27.6,0,0,1,3.34,6.33V6.18a22.36,22.36,0,0,1,12.87-4m0-2A24.47,24.47,0,0,0,1.51,5l-.15.11v.18c0,.33,0,.66,0,1A29.5,29.5,0,0,0,16,31.74l.19.11.19-.11A29.49,29.49,0,0,0,31.07,6.32c0-.33,0-.66,0-1V5.15L30.91,5A24.51,24.51,0,0,0,16.21.15Z"/><path fill="#0052D9" d="M24.64,18.09H7.77V7.67H24.64Zm-14.87-2H22.64V9.67H9.77Z"/><path fill="#0052D9" d="M11.15 13.76l.38-.63-.66-.28.11-.36.7.17.07-.74h.38l.06.73.7-.16.12.36-.66.28.38.63-.31.22-.48-.56-.48.56zM14 13.76l.38-.63-.66-.28.12-.36.69.17.07-.74H15l.06.73.7-.16.12.36-.66.28.38.63-.31.22-.48-.56-.48.56zM16.8 13.76l.37-.63-.66-.28.12-.36.7.17.06-.74h.38l.06.73.7-.16.12.36-.66.28.38.63-.3.22-.49-.56L17.1 14zM19.62 13.76l.37-.63-.66-.28.12-.36.7.17.06-.74h.38l.06.73.7-.16.12.36-.66.28.38.63-.3.22-.49-.56-.48.56z"/></svg>