<svg width="32" height="32" viewBox="0 0 32 32" xmlns="http://www.w3.org/2000/svg"><g fill="none" fill-rule="evenodd"><g transform="translate(1 3)" fill="#0052D9"><path d="M3 1H29V3H3zM1 23H29V25H1z"/><path d="M1 8H3V25H1zM27 1H29V18H27z"/><circle cx="2" cy="2" r="2"/><circle cx="28" cy="24" r="2"/></g><path stroke="#0052D9" d="M21.5 20.5H24.5V21.5H21.5zM21.5 15.5H24.5V16.5H21.5zM19.5 10.5H24.5V11.5H19.5z"/><path d="M12.5 15C11.4005612 15 10.5 14.0994388 10.5 13 10.5 11.9005612 11.4005612 11 12.5 11 13.5994388 11 14.5 11.9005612 14.5 13 14.5 14.1096045 13.6080222 15 12.5 15zM8 20.6538462C8 19.1905043 9.37675619 18 11.0544402 18L13.9455598 18C15.6232438 18 17 19.1905043 17 20.6538462L17 21 8 21 8 20.6538462z" stroke="#0052D9" stroke-width="2"/></g></svg>