<svg width="32" height="32" viewBox="0 0 32 32" xmlns="http://www.w3.org/2000/svg" xmlns:xlink="http://www.w3.org/1999/xlink"><defs><path d="M0 0L30 0 30 32 0 32z"/></defs><g fill="none" fill-rule="evenodd"><g transform="translate(1)"><mask fill="#0052D9"><use xlink:href="#a"/></mask><path d="M15.0004742,0 C9.24597345,0 4.04105989,2.13373291 0.0117338039,5.01267403 C0.0117338039,5.01267403 -0.968902084,22.2104014 14.9994945,32 L15.0004742,32 C30.9698504,22.2104014 29.9882349,5.01267403 29.9882349,5.01267403 C25.9598884,2.13373291 20.7539952,0 15.0004742,0 M15.0004742,1.99787726 C20.5463081,1.99787726 25.0409709,4.10164201 28.0416579,6.0825373 C27.9740616,9.59580446 26.8552942,21.7598801 14.9994945,29.6435038 C3.14271512,21.7578823 2.02492736,9.58981083 1.95929039,6.08353624 C4.95997743,4.10264094 9.45464023,1.99787726 15.0004742,1.99787726" fill="#0052D9" mask="url(#b)"/></g><path d="M16,6 C14.7345292,6 13.5787947,6.47003165 12.6981476,7.24526758 C11.8070054,8.02974228 11.1968778,9.12637342 11.0404097,10.3646596 C11.012027,10.5892803 10.999262,10.8130996 11.0013698,11.0348754 C10.7885618,11.0653437 10.5773572,11.1155092 10.3707282,11.1858913 C9.67169666,11.4239961 9.07242317,11.8773364 8.65100177,12.4663703 C8.24096538,13.0394909 8,13.7416402 8,14.5 C8,15.3956614 8.33643205,16.2126423 8.8892974,16.8346158 C9.43918294,17.453237 10.2026899,17.8798363 11.0636044,17.999821 L20.940764,17.9726186 C21.7996725,17.8649796 22.5614082,17.4454931 23.1100951,16.8318899 C23.6636139,16.2128832 24,15.3957056 24,14.5 C24,13.7416541 23.759045,13.0395174 23.3490812,12.4663871 C22.9277076,11.8773058 22.3285216,11.4239041 21.6296623,11.1857498 C21.4232121,11.1153966 21.2121799,11.0652301 20.9994134,11.034856 C21.0013673,10.8131999 20.9885587,10.5893677 20.9601344,10.3647393 C20.8034371,9.12641094 20.1931514,8.02972879 19.3018824,7.24522568 C18.4211794,6.47002291 17.2654579,6 16,6 Z" stroke="#0052D9" stroke-width="2"/><path stroke="#0052D9" stroke-width="2" d="M19 11L15.3670968 14 13 12.0714286"/></g></svg>