<svg width="32" height="32" viewBox="0 0 32 32" xmlns="http://www.w3.org/2000/svg"><path d="M11.3571668,8 C8.65333764,9.62820076 7,12.5537792 7,15.71 C7,18.8662208 8.65333764,21.7917992 11.3571668,23.42 L12.3571668,21.71 C10.2510441,20.4443777 8.96271809,18.1671432 8.96271809,15.71 C8.96271809,13.2528568 10.2510441,10.9756223 12.3571668,9.71 L11.3571668,8 Z M9.26194469,4.71 L8.26194469,3 C3.75556273,5.71366793 1,10.589632 1,15.85 C1,21.110368 3.75556273,25.9863321 8.26194469,28.7 L9.26194469,26.99 C5.34529637,24.6440464 2.9463255,20.4154806 2.94194469,15.85 C2.94261144,15.1551442 2.99874684,14.4680927 3.1072593,13.794295 C3.7117171,10.0409722 5.94140139,6.6989048 9.26194469,4.71 Z M24,3.01 L23,4.72 C26.9039605,7.07222177 29.2909185,11.2971655 29.2909185,15.855 C29.2909185,20.4128345 26.9039605,24.6377782 23,26.99 L24,28.7 C28.506382,25.9863321 31.2619447,21.110368 31.2619447,15.85 C31.2619447,10.589632 28.506382,5.71366793 24,3 L24,3.01 Z M21.03,8 L20,9.71 C22.1061227,10.9756223 23.3944487,13.2528568 23.3944487,15.71 C23.3944487,18.1671432 22.1061227,20.4443777 20,21.71 L21,23.42 C23.7038292,21.7917992 25.3571668,18.8662208 25.3571668,15.71 C25.3571668,12.5537792 23.7038292,9.62820076 21,8 L21.03,8 Z M16,14 C14.8954305,14 14,14.8954305 14,16 C14,17.1045695 14.8954305,18 16,18 C17.1045695,18 18,17.1045695 18,16 C18,14.8954305 17.1045695,14 16,14 Z" fill="#0052D9" fill-rule="evenodd"/></svg>