<svg width="32" height="32" viewBox="0 0 32 32" xmlns="http://www.w3.org/2000/svg"><g fill="#0052D9" fill-rule="evenodd"><g fill-rule="nonzero"><circle cx="2" cy="2.019" r="2" transform="translate(0 2)"/><circle cx="2" cy="2.667" r="2" transform="translate(27 25.333)"/><path d="M30 18.6666667L28 18.6666667 28 2.66666667 0.666666667 2.66666667 1 0.666666667 30 0.666666667z" transform="translate(1 2.333)"/><path d="M29.6666667 19.3333333L0.666666667 19.3333333 0.666666667 0.333333333 2.66666667 0.333333333 2.66666667 17.3333333 29.6666667 17.3333333z" transform="translate(.333 9.667)"/></g><path d="M7 10H11V12H7zM15 10H19V12H15zM23 10H27V12H23zM5 10H7V18H5zM13 10H15V18H13zM21 10H23V18H21zM7 16H11V18H7zM15 16H19V18H15zM23 16H27V18H23z" transform="translate(0 2)"/></g></svg>