<svg width="32" height="32" viewBox="0 0 32 32" xmlns="http://www.w3.org/2000/svg"><g fill="none" fill-rule="evenodd"><path stroke="#0052D9" stroke-width="2" stroke-linejoin="round" d="M9.14285714 3L22.8571429 3 28 7.95494592 28 30 22.8571429 30 21.1428571 27.123081 10.8571429 27.123081 9.14285714 30 4 30 4 27.123081 4 7.95494592z"/><path stroke="#0052D9" stroke-width="2" stroke-linejoin="round" d="M11.1336266 6.5L21.0383885 6.5 24.7526742 9.79248152 24.7526742 18.5 7.41934086 18.5 7.41934086 9.79248152z"/><circle fill="#0052D9" cx="24" cy="23" r="2"/><circle fill="#0052D9" cx="9" cy="23" r="2"/><path fill="#0052D9" fill-rule="nonzero" d="M0.5 10.0164159L2.5 8.05406657 2.5 17 0.5 17z"/><path fill="#0052D9" fill-rule="nonzero" transform="matrix(-1 0 0 1 61 0)" d="M29.5 9.9623493L31.5 8 31.5 16.9459334 29.5 16.9459334z"/></g></svg>