<svg width="32" height="32" viewBox="0 0 32 32" xmlns="http://www.w3.org/2000/svg"><g fill="#0052D9" fill-rule="evenodd"><path d="M16,0 C23.811235,0 30.3151005,5.59751424 31.7192447,13.000191 L29.677892,13.0003278 C28.3046747,6.70979962 22.7023537,2 16,2 C8.2680135,2 2,8.2680135 2,16 C2,23.7319865 8.2680135,30 16,30 C23.052652,30 28.8872801,24.7850199 29.8581018,18.0008423 L31.8761139,18.0007904 C30.8915668,25.8930309 24.1589629,32 16,32 C7.163444,32 0,24.836556 0,16 C0,7.163444 7.163444,0 16,0 Z" fill-rule="nonzero"/><path d="M8.227,8 L8.227,23 L21.3789136,23 L21.3789136,22.992 C22.9299136,22.876 24.1509136,21.581 24.1509136,19.999 C24.1509136,18.688 23.3099136,17.572 22.1359136,17.165 C21.9679136,15.39 20.4719136,14 18.6509136,14 C16.7189136,14 15.1509136,15.567 15.1509136,17.5 L15.1509136,18.175 L17.1499136,18.175 L17.1509136,17.5 L17.1579136,17.356 C17.2309136,16.595 17.8719136,16 18.6509136,16 C19.4799136,16 20.1519136,16.672 20.1519136,17.5 L20.1509136,18.999 L21.1519136,18.999 L21.2689136,19.007 C21.7649136,19.064 22.1519136,19.487 22.1519136,19.999 C22.1519136,20.553 21.7039136,21 21.1519136,21 L10.227,21 L10.227,9.999 L16.227,9.999 L16.227,13.536 C16.7732158,13 17.499,12.7777324 18.227,12.7777324 L18.227,8 L8.227,8 Z M11.227,13 L13.228,13 L13.228,11 L11.227,11 L11.227,13 Z"/></g></svg>