<svg width="32" height="32" viewBox="0 0 32 32" xmlns="http://www.w3.org/2000/svg"><path d="M16.21,0.159985475 C21.3394163,0.15441134 26.3362732,1.76140882 30.4967648,4.74686789 L30.91,5.05 L31.06,5.16 L31.06,6.32 C31.0354545,16.6470644 25.6065697,26.1948646 16.7738257,31.5017124 L16.37,31.74 L16.18,31.84 L16,31.74 C7.09337191,26.5510744 1.55659363,17.0916985 1.37457865,6.80799672 L1.37,6.34 L1.37,5.16 L1.52,5.05 C5.62493588,1.98525212 10.5848344,0.289278401 15.6981799,0.194166399 L16.21,0.19 L16.21,0.159985475 Z M16.21,2.15977686 L16.21,2.19 C11.7781632,2.17009806 7.44431539,3.46816424 3.75701185,5.9135748 L3.35,6.19 L3.35,6.34 C3.40024623,15.7497279 8.24451436,24.4844899 16.2,29.51 C24.0497855,24.5624353 28.872938,16.0025635 29.0548048,6.7457997 L29.06,6.29 L29.06,6.16 C25.2902391,3.53631687 20.8028628,2.13946822 16.21,2.15977686 Z M23.06,5.7 L23.06,20.7 L9.15,20.7 L9.14,5.7 L23.06,5.7 Z M21.07,7.7 L11.14,7.7 L11.14,18.7 L21.07,18.7 L21.07,7.7 Z M16.14,8.70157288 C17.6011089,8.70157288 18.8497193,9.75420011 19.0967957,11.1942669 C19.3438721,12.6343338 18.5175467,14.0429637 17.14,14.53 L17.14,17.7 L15.14,17.7 L15.14,14.53 C13.7624533,14.0429637 12.9361279,12.6343338 13.1832043,11.1942669 C13.4302807,9.75420011 14.6788911,8.70157288 16.14,8.70157288 Z M16.1399997,10.7 C15.5877153,10.7 15.1399997,11.1477153 15.1399997,11.7 C15.1395702,12.2370335 15.5633961,12.6785188 16.1,12.7 L16.1399997,12.7 C16.6922847,12.7 17.1399997,12.2522847 17.1399997,11.7 C17.1399997,11.1477153 16.6922847,10.7 16.1399997,10.7 Z" fill="#0052D9" fill-rule="nonzero"/></svg>