<svg width="32" height="32" viewBox="0 0 32 32" xmlns="http://www.w3.org/2000/svg"><path d="M3.0081,8.0078 L3.0081,23.0078 L26.3081,23.0078 C26.6071,22.4078 27.3081,22.0078 28.0081,22.0078 C28.7081,22.0078 29.3081,22.4078 29.7081,23.0078 C30.3081,24.0078 30.0081,25.2078 29.0081,25.7078 C28.1071,26.3078 26.9081,26.0078 26.3081,25.0078 L26.3081,25.0078 L1.0081,25.0078 L1.0081,8.0078 L3.0081,8.0078 Z M9,17 L9,19 L7,19 L7,17 L9,17 Z M13,7 L13,19 L11,19 L11,7 L13,7 Z M17,7 L17,19 L15,19 L15,7 L17,7 Z M21,7 L21,19 L19,19 L19,7 L21,7 Z M1.0079,0.308 C1.9079,-0.292 3.2079,0.008 3.7079,1.008 L3.7079,1.008 L29.0079,1.008 L29.0079,18.008 L27.0079,18.008 L27.0079,3.008 L3.7079,3.008 C3.5079,3.308 3.3079,3.608 3.0079,3.708 C2.0079,4.308 0.9079,4.008 0.3079,3.008 C-0.2921,2.008 0.0079,0.808 1.0079,0.308 Z M9,7 L9,16 L7,16 L7,7 L9,7 Z M25,11 L25,15 L23,15 L23,11 L25,11 Z" transform="translate(1 3)" fill="#0052D9" fill-rule="evenodd"/></svg>