<svg data-name="图层 1" xmlns="http://www.w3.org/2000/svg" width="32" height="32" viewBox="0 0 32 32"><g fill="#0052D9"><path d="M31,5A26,26,0,0,0,16,0,26,26,0,0,0,1,5S0,22.21,16,32h0C32,22.21,31,5,31,5ZM16,29.64A29.13,29.13,0,0,1,3,6.08,23.74,23.74,0,0,1,16,2,23.74,23.74,0,0,1,29,6.08,29.15,29.15,0,0,1,16,29.64Z"/><path d="M10,9.58c-.09,0-.18.07-.27.1l-.24.09A5.12,5.12,0,0,0,9,10l-.17.1a5.17,5.17,0,0,0-.53.39l-.1.08a4.7,4.7,0,0,0-.49.51l-.06.07a4.89,4.89,0,0,0-.41.6.43.43,0,0,0,0,.07,4.22,4.22,0,0,0-.3.65.36.36,0,0,0,0,.09,3.9,3.9,0,0,0-.18.67.5.5,0,0,0,0,.13,4.47,4.47,0,0,0-.08.82,4.87,4.87,0,0,0,4.86,4.86h9.12a4.87,4.87,0,0,0,4.86-4.86,4.47,4.47,0,0,0-.08-.82.5.5,0,0,0,0-.13,3.9,3.9,0,0,0-.18-.67.36.36,0,0,0,0-.09,4.22,4.22,0,0,0-.3-.65.43.43,0,0,0,0-.07,4.89,4.89,0,0,0-.41-.6l-.06-.07a4.7,4.7,0,0,0-.49-.51l-.1-.08a5.17,5.17,0,0,0-.53-.39L23,10a5.12,5.12,0,0,0-.52-.27l-.24-.09c-.09,0-.18-.08-.27-.1A6.2,6.2,0,0,0,10,9.58Zm3.89,3.84V11.06h4.14v2.37ZM15.2,6.77V9.46H11.79A4.64,4.64,0,0,1,15.2,6.77ZM8.34,13.26c0-.08.05-.15.07-.23l.1-.21a3.82,3.82,0,0,1,.29-.48l.08-.11A2.41,2.41,0,0,1,9.09,12l.12-.12.23-.2.15-.11.26-.17a1.69,1.69,0,0,1,.27-.13l.35-.13.25-.07h1.61v2.36h-4C8.31,13.37,8.32,13.31,8.34,13.26ZM8.29,15H15.2v2.45H11.44A3.26,3.26,0,0,1,8.29,15Zm12.27,2.45H16.8V15h6.91A3.26,3.26,0,0,1,20.56,17.48Zm.72-6.42.25.07a2.67,2.67,0,0,1,.36.14,2.06,2.06,0,0,1,.26.12l.26.17.15.11.23.2.12.12a1.57,1.57,0,0,1,.21.24l.08.11a3.5,3.5,0,0,1,.29.49l.1.2c0,.08.05.15.07.23l.05.17h-4V11.06ZM16.8,6.77a4.62,4.62,0,0,1,3.41,2.69H16.8Z"/></g></svg>