<svg width="32" height="32" viewBox="0 0 32 32" xmlns="http://www.w3.org/2000/svg"><g fill="#0052D9" fill-rule="evenodd"><path d="M16,0 C23.811235,0 30.3151005,5.59751424 31.7192447,13.000191 L29.677892,13.0003278 C28.3046747,6.70979962 22.7023537,2 16,2 C8.2680135,2 2,8.2680135 2,16 C2,23.7319865 8.2680135,30 16,30 C23.052652,30 28.8872801,24.7850199 29.8581018,18.0008423 L31.8761139,18.0007904 C30.8915668,25.8930309 24.1589629,32 16,32 C7.163444,32 3.55271368e-15,24.836556 3.55271368e-15,16 C3.55271368e-15,7.163444 7.163444,0 16,0 Z" fill-rule="nonzero"/><path d="M3 9H5V11H3z" transform="translate(7 8)"/><path d="M0,8.0033173 L0.001,8 L0,8 L0.711,6 L0,6 L0,4 L1.421,4 L2.84210526,0 L15.1578947,0 L16.578,4 L18,4 L18,6 L17.289,6 L18,8 L18,16 L16,16 L16,14 L2,14 L2,16 L0,16 L0,8.0033173 Z M16.1052632,8 L1.89473684,8 L1.89473684,12 L16.1052632,12 L16.1052632,8 Z M13.7479096,2 L4.24044243,2 L2.82351685,6 L15.1803355,6 L13.7479096,2 Z" transform="translate(7 8)"/><path d="M13 9H15V11H13z" transform="translate(7 8)"/></g></svg>