<svg data-name="图层 1" xmlns="http://www.w3.org/2000/svg" width="32" height="32" viewBox="0 0 32 32"><path fill="#0052D9" d="M16,2A23.71,23.71,0,0,1,29,6.07,29.16,29.16,0,0,1,16,29.63,29.16,29.16,0,0,1,3,6.07,23.71,23.71,0,0,1,16,2m0-2A26,26,0,0,0,1,5S0,22.21,16,32h0C32,22.21,31,5,31,5A26,26,0,0,0,16,0Z"/><path fill="none" stroke="#0052D9" stroke-miterlimit="10" stroke-width="2" d="M20.5,11.44h0a4.5,4.5,0,0,0-9,0h0a3.3,3.3,0,0,0,.21,6.6h8.58a3.3,3.3,0,0,0,.21-6.6Z"/><path fill="#0052D9" d="M17.48,12.11a1.48,1.48,0,0,0-3,0,1.5,1.5,0,0,0,.56,1.17l.23.14v2.2h1.38v-2.2A1.47,1.47,0,0,0,17.48,12.11Z"/></svg>