<svg width="32" height="32" viewBox="0 0 32 32" xmlns="http://www.w3.org/2000/svg"><g fill="none" fill-rule="evenodd"><path d="M26 22.9L14 29.7 2 22.9 2 9.2 14 2.3 26 9.2 28 8 14 0 0 8 0 24 14 32 28 24 28 12 26 13.2z" transform="translate(2)" fill="#0052D9" fill-rule="nonzero"/><path d="M16.4997077,22 C13.8176649,22 11.5500877,20.097561 11.0859329,17.6131522 L11,16.6286773 C11.0005846,16.3460063 11.0286443,16.0375336 11.0841792,15.7365148 C11.2525376,14.6276188 11.6933092,13.5772064 12.3883722,12.6403211 C13.2295796,11.5073435 14.4455014,10.3973008 16.0004783,9.34058131 L16.502046,9 L17.159696,9.4506682 C18.6380932,10.4741322 19.7984801,11.5463326 20.6110432,12.6403211 C21.3066908,13.5772064 21.7468778,14.6276188 21.9193283,15.761743 C21.9701865,16.0369603 21.9988308,16.3448595 22,16.6521854 L21.9128979,17.6131522 C21.447574,20.0992811 19.1805814,22 16.4997077,22 L16.4997077,22 Z" stroke="#0052D9" stroke-width="2"/></g></svg>