<svg width="32" height="32" viewBox="0 0 32 32" xmlns="http://www.w3.org/2000/svg"><g fill="#0052D9" fill-rule="nonzero"><path d="M20.3 14.8L14.7 17.8 10.7 15.6 9.1 14.8 6.9 16 14.7 20.3 22.5 16z" transform="translate(2)"/><path d="M14.7 24L6.9 19.8 9.1 18.5 10.7 19.4 14.7 21.6 20.3 18.5 22.5 19.8zM14.7 8L7 12.2 14.7 16.4 22.4 12.2 14.7 8zM11.3 12.2L14.7 10.3 18.1 12.2 14.7 14.1 11.3 12.2z" transform="translate(2)"/><path d="M26.7 22.9L14.7 29.7 2.7 22.9 2.7 9.2 14.7 2.3 26.7 9.2 26.7 9.2 28.7 8 14.7 0 0.7 8 0.7 24 14.7 32 28.7 24 28.7 12 26.7 13.2z" transform="translate(2)"/></g></svg>