<svg width="32" height="32" viewBox="0 0 32 32" xmlns="http://www.w3.org/2000/svg"><g fill="#0052D9" fill-rule="evenodd"><path d="M31.7193022,13.0004945 L29.6779284,13.0004945 C28.3047737,6.70988283 22.7024129,2 16,2 C8.2680135,2 2,8.2680135 2,16 C2,23.7319865 8.2680135,30 16,30 C23.0527724,30 28.8874794,24.7848417 29.8581515,18.0004945 L31.8761508,18.0004945 C30.8917351,25.8928783 24.1590649,32 16,32 C7.163444,32 -2.0250468e-13,24.836556 -2.0250468e-13,16 C-2.0250468e-13,7.163444 7.163444,0 16,0 C23.8113418,0 30.3152783,5.59766728 31.7193022,13.0004945 Z" fill-rule="nonzero"/><path d="M9 12H11V20H9zM21 12H23V20H21z"/><path transform="rotate(61 18.983 14.814)" d="M17.983 10.814H19.983V18.814H17.983z"/><path transform="rotate(61 19.2 20.96)" d="M18.2 17.174H20.2V24.747999999999998H18.2z"/><path transform="scale(-1 1) rotate(61 0 -7.227)" d="M11.983 10.814H13.983V18.814H11.983z"/><path transform="scale(-1 1) rotate(60 0 .672)" d="M10.2320508 18.1260254L12.2320508 18.1260254 12.2320508 22.1260254 11.6817311 22.1260254 10.2320508 22.1260254z"/><path transform="scale(1 -1) rotate(60 37.855 0)" d="M18.034 6.866H20.034V14.866H18.034z"/><path transform="rotate(-120 12.964 10.866)" d="M11.964 6.866H13.964V14.866H11.964z"/><circle cx="17" cy="22" r="2"/><path d="M16.0029612 7.95628357L15.720253 8.12047638 16.2791867 8.12047638z"/></g></svg>