<svg width="32" height="32" viewBox="0 0 32 32" xmlns="http://www.w3.org/2000/svg"><g transform="translate(2)" fill="#0052D9" fill-rule="evenodd"><path d="M15 11L15 9 13 9 13 11 12 11C11.4477153 11 11 10.5522847 11 10L11 8C11 7.44771525 11.4477153 7 12 7L16 7C16.5522847 7 17 7.44771525 17 8L17 10C17 10.5522847 16.5522847 11 16 11L15 11zM8 11H10V23H8zM18 11H20V23H18z"/><path d="M8 10H20V12H8zM8 14H20V16H8z"/><circle cx="11" cy="23" r="1"/><circle cx="17" cy="23" r="1"/><path d="M8 21H20V23H8z"/><path fill-rule="nonzero" d="M26 22.9L14 29.7 2 22.9 2 9.2 14 2.3 26 9.2 28 8 14 0 0 8 0 24 14 32 28 24 28 12 26 13.2z"/></g></svg>