<svg width="32" height="32" viewBox="0 0 32 32" xmlns="http://www.w3.org/2000/svg"><path d="M14.6,19 C14.4,19 14.2,19 14,19 C8.5,19 4,17.7 4,16 L4,9.8 C6.1,11.1 9.8,12 14,12 C18.2,12 21.9,11.1 24,9.8 L24,14.3 C24.7,14.5 25.4,14.8 26,15.1 L26,7 C26,4.2 20.6,2 14,2 C7.4,2 2,4.2 2,7 L2,25 L4,25 L4,18.8 C6,20.1 9.3,20.9 13.2,21 C13.5,20.7 13.9,20.4 14.3,20.1 C14.3,19.7 14.5,19.4 14.6,19 Z M14,4 C19.5,4 24,5.3 24,7 C24,8.7 19.5,10 14,10 C8.5,10 4,8.7 4,7 C4,5.3 8.5,4 14,4 Z M4,25 L2,25 C2,27.5 6.4,29.6 12.2,29.9 C11.8,29.3 11.5,28.6 11.2,27.8 C7.1,27.5 4,26.4 4,25 Z M27,22.1 C27,22.1 27,22 27,22 C27,19.2 24.8,17 22,17 C19.2,17 17,19.2 17,22 C17,22 17,22.1 17,22.1 C15.3,22.5 14,24.1 14,26 C14,28.2 15.8,30 18,30 L26,30 C28.2,30 30,28.2 30,26 C30,24.1 28.7,22.6 27,22.1 Z M26,28 L18,28 C16.9,28 16,27.1 16,26 C16,25.1 16.6,24.3 17.5,24.1 L19,23.7 L19,22.1 C19,22 19,22 19,21.9 C19,20.3 20.4,19 22,19 C23.6,19 24.9,20.3 25,21.9 C25,22 25,22 25,22.1 L25,23.7 L26.5,24.1 C27.4,24.3 28,25.1 28,26 C28,27.1 27.1,28 26,28 Z" fill="#0052D9" fill-rule="nonzero"/></svg>