<svg width="32" height="32" viewBox="0 0 32 32" xmlns="http://www.w3.org/2000/svg"><g fill="#0052D9" fill-rule="nonzero"><path d="M22.1291481,2.76938649 L22.9923242,0.797995086 L24.4496602,0.848307888 C24.9069903,0.86409667 25.3218502,1.03693085 25.6441556,1.31317157 C26.0761718,1.68344292 26.3418996,2.23950019 26.3207249,2.85216895 C26.3115842,3.11664412 26.2483489,3.37644662 26.134916,3.61556491 L25.8238442,4.27130925 L23.4733065,4.55991898 L24.2873531,2.84389597 L22.1291481,2.76938649 Z M14.5879694,2.50903622 L2.14051486,2.07930258 L14.7212553,23.0093803 L19.8805369,12.1335338 L22.2310745,11.844924 L16.4797553,23.9687953 C16.2482739,24.4567616 15.8392204,24.8034912 15.3664188,24.9684004 C14.9020916,25.1303538 14.3762811,25.1169463 13.8968,24.8897378 C13.5514173,24.7260735 13.2621325,24.4640422 13.0652913,24.1365653 L0.367420799,3.01162302 C0.0378946096,2.4634034 0.0113263817,1.81768087 0.239142586,1.26910409 C0.39261751,0.899539597 0.661543024,0.574064021 1.03106805,0.352190087 C1.35216714,0.159392537 1.72226446,0.0636714458 2.09662898,0.0765959379 L15.426569,0.536796343 L14.5879694,2.50903622 Z" transform="rotate(7 -23.415 27.416)"/><path d="M21.6257476,4.10653884 L17.1191632,11.7714385 C17.1736804,11.7855701 17.246435,11.7998113 17.3401674,11.8109896 L19.7052559,11.7986298 L19.7042965,11.8110794 L25.6856519,11.8098127 L27.0977739,10.0940443 L20.202607,10.0701065 L21.813169,7.12274039 L23.5315813,3.97894133 L21.6257476,4.10653884 Z M17.5443483,13.8115369 L16.8494197,13.7564012 C15.5238017,13.4982183 14.9426441,12.5876687 15.0960297,11.6481268 C15.1411007,11.3720507 15.165548,11.1481566 15.2935569,10.9304361 L20.4374307,2.18162045 L26.5265035,1.7739508 C26.6801205,1.76219502 26.8127855,1.87845179 26.822819,2.03361756 C26.8264912,2.0904077 26.8130389,2.14716852 26.7842354,2.19641687 L24.6590512,6.08555375 L24.1393086,7.03669478 L23.5682318,8.08177882 L24.759161,8.08591335 L25.8430371,8.08967622 L30.0776661,8.1043775 L30.2662214,8.32073866 C30.5384196,8.63307751 30.533266,9.09984704 30.254238,9.40609983 L26.6298921,13.8097831 L25.8256381,13.8097831 L17.5443483,13.8115369 Z" transform="translate(-1 3)"/></g></svg>