<svg width="32" height="32" viewBox="0 0 32 32" xmlns="http://www.w3.org/2000/svg"><g fill="#0052D9" fill-rule="nonzero"><path d="M23.082567,17.6677665 C23.8220462,19.7042091 23.7322579,21.5583391 22.6455965,22.6450006 C22.0235965,23.2670006 21.1485965,23.5620006 20.1335965,23.5620006 C17.9615965,23.5620006 15.1405965,22.2110006 12.7455965,19.8160006 C11.9801608,19.0505649 11.3213398,18.2415724 10.7791897,17.4241319 C11.0259502,16.7691158 11.3890981,16.0594818 11.8627252,15.3358958 C12.4173251,16.3880315 13.2098424,17.4522465 14.1605965,18.4030006 C16.4935965,20.7350006 18.8365965,21.5630006 20.1345965,21.5630006 C20.4835965,21.5630006 20.9575965,21.5050006 21.2315965,21.2310006 C21.5324718,20.9301252 21.6303928,20.3144027 21.5161762,19.5477541 C22.1111374,18.9373633 22.6367531,18.3049137 23.082567,17.6677665 Z M22.0465815,15.5492039 C21.724344,16.1386686 21.2992581,16.7594171 20.7793562,17.3798586 C20.2222539,16.2783073 19.3993918,15.1567959 18.4025965,14.1600006 C16.0705965,11.8280006 13.7275965,11.0000006 12.4295965,11.0000006 C12.0805965,11.0000006 11.6055965,11.0570006 11.3315965,11.3320006 C11.0267141,11.6368829 10.9302279,12.2650545 11.051693,13.0459574 C10.4844275,13.7579114 9.99774184,14.4872062 9.60201587,15.2116429 C8.73452497,13.051668 8.77472372,11.0598733 9.91759645,9.91700055 C10.5395965,9.29500055 11.4145965,9.00000055 12.4295965,9.00000055 C14.6015965,8.99900055 17.4215965,10.3500006 19.8175965,12.7460006 C20.7112503,13.6396544 21.4595798,14.5926796 22.0465815,15.5492039 Z"/><path d="M20.133804,9 C21.149804,9 22.023804,9.295 22.645804,9.917 C24.598804,11.869 23.332804,16.301 19.817804,19.816 C17.422804,22.211 14.601804,23.562 12.429804,23.562 C11.413804,23.562 10.539804,23.267 9.91780397,22.645 C7.96480397,20.693 9.23080397,16.261 12.745804,12.746 C15.140804,10.351 17.961804,9 20.133804,9 Z M20.133804,11 C18.835804,11 16.492804,11.827 14.159804,14.16 C12.716804,15.603 11.639804,17.305 11.203804,18.831 C10.891804,19.921 10.940804,20.841 11.330804,21.231 C11.604804,21.505 12.078804,21.563 12.427804,21.563 C13.725804,21.563 16.069804,20.735 18.401804,18.403 C19.844804,16.96 20.921804,15.258 21.357804,13.732 C21.669804,12.642 21.620804,11.722 21.230804,11.332 C20.956804,11.058 20.482804,11 20.133804,11 Z"/><path d="M31.7193022,13.0004945 L29.6779284,13.0004945 C28.3047737,6.70988283 22.7024129,2 16,2 C8.2680135,2 2,8.2680135 2,16 C2,23.7319865 8.2680135,30 16,30 C23.0527724,30 28.8874794,24.7848417 29.8581515,18.0004945 L31.8761508,18.0004945 C30.8917351,25.8928783 24.1590649,32 16,32 C7.163444,32 -2.0250468e-13,24.836556 -2.0250468e-13,16 C-2.0250468e-13,7.163444 7.163444,0 16,0 C23.8113418,0 30.3152783,5.59766728 31.7193022,13.0004945 Z"/></g></svg>