<svg data-name="图层 1" xmlns="http://www.w3.org/2000/svg" width="32" height="32" viewBox="0 0 32 32"><path fill="#0052D9" d="M16.21,2.16a22.32,22.32,0,0,1,12.85,4v.13A27.55,27.55,0,0,1,16.2,29.51,27.58,27.58,0,0,1,3.35,6.34V6.19a22.35,22.35,0,0,1,12.86-4m0-2A24.46,24.46,0,0,0,1.52,5.05l-.15.11v.18c0,.32,0,.65,0,1A29.46,29.46,0,0,0,16,31.74l.18.1.19-.1A29.46,29.46,0,0,0,31.06,6.32c0-.33,0-.66,0-1V5.16l-.15-.11A24.46,24.46,0,0,0,16.21.16Z"/><path fill="#0052D9" d="M16,22.22A7.46,7.46,0,0,1,13,7.94a4.31,4.31,0,0,1,.61-.24,7.63,7.63,0,0,1,2.35-.41h0a7.17,7.17,0,0,1,2.39.39A4.22,4.22,0,0,1,19,8a7.45,7.45,0,0,1-3,14.24ZM15.92,9.29a5.55,5.55,0,0,0-1.72.3,3.07,3.07,0,0,0-.42.17,5.49,5.49,0,0,0-3.28,5A5.46,5.46,0,0,0,16,20.22h0a5.45,5.45,0,0,0,5.41-5.5h0a5.42,5.42,0,0,0-3.24-4.94,4.64,4.64,0,0,0-.49-.2A5.52,5.52,0,0,0,15.92,9.29Z"/><path fill="#0052D9" d="M18.57,9.86a.92.92,0,0,1-.46-.11,3.69,3.69,0,0,0-.42-.17,5.31,5.31,0,0,0-3.49,0,3.07,3.07,0,0,0-.42.17,1,1,0,0,1-.82,0,1,1,0,0,1-.56-.61A3.9,3.9,0,0,1,12.23,8a3.75,3.75,0,0,1,2.52-3.55A4.18,4.18,0,0,1,16,4.29a3.25,3.25,0,0,1,1.09.19A3.73,3.73,0,0,1,19.7,8h0a3.46,3.46,0,0,1-.18,1.17,1,1,0,0,1-.95.68ZM15.91,7.29a7.77,7.77,0,0,1,1.7.19A1.75,1.75,0,0,0,16.5,6.37,1.61,1.61,0,0,0,16,6.29a1.72,1.72,0,0,0-1.66,1.19,7.6,7.6,0,0,1,1.59-.19Z"/><path fill="#0052D9" transform="rotate(-45.4 21.758 8.99)" d="M20.8 7.99H22.72V9.99H20.8z"/><path fill="#0052D9" transform="rotate(-45.4 10.17 20.743)" d="M9.21 19.74H11.13V21.74H9.21z"/><path fill="#0052D9" transform="rotate(-.39 24.925 14.776)" d="M23.26 13.81H25.18V15.81H23.26z"/><path fill="#0052D9" transform="rotate(-.42 8.13 15.036)" d="M6.75 13.92H8.67V15.92H6.75z"/><path fill="#0052D9" transform="rotate(-45.39 21.844 20.654)" d="M20.84 19.7H22.84V21.619999999999997H20.84z"/><path fill="#0052D9" transform="rotate(-45.41 10.094 9.068)" d="M9.09 8.11H11.09V10.03H9.09z"/><path fill="#0052D9" transform="rotate(-.4 15.706 14.379)" d="M14.97 8.3H16.97V20.93H14.97z"/></svg>