<svg width="32" height="32" viewBox="0 0 32 32" xmlns="http://www.w3.org/2000/svg"><g fill="#0052D9" fill-rule="nonzero"><path d="M25.99 22.83L14 29.68 2.01 22.83 2.01 9.17 14 2.32 25.99 9.17 25.99 9.15 27.98 8.01 14 0.02 0.02 8.01 0.02 23.99 14 31.98 27.98 23.99 27.98 12 25.99 13.14z" transform="translate(2)"/><path d="M21,11.86 L14,7.86 L7,11.86 L7,16 L12,18.85 C12.1684138,19.7474626 12.9232971,20.4169017 13.8344571,20.4768174 C14.745617,20.5367332 15.5816625,19.9719098 15.866148,19.1042289 C16.1506336,18.2365479 15.8113135,17.2863588 15.0415594,16.7951552 C14.2718054,16.3039516 13.267098,16.3964758 12.6,17.02 L9,14.82 L9,12.94 L14,10 L19,12.9 L19,13.9 L21,14.9 L21,11.86 Z" transform="translate(2)"/><path d="M7,17.07 L7,20.07 L14,24.07 L21,20.07 L21,16 L16,13.27 C15.8980305,12.3609804 15.1923433,11.6369879 14.2862325,11.5117778 C13.3801216,11.3865678 12.5045401,11.8920541 12.159875,12.7393559 C11.8152098,13.5866577 12.0893106,14.5598115 12.8255312,15.1026684 C13.5617518,15.6455254 14.5724415,15.6197201 15.28,15.04 L19,17.12 L19,19 L14,22 L9,19 L9,18.17 L7,17.07 Z" transform="translate(2)"/></g></svg>