<svg width="32" height="32" viewBox="0 0 32 32" xmlns="http://www.w3.org/2000/svg"><g fill="#0052D9" fill-rule="evenodd"><path d="M6 12H24V14H6z" transform="translate(1 3)"/><path d="M13,13 C13,14.1 13.9,15 15,15 C16.1,15 17,14.1 17,13 C17,11.9 16.1,11 15,11 C13.9,11 13,11.9 13,13 Z" transform="translate(1 3)"/><path d="M15 7L15 9C12.790861 9 11 10.790861 11 13L9 13C9 9.6862915 11.6862915 7 15 7zM15 19L15 17C17.209139 17 19 15.209139 19 13L21 13C21 16.3137085 18.3137085 19 15 19zM6 13L8 13C8 16.8659932 11.1340068 20 15 20L15 22C10.0294373 22 6 17.9705627 6 13zM24 13L22 13C22 9.13400675 18.8659932 6 15 6L15 4C19.9705627 4 24 8.02943725 24 13z" fill-rule="nonzero" transform="translate(1 3)"/><path d="M8.26194469 1.71L7.26194469-8.52651283e-14C2.75556273 2.71366793-1.14797061e-13 7.58963195-1.15463195e-13 12.85-1.16129328e-13 18.110368 2.75556273 22.9863321 7.26194469 25.7L8.26194469 23.99C4.34529637 21.6440464 1.9463255 17.4154806 1.94194469 12.85 1.94261144 12.1551442 1.99874684 11.4680927 2.1072593 10.794295 2.7117171 7.04097219 4.94140139 3.6989048 8.26194469 1.71zM22 1.72C25.9039605 4.07222177 28.2909185 8.29716553 28.2909185 12.855 28.2909185 17.4128345 25.9039605 21.6377782 22 23.99L23 25.7C27.506382 22.9863321 30.2619447 18.110368 30.2619447 12.85 30.2619447 7.58963195 27.506382 2.71366793 23-9.05941988e-14L22 1.72z" transform="translate(1 3)"/></g></svg>