<svg width="32" height="32" viewBox="0 0 32 32" xmlns="http://www.w3.org/2000/svg"><g fill="#0052D9" fill-rule="evenodd"><path d="M14 10L8 10 8 12 14 12zM8 8L14 8 14 6 8 6zM8 16L14 16 14 14 8 14zM23 18L8 18 8 20 23 20z" transform="translate(1 3)"/><path stroke="#0052D9" d="M21.2047124 10.7446233L17.647897 14.5301003 16.1239213 15.099445 16.5893194 13.5348143 20.1299035 9.749904zM21.5069176 8.31146798L22.5617888 9.33014529 21.5431115 10.3850165 20.4882403 9.36633922z" transform="translate(1 3)"/><path d="M8.26194469 1.71L7.26194469-8.52651283e-14C2.75556273 2.71366793-1.14797061e-13 7.58963195-1.15463195e-13 12.85-1.16129328e-13 18.110368 2.75556273 22.9863321 7.26194469 25.7L8.26194469 23.99C4.34529637 21.6440464 1.9463255 17.4154806 1.94194469 12.85 1.94261144 12.1551442 1.99874684 11.4680927 2.1072593 10.794295 2.7117171 7.04097219 4.94140139 3.6989048 8.26194469 1.71zM22 1.72C25.9039605 4.07222177 28.2909185 8.29716553 28.2909185 12.855 28.2909185 17.4128345 25.9039605 21.6377782 22 23.99L23 25.7C27.506382 22.9863321 30.2619447 18.110368 30.2619447 12.85 30.2619447 7.58963195 27.506382 2.71366793 23-9.05941988e-14L22 1.72z" transform="translate(1 3)"/></g></svg>