<svg width="32" height="32" viewBox="0 0 32 32" xmlns="http://www.w3.org/2000/svg"><g transform="translate(1 3)" fill="#0052D9" fill-rule="evenodd"><path d="M16.7375133,13.836948 L18.7254959,11 L23.4342972,17.7411121 L21.0086838,17.7435127 L18.7254959,14.4875873 L17.9472692,15.5993398 L19.4186878,17.742926 L16.8947054,17.7435127 L12.7148595,11.6550667 L8.52905284,17.7435127 L6,17.7426867 L6.12548857,17.5612211 L12.7148595,7.97668156 L16.7375133,13.836948 Z" fill-rule="nonzero"/><path d="M19.6434686,10.8823154 C19.8662378,10.695127 20,10.417875 20,10.1165844 C20,9.56429967 19.5522847,9.11658442 19,9.11658442 C18.4477153,9.11658442 18,9.56429967 18,10.1165844 L16,10.1165844 C16,8.45973017 17.3431458,7.11658442 19,7.11658442 C20.6568542,7.11658442 22,8.45973017 22,10.1165844 C22,11.0808542 21.5405669,11.9660179 20.7902891,12.5241017 L19.6434686,10.8823154 Z" fill-rule="nonzero"/><path d="M5 1H25V3H5zM5 23H25V25H5z"/><circle cx="2" cy="2" r="2"/><circle cx="28" cy="2" r="2"/><circle cx="28" cy="24" r="2"/><circle cx="2" cy="24" r="2"/><path d="M1 5H3V21H1zM27 5H29V21H27z"/></g></svg>