<svg width="32" height="32" viewBox="0 0 32 32" xmlns="http://www.w3.org/2000/svg"><g fill="#0052D9" fill-rule="evenodd"><path d="M20,14 C18.8954305,14 18,14.8954305 18,16 C18,17.1045695 18.8954305,18 20,18 C21.1045695,18 22,17.1045695 22,16 C22,14.8954305 21.1045695,14 20,14 Z M16,12 L16,10 L10,10 L10,22 L16,22 L16,20 L12,20 L12,17 L16,17 L16,15 L12,15 L12,12 L16,12 Z M20,9 C18.8954305,9 18,9.8954305 18,11 C18,12.1045695 18.8954305,13 20,13 C21.1045695,13 22,12.1045695 22,11 C22,9.8954305 21.1045695,9 20,9 Z M20,19 C18.8954305,19 18,19.8954305 18,21 C18,22.1045695 18.8954305,23 20,23 C21.1045695,23 22,22.1045695 22,21 C22,19.8954305 21.1045695,19 20,19 Z"/><path d="M31.7193022,13.0004945 L29.6779284,13.0004945 C28.3047737,6.70988283 22.7024129,2 16,2 C8.2680135,2 2,8.2680135 2,16 C2,23.7319865 8.2680135,30 16,30 C23.0527724,30 28.8874794,24.7848417 29.8581515,18.0004945 L31.8761508,18.0004945 C30.8917351,25.8928783 24.1590649,32 16,32 C7.163444,32 -2.0250468e-13,24.836556 -2.0250468e-13,16 C-2.0250468e-13,7.163444 7.163444,0 16,0 C23.8113418,0 30.3152783,5.59766728 31.7193022,13.0004945 Z" fill-rule="nonzero"/></g></svg>