<svg width="32" height="32" viewBox="0 0 32 32" xmlns="http://www.w3.org/2000/svg"><g fill="#0052D9" fill-rule="evenodd"><path d="M15.1428571 18.5732178L19.1281169 22.1615619 17.5986755 23.8601786 14.2634664 20.8571429 7.14285714 20.8571429 4.85714286 20.8571429 4.85714286 14 7.14285714 14 7.14285714 18.5714286 15.1428571 18.5714286 15.1428571 18.5732178zM23.1428571 16.2857143L23.1428571 18.5714286 23.1428571 20.8571429 19.7142857 20.8571429 19.7142857 18.5714286 20.8571429 18.5714286 20.8571429 16.2857143 9.42857143 16.2857143 9.42857143 14 9.43082478 14 9.42857143 13.9974974 10.6950635 12.8571429 4.85714286 12.8571429 4.85714286 10.5714286 4.85714286 6 6 6 23.1428571 6 23.1428571 8.28571429 23.1428571 12.8571429 20.8571429 12.8571429 20.8571429 8.28571429 7.14285714 8.28571429 7.14285714 10.5714286 18.5714286 10.5714286 18.5714286 12.8571429 17.2989183 14 23.1428571 14 23.1428571 16.2857143zM14.1110099 12.8571429L12.8417384 14 13.8769255 14 15.1461969 12.8571429 14.1110099 12.8571429zM4 0H28V2H4zM0 4H2V19H0z" transform="translate(2 2)"/><path d="M4 0L0 4 2 5 5 2zM4 26H24V28H4zM0 19H2V24H0zM26 5H28V24H26z" transform="translate(2 2)"/><path d="M4 28L0 24 2 23 5 26zM24 28L28 24 26 23 23 26z" transform="translate(2 2)"/></g></svg>