<svg width="32" height="32" viewBox="0 0 32 32" xmlns="http://www.w3.org/2000/svg"><path d="M16,1 L15.63,1 L16.4,1 L16,1 Z M3,15.85 C3.00578092,11.2901031 5.40024271,7.0665913 9.31,4.72 L8.31,3 C3.80361804,5.71366793 1.04805531,10.589632 1.04805531,15.85 C1.04805531,21.110368 3.80361804,25.9863321 8.31,28.7 L9.31,26.99 C5.39719007,24.6415723 3.00227322,20.4134624 3,15.85 Z M22.71,4.86 C26.6139605,7.21222177 29.0009185,11.4371655 29.0009185,15.995 C29.0009185,20.5528345 26.6139605,24.7777782 22.71,27.13 L23.71,28.84 C28.216382,26.1263321 30.9719447,21.250368 30.9719447,15.99 C30.9719447,10.729632 28.216382,5.85366793 23.71,3.14 L22.71,4.86 Z M19.6684102,8.03956098 L18.6666069,9.74068319 L15.9517199,14.1517326 C14.8451585,14.1517326 13.9481132,15.0373354 13.9481132,16.1297817 C13.9481132,17.222228 14.8451585,18.1078308 15.9517199,18.1078308 C17.0582813,18.1078308 17.9553265,17.222228 17.9553265,16.1297817 C17.9577506,15.7832742 17.8679301,15.4422176 17.6948577,15.1407572 L20.3796906,10.7297077 C22.7607813,12.6300069 23.6178092,15.835718 22.4967495,18.6485627 C21.3756899,21.4614074 18.5357392,23.2310371 15.4814084,23.0199611 C12.4270775,22.8088852 9.8645482,20.6659058 9.15136272,17.7263018 C8.43817724,14.7866978 9.73922884,11.7301252 12.3652639,10.175854 L11.3634606,8.47473178 C7.81293209,10.5870475 6.17883239,14.8172777 7.40300093,18.7272617 C8.62716947,22.6372458 12.3941241,25.2193365 16.5327206,24.9853046 C20.671317,24.7512728 24.1149919,21.7614312 24.8789285,17.7390226 C25.642865,13.716614 23.530188,9.69825878 19.7585725,8 L19.6684102,8.03956098 Z" fill="#0052D9" fill-rule="nonzero"/></svg>