<svg data-name="图层 1" xmlns="http://www.w3.org/2000/svg" width="32" height="32" viewBox="0 0 32 32"><path fill="#0052D9" d="M16,2A24.5,24.5,0,0,1,29.31,6.07,29,29,0,0,1,16,29.65,29,29,0,0,1,2.69,6.07,24.5,24.5,0,0,1,16,2m0-2A26.89,26.89,0,0,0,.7,5,31.24,31.24,0,0,0,16,32h0A31.24,31.24,0,0,0,31.3,5,26.89,26.89,0,0,0,16,0Z"/><path fill="#0052D9" d="M21.52 15.83V18.4h-11V15.83h11m1.7-1.7H8.78v6H23.22v-6zM21.52 9v2.56h-11V9h11m1.7-1.7H8.78v6H23.22v-6z"/><path fill="#0052D9" d="M20.32 16.61L18.33 16.61 18.33 17.61 20.32 17.61 20.32 16.61 20.32 16.61zM20.32 9.8L18.33 9.8 18.33 10.8 20.32 10.8 20.32 9.8 20.32 9.8z"/></svg>