<svg width="32" height="32" viewBox="0 0 32 32" xmlns="http://www.w3.org/2000/svg"><path d="M16,8 L23,12.001 L23,13.036 L21.891,13.67 L16,10.304 L11,13.161 L11,14.393 L16,11.535 L20.813,14.286 L14.813,17.715 L16,18.393 L23,14.393 L23,20.001 L16,24 L9,20.001 L9,18.964 L10.109,18.33 L16,21.696 L20.999,18.84 L20.999,17.608 L16,20.465 L11.186,17.715 L17.186,14.286 L16,13.608 L9,17.607 L9,12.001 L16,8 Z M28,22.86 L28,13.14 L30,12 L30,24 L16.11,32 L2,24 L2,8 L16,0 L30,8 L28,9.17 L16,2.31 L4,9.16 L4,22.85 L16.11,29.69 L28,22.86 Z" fill="#0052D9" fill-rule="evenodd"/></svg>