<svg width="32" height="32" viewBox="0 0 32 32" xmlns="http://www.w3.org/2000/svg"><g fill="none" fill-rule="evenodd"><path d="M2 16.8C3.8 18 6.8 18.8 10.2 19 10.3 18.3 10.5 17.7 10.8 17 5.8 16.8 2 15.5 2 14L2 7.8C4.1 9.1 7.8 10 12 10 16.2 10 19.9 9.1 22 7.8L22 10.1C22.7 10.2 23.4 10.3 24 10.5L24 5C24 2.2 18.6 0 12 0 5.4 0 0 2.2 0 5L0 23 2 23 2 16.8zM12 2C17.5 2 22 3.3 22 5 22 6.7 17.5 8 12 8 6.5 8 2 6.7 2 5 2 3.3 6.5 2 12 2zM2 23L0 23C0 25.8 5.4 28 12 28 12.2 28 12.3 28 12.5 28 12 27.4 11.6 26.7 11.2 26 6.1 25.9 2 24.6 2 23z" fill="#0052D9" transform="translate(2 2)"/><path d="M13.0044861,23 L13.0044861,23.0021057 L13.0027158,23 L13,23 L13,22.9967696 L12,21.8072918 L18.2278342,10.5719815 L18.2494459,10.583961 L19.9723254,11 L20,11 L20,17 L26,17 L26,18.542179 L26.0009766,17.0026245 L26.7711225,18.9696192 L20.7492394,29.8333839 L20.6930838,29.8022564 L19,29 L19,23 L13.0044861,23 Z M19.2421875,29 L19.7158817,29.2605844 L19.245775,29 L19.2421875,29 Z M14.7341973,21 L21,21 L21,23 L21,25.2556692 L24.4675741,19 L18,19 L18,17 L18,15.108336 L14.7341973,21 Z" fill="#0052D9" transform="translate(2 2)"/></g></svg>