<svg width="32" height="32" viewBox="0 0 32 32" xmlns="http://www.w3.org/2000/svg"><path d="M15.694129,-0.150880735 L29.9696903,7.95653361 L28.9820123,9.6956403 L15.697,2.15 L3,9.406 L3,22.593 L15.697,29.849 L28.391,22.64 L28.3913043,12.7391304 L30.3913043,12.7391304 L30.3913043,23.8050844 L15.6940965,32.1508622 L1,23.7542356 L1,8.24576442 L15.1995132,0.131756858 L15.694129,-0.150880735 Z M24,17.5 L24,19.555 L16,24 L8,19.657 L8,17.669 L8.01812669,17.631899 L16,22 L24,17.5 Z M16,11.5361749 L24,16.0072253 L16,20.4048285 L8,16.0072253 L16,11.5361749 Z M16,13.5 L11.5,15.992 L16,18.5 L20.5,15.992 L16,13.5 Z M16,7.25 L16,9.5 L8.03690517,14.25 L8,14.189 L8,11.92 L16,7.25 Z M19,9.24716245 L24,11.8511625 L24,14.1011625 L19,11.4461625 L19,9.24716245 Z" fill="#0052D9" fill-rule="nonzero"/></svg>