<svg width="30" height="26" viewBox="0 0 30 26" xmlns="http://www.w3.org/2000/svg"><g fill="none" fill-rule="evenodd"><g fill="#0052D9"><path d="M28 26C27.2897779 25.9957131 26.6351046 25.6150891 26.28 25L1 25 1 8 3 8 3 23 26.28 23C26.7660656 22.1581503 27.7870648 21.7877158 28.6998631 22.1220358 29.6126615 22.4563558 30.1528813 23.3985996 29.9802345 24.3552416 29.8075876 25.3118835 28.9720785 26.0058471 28 26zM27.0120508 3.00018082L3.73205081 3.00018082C3.27944513 3.78411685 2.35672894 4.16631841 1.48236191 3.93203247.607994882 3.69774653 1.11022302e-16 2.90539218 0 2.00018082-1.11022302e-16 1.09496946.607994882.302615105 1.48236191.0683291662 2.35672894-.165956773 3.27944513.216244788 3.73205081 1.00018082L29.0120508 1.00018082 29.0120508 18.0001808 27.0120508 18.0001808 27.0120508 3.00018082z"/></g><g transform="translate(6 4)"><path fill="#0052D9" d="M3 1L15 1 15 3 3 3z"/><path d="M5.99658768,1.97994881 L5.99658768,5.89348415 L1.74236635,16 L16.3526934,16 L12.049969,5.89564298 L12.049969,1.99716069 L5.99658768,1.97994881 Z" stroke="#0052D9" stroke-width="2"/><path d="M3.5,12.5 C2.5,13.5 3.09948754,13.9255774 5.29846263,13.7767321 C8.59692527,13.5534642 7.5,11 10.5,11 C12.5,11 14,11.5 15,12.5" stroke="#0052D9" stroke-width="2"/><circle fill="#0052D9" cx="9.5" cy="7.5" r="1.5"/></g></g></svg>