<svg width="32" height="32" viewBox="0 0 32 32" xmlns="http://www.w3.org/2000/svg"><path d="M4.73243561,4 L30,4 L30,6 L30,21 L28,21 L28,6 L4.73243561,6 C4.38662619,6.59780137 3.74028236,7 3,7 C1.8954305,7 1,6.1045695 1,5 C1,3.8954305 1.8954305,3 3,3 C3.74028236,3 4.38662619,3.40219863 4.73243561,4 Z M4,26 L27.2675644,26 C27.6133738,25.4021986 28.2597176,25 29,25 C30.1045695,25 31,25.8954305 31,27 C31,28.1045695 30.1045695,29 29,29 C28.2597176,29 27.6133738,28.5978014 27.2675644,28 L2,28 L2,26 L2,11 L4,11 L4,26 Z M16,17.3746545 C15.6355898,17.8634205 15.2501643,18.3640648 14.9922763,18.6545498 C14.2595326,19.4799123 13.1905028,20 12,20 C9.790861,20 8,18.209139 8,16 C8,13.790861 9.790861,12 12,12 C13.1951769,12 14.2679251,12.5241797 15.0008914,13.3551859 C15.255907,13.6443118 15.6379766,14.141112 16,14.6266242 C16.3620234,14.141112 16.744093,13.6443118 16.9991086,13.3551859 C17.7320749,12.5241797 18.8048231,12 20,12 C22.209139,12 24,13.790861 24,16 C24,18.209139 22.209139,20 20,20 C18.8094972,20 17.7404674,19.4799123 17.0077237,18.6545498 C16.7498357,18.3640648 16.3644102,17.8634205 16,17.3746545 Z M17.6599249,16.2548771 C17.706462,16.317 17.706462,16.317 17.7529448,16.3787761 C18.0810676,16.814343 18.346707,17.1502886 18.5033625,17.3267454 C18.882207,17.7534758 19.4188942,18 20,18 C21.1045695,18 22,17.1045695 22,16 C22,14.8954305 21.1045695,14 20,14 C19.4166225,14 18.8779971,14.2484938 18.4990301,14.6781506 C18.3417076,14.8565162 18.0755964,15.1938974 17.7465891,15.6309341 C17.7020716,15.6901328 17.7020716,15.6901328 17.6575061,15.7496382 C17.5960775,15.8317392 17.5337312,15.9155499 17.4707735,16.0006182 C17.5345422,16.0868136 17.5976981,16.1717228 17.6599249,16.2548771 Z M14.3400751,16.2548771 C14.4023019,16.1717228 14.4654578,16.0868136 14.5292265,16.0006182 C14.4662688,15.9155499 14.4039225,15.8317392 14.3424939,15.7496382 C14.2979284,15.6901328 14.2979284,15.6901328 14.2534109,15.6309341 C13.9244036,15.1938974 13.6582924,14.8565162 13.5009699,14.6781506 C13.1220029,14.2484938 12.5833775,14 12,14 C10.8954305,14 10,14.8954305 10,16 C10,17.1045695 10.8954305,18 12,18 C12.5811058,18 13.117793,17.7534758 13.4966375,17.3267454 C13.653293,17.1502886 13.9189324,16.814343 14.2470552,16.3787761 C14.293538,16.317 14.293538,16.317 14.3400751,16.2548771 Z" fill="#0052D9" fill-rule="evenodd"/></svg>