<svg width="30" height="26" viewBox="0 0 30 26" xmlns="http://www.w3.org/2000/svg"><g fill="none" fill-rule="evenodd"><g fill="#0052D9"><path d="M28 26C27.2897779 25.9957131 26.6351046 25.6150891 26.28 25L1 25 1 8 3 8 3 23 26.28 23C26.7660656 22.1581503 27.7870648 21.7877158 28.6998631 22.1220358 29.6126615 22.4563558 30.1528813 23.3985996 29.9802345 24.3552416 29.8075876 25.3118835 28.9720785 26.0058471 28 26zM27.0120508 3.00018082L3.73205081 3.00018082C3.27944513 3.78411685 2.35672894 4.16631841 1.48236191 3.93203247.607994882 3.69774653 1.11022302e-16 2.90539218 0 2.00018082-1.11022302e-16 1.09496946.607994882.302615105 1.48236191.0683291662 2.35672894-.165956773 3.27944513.216244788 3.73205081 1.00018082L29.0120508 1.00018082 29.0120508 18.0001808 27.0120508 18.0001808 27.0120508 3.00018082z"/></g><g fill="#0052D9"><path d="M5.7829573,3.41232913 L6.7933575,5.16239361 C5.67960004,6.09353113 5,7.4849784 5,9 C5,10.0654693 5.33294212,11.0765898 5.93884335,11.9176134 L3.63515051,11.9176134 C3.22736209,11.0294693 3,10.0412863 3,9 C3,6.71751607 4.09242895,4.6901826 5.7829573,3.41232913 Z M9.5930661,2.01163115 C9.72772632,2.00391236 9.86340627,2 10,2 C13.8659932,2 17,5.13400675 17,9 C17,12.8659932 13.8659932,16 10,16 C8.09269493,16 6.36355437,15.237187 5.10101726,14 L10,14 C12.7614237,14 15,11.7614237 15,9 C15,6.50236973 13.1686891,4.43246504 10.7755708,4.05978945 L9.59306636,2.0116316 Z" fill-rule="nonzero" transform="translate(5 4)"/><path d="M2 14H11V16H2zM15.6769742 13.7719524L16.3400416 13.7719524 16.0220721 13.4539829C16.5096003 12.992977 16.9685916 12.5075617 17.3965163 12L20.1684687 14.7719524 16.6329348 18.3074863 15.2187212 16.8932727 16.3400416 15.7719524 13 15.7719524C13.9600244 15.1789715 14.8560654 14.5089797 15.6769742 13.7719524z" transform="translate(5 4)"/><path d="M11.0355339,4.03553391 L14.0355339,4.03553391 L14.0355339,6.03553391 L9.03553391,6.03553391 L9.03553391,4.03553391 L9.03553391,1.03553391 L11.0355339,1.03553391 L11.0355339,4.03553391 Z" transform="rotate(45 9.207 11.571)"/></g></g></svg>