<svg width="30" height="26" viewBox="0 0 30 26" xmlns="http://www.w3.org/2000/svg"><g fill="#0052D9" fill-rule="evenodd"><path d="M28 26C27.2897779 25.9957131 26.6351046 25.6150891 26.28 25L1 25 1 8 3 8 3 23 26.28 23C26.7660656 22.1581503 27.7870648 21.7877158 28.6998631 22.1220358 29.6126615 22.4563558 30.1528813 23.3985996 29.9802345 24.3552416 29.8075876 25.3118835 28.9720785 26.0058471 28 26zM27.0120508 3.00018082L3.73205081 3.00018082C3.27944513 3.78411685 2.35672894 4.16631841 1.48236191 3.93203247.607994882 3.69774653 1.11022302e-16 2.90539218 0 2.00018082-1.11022302e-16 1.09496946.607994882.302615105 1.48236191.0683291662 2.35672894-.165956773 3.27944513.216244788 3.73205081 1.00018082L29.0120508 1.00018082 29.0120508 18.0001808 27.0120508 18.0001808 27.0120508 3.00018082z"/><g><path d="M16.2942286,11.1905989 L16.2942286,13.5 L8.5,18 L0.705771366,13.5 L0.705771366,11.1285234 L2.70577137,12.2832239 L2.70577137,12.3452995 L8.5,15.6905989 L14.2942286,12.3452995 L14.2942286,10.0358984 L16.2942286,11.1905989 Z M16.2942286,7.03671058 L14.2942286,5.88201004 L14.2942286,5.65470054 L8.5,2.30940108 L2.70577137,5.65470054 L2.70577137,7.96410162 L0.705771366,6.80940108 L0.705771366,4.5 L8.5,0 L16.2942286,4.5 L16.2942286,7.03671058 Z" fill-rule="nonzero" transform="translate(7 4)"/><path d="M8 7.155H10V13.155000000000001H8zM10.2343675 9.99598737L10.2343675 10.0013375 10.2320508 10 10.2343675 9.99598737zM12.2343675 8.84963496L16.2942286 11.20574 16.2942286 13.5 12.2343675 11.1560381 12.2343675 8.84963496zM5.65586431 7.35793749L5.65586431 9.66721115.705771366 6.80364634.705771366 4.5 5.65586431 7.35793749zM15 7.58180628C16.1045695 7.58180628 17 6.68637578 17 5.58180628 17 4.47723678 16.1045695 3.58180628 15 3.58180628 13.8954305 3.58180628 13 4.47723678 13 5.58180628 13 6.68637578 13.8954305 7.58180628 15 7.58180628zM2 14.4469622C3.1045695 14.4469622 4 13.5515317 4 12.4469622 4 11.3423927 3.1045695 10.4469622 2 10.4469622.8954305 10.4469622 0 11.3423927 0 12.4469622 0 13.5515317.8954305 14.4469622 2 14.4469622z" transform="translate(7 4)"/></g></g></svg>