<svg width="32" height="32" viewBox="0 0 32 32" xmlns="http://www.w3.org/2000/svg"><path d="M16,1.42108547e-14 L2,8 L2,24 L16,32 L29.999,24 L29.999,12.001 L28,13.143 L28,22.84 L16,29.696 L3.999,22.84 L3.999,9.161 L16,2.304 L28,9.161 L28,9.142 L29.999,8 L16,1.42108547e-14 Z M17,10.302 L21.999,13.159 L21.999,18.858 L24,20.001 L24,12.001 L17,8 L17,10.302 Z M12.999,12.302 L18,15.159 L18,20.857 L20,22.001 L20,14 L12.999,10.001 L12.999,12.302 Z M9,20.001 L16,24 L16,16 L9,12.001 L9,20.001 Z M11,18.84 L11,15.447 L13.999,17.161 L13.999,20.554 L11,18.84 Z" fill="#0052D9" fill-rule="evenodd"/></svg>