<svg width="32" height="32" viewBox="0 0 32 32" xmlns="http://www.w3.org/2000/svg"><g fill-rule="nonzero" fill="none"><path d="M27.8471036,17 L29.8678287,17 C28.8900443,24.3387189 22.6061537,30 15,30 C6.71572875,30 1.72306613e-13,23.2842712 1.72306613e-13,15 C1.72306613e-13,6.71572875 6.71572875,-5.32907052e-15 15,-5.32907052e-15 C22.6061537,-5.32907052e-15 28.8900443,5.66128108 29.8678287,13 L27.8471036,13 C26.8850933,6.76981987 21.4995722,2 15,2 C7.82029825,2 2,7.82029825 2,15 C2,22.1797017 7.82029825,28 15,28 C21.4995722,28 26.8850933,23.2301801 27.8471036,17 Z" fill="#0052D9" transform="translate(1 1)"/><path fill="#0052D9" d="M4 0L4 4 0 4z" transform="rotate(-45 24.314 -3)"/><path stroke="#0052D9" fill="#0052D9" d="M2.5 2.5H7.5V3.5H2.5z" transform="rotate(-45 24.314 -3)"/><path d="M3.80893613,10.7277807 C4.70112391,12.0957735 6.24496525,13 8,13 C10.7614237,13 13,10.7614237 13,8 C13,5.23857625 10.7614237,3 8,3" stroke="#0052D9" stroke-width="2" stroke-linecap="round" transform="rotate(-45 24.314 -3)"/><g><path fill="#0052D9" d="M4 0L4 4 0 4z" transform="rotate(135 8.314 13)"/><path stroke="#0052D9" fill="#0052D9" d="M2.5 2.5H7.5V3.5H2.5z" transform="rotate(135 8.314 13)"/><path d="M3.80893613,10.7277807 C4.70112391,12.0957735 6.24496525,13 8,13 C10.7614237,13 13,10.7614237 13,8 C13,5.23857625 10.7614237,3 8,3" stroke="#0052D9" stroke-width="2" stroke-linecap="round" transform="rotate(135 8.314 13)"/></g></g></svg>