<svg width="32" height="32" viewBox="0 0 32 32" xmlns="http://www.w3.org/2000/svg"><g fill="#0052D9" fill-rule="evenodd"><path d="M31.7193022,13.0004945 L29.6779284,13.0004945 C28.3047737,6.70988283 22.7024129,2 16,2 C8.2680135,2 2,8.2680135 2,16 C2,23.7319865 8.2680135,30 16,30 C23.0527724,30 28.8874794,24.7848417 29.8581515,18.0004945 L31.8761508,18.0004945 C30.8917351,25.8928783 24.1590649,32 16,32 C7.163444,32 0,24.836556 0,16 C0,7.163444 7.163444,0 16,0 C23.8113418,0 30.3152783,5.59766728 31.7193022,13.0004945 Z" fill-rule="nonzero"/><path d="M17.6309236,15.3117815 L17.6309236,13.303563 L19.6232115,13.303563 L19.624993,13.3017815 L19.6267745,13.303563 L19.6309236,13.303563 L19.6309236,13.3077121 L25.2818472,18.9586358 L23.8676337,20.3728493 L19.6309236,24.6095594 L19.6309236,24.613563 L19.62692,24.613563 L19.624993,24.61549 L19.623066,24.613563 L17.6309236,24.613563 L17.6309236,22.613563 L15.5909236,22.613563 L15.5909236,20.613563 L19.5909236,20.613563 L19.6309236,20.613563 L19.6309236,21.7811323 L22.4534201,18.9586358 L19.6309236,16.1361393 L19.6309236,17.303563 L19.5909236,17.303563 L19.5909236,17.313563 L14.1509236,17.313563 L14.1509236,19.3117815 L12.1587812,19.3117815 L12.1568542,19.3137085 L12.1549273,19.3117815 L12.1509236,19.3117815 L12.1509236,19.3077779 L7.91421356,15.0710678 L6.5,13.6568542 L12.1509236,8.00593063 L12.1509236,8.00178151 L12.1550727,8.00178151 L12.1568542,8 L12.1586358,8.00178151 L14.1509236,8.00178151 L14.1509236,10.0117815 L16.1909236,10.0117815 L16.1909236,12.0117815 L12.1909236,12.0117815 L12.1909236,12.0017815 L12.1509236,12.0017815 L12.1509236,10.8343578 L9.32842712,13.6568542 L12.1509236,16.4793507 L12.1509236,15.3117815 L12.1909236,15.3117815 L17.6309236,15.3117815 Z"/></g></svg>