<svg width="32" height="32" viewBox="0 0 32 32" xmlns="http://www.w3.org/2000/svg"><g fill="none" fill-rule="evenodd"><path d="M0 0H2V6H0z" transform="translate(5 14)" fill="#0052D9" fill-rule="nonzero"/><path d="M0 0H2V6H0z" transform="translate(21 14)" fill="#0052D9" fill-rule="nonzero"/><path d="M0 0H2V10H0z" transform="translate(9 12)" fill="#0052D9" fill-rule="nonzero"/><path d="M0 0H2V10H0z" transform="translate(17 12)" fill="#0052D9" fill-rule="nonzero"/><path d="M0 0H2V14H0z" transform="translate(13 10)" fill="#0052D9" fill-rule="nonzero"/><g transform="translate(13 14)" fill="#0052D9" fill-rule="nonzero"><circle cx="16" cy="2" r="2"/><circle cx="2" cy="16" r="2"/></g><path d="M15,28 C20.9184582,28 25.9757265,24.2670886 28,19 M29,14 C29,6.2680135 22.7319865,0 15,0 C7.2680135,0 1,6.2680135 1,14" stroke="#0052D9" stroke-width="2" transform="translate(0 2)"/><path fill="#0052D9" d="M0 14H7V16H0z" transform="translate(0 2)"/></g></svg>