<svg xmlns="http://www.w3.org/2000/svg" width="32" height="32" viewBox="0 0 32 32"><path d="M4.723 6H28v15h2V6 4h-2H4.723C4.376 3.405 3.738 3 3 3 1.895 3 1 3.895 1 5s.895 2 2 2C3.738 7 4.376 6.595 4.723 6zM29 25c-.738 0-1.376.405-1.723 1H4V11H2v15 2h2 23.277c.346.595.984 1 1.723 1 1.105 0 2-.895 2-2S30.105 25 29 25z" fill="#0052D9"/><g fill="#0052D9"><path d="M8 8H13V10H8z"/><path transform="rotate(90 9 10.5)" d="M6.5 9.5H11.5V11.5H6.5z"/><path d="M19 8H24V10H19z"/><path transform="rotate(90 23 10.5)" d="M20.5 9.5H25.5V11.5H20.5z"/><path transform="rotate(-180 10.5 23)" d="M8 22H13V24H8z"/><path transform="rotate(-180 16 16)" d="M8 15H24V17H8z"/><path transform="rotate(-90 9 21.5)" d="M6.5 20.5H11.5V22.5H6.5z"/><path transform="rotate(-180 21.5 23)" d="M19 22H24V24H19z"/><path transform="rotate(-90 23 21.5)" d="M20.5 20.5H25.5V22.5H20.5z"/></g></svg>