<svg width="32" height="32" viewBox="0 0 32 32" xmlns="http://www.w3.org/2000/svg" xmlns:xlink="http://www.w3.org/1999/xlink"><defs><path d="M0 0.0005L31.8757 0.0005 31.8757 32 0 32z"/></defs><g fill="none" fill-rule="evenodd"><path d="M0 32L32 32 32 0 0 0z"/><path d="M21.7813,12.7559 C21.9903,13.0539 22.0143,13.4429 21.8443,13.7649 C21.6763,14.0869 21.3413,14.2869 20.9773,14.2839 C20.6143,14.2809 20.2823,14.0749 20.1193,13.7509 C19.1143,12.0609 17.1063,11.2479 15.2093,11.7609 C13.3123,12.2739 11.9883,13.9879 11.9713,15.9539 C11.9543,17.9189 13.2493,19.6549 15.1373,20.1999 C17.0253,20.7459 19.0463,19.9669 20.0803,18.2949 C20.3503,17.8299 20.9473,17.6719 21.4123,17.9419 C21.8783,18.2119 22.0363,18.8089 21.7653,19.2749 L21.7653,19.3209 C20.2763,21.7389 17.3573,22.8699 14.6273,22.0859 C11.8973,21.3019 10.0233,18.7959 10.0433,15.9549 C10.0633,13.1139 11.9733,10.6349 14.7143,9.8899 C17.4553,9.1449 20.3573,10.3169 21.8123,12.7559 L21.7813,12.7559 Z" fill="#0052D9"/><mask fill="#0052D9"><use xlink:href="#a"/></mask><path d="M31.7197,13.0005 L29.6777,13.0005 C28.3047,6.7095 22.7017,2.0005 15.9997,2.0005 C8.2677,2.0005 1.9997,8.2685 1.9997,16.0005 C1.9997,23.7325 8.2677,30.0005 15.9997,30.0005 C23.0527,30.0005 28.8877,24.7855 29.8587,18.0005 L31.8757,18.0005 C30.8917,25.8925 24.1587,32.0005 15.9997,32.0005 C7.1637,32.0005 -0.0003,24.8365 -0.0003,16.0005 C-0.0003,7.1635 7.1637,0.0005 15.9997,0.0005 C23.8117,0.0005 30.3157,5.5975 31.7197,13.0005" fill="#0052D9" mask="url(#b)"/></g></svg>