<svg width="32" height="32" viewBox="0 0 32 32" xmlns="http://www.w3.org/2000/svg"><g fill="none" fill-rule="evenodd"><g stroke="#0052D9" stroke-width="2"><path d="M24.1760155 24.7523164C21.4893853 27.4948239 17.747325 29.1351521 13.6616112 28.9912503 8.40287097 28.805967 3.90950872 25.7118376 1.59864603 21.2666667M18.3704062.644444444C21.9632574 1.66540898 25.1612018 4.18261549 27.0492458 7.9031308 29.4792623 12.6918548 29.1224039 18.2587381 26.5736177 22.5555556M.804657113 18.0444444C-.191196214 14.3580898.287196512 10.2865103 2.46560797 6.78483261 5.2694357 2.27778549 10.1780688-.141421414 15.1450677.00639526868" transform="translate(2 2)"/></g><circle fill="#0052D9" cx="4" cy="24" r="2"/><circle fill="#0052D9" cx="29" cy="24" r="2"/><circle fill="#0052D9" cx="16" cy="2" r="2"/><path d="M25 19.4017831L26.8972985 19.4017831C27.5066561 19.4017831 28.000638 18.9078012 28.000638 18.2984436 28.000638 18.2513242 27.9976196 18.2042531 27.9916013 18.1575196L27.9916013 18.1575196 27.5906916 15.2660518C27.5336381 14.854491 27.1928521 14.5360648 26.7692234 14.4985412L22.803109 14.1469883C22.5919342 14.1287511 22.3939099 14.039264 22.24291 13.8939661L19.5043415 11.2565197C19.3336415 11.0921352 19.1035854 11 18.8638071 11L10.5520573 11C10.2263662 11 9.92538971 11.1695808 9.76241623 11.4448374L8.49408855 13.5870318C8.39308082 13.7576119 8.23706633 13.8906684 8.05040157 13.9654159L6.56834069 14.5586989C6.22586613 14.6958025 6.00220613 15.0213737 6.00220613 15.3828197L6.00220613 17.6607188 6.00000586 18.2738878C5.99821494 18.7669913 6.40710696 19.1677096 6.91209449 19.1677096 7.9667572 19.1677096 8.6627257 19.1677096 9 19.1677096M13 19.4017831L21 19.4017831" stroke="#0052D9" stroke-width="2"/><path d="M13 19.2828791C13 20.3874607 12.1045675 21.2828536 11 21.2828536 9.89543251 21.2828536 9 20.3874607 9 19.2828791 9 18.1782465 9.89543251 17.2828536 11 17.2828536 12.1045675 17.2828536 13 18.1782465 13 19.2828791zM25 19.2828791C25 20.3874607 24.1045675 21.2828536 23 21.2828536 21.8954325 21.2828536 21 20.3874607 21 19.2828791 21 18.1782465 21.8954325 17.2828536 23 17.2828536 24.1045675 17.2828536 25 18.1782465 25 19.2828791z" stroke="#0052D9" stroke-width="2"/><path d="M8.38293022,13.8272841 L15.6024845,13.8272841" stroke="#0052D9" stroke-width="2" stroke-linecap="round"/></g></svg>