<svg width="32" height="32" viewBox="0 0 32 32" xmlns="http://www.w3.org/2000/svg"><g transform="translate(3 2)" fill-rule="nonzero" fill="none"><path d="M24,6 L24,15.2 C24,15.2 24,17.5 22.6,20 C20.8,23.4 17.5,25.7 13,26.9 C2.3,24.3 2,15.6 2,15.2 L2,2 L22,2 L24,2 L26,2 L26,0 L0,0 L0,15.2 C0,15.2 0.1,26 13,29 C25.9,26 26,15.2 26,15.2 L26,6 L24,6 Z" fill="#0052D9"/><path d="M13.1336806 8C13.9848236 8 14.6763325 8.20092318 15.1967241 8.61114229 15.7319085 9.02127852 16 9.58480068 16 10.2868728 16 10.8498764 15.8331687 11.329133 15.4946385 11.723194 15.3686215 11.8458259 14.9864275 12.1543638 14.4214281 12.5869271 14.2394194 12.7109107 14.0979215 12.8652351 13.9961865 13.043439 13.8900123 13.2294186 13.8368056 13.4344574 13.8368056 13.6609225L13.8368056 14 12.0052083 14 12.0052083 13.6609225C12.0052083 13.2134857 12.0901838 12.8385058 12.2697479 12.5353873 12.4417889 12.2224417 12.7392891 11.905241 13.1580904 11.5829346 13.5407162 11.2792387 13.7807462 11.0795259 13.8650266 10.9967237 14.0518677 10.7967194 14.1440972 10.5835585 14.1440972 10.3613786 14.1440972 10.0642404 14.0471517 9.83186272 13.8673813 9.66556769 13.6840238 9.50497885 13.4140415 9.42321338 13.0486111 9.42321338 12.5882516 9.42321338 12.2783 9.53831365 12.0807674 9.77186855 11.9079906 9.97659835 11.8194444 10.2868015 11.8194444 10.7126204L11.8194444 10.9026863 10 10.9026863 10 10.7126204C10 9.86881361 10.2810896 9.20468696 10.8553083 8.72464974 11.421791 8.24004886 12.1820466 8 13.1336806 8zM12 15H14V17H12z" fill="#0052D9"/><circle stroke="#0052D9" stroke-width="2" cx="13" cy="13" r="7"/></g></svg>