<svg width="32" height="32" viewBox="0 0 32 32" xmlns="http://www.w3.org/2000/svg"><g fill="none" fill-rule="evenodd"><path d="M0 0H32V32H0z"/><path d="M16,4 C18.209139,4 20,5.790861 20,8 L20,16 C20,18.209139 18.209139,20 16,20 C13.790861,20 12,18.209139 12,16 L12,8 C12,5.790861 13.790861,4 16,4 Z M16,6 C14.9456382,6 14.0818349,6.81587779 14.0054857,7.85073766 L14,8 L14,16 C14,17.1045695 14.8954305,18 16,18 C17.0543618,18 17.9181651,17.1841222 17.9945143,16.1492623 L18,16 L18,8 C18,6.8954305 17.1045695,6 16,6 Z" fill="#0052D9" fill-rule="nonzero"/><path d="M10,14 L10,16 C10,19.3137085 12.6862915,22 16,22 C19.2383969,22 21.8775718,19.4344251 21.9958615,16.2249383 L22,16 L22,14 L24,14 L24,16 C24,20.418278 20.418278,24 16,24 C11.581722,24 8,20.418278 8,16 L8,14 L10,14 Z" fill="#0052D9" fill-rule="nonzero"/><path d="M16,22 C16.5522847,22 17,22.4477153 17,23 L17,27 C17,27.5522847 16.5522847,28 16,28 C15.4477153,28 15,27.5522847 15,27 L15,23 C15,22.4477153 15.4477153,22 16,22 Z" fill="#0052D9" fill-rule="nonzero"/><path d="M20,27 C20.5522847,27 21,27.4477153 21,28 C21,28.5522847 20.5522847,29 20,29 L12,29 C11.4477153,29 11,28.5522847 11,28 C11,27.4477153 11.4477153,27 12,27 L20,27 Z" fill="#0052D9" fill-rule="nonzero"/><circle fill="#0052D9" cx="9" cy="14" r="1"/><circle fill="#0052D9" cx="23" cy="14" r="1"/><path d="M5 14C5.55228475 14 6 14.4477153 6 15L6 18C6 18.5522847 5.55228475 19 5 19 4.44771525 19 4 18.5522847 4 18L4 15C4 14.4477153 4.44771525 14 5 14zM27 14C27.5522847 14 28 14.4477153 28 15L28 18C28 18.5522847 27.5522847 19 27 19 26.4477153 19 26 18.5522847 26 18L26 15C26 14.4477153 26.4477153 14 27 14zM1 13C1.55228475 13 2 13.4477153 2 14L2 19C2 19.5522847 1.55228475 20 1 20 .44771525 20 0 19.5522847 0 19L0 14C0 13.4477153.44771525 13 1 13zM31 13C31.5522847 13 32 13.4477153 32 14L32 19C32 19.5522847 31.5522847 20 31 20 30.4477153 20 30 19.5522847 30 19L30 14C30 13.4477153 30.4477153 13 31 13z" fill="#0052D9" fill-rule="nonzero"/></g></svg>