<svg width="32" height="32" viewBox="0 0 32 32" xmlns="http://www.w3.org/2000/svg"><g fill="#0052D9" fill-rule="nonzero"><path d="M16.0193548,8 L9,12.0258065 L9,13.2645161 L16.0193548,17.4967742 L23.0387097,13.2645161 L23.0387097,12.0258065 L16.0193548,8 Z M16.0193548,15.6387097 L11.2709677,12.7483871 L16.0193548,9.96129032 L20.7677419,12.7483871 L16.0193548,15.6387097 Z"/><path d="M16.0193548,18.716129 C16.0193548,18.716129 10.1354839,15.3096774 9.61935484,15 L9,15.3096774 L9,20.2645161 L16.0193548,24.083871 L23.0387097,20.2645161 L23.0387097,15.3096774 L22.4193548,15 C21.8,15.4129032 16.0193548,18.716129 16.0193548,18.716129 Z M21.283871,19.4387097 L16.0193548,22.3290323 L10.7548387,19.4387097 L10.7548387,17.683871 L16.0193548,20.6774194 L21.283871,17.683871 L21.283871,19.4387097 Z"/><path d="M31.7193022,13.0004945 L29.6779284,13.0004945 C28.3047737,6.70988283 22.7024129,2 16,2 C8.2680135,2 2,8.2680135 2,16 C2,23.7319865 8.2680135,30 16,30 C23.0527724,30 28.8874794,24.7848417 29.8581515,18.0004945 L31.8761508,18.0004945 C30.8917351,25.8928783 24.1590649,32 16,32 C7.163444,32 -2.0250468e-13,24.836556 -2.0250468e-13,16 C-2.0250468e-13,7.163444 7.163444,0 16,0 C23.8113418,0 30.3152783,5.59766728 31.7193022,13.0004945 Z"/></g></svg>