<svg width="32" height="32" viewBox="0 0 32 32" xmlns="http://www.w3.org/2000/svg"><g fill="#0052D9" fill-rule="evenodd"><path d="M20,13 C15.6,13 12,16.6 12,21 C12,25.4 15.6,29 20,29 C24.4,29 28,25.4 28,21 C28,16.6 24.4,13 20,13 Z M20,27 C16.7,27 14,24.3 14,21 C14,17.7 16.7,15 20,15 C23.3,15 26,17.7 26,21 C26,24.3 23.3,27 20,27 Z" transform="translate(2 2)"/><path d="M2,23 C2,24.6 6.1,25.9 11.2,26 C11.6,26.7 12,27.4 12.5,28 C12.3,28 12.2,28 12,28 C5.4,28 0,25.8 0,23 L0,5 C0,2.2 5.4,-1.13686838e-13 12,-1.13686838e-13 C18.6,-1.13686838e-13 24,2.2 24,5 L24,10.5 C23.4,10.3 22.7,10.2 22,10.1 L22,7.8 C19.9,9.1 16.2,10 12,10 C7.8,10 4.1,9.1 2,7.8 L2,14 C2,15.5 5.8,16.8 10.8,17 C10.5,17.7 10.3,18.3 10.2,19 C6.8,18.8 3.8,18 2,16.8 L2,23 Z M12,2 C6.5,2 2,3.3 2,5 C2,6.7 6.5,8 12,8 C17.5,8 22,6.7 22,5 C22,3.3 17.5,2 12,2 Z" transform="translate(2 2)"/><path d="M20.2294372,20.4987013 L17.2294372,20.4987013 L17.2294372,18.4987013 L20.2294372,18.4987013 L20.2294372,16.4987013 L24.2294372,20.4987013 L20.2294372,20.4987013 Z" fill-rule="nonzero" transform="translate(2 2)"/><path d="M19.2294372,23.4987013 L19.2294372,21.4987013 L23.2294372,25.4987013 L19.2294372,25.4987013 L16.2294372,25.4987013 L16.2294372,23.4987013 L19.2294372,23.4987013 Z" fill-rule="nonzero" transform="rotate(180 20.73 24.499)"/></g></svg>