<svg width="32" height="32" viewBox="0 0 32 32" xmlns="http://www.w3.org/2000/svg"><g fill="none" fill-rule="evenodd"><g fill="#0052D9"><path d="M9.00131837,25.8627664 C9.00044079,25.9084053 9,25.9541512 9,26 L9,27.8424989 C3.82454662,27.2875415 0,25.3302646 0,23 L2,23 C2,24.3435213 4.94393484,25.4806122 9.00131837,25.8627664 Z M17.5985472,9.42279005 C15.9275109,9.79123773 14.0225138,10 12,10 C7.824,10 4.149,9.11 2,7.762 L2,14 C2,15.657 6.478,17 12,17 C12.3609444,17 12.7174266,16.9942599 13.068488,16.9830674 C13.1661032,17.6776181 13.3656459,18.3394562 13.6515044,18.9529703 C13.1116744,18.9839755 12.5603474,19 12,19 C7.824,19 4.149,18.11 2,16.762 L2,23 L0,23 L0,5 C0,2.238 5.373,0 12,0 C18.627,0 24,2.238 24,5 L24,10.2546893 C23.3959928,9.83338064 22.7224349,9.50488581 22,9.28987868 L22,7.762 C21.1797239,8.27653336 20.1371159,8.724338 18.9291785,9.08138941 C18.469362,9.15197435 18.0242899,9.26730286 17.5985472,9.42279005 Z M12,2 C6.478,2 2,3.343 2,5 C2,6.657 6.478,8 12,8 C17.522,8 22,6.657 22,5 C22,3.343 17.522,2 12,2 Z" transform="translate(2 2)"/><path d="M20 20C17.790861 20 16 18.209139 16 16 16 13.790861 17.790861 12 20 12 22.209139 12 24 13.790861 24 16 24 18.209139 22.209139 20 20 20zM20 18C21.1045695 18 22 17.1045695 22 16 22 14.8954305 21.1045695 14 20 14 18.8954305 14 18 14.8954305 18 16 18 17.1045695 18.8954305 18 20 18zM28 25L26 25C26 23.8954305 25.1045695 23 24 23L16 23C14.8954305 23 14 23.8954305 14 25L12 25C12 22.790861 13.790861 21 16 21L24 21C26.209139 21 28 22.790861 28 25zM24 29L16 29 24 29z" fill-rule="nonzero" transform="translate(2 2)"/></g><path d="M15,29 L29,29 L29,27 C29,25.3431458 27.6568542,24 26,24 L18,24 C16.3431458,24 15,25.3431458 15,27 L15,29 Z" stroke="#0052D9" stroke-width="2"/></g></svg>