<svg width="32" height="32" viewBox="0 0 32 32" xmlns="http://www.w3.org/2000/svg" xmlns:xlink="http://www.w3.org/1999/xlink"><defs><path d="M0 0L30 0 30 32 0 32z"/></defs><g fill="none" fill-rule="evenodd"><g transform="translate(1)"><mask fill="#0052D9"><use xlink:href="#a"/></mask><path d="M15.0004742,0 C9.24597345,0 4.04105989,2.13373291 0.0117338039,5.01267403 C0.0117338039,5.01267403 -0.968902084,22.2104014 14.9994945,32 L15.0004742,32 C30.9698504,22.2104014 29.9882349,5.01267403 29.9882349,5.01267403 C25.9598884,2.13373291 20.7539952,0 15.0004742,0 M15.0004742,1.99787726 C20.5463081,1.99787726 25.0409709,4.10164201 28.0416579,6.0825373 C27.9740616,9.59580446 26.8552942,21.7598801 14.9994945,29.6435038 C3.14271512,21.7578823 2.02492736,9.58981083 1.95929039,6.08353624 C4.95997743,4.10264094 9.45464023,1.99787726 15.0004742,1.99787726" fill="#0052D9" mask="url(#b)"/></g><g fill="#0052D9" fill-rule="nonzero"><path d="M13.8476543,6.63784087 L15.7933893,7.10056691 C14.8946464,10.8797264 12.724522,14.2480002 8.88662737,16.6340246 L8.50999854,16.8618447 L7.00336646,17.748457 L7.00000005,6.85485944 L9.00000005,6.85424138 L9.001,14.127 L9.14850844,14.0160178 C11.58718,12.1080992 13.0526769,9.67769094 13.7628066,6.97683784 L13.8476543,6.63784087 Z" transform="translate(8 6)"/><path d="M8.06519289,0 C10.611356,0.0107203646 13.0954126,0.803539206 15.227575,2.16459071 L15.5612656,2.38418455 L16.8985998,3.29110485 L8.01383635,8.28941869 L2.082,4.975 L2.14148059,5.45386966 L2.19041258,5.78339706 C2.43518507,7.33027026 2.89795121,8.85897406 3.62725542,10.2796288 C4.1106853,11.2213304 4.69930527,12.0892402 5.40176044,12.8704686 L5.70980736,13.1999362 L4.27578174,14.5940562 C3.29268423,13.5828182 2.48841478,12.4405035 1.84800882,11.1930189 C1.01440813,9.56919892 0.490970528,7.84007275 0.214990902,6.09598174 C0.0531037229,5.07291356 -0.00464045632,4.18618589 -0.000486151288,3.49985695 L0.00687862614,3.17622619 L0.0902875044,1.57123942 L8.009,5.996 L12.988,3.195 L12.7928597,3.09971582 C11.4237085,2.45347068 9.9413823,2.06911503 8.4373841,2.0084004 L7.9729621,2 C6.73553068,2.00509022 5.50773336,2.22999833 4.32597691,2.65091242 L4.00259009,2.77145131 L3.68252017,2.9014602 L2.90320706,1.05953971 C3.15094015,0.954724308 3.40163459,0.857066626 3.65491879,0.766852704 C4.90565015,0.321371369 6.20611135,0.0615154594 7.52760444,0.00958034946 L7.96884173,0 L8.06519289,0 Z" transform="translate(8 6)"/></g></g></svg>