<svg width="32" height="32" viewBox="0 0 32 32" xmlns="http://www.w3.org/2000/svg"><g fill="#0052D9" fill-rule="nonzero"><circle cx="16" cy="24" r="2"/><circle cx="16" cy="8" r="2"/><path transform="rotate(-90 16 11)" d="M14 10H18V12H14z"/><path transform="rotate(-90 16 21)" d="M14 20H18V22H14z"/><circle cx="23" cy="16" r="1"/><circle cx="9" cy="16" r="1"/><path d="M0 0H14V2H0z" transform="translate(9 15)"/><path transform="rotate(-45 21.631 -9.632)" d="M3.47652675 -0.438988576L5.47237325 -0.438988576 5.47237325 9.38908858 3.47652675 9.38908858z"/><path transform="rotate(-45 26.341 2.098)" d="M3.23455459 -0.349363613L5.23453541 -0.349363613 5.23453541 8.85845361 3.23455459 8.85845361z"/><path d="M31.7193022,13.0004945 L29.6779284,13.0004945 C28.3047737,6.70988283 22.7024129,2 16,2 C8.2680135,2 2,8.2680135 2,16 C2,23.7319865 8.2680135,30 16,30 C23.0527724,30 28.8874794,24.7848417 29.8581515,18.0004945 L31.8761508,18.0004945 C30.8917351,25.8928783 24.1590649,32 16,32 C7.163444,32 -2.0250468e-13,24.836556 -2.0250468e-13,16 C-2.0250468e-13,7.163444 7.163444,0 16,0 C23.8113418,0 30.3152783,5.59766728 31.7193022,13.0004945 Z"/></g></svg>