<svg width="32" height="32" viewBox="0 0 32 32" xmlns="http://www.w3.org/2000/svg"><g fill="none" fill-rule="evenodd"><path d="M4,9.5 L4,27.5 L25,27.5 L25,25.5 L30,29.4971979 L4,29.497 L4,29.5 L2,29.5 L2,9.5 L4,9.5 Z M30,22.5 L28,22.5 L28,4.5 L6,4.5 L6,6.5 L2,2.5 L30,2.5 L30,22.5 Z" fill="#0052D9"/><path d="M14.4506726,17.959 L8.92198512,17.959 L11.5945821,22.5884248 L17.3430754,22.5881015 L14.4506726,17.959 Z M20.7971765,11.3513017 L17.9181451,15.9590184 L20.6982004,20.4086386 L23.362507,15.7942318 L20.7971765,11.3513017 Z M17.5500547,9 L11.5946186,9 L8.73193185,13.959 L14.4516595,13.959 L17.5500547,9 Z" stroke="#0052D9" stroke-width="2"/></g></svg>