<svg width="32" height="32" viewBox="0 0 32 32" xmlns="http://www.w3.org/2000/svg"><path d="M29.8582223,18 L31.8762125,18 C30.8920163,25.8926232 24.1592353,32 16,32 C7.163444,32 9.59232693e-14,24.836556 9.59232693e-14,16 C9.59232693e-14,7.163444 7.163444,0 16,0 C24.1592353,0 30.8920163,6.10737685 31.8762125,14 L29.8582223,14 C28.887763,7.21541172 23.0529438,2 16,2 C8.2680135,2 2,8.2680135 2,16 C2,23.7319865 8.2680135,30 16,30 C23.0529438,30 28.887763,24.7845883 29.8582223,18 Z M25.5629269,21.4398691 C25.2028907,20.8496781 24.644725,20.3935827 23.9808619,20.1640146 C24.6318587,18.9188509 25,17.5024174 25,16 C25,11.0294373 20.9705627,7 16,7 C14.4975826,7 13.0811491,7.36814127 11.8359854,8.01913809 C11.6064173,7.35527498 11.1503219,6.79710935 10.5601309,6.43707305 C12.1644223,5.52250475 14.0211924,5 16,5 C22.0751322,5 27,9.92486775 27,16 C27,17.9788076 26.4774952,19.8355777 25.5629269,21.4398691 Z M21.4398691,25.5629269 C19.8355777,26.4774952 17.9788076,27 16,27 C9.92486775,27 5,22.0751322 5,16 C5,14.0211924 5.52250475,12.1644223 6.43707305,10.5601309 C6.79710935,11.1503219 7.35527498,11.6064173 8.01913809,11.8359854 C7.36814127,13.0811491 7,14.4975826 7,16 C7,20.9705627 11.0294373,25 16,25 C17.5024174,25 18.9188509,24.6318587 20.1640146,23.9808619 C20.3935827,24.644725 20.8496781,25.2028907 21.4398691,25.5629269 Z M9,11 C7.8954305,11 7,10.1045695 7,9 C7,7.8954305 7.8954305,7 9,7 C10.1045695,7 11,7.8954305 11,9 C11,10.1045695 10.1045695,11 9,11 Z M23,25 C21.8954305,25 21,24.1045695 21,23 C21,21.8954305 21.8954305,21 23,21 C24.1045695,21 25,21.8954305 25,23 C25,24.1045695 24.1045695,25 23,25 Z M13.7327056,21.7589562 C13.4533959,21.9174808 13.141918,22 12.8252641,22 C12.5084626,22 12.1967508,21.9172358 11.9178561,21.7586497 C11.3480975,21.4342582 11,20.8393919 11,20.1847532 L11,11.8151247 C11,11.1602225 11.3480416,10.5656515 11.9173785,10.2415003 C12.482171,9.91952512 13.1667293,9.91972168 13.7327223,10.2412569 L21.0829699,14.4266761 C21.6522211,14.7514957 22,15.345418 22,16.0001018 C22,16.6547387 21.6522284,17.2491946 21.0825075,17.5739792 L13.7327056,21.7589562 Z M13,19.8746668 L19.8044872,16.0001921 L13,12.1255428 L13,19.8746668 Z" fill="#0052D9" fill-rule="nonzero"/></svg>