<svg width="32" height="32" viewBox="0 0 32 32" xmlns="http://www.w3.org/2000/svg"><g fill="none" fill-rule="evenodd"><path d="M4.7 6L28 6 28 21 30 21 30 4 4.7 4C4.4 3.4 3.7 3 3 3 1.9 3 1 3.9 1 5 1 6.1 1.9 7 3 7 3.7 7 4.4 6.6 4.7 6zM29 25C28.3 25 27.6 25.4 27.3 26L4 26 4 11 2 11 2 28 27.3 28C27.6 28.6 28.3 29 29 29 30.1 29 31 28.1 31 27 31 25.9 30.1 25 29 25z" fill="#0052D9" fill-rule="nonzero"/><path d="M9,10.9908506 L9,22.0041504 L20,22.0041504 L20,14.7328648 L15.4835503,10.9908506 L9,10.9908506 Z" stroke="#0052D9" stroke-width="2"/><path stroke="#0052D9" stroke-width="2" d="M12 10.9393311L12 8 17.6132812 8 22.9960938 12.4783936 22.9960938 20.5255127 20.2397461 20.5255127"/><path stroke="#0052D9" stroke-width="2" d="M15 11.0041504L15 15.0041504 20 15.0041504"/></g></svg>