<svg width="32" height="32" viewBox="0 0 32 32" xmlns="http://www.w3.org/2000/svg"><path d="M21,15 C19.896,15 19,15.896 19,17 L19,21 L21,21 L21,17 L22,17 L22,21 L24,21 L24,17 L25,17 L25,15 L21,15 Z M31,22.021 L31,4 L1,4 L1,28 L31,28 L31,25.992 L29,25.992 L29,26 L3,26 L3,11 L29,11 L29,22.021 L31,22.021 Z M3,9 L3,6 L29,6 L29,9 L3,9 Z M27,21 L27,17 C27,15.895 26.105,15 25,15 L25,17 L25,21 L27,21 Z M18,19 L18,17 C18,15.895 17.105,15 16,15 L16,17 L16,19 L16,21 C17.104,21 18,20.105 18,19 Z M15,17 L16,17 L16,15 L15,15 C13.896,15 13,15.895 13,17 L13,19 C13,20.105 13.896,21 15,21 L16,21 L16,19 L15,19 L15,17 Z M7,21 L7,19 L5,19 L5,21 L7,21 Z M12,17 L12,15 L10,15 C8.895,15 8,15.895 8,17 L8,19 C8,20.105 8.895,21 10,21 L12,21 L12,19 L10,19 L10,17 L12,17 Z" fill="#0052D9" fill-rule="evenodd"/></svg>