<svg xmlns="http://www.w3.org/2000/svg" width="32" height="32" viewBox="0 0 32 32"><g fill="#0052D9"><path d="M4.723 6H28v15h2V6 4h-2H4.723C4.376 3.405 3.738 3 3 3 1.895 3 1 3.895 1 5s.895 2 2 2C3.738 7 4.376 6.595 4.723 6zM29 25c-.738 0-1.376.405-1.723 1H4V11H2v15 2h2 23.277c.346.595.984 1 1.723 1 1.105 0 2-.895 2-2S30.105 25 29 25z"/><path d="M9.2,23.8h13.6V10.668L20.332,8.2H9.2V23.8z M21.069,11.2H19.8V9.931L21.069,11.2z M10.8,9.8h7.4v3 h3v9.4H10.8V9.8z"/><path d="M16,14c-1.811,0-3.359,1.242-4,3c0.641,1.758,2.189,3,4,3s3.359-1.242,4-3 C19.359,15.242,17.811,14,16,14z M16,18.4c-0.907,0-1.741-0.534-2.242-1.4c0.501-0.866,1.334-1.4,2.242-1.4s1.741,0.534,2.242,1.4 C17.741,17.866,16.907,18.4,16,18.4z"/><circle cx="16" cy="17" r="1"/></g></svg>