<svg width="32" height="32" viewBox="0 0 32 32" xmlns="http://www.w3.org/2000/svg"><g fill="none" fill-rule="evenodd"><path d="M26.1 12.3L26.1 23.1 14.1 30 2.1 23.1 2.1 8.9 14.1 2 25.7 8.6 27.3 7.5 14.1 0 0.1 8 0.1 24 14.1 32 28.1 24 28.1 11z" transform="translate(2)" fill="#0052D9" fill-rule="nonzero"/><path stroke="#0052D9" stroke-width="2" d="M8.75335156 10L6.5 10 6.5 1 13.5 1" transform="translate(7 9)"/><path stroke="#0052D9" stroke-width="2" transform="rotate(180 11.5 14)" d="M6.75335156 14L4.5 14 4.5 5 11.5 5"/><path fill="#0052D9" transform="matrix(-1 0 0 1 39 9)" d="M14.5 0H17.5V2H14.5z"/><path fill="#0052D9" d="M0.5 13H3.5V15H0.5z" transform="translate(7 9)"/><path fill="#0052D9" d="M31.998 -5.249H33.998000000000005V0.7510000000000003H31.998z"/><path fill="#0052D9" transform="matrix(1 0 0 -1 0 25)" d="M9.02844835 10L8.02844835 10 4.6 10 9.02844835 15 9.02844835 14 9.02844835 12 12.5 12 12.5 10z"/><path fill="#0052D9" transform="matrix(-1 0 0 1 46.9 0)" d="M23.9284483 18L22.9284483 18 19.5 18 23.9284483 23 23.9284483 22 23.9284483 20 27.4 20 27.4 18z"/></g></svg>