<svg width="32" height="32" viewBox="0 0 32 32" xmlns="http://www.w3.org/2000/svg"><path d="M30,2 L30,4 L7,4 L4,7 L4,25 L7,28 L25,28 L28,25 L28,7 L30,7 L30,26 L26,30 L6,30 L2,26 L2,6 L6,2 L30,2 Z M9.53398713,19.0267355 L11.2660379,20.0267355 L11.2660379,22.0267355 L9.53398713,23.0267355 L7.80193632,22.0267355 L7.80193632,20.0267355 L9.53398713,19.0267355 Z M20.5820508,15 L18.0040639,20.027 L19.8050639,20.027 L22.4700508,15 L24.7320508,15 L21.0001059,22.041 L20.9730639,22.027 L12.2660379,22.0267355 L12.2660379,20.0267355 L15.7560639,20.027 L18.3340508,15 L20.5820508,15 Z M11.5338812,9.98573548 L11.5609233,9.99973548 L20.2679492,10 L20.2679492,12 L16.7779233,11.9997355 L14.1999363,17.0267355 L11.9519363,17.0267355 L14.5299233,11.9997355 L12.7289233,11.9997355 L10.0639363,17.0267355 L7.80193632,17.0267355 L11.5338812,9.98573548 Z M23,9 L24.7320508,10 L24.7320508,12 L23,13 L21.2679492,12 L21.2679492,10 L23,9 Z" fill="#0052D9" fill-rule="evenodd"/></svg>