<svg xmlns="http://www.w3.org/2000/svg" width="32" height="32" viewBox="0 0 32 32"><g fill-rule="evenodd" clip-rule="evenodd" fill="#0052D9"><circle cx="3" cy="5" r="2"/><circle cx="29" cy="27" r="2"/><path d="M4 4H30V6H4z"/><path d="M28 5H30V21H28zM2 11H4V28H2z"/><path d="M2 26H28V28H2z"/></g><path fill-rule="evenodd" clip-rule="evenodd" fill="#0052D9" d="M15 13L15 11 8 11 8 21 15 21 15 19 10 19 10 17 15 17 15 15 10 15 10 13zM22 14h-2c-1.105 0-2 .895-2 2v5h2v-5h2v5h2v-5C24 14.895 23.105 14 22 14z"/></svg>