<svg width="32" height="32" viewBox="0 0 32 32" xmlns="http://www.w3.org/2000/svg"><g fill="none" fill-rule="evenodd"><path d="M15.0360687,28.0004791 C8.11442647,28.0085887 2.40020596,22.5918552 2.03859105,15.6796607 C1.67697614,8.76746629 6.79479207,2.78404937 13.6794961,2.06987306 C20.5642002,1.35569675 26.8011952,6.16123631 27.8660687,13.0004791 L29.8660687,13.0004791 C28.8133703,5.17573571 21.8753549,-0.493528697 13.9977603,0.0339993612 C6.12016569,0.561527419 -4.34097203e-14,7.10524111 -4.4408921e-14,15.0004791 C-4.54081217e-14,22.8957171 6.12016569,29.4394308 13.9977603,29.9669588 C21.8753549,30.4944869 28.8133703,24.8252225 29.8660687,17.0004791 L27.8660687,17.0004791 C26.8811903,23.3260041 21.4378026,27.9929773 15.0360687,28.0004791 Z" transform="translate(1 1)" fill="#0052D9"/><g stroke="#0052D9" stroke-width="2"><path d="M4.06533575 0L7.58601979 2.03266788 7.58601979 6.09800363 4.06533575 8.13067151.544651716 6.09800363.544651716 2.03266788zM3.99419238 4.06533575L7.58185118 2.03266788" transform="translate(11.659 9)"/><path d="M4.06533575 0L7.58601979 2.03266788 7.58601979 6.09800363 4.06533575 8.13067151.544651716 6.09800363.544651716 2.03266788zM3.99419238 4.06533575L7.58185118 2.03266788" transform="translate(8.142 15.098)"/><g><path d="M4.06533575 0L7.58601979 2.03266788 7.58601979 6.09800363 4.06533575 8.13067151.544651716 6.09800363.544651716 2.03266788zM3.99419238 4.06533575L7.58185118 2.03266788" transform="translate(15.175 15.098)"/></g></g></g></svg>