<svg width="32" height="32" viewBox="0 0 32 32" xmlns="http://www.w3.org/2000/svg"><g fill="none" fill-rule="evenodd"><path d="M22,24 L22,0 L0,0 L0,30 L22,30 L22,28 L2,28 L2,2 L20,2 L20,24 L22,24 Z M13,24 L13,22 L9,22 L9,24 L13,24 Z" fill="#0052D9" fill-rule="nonzero" transform="translate(5 1)"/><path d="M17.4783663,9.856691 L15.5048781,10.1812591 C15.1106648,7.78430395 13.0281977,6 10.5714286,6 C8.09294557,6 5.99808279,7.81538601 5.62876512,10.2394266 L3.65158109,9.93819029 C4.16920604,6.54072522 7.10107324,4 10.5714286,4 C14.0113673,4 16.9258491,6.49719255 17.4783663,9.856691 Z M3.68307162,12.2510141 L5.65123537,11.8955827 C6.0775899,14.2564758 8.14337956,16 10.5714286,16 C13.001782,16 15.0689216,14.2532178 15.4927305,11.8894213 L17.4613398,12.2423764 C16.8673513,15.5553508 13.9743569,18 10.5714286,18 C7.17172934,18 4.28062679,15.5599127 3.68307162,12.2510141 Z" fill="#0052D9" fill-rule="nonzero" transform="translate(5 1)"/><path d="M10.5714286,11.2022895 C11.6759981,11.2022895 12.5714286,10.306859 12.5714286,9.20228952 C12.5714286,8.09772002 11.6759981,7.20228952 10.5714286,7.20228952 C9.46685907,7.20228952 8.57142857,8.09772002 8.57142857,9.20228952 C8.57142857,10.306859 9.46685907,11.2022895 10.5714286,11.2022895 Z" fill="#0052D9" transform="translate(5 1)"/><path d="M7.57142857,16.3920328 L7.57142857,14 C8.30848245,13.502465 9.3198933,13.0121279 10.5714286,13.0121279 C11.8229638,13.0121279 12.3225566,13.2536975 13.5714286,14 L13.5714286,16.3920328" stroke="#0052D9" stroke-width="2" transform="translate(5 1)"/></g></svg>