<svg xmlns="http://www.w3.org/2000/svg" width="32" height="32" viewBox="0 0 32 32"><path fill="#0052D9" d="M5 12H9V14H5zM22 12H27V14H22zM5 18H9V20H5z"/><path fill="#0052D9" d="M6 13H8V19H6zM10 12H12V20H10zM22 12H24V20H22z"/><path fill="#0052D9" d="M15 17L11 17 11 15 13 15 13 14 11 14 11 12 15 12zM27 20L23 20 23 18 25 18 25 17 23 17 23 15 27 15zM19.5 20L17.5 20 16 15 18 15z"/><path fill="#0052D9" d="M17.5 20L19.5 20 21 15 19 15z"/><path d="M16.062,0c7.811,0,14.315,5.598,15.719,13l-2.041,0C28.367,6.71,22.764,2,16.062,2	c-7.732,0-14,6.268-14,14s6.268,14,14,14c7.053,0,12.887-5.215,13.858-11.999l2.018,0C30.954,25.893,24.221,32,16.062,32	c-8.837,0-16-7.163-16-16S7.225,0,16.062,0z" fill="#0052D9"/></svg>