<svg width="32" height="32" viewBox="0 0 32 32" xmlns="http://www.w3.org/2000/svg"><g fill="#0052D9" fill-rule="nonzero"><g transform="translate(7 8)"><path d="M12.2716515,15.9260657 L12.2716515,13.6666667 L15.6080413,11.7404011 L15.6727795,4.14746894 L12.2716515,2.22230194 L12.2716515,0.0108321414 L17.579288,3.04674578 L17.539644,12.8845888 L12.2716515,15.9260657 Z M5.72834847,15.9891679 L0.42071203,12.9532542 L0.460356015,3.11541118 L5.72834847,0.0739343127 L5.72834847,2.33333333 L2.39195871,4.25959886 L2.32722047,11.8525311 L5.72834847,13.7776981 L5.72834847,15.9891679 Z"/><path d="M2 5H9V7H2zM9 9H16V11H9z"/><circle cx="5.5" cy="10.5" r="1.5"/><circle cx="12.5" cy="5.5" r="1.5"/></g><path d="M4.7,6 L28,6 L28,21 L30,21 L30,4 L4.7,4 C4.4,3.4 3.7,3 3,3 C1.9,3 1,3.9 1,5 C1,6.1 1.9,7 3,7 C3.7,7 4.4,6.6 4.7,6 Z M29,25 C28.3,25 27.6,25.4 27.3,26 L4,26 L4,11 L2,11 L2,28 L27.3,28 C27.6,28.6 28.3,29 29,29 C30.1,29 31,28.1 31,27 C31,25.9 30.1,25 29,25 Z"/></g></svg>