<svg width="32" height="32" viewBox="0 0 32 32" xmlns="http://www.w3.org/2000/svg"><path d="M4,8.00018082 L4,23.0001808 L27.28,23.0001808 C27.6351046,22.3850917 28.2897779,22.0044677 29,22.0001808 C29.9720785,21.9943337 30.8075876,22.6882973 30.9802345,23.6449392 C31.1528813,24.6015812 30.6126615,25.543825 29.6998631,25.878145 C28.7870648,26.212465 27.7660656,25.8420305 27.28,25.0001808 L27.28,25.0001808 L2,25.0001808 L2,8.00018082 L4,8.00018082 Z M16,18 C17.1045695,18 18,18.8954305 18,20 C18,21.1045695 17.1045695,22 16,22 C14.8954305,22 14,21.1045695 14,20 C14,18.8954305 14.8954305,18 16,18 Z M16,4 C17.1045695,4 18,4.8954305 18,6 C18,6.7398375 17.5982846,7.38584934 17.0010775,7.73181186 L17.0007613,9.12621352 C18.7256022,9.57052105 20,11.1364348 20,13 C20,13.5901098 19.8722145,14.1503737 19.6428054,14.65463 L21.3578221,16.1053277 C21.5593836,16.0370333 21.775367,16 22,16 C23.1045695,16 24,16.8954305 24,18 C24,19.1045695 23.1045695,20 22,20 C20.8954305,20 20,19.1045695 20,18 C20,17.8662298 20.013133,17.735527 20.03818,17.6091106 L18.386068,16.2107106 C17.7199425,16.7065569 16.8942399,17 16,17 C15.1175204,17 14.3017873,16.7142244 13.6402957,16.2301683 L11.9685998,17.645059 C11.9892316,17.7602542 12,17.8788695 12,18 C12,19.1045695 11.1045695,20 10,20 C8.8954305,20 8,19.1045695 8,18 C8,16.8954305 8.8954305,16 10,16 C10.2376498,16 10.4656185,16.0414496 10.6770711,16.1175138 L12.3708513,14.6843241 C12.1328625,14.1724054 12,13.6017185 12,13 C12,11.1360729 13.2748927,9.56991294 15.0002435,9.12595483 L14.9999275,7.73239368 C14.4021661,7.38657394 14,6.74025244 14,6 C14,4.8954305 14.8954305,4 16,4 Z M2.4703111,0.0683291667 C3.34467813,-0.165956773 4.26739432,0.216244787 4.72,1.00018082 L4.72,1.00018082 L30,1.00018082 L30,18.0001808 L28,18.0001808 L28,3.00018082 L4.72,3.00018082 C4.26739432,3.78411685 3.34467813,4.16631841 2.4703111,3.93203247 C1.59594407,3.69774653 0.987949192,2.90539218 0.987949192,2.00018082 C0.987949192,1.09496946 1.59594407,0.302615107 2.4703111,0.0683291667 Z M14.1147395,13.6693082 L14.1316639,13.7151776 L14.1316639,13.7151776 L14.1409492,13.74 L14.1590715,13.7829708 L14.1590715,13.7829708 L14.175329,13.8200928 L14.175329,13.8200928 L14.1889492,13.848 L14.2102376,13.8935907 L14.2102376,13.8935907 L14.2299492,13.933 L14.2539492,13.976 L14.2559492,13.98 L14.2549492,13.977 L14.2649492,13.995 L14.2679492,14.001 L14.2939492,14.043 L14.3079492,14.065 L14.3121763,14.0734332 L14.3359492,14.109 L14.3489492,14.129 L14.3505364,14.1313801 L14.3729492,14.164 L14.3799492,14.173 L14.4722011,14.290737 L14.4722011,14.290737 L14.5898765,14.4182919 L14.6460443,14.4720215 L14.6460443,14.4720215 L14.6619492,14.486 L14.6783744,14.5011346 C14.6985073,14.5188738 14.7189999,14.5362143 14.7398399,14.5531437 L14.7089492,14.527 L14.7589492,14.568 L14.7603375,14.5695739 L14.8049315,14.6038388 L14.8049315,14.6038388 L14.8409492,14.629 L14.8659492,14.647 L14.8721283,14.6518692 L14.8180829,14.6135711 C14.8582321,14.6430296 14.8995213,14.6710257 14.941872,14.6974809 L14.9352147,14.6933041 L14.9659492,14.712 L14.9939492,14.729 L14.9999275,14.7323937 L15.0114994,14.7390368 L15.0114994,14.7390368 L15.0489492,14.759 L15.0599492,14.765 L15.0719492,14.771 L15.1059492,14.789 L15.1329492,14.802 L15.2901127,14.8703538 C15.5107245,14.9541324 15.7500058,15 16,15 C16.3402074,15 16.660575,14.9150559 16.9410508,14.7652198 L17.0179492,14.721 L17.0579492,14.697 L17.0439492,14.705 L17.0779492,14.684 L17.0849492,14.679 L17.0974295,14.6722886 L17.0974295,14.6722886 L17.1199492,14.656 L17.0959492,14.672 L17.0849492,14.679 L17.0789492,14.683 L17.0959492,14.672 L17.1199492,14.656 L17.1269492,14.651 L17.1649492,14.625 L17.2908638,14.5276917 C17.3752247,14.4563367 17.4535956,14.3781202 17.5251155,14.2939034 L17.5619972,14.2491831 L17.5619972,14.2491831 L17.5429492,14.271 L17.5729492,14.234 L17.6073196,14.1903906 L17.6073196,14.1903906 L17.6089492,14.187 L17.6489492,14.131 L17.6643374,14.109427 L17.6643374,14.109427 L17.6809492,14.082 L17.6926479,14.065826 L17.6926479,14.065826 L17.7062807,14.043909 L17.7062807,14.043909 L17.7309492,14.001 L17.7439492,13.977 L17.7349492,13.995 L17.7449492,13.976 L17.7694415,13.9331051 L17.7694415,13.9331051 L17.7889492,13.893 L17.8069492,13.856 L17.8039716,13.8646018 L17.8169492,13.835 L17.8119492,13.845 L17.8710548,13.7080386 C17.89124,13.6547256 17.909212,13.6003246 17.9248587,13.5449477 L17.9359492,13.497 L17.9339492,13.507 L17.9406828,13.4854277 L17.9406828,13.4854277 L17.9449492,13.464 L17.9389492,13.485 L17.9499492,13.442 L17.9499492,13.44 L17.9579492,13.403 L17.9659492,13.364 L17.983643,13.2569854 C17.9944356,13.1728474 18,13.0870735 18,13 C18,11.8954305 17.1045695,11 16,11 C14.8954305,11 14,11.8954305 14,13 C14,13.0502077 14.0018501,13.0999833 14.0054857,13.1492623 L14.0206697,13.2886055 C14.0357015,13.3926096 14.0587363,13.494024 14.0891296,13.5922044 L14.1099492,13.656 L14.1289492,13.708 L14.1147395,13.6693082 L14.1147395,13.6693082 Z M22.5,8.5 C23.6045695,8.5 24.5,9.3954305 24.5,10.5 C24.5,11.6045695 23.6045695,12.5 22.5,12.5 C21.3954305,12.5 20.5,11.6045695 20.5,10.5 C20.5,9.3954305 21.3954305,8.5 22.5,8.5 Z M9.5,8.5 C10.6045695,8.5 11.5,9.3954305 11.5,10.5 C11.5,11.6045695 10.6045695,12.5 9.5,12.5 C8.3954305,12.5 7.5,11.6045695 7.5,10.5 C7.5,9.3954305 8.3954305,8.5 9.5,8.5 Z" transform="translate(0 3)" fill="#0052D9" fill-rule="nonzero"/></svg>