<svg xmlns="http://www.w3.org/2000/svg" xmlns:xlink="http://www.w3.org/1999/xlink" width="32" height="32" viewBox="0 0 32 32"><defs><path d="M31.8,13h-2c-1.4-6.3-7-11-13.7-11C8.3,2,2,8.3,2,16s6.3,14,14.1,14C23.1,30,29,24.8,30,18h2 c-1,7.9-7.7,14-15.9,14C7.2,32,0,24.8,0,16S7.2,0,16.1,0C23.9,0,30.4,5.6,31.8,13z"/></defs><use xlink:href="#a" overflow="visible" fill="#0052D9"/><g fill="#0052D9" stroke="#0052D9" stroke-width=".5" stroke-miterlimit="10"><path d="M12 11.7h1.3v8.7H12V11.7zM15.1 11.7h3.1c.3 0 .6 0 1 .1.3.1.7.3.9.5.3.2.5.5.6.8.2.4.3.8.3 1.2 0 .6-.2 1.3-.7 1.8-.5.6-1.2.9-2 .9h-1.9v3.4h-1.3V11.7zM16.4 15.7h1.9c.4 0 .8-.1 1.1-.5.2-.3.3-.6.3-1 0-.3 0-.5-.1-.7-.1-.2-.2-.3-.4-.4-.3-.2-.6-.3-.9-.2h-1.8V15.7z"/></g><g fill="#0052D9"><path d="M16.2 6.9L18.3 9 19.7 7.6 17.6 5.5 16.2 4.1 14.8 5.5 12.6 7.6 14.1 9zM15.8 25.1L13.7 23 12.3 24.4 14.4 26.5 15.8 27.9 17.2 26.5 19.4 24.4 17.9 23zM25.1 15.8L23 13.7 24.4 12.3 26.5 14.4 27.9 15.8 26.5 17.2 24.4 19.4 23 17.9zM6.9 16.2L9 18.3 7.6 19.7 5.5 17.6 4.1 16.2 5.5 14.8 7.6 12.6 9 14.1z"/></g></svg>