<svg width="32" height="32" viewBox="0 0 32 32" xmlns="http://www.w3.org/2000/svg"><g fill="#0052D9" fill-rule="evenodd"><path d="M4.723,6 L28,6 L28,21 L30,21 L30,4 L4.723,4 C4.27039432,3.21606397 3.34767813,2.83386241 2.4733111,3.06814835 C1.59894407,3.30243429 0.990949192,4.09478864 0.990949192,5 C0.990949192,5.90521136 1.59894407,6.69756571 2.4733111,6.93185165 C3.34767813,7.16613759 4.27039432,6.78393603 4.723,6 Z M29,25 C28.2882598,25.0015824 27.63144,25.3827895 27.277,26 L4,26 L4,11 L2,11 L2,28 L27.277,28 C27.7628709,28.8415301 28.7833091,29.2120576 29.6959246,28.8783268 C30.6085401,28.5445959 31.1492218,27.6031884 30.9775978,26.6467426 C30.8059737,25.6902968 29.9717119,24.9956083 29,25 Z"/><path d="M10.2336769,12.9789801 C11.3386126,11.1696385 13.3826318,10 15.6631611,10 C17.9846903,10 20.0590558,11.2121484 21.1486984,13.0725224 L23.3810105,13.0916535 C22.1764288,10.1113647 19.175059,8 15.6631611,8 C12.2032657,8 9.23889088,10.0492997 8,12.9598373 L10.2336769,12.9789801 Z M15.6631611,10 C17.9846903,10 20.0590558,11.2121484 21.1486984,13.0725224 L23.3810105,13.0916535 C22.1764288,10.1113647 19.175059,8 15.6631611,8 C12.2032657,8 9.23889088,10.0492997 8,12.9598373 L10.2336769,12.9789801 C11.3386126,11.1696385 13.3826318,10 15.6631611,10 Z" fill-rule="nonzero"/><path d="M10.2336769,23.9789801 C11.3386126,22.1696385 13.3826318,21 15.6631611,21 C17.9846903,21 20.0590558,22.2121484 21.1486984,24.0725224 L23.3810105,24.0916535 C22.1764288,21.1113647 19.175059,19 15.6631611,19 C12.2032657,19 9.23889088,21.0492997 8,23.9598373 L10.2336769,23.9789801 Z M15.6631611,21 C17.9846903,21 20.0590558,22.2121484 21.1486984,24.0725224 L23.3810105,24.0916535 C22.1764288,21.1113647 19.175059,19 15.6631611,19 C12.2032657,19 9.23889088,21.0492997 8,23.9598373 L10.2336769,23.9789801 C11.3386126,22.1696385 13.3826318,21 15.6631611,21 Z" fill-rule="nonzero" transform="rotate(-180 15.69 21.546)"/><path d="M8 15L20 15 20 17 8 17z"/></g></svg>