<svg width="32" height="32" viewBox="0 0 32 32" xmlns="http://www.w3.org/2000/svg"><g fill="#0052D9" fill-rule="evenodd"><path d="M23,13 L23,21 L22,21 L22,23 L20,23 L20,21 L19,21 L19,23 L17,23 L17,21 L15,21 L15,23 L13,23 L13,21 L12,21 L12,23 L10,23 L10,21 L9,21 L9,13 L8,13 L8,9 L24,9 L24,13 L23,13 Z M11,19 L21,19 L21,12 L22,12 L22,11 L10,11 L10,12 L11,12 L11,19 Z M19,17 L19,18 L13,18 L13,17 L13,16 L12,16 L12,14 L13,14 L13,12 L19,12 L19,14 L20,14 L20,16 L19,16 L19,17 Z M17,15 L17,14 L15,14 L15,16 L17,16 L17,15 Z"/><path d="M31.7193022,13.0004945 L29.6779284,13.0004945 C28.3047737,6.70988283 22.7024129,2 16,2 C8.2680135,2 2,8.2680135 2,16 C2,23.7319865 8.2680135,30 16,30 C23.0527724,30 28.8874794,24.7848417 29.8581515,18.0004945 L31.8761508,18.0004945 C30.8917351,25.8928783 24.1590649,32 16,32 C7.163444,32 -2.0250468e-13,24.836556 -2.0250468e-13,16 C-2.0250468e-13,7.163444 7.163444,0 16,0 C23.8113418,0 30.3152783,5.59766728 31.7193022,13.0004945 Z" fill-rule="nonzero"/></g></svg>