<svg xmlns="http://www.w3.org/2000/svg" width="32" height="32" viewBox="0 0 32 32"><path d="M11.736,10.4L9.027,12v4.2l2.007,1.2v-2.2l2.007,1.2c0.1-0.7,0.401-1.4,0.903-1.8L11.334,13 l2.408-1.4L11.736,10.4z M28.993,18c-1.003,6.2-6.421,11-12.943,11C8.826,29,3.007,23.2,3.007,16S8.826,3,16.05,3 c6.522,0,11.94,4.8,12.843,11H30.9C29.997,6.7,23.676,1,16.05,1C7.722,1,1,7.7,1,16s6.722,15,15.05,15 c7.625,0,13.946-5.7,14.95-13H28.993z M23.074,16.2V12l-2.709-1.6l-2.007,1.2l2.408,1.4l-2.709,1.6c0.1,0.1,0.201,0.2,0.301,0.3 l0,0c0.301,0.4,0.502,0.9,0.602,1.4l2.107-1.2v2.2L23.074,16.2z M19.06,22.3V20l-2.007,1.1v-1.5c-0.301,0.1-0.602,0.2-1.003,0.2 c-0.401,0-0.702-0.1-1.003-0.2v1.6L13.04,20v2.3l3.01,1.7L19.06,22.3z M18.057,16.8c0-1.1-0.903-2-2.007-2s-2.007,0.9-2.007,2 s0.903,2,2.007,2S18.057,17.9,18.057,16.8z" fill="#0052D9"/></svg>