<svg data-name="图层 1" xmlns="http://www.w3.org/2000/svg" width="32" height="32" viewBox="0 0 32 32"><path fill="#0052D9" d="M16,2.19a24.26,24.26,0,0,1,13.16,4A28.67,28.67,0,0,1,16,29.56,28.67,28.67,0,0,1,2.84,6.23,24.26,24.26,0,0,1,16,2.19m0-2a26.58,26.58,0,0,0-15.13,5A30.89,30.89,0,0,0,16,31.89h0A30.89,30.89,0,0,0,31.13,5.17,26.58,26.58,0,0,0,16,.21Z"/><path fill="#0052D9" d="M21.86 22.16L9.82 22.16 9.82 5.42 11.5 5.42 11.5 20.48 20.18 20.48 20.18 7.12 12.42 7.12 12.42 5.44 21.86 5.44 21.86 22.16z"/><path fill="#0052D9" d="M10.98 17.54H19.27V19.22H10.98zM15.84 16.86l-3.72-2.15v-4.3l3.72-2.15 3.72 2.15v4.3zm-2.19-3l2.19 1.27L18 13.82V11.3L15.84 10 13.65 11.3z"/><path fill="#0052D9" d="M18.02 14.79L15.84 13.53 13.67 14.79 12.83 13.33 15.84 11.59 18.86 13.33 18.02 14.79z"/><path fill="#0052D9" transform="rotate(-88.75 15.84 11.208)" d="M14.48 10.36H17.19V12.04H14.48z"/></svg>