<svg width="33" height="32" viewBox="0 0 33 32" xmlns="http://www.w3.org/2000/svg"><g transform="translate(1)" fill="#0052D9" fill-rule="evenodd"><path d="M15.9995794,1 C19.2200764,1 21.4724652,4.39729874 22.4851391,9.98765131 C22.825127,11.864516 23,13.9079276 23,16 C23,18.1911365 22.8081443,20.3282615 22.4362191,22.2752737 C21.3970527,27.7152633 19.1684806,31 15.9995794,31 C14.0256868,31 12.3904019,29.6543928 11.1980851,27.3673763 L12.9724131,26.4683086 C13.8261132,28.0969605 14.8846989,29 15.9995794,29 C17.865515,29 19.5655557,26.6438458 20.4717398,21.9000119 C20.8193028,20.0805352 21,18.0688582 21,16 C21,14.0243198 20.8352443,12.1000518 20.5171672,10.3441429 C19.6311786,5.45314282 17.9004138,3 15.9995794,3 C14.9768515,3 14.0014335,3.75993357 13.1881071,5.14183888 L13.188561,4.75257881 L11.5247062,4.0478499 C12.682259,2.11815087 14.2002338,1 15.9995794,1 Z" fill-rule="nonzero"/><circle cx="12" cy="5" r="2"/><path d="M14.1006238,1.51901223 C17.3211208,1.51901223 19.5735097,4.91631097 20.5861836,10.5066635 C20.9261714,12.3835282 21.1010445,14.4269398 21.1010445,16.5190122 C21.1010445,18.7101488 20.9091888,20.8472737 20.5372635,22.794286 C19.4980972,28.2342755 17.269525,31.5190122 14.1006238,31.5190122 C12.1267313,31.5190122 10.4914464,30.1734051 9.29912956,27.8863885 L11.0734575,26.9873208 C11.9271576,28.6159727 12.9857434,29.5190122 14.1006238,29.5190122 C15.9665595,29.5190122 17.6666001,27.162858 18.5727843,22.4190241 C18.9203473,20.5995475 19.1010445,18.5878704 19.1010445,16.5190122 C19.1010445,14.543332 18.9362887,12.6190641 18.6182116,10.8631552 C17.7322231,5.97215505 16.0014583,3.51901223 14.1006238,3.51901223 C13.077896,3.51901223 12.1024779,4.27894579 11.2891515,5.66085111 L11.2896055,5.27159103 L9.6257507,4.56686213 C10.7833035,2.6371631 12.3012783,1.51901223 14.1006238,1.51901223 Z" fill-rule="nonzero" transform="rotate(120 15.2 16.519)"/><circle transform="rotate(120 27.276 17.603)" cx="27.276" cy="17.603" r="2"/><path d="M14.1006238,-0.519012226 C17.3211208,-0.519012226 19.5735097,2.87828652 20.5861836,8.46863908 C20.9261714,10.3455038 21.1010445,12.3889154 21.1010445,14.4809878 C21.1010445,16.6721243 20.9091888,18.8092493 20.5372635,20.7562615 C19.4980972,26.196251 17.269525,29.4809878 14.1006238,29.4809878 C12.1267313,29.4809878 10.4914464,28.1353806 9.29912956,25.8483641 L11.0734575,24.9492964 C11.9271576,26.5779483 12.9857434,27.4809878 14.1006238,27.4809878 C15.9665595,27.4809878 17.6666001,25.1248336 18.5727843,20.3809997 C18.9203473,18.561523 19.1010445,16.549846 19.1010445,14.4809878 C19.1010445,12.5053075 18.9362887,10.5810396 18.6182116,8.82513071 C17.7322231,3.9341306 16.0014583,1.48098777 14.1006238,1.48098777 C13.077896,1.48098777 12.1024779,2.24092134 11.2891515,3.62282666 L11.2896055,3.23356658 L9.6257507,2.52883768 C10.7833035,0.599138647 12.3012783,-0.519012226 14.1006238,-0.519012226 Z" fill-rule="nonzero" transform="rotate(-120 15.2 14.481)"/><circle transform="rotate(-120 8.224 24.397)" cx="8.224" cy="24.397" r="2"/><path transform="rotate(-15 16.178 15.813)" d="M19.3551402 15.7321423L16.8201194 14.9017506 18.2667326 12 13 15.894026 15.5350208 16.7244176 14.0884076 19.6261682z"/></g></svg>