<svg width="32" height="32" viewBox="0 0 32 32" xmlns="http://www.w3.org/2000/svg"><g fill="#0052D9" fill-rule="nonzero"><path d="M26 22.84L14 29.7 2 22.84 2 9.16 14 2.3 26 9.16 26 9.14 28 8 14 0 0 8 0 24 14 32 28 24 28 12 26 13.14z" transform="translate(2)"/><g transform="translate(9 7)"><path d="M4.99 15.85L7 17 14 13 14 10.7z"/><path d="M2 7.47L0 8.61 0 12 2.97 13.7 4.99 12.55 2 10.84zM2 5.16L2 5.16 7 2.3 7 2.3 9.02 1.15 7 0 0 4 0 6.31zM9.02 3.46L12 5.16 12 8.54 14 7.4 14 4 11.03 2.3z" transform="translate(0 1)"/><circle cx="7" cy="2" r="2"/><circle cx="7" cy="16" r="2"/><g><path d="M6 5.48L12.03 2.04 11.04.3 6 3.18zM4 4.32L0 6.6 0 8.91 4 6.62z" transform="translate(0 3)"/></g><g><path d="M7 3.53L.98 6.96 1.97 8.7 7 5.83zM9 2.39L9 4.69 13 2.41 13 .1z" transform="translate(1 6)"/></g></g></g></svg>