<svg width="32" height="32" viewBox="0 0 32 32" xmlns="http://www.w3.org/2000/svg"><g fill="none" fill-rule="evenodd"><g stroke="#0052D9" stroke-width="2"><path d="M.451796157 9.08045113C.0260651629 9.70601504-.0868838764 10.4966583.278028404 11.1656642.781954887 12.0953216 1.59866332 12.3820384 2.53700919 11.8433584 2.80634921 11.6869674 3.01487051 11.4871345 3.17994987 11.2438596 3.17994987 11.2438596 4.08354219 9.88847118 4.42238931 9.18471178 5.03057644 7.95964912 5.28253968 6.97786132 4.41370092 5.46608187 3.74469507 4.30183793 3.49273183 3.85873016 3.49273183 3.85873016L.451796157 9.08045113zM11.1830409 12.2430242C11.9389307 12.2951546 12.6774436 11.991061 13.0684211 11.3394319 13.6157895 10.4358396 13.4507101 9.58437761 12.5036759 9.04569758 12.2343358 8.8893066 11.947619 8.81111111 11.6609023 8.79373434 11.6609023 8.79373434 10.0361738 8.69816207 9.25421888 8.75898079 7.89014202 8.85455305 6.91704261 9.12389307 6.04820384 10.6443609 5.37919799 11.8086048 5.12723475 12.2517126 5.12723475 12.2517126L11.1830409 12.2430242zM8.90668338 1.26850459C8.57652464.590810359 7.94227235.104260652 7.17769424.0868838764 6.11771094.0695071011 5.47477026.634252297 5.47477026 1.72030075 5.47477026 2.02439432 5.55296575 2.3197995 5.67460317 2.57176274 5.67460317 2.57176274 6.41311612 4.02272348 6.85622389 4.66566416 7.62080201 5.80384294 8.35062657 6.50760234 10.0969925 6.49891395 11.4350042 6.49022556 11.947619 6.49022556 11.947619 6.49022556L8.90668338 1.26850459z" transform="translate(8.481 9.481)"/></g><path d="M0 0H32V32H0z"/><g transform="translate(0 3)" fill="#0052D9"><path d="M2 1H29V3H2zM1 23H29V25H1z"/><path d="M1 8H3V25H1zM27 1H29V18H27z"/><circle cx="2" cy="2" r="2"/><circle cx="29" cy="24" r="2"/></g></g></svg>