<svg width="32" height="32" viewBox="0 0 32 32" xmlns="http://www.w3.org/2000/svg"><path d="M18.0677432,7.5180432 C18.0235573,7.35281657 18,7.17915933 18,7 C18,5.8954305 18.8954305,5 20,5 C21.1045695,5 22,5.8954305 22,7 C22,8.1045695 21.1045695,9 20,9 C19.8208407,9 19.6471834,8.97644275 19.4819568,8.93225676 L17.7658667,10.6483468 C17.9174256,11.0705517 18,11.5256327 18,12 C18,12.7418086 17.7980706,13.4364541 17.4461809,14.0319673 L20.4819568,17.0677432 C20.6471834,17.0235573 20.8208407,17 21,17 C22.1045695,17 23,17.8954305 23,19 C23,20.1045695 22.1045695,21 21,21 C19.8954305,21 19,20.1045695 19,19 C19,18.8208407 19.0235573,18.6471834 19.0677432,18.4819568 L16.0319673,15.4461809 C15.4364541,15.7980706 14.7418086,16 14,16 C13.5256327,16 13.0705517,15.9174256 12.6483468,15.7658667 L10.9322568,17.4819568 C10.9764427,17.6471834 11,17.8208407 11,18 C11,19.1045695 10.1045695,20 9,20 C7.8954305,20 7,19.1045695 7,18 C7,16.8954305 7.8954305,16 9,16 C9.17915933,16 9.35281657,16.0235573 9.5180432,16.0677432 L10.9720121,14.6137743 C10.3663331,13.912736 10,12.9991489 10,12 C10,11.2581914 10.2019294,10.5635459 10.5538191,9.96803265 L9.5180432,8.93225676 C9.35281657,8.97644275 9.17915933,9 9,9 C7.8954305,9 7,8.1045695 7,7 C7,5.8954305 7.8954305,5 9,5 C10.1045695,5 11,5.8954305 11,7 C11,7.17915933 10.9764427,7.35281657 10.9322568,7.5180432 L11.9680327,8.55381909 C12.5635459,8.20192939 13.2581914,8 14,8 C14.9991489,8 15.912736,8.36633313 16.6137743,8.97201214 L18.0677432,7.5180432 Z M12.3938376,13.1919489 L12.3981105,13.1876759 C12.7628844,13.6747763 13.34463,13.99 14,13.99 C14.1665033,13.99 14.3282544,13.9696534 14.4829026,13.931311 L14.4696699,13.9445436 C14.4858721,13.9406444 14.5019974,13.9365478 14.5180432,13.9322568 L14.5101394,13.924353 C15.1994773,13.7430453 15.7433544,13.2030215 15.9301331,12.5159195 L15.9322568,12.5180432 C15.9365478,12.5019974 15.9406444,12.4858721 15.9445436,12.4696699 L15.941311,12.4729026 C15.9796534,12.3182544 16,12.1565033 16,11.99 C15.9945907,10.8900312 15.1012343,10 14,10 C12.8954305,10 12,10.8954305 12,12 C12,12.4466345 12.1464031,12.8590748 12.3938376,13.1919489 Z M3.7,3 C3.4,3.6 2.7,4 2,4 C0.9,4 0,3.1 0,2 C0,0.9 0.9,0 2,0 C2.7,0 3.4,0.4 3.7,1 L29,1 L29,18 L27,18 L27,3 L3.7,3 Z M28,22 C29.1,22 30,22.9 30,24 C30,25.1 29.1,26 28,26 C27.3,26 26.6,25.6 26.3,25 L1,25 L1,8 L3,8 L3,23 L26.3,23 C26.6,22.4 27.3,22 28,22 Z" transform="translate(1 3)" fill="#0052D9" fill-rule="nonzero"/></svg>