<svg data-name="图层 1" xmlns="http://www.w3.org/2000/svg" width="32" height="32" viewBox="0 0 32 32"><defs><clipPath><path fill="#0052D9" d="M13.77 15.2H18.43V16.38H13.77z"/></clipPath><clipPath><path fill="#0052D9" d="M15.64 9.5H16.86V10.72H15.64z"/></clipPath><clipPath><path fill="#0052D9" d="M13.59 9.5H14.81V10.72H13.59z"/></clipPath><clipPath><path fill="#0052D9" d="M11.53 9.5H12.75V10.72H11.53z"/></clipPath></defs><path fill="#0052D9" d="M16,2A24.5,24.5,0,0,1,29.31,6.07,29,29,0,0,1,16,29.65,29,29,0,0,1,2.69,6.07,24.5,24.5,0,0,1,16,2m0-2A26.89,26.89,0,0,0,.7,5,31.24,31.24,0,0,0,16,32h0A31.24,31.24,0,0,0,31.3,5,26.89,26.89,0,0,0,16,0Z"/><g fill="#0052D9"><path d="M23.26,19.76H8.74V6.91H23.26Zm-12.82-1.7H21.56V8.61H10.44Z"/><path d="M23.26 13.3H8.74V6.91H23.26zM10.44 11.6H21.56v-3H10.44zM13.77 15.2H18.43V16.38H13.77z"/><g clip-path="url(#a)"><path d="M13.77 15.2H13.82V16.38H13.77zM13.82 15.2H13.870000000000001V16.38H13.82z"/><path d="M13.87 15.2H13.92V16.38H13.87zM13.92 15.2H13.97V16.38H13.92zM13.98 15.2H14.030000000000001V16.38H13.98z"/><path d="M14.03 15.2H14.08V16.38H14.03zM14.08 15.2H14.13V16.38H14.08zM14.13 15.2H14.180000000000001V16.38H14.13z"/><path d="M14.18 15.2H14.23V16.38H14.18zM14.23 15.2H14.280000000000001V16.38H14.23zM14.29 15.2H14.34V16.38H14.29zM14.34 15.2H14.39V16.38H14.34zM14.39 15.2H14.440000000000001V16.38H14.39z"/><path d="M14.44 15.2H14.49V16.38H14.44zM14.49 15.2H14.540000000000001V16.38H14.49zM14.55 15.2H14.600000000000001V16.38H14.55z"/><path d="M14.6 15.2H14.65V16.38H14.6zM14.65 15.2H14.700000000000001V16.38H14.65z"/><path d="M14.7 15.2H14.75V16.38H14.7zM14.75 15.2H14.8V16.38H14.75zM14.8 15.2H14.850000000000001V16.38H14.8zM14.86 15.2H14.91V16.38H14.86zM14.91 15.2H14.96V16.38H14.91zM14.96 15.2H15.010000000000002V16.38H14.96z"/><path d="M15.01 15.2H15.06V16.38H15.01zM15.06 15.2H15.110000000000001V16.38H15.06z"/><path d="M15.11 15.2H15.16V16.38H15.11zM15.17 15.2H15.22V16.38H15.17zM15.22 15.2H15.270000000000001V16.38H15.22z"/><path d="M15.27 15.2H15.32V16.38H15.27zM15.32 15.2H15.370000000000001V16.38H15.32z"/><path d="M15.37 15.2H15.42V16.38H15.37zM15.42 15.2H15.47V16.38H15.42zM15.48 15.2H15.530000000000001V16.38H15.48z"/><path d="M15.53 15.2H15.58V16.38H15.53zM15.58 15.2H15.63V16.38H15.58zM15.63 15.2H15.680000000000001V16.38H15.63z"/><path d="M15.68 15.2H15.73V16.38H15.68zM15.74 15.2H15.790000000000001V16.38H15.74z"/><path d="M15.79 15.2H15.84V16.38H15.79zM15.84 15.2H15.89V16.38H15.84zM15.89 15.2H15.940000000000001V16.38H15.89z"/><path d="M15.94 15.2H15.99V16.38H15.94zM15.99 15.2H16.04V16.38H15.99zM16.05 15.2H16.1V16.38H16.05zM16.1 15.2H16.150000000000002V16.38H16.1z"/><path d="M16.15 15.2H16.2V16.38H16.15zM16.2 15.2H16.25V16.38H16.2zM16.25 15.2H16.3V16.38H16.25zM16.3 15.2H16.35V16.38H16.3zM16.36 15.2H16.41V16.38H16.36zM16.41 15.2H16.46V16.38H16.41zM16.46 15.2H16.51V16.38H16.46zM16.51 15.2H16.560000000000002V16.38H16.51z"/><path d="M16.56 15.2H16.61V16.38H16.56zM16.61 15.2H16.66V16.38H16.61zM16.67 15.2H16.720000000000002V16.38H16.67z"/><path d="M16.72 15.2H16.77V16.38H16.72zM16.77 15.2H16.82V16.38H16.77zM16.82 15.2H16.87V16.38H16.82zM16.87 15.2H16.92V16.38H16.87zM16.92 15.2H16.970000000000002V16.38H16.92zM16.98 15.2H17.03V16.38H16.98zM17.03 15.2H17.080000000000002V16.38H17.03z"/><path d="M17.08 15.2H17.13V16.38H17.08zM17.13 15.2H17.18V16.38H17.13zM17.18 15.2H17.23V16.38H17.18zM17.24 15.2H17.29V16.38H17.24zM17.29 15.2H17.34V16.38H17.29zM17.34 15.2H17.39V16.38H17.34zM17.39 15.2H17.44V16.38H17.39zM17.44 15.2H17.490000000000002V16.38H17.44z"/><path d="M17.49 15.2H17.54V16.38H17.49zM17.55 15.2H17.6V16.38H17.55zM17.6 15.2H17.650000000000002V16.38H17.6z"/><path d="M17.65 15.2H17.7V16.38H17.65zM17.7 15.2H17.75V16.38H17.7zM17.75 15.2H17.8V16.38H17.75zM17.8 15.2H17.85V16.38H17.8zM17.86 15.2H17.91V16.38H17.86zM17.91 15.2H17.96V16.38H17.91zM17.96 15.2H18.01V16.38H17.96zM18.01 15.2H18.060000000000002V16.38H18.01z"/><path d="M18.06 15.2H18.11V16.38H18.06zM18.11 15.2H18.16V16.38H18.11zM18.17 15.2H18.220000000000002V16.38H18.17z"/><path d="M18.22 15.2H18.27V16.38H18.22zM18.27 15.2H18.32V16.38H18.27zM18.32 15.2H18.37V16.38H18.32zM18.37 15.2H18.42V16.38H18.37z"/></g><g><path d="M15.64 9.5H16.86V10.72H15.64z"/><g clip-path="url(#b)"><path d="M15.64 9.5H15.65V10.72H15.64zM15.65 9.5H15.66V10.72H15.65zM15.66 9.5H15.67V10.72H15.66zM15.68 9.5H15.69V10.72H15.68zM15.69 9.5H15.7V10.72H15.69zM15.7 9.5H15.709999999999999V10.72H15.7zM15.72 9.5H15.73V10.72H15.72zM15.73 9.5H15.74V10.72H15.73zM15.75 9.5H15.76V10.72H15.75zM15.76 9.5H15.77V10.72H15.76zM15.77 9.5H15.78V10.72H15.77zM15.79 9.5H15.799999999999999V10.72H15.79zM15.8 9.5H15.81V10.72H15.8zM15.81 9.5H15.82V10.72H15.81zM15.83 9.5H15.84V10.72H15.83zM15.84 9.5H15.85V10.72H15.84zM15.85 9.5H15.86V10.72H15.85zM15.87 9.5H15.879999999999999V10.72H15.87zM15.88 9.5H15.89V10.72H15.88zM15.89 9.5H15.9V10.72H15.89zM15.91 9.5H15.92V10.72H15.91zM15.92 9.5H15.93V10.72H15.92zM15.93 9.5H15.94V10.72H15.93zM15.95 9.5H15.959999999999999V10.72H15.95zM15.96 9.5H15.97V10.72H15.96zM15.98 9.5H15.99V10.72H15.98zM15.99 9.5H16V10.72H15.99zM16 9.5H16.01V10.72H16zM16.02 9.5H16.03V10.72H16.02zM16.03 9.5H16.040000000000003V10.72H16.03z"/><path d="M16.04 9.5H16.05V10.72H16.04zM16.06 9.5H16.07V10.72H16.06zM16.07 9.5H16.080000000000002V10.72H16.07z"/><path d="M16.08 9.5H16.09V10.72H16.08zM16.1 9.5H16.110000000000003V10.72H16.1z"/><path d="M16.11 9.5H16.12V10.72H16.11zM16.12 9.5H16.130000000000003V10.72H16.12zM16.14 9.5H16.150000000000002V10.72H16.14z"/><path d="M16.15 9.5H16.16V10.72H16.15zM16.17 9.5H16.180000000000003V10.72H16.17z"/><path d="M16.18 9.5H16.19V10.72H16.18zM16.19 9.5H16.200000000000003V10.72H16.19zM16.21 9.5H16.220000000000002V10.72H16.21z"/><path d="M16.22 9.5H16.23V10.72H16.22zM16.23 9.5H16.240000000000002V10.72H16.23zM16.25 9.5H16.26V10.72H16.25zM16.26 9.5H16.270000000000003V10.72H16.26z"/><path d="M16.27 9.5H16.28V10.72H16.27zM16.29 9.5H16.3V10.72H16.29zM16.3 9.5H16.310000000000002V10.72H16.3z"/><path d="M16.31 9.5H16.32V10.72H16.31zM16.33 9.5H16.34V10.72H16.33zM16.34 9.5H16.35V10.72H16.34zM16.35 9.5H16.360000000000003V10.72H16.35zM16.37 9.5H16.380000000000003V10.72H16.37z"/><path d="M16.38 9.5H16.39V10.72H16.38zM16.4 9.5H16.41V10.72H16.4zM16.41 9.5H16.42V10.72H16.41zM16.42 9.5H16.430000000000003V10.72H16.42zM16.44 9.5H16.450000000000003V10.72H16.44z"/><path d="M16.45 9.5H16.46V10.72H16.45zM16.46 9.5H16.470000000000002V10.72H16.46zM16.48 9.5H16.490000000000002V10.72H16.48z"/><path d="M16.49 9.5H16.5V10.72H16.49zM16.5 9.5H16.51V10.72H16.5zM16.52 9.5H16.53V10.72H16.52zM16.53 9.5H16.540000000000003V10.72H16.53z"/><path d="M16.54 9.5H16.55V10.72H16.54zM16.56 9.5H16.57V10.72H16.56zM16.57 9.5H16.580000000000002V10.72H16.57zM16.59 9.5H16.6V10.72H16.59zM16.6 9.5H16.610000000000003V10.72H16.6z"/><path d="M16.61 9.5H16.62V10.72H16.61zM16.63 9.5H16.64V10.72H16.63zM16.64 9.5H16.650000000000002V10.72H16.64z"/><path d="M16.65 9.5H16.66V10.72H16.65zM16.67 9.5H16.680000000000003V10.72H16.67z"/><path d="M16.68 9.5H16.69V10.72H16.68zM16.69 9.5H16.700000000000003V10.72H16.69zM16.71 9.5H16.720000000000002V10.72H16.71z"/><path d="M16.72 9.5H16.73V10.72H16.72zM16.73 9.5H16.740000000000002V10.72H16.73zM16.75 9.5H16.76V10.72H16.75zM16.76 9.5H16.770000000000003V10.72H16.76z"/><path d="M16.77 9.5H16.78V10.72H16.77zM16.79 9.5H16.8V10.72H16.79zM16.8 9.5H16.810000000000002V10.72H16.8zM16.82 9.5H16.830000000000002V10.72H16.82z"/><path d="M16.83 9.5H16.84V10.72H16.83zM16.84 9.5H16.85V10.72H16.84z"/></g><path d="M13.59 9.5H14.81V10.72H13.59z"/><g clip-path="url(#c)"><path d="M13.59 9.5H13.6V10.72H13.59zM13.6 9.5H13.61V10.72H13.6zM13.61 9.5H13.62V10.72H13.61zM13.63 9.5H13.64V10.72H13.63zM13.64 9.5H13.65V10.72H13.64zM13.65 9.5H13.66V10.72H13.65zM13.67 9.5H13.68V10.72H13.67zM13.68 9.5H13.69V10.72H13.68zM13.69 9.5H13.7V10.72H13.69zM13.71 9.5H13.72V10.72H13.71zM13.72 9.5H13.73V10.72H13.72zM13.73 9.5H13.74V10.72H13.73zM13.75 9.5H13.76V10.72H13.75zM13.76 9.5H13.77V10.72H13.76zM13.78 9.5H13.79V10.72H13.78zM13.79 9.5H13.799999999999999V10.72H13.79zM13.8 9.5H13.81V10.72H13.8zM13.82 9.5H13.83V10.72H13.82zM13.83 9.5H13.84V10.72H13.83zM13.84 9.5H13.85V10.72H13.84zM13.86 9.5H13.87V10.72H13.86zM13.87 9.5H13.879999999999999V10.72H13.87zM13.88 9.5H13.89V10.72H13.88zM13.9 9.5H13.91V10.72H13.9zM13.91 9.5H13.92V10.72H13.91zM13.92 9.5H13.93V10.72H13.92zM13.94 9.5H13.95V10.72H13.94zM13.95 9.5H13.959999999999999V10.72H13.95zM13.96 9.5H13.97V10.72H13.96zM13.98 9.5H13.99V10.72H13.98zM13.99 9.5H14V10.72H13.99zM14.01 9.5H14.02V10.72H14.01zM14.02 9.5H14.03V10.72H14.02zM14.03 9.5H14.04V10.72H14.03zM14.05 9.5H14.06V10.72H14.05zM14.06 9.5H14.07V10.72H14.06zM14.07 9.5H14.08V10.72H14.07zM14.09 9.5H14.1V10.72H14.09zM14.1 9.5H14.11V10.72H14.1zM14.11 9.5H14.12V10.72H14.11zM14.13 9.5H14.14V10.72H14.13zM14.14 9.5H14.15V10.72H14.14zM14.15 9.5H14.16V10.72H14.15zM14.17 9.5H14.18V10.72H14.17zM14.18 9.5H14.19V10.72H14.18zM14.2 9.5H14.209999999999999V10.72H14.2zM14.21 9.5H14.22V10.72H14.21zM14.22 9.5H14.23V10.72H14.22zM14.24 9.5H14.25V10.72H14.24zM14.25 9.5H14.26V10.72H14.25zM14.26 9.5H14.27V10.72H14.26zM14.28 9.5H14.29V10.72H14.28zM14.29 9.5H14.299999999999999V10.72H14.29zM14.3 9.5H14.31V10.72H14.3zM14.32 9.5H14.33V10.72H14.32zM14.33 9.5H14.34V10.72H14.33zM14.34 9.5H14.35V10.72H14.34zM14.36 9.5H14.37V10.72H14.36zM14.37 9.5H14.379999999999999V10.72H14.37zM14.38 9.5H14.39V10.72H14.38zM14.4 9.5H14.41V10.72H14.4zM14.41 9.5H14.42V10.72H14.41zM14.43 9.5H14.44V10.72H14.43zM14.44 9.5H14.45V10.72H14.44zM14.45 9.5H14.459999999999999V10.72H14.45zM14.47 9.5H14.48V10.72H14.47zM14.48 9.5H14.49V10.72H14.48zM14.49 9.5H14.5V10.72H14.49zM14.51 9.5H14.52V10.72H14.51zM14.52 9.5H14.53V10.72H14.52zM14.53 9.5H14.54V10.72H14.53zM14.55 9.5H14.56V10.72H14.55zM14.56 9.5H14.57V10.72H14.56zM14.57 9.5H14.58V10.72H14.57zM14.59 9.5H14.6V10.72H14.59zM14.6 9.5H14.61V10.72H14.6zM14.62 9.5H14.629999999999999V10.72H14.62zM14.63 9.5H14.64V10.72H14.63zM14.64 9.5H14.65V10.72H14.64zM14.66 9.5H14.67V10.72H14.66zM14.67 9.5H14.68V10.72H14.67zM14.68 9.5H14.69V10.72H14.68zM14.7 9.5H14.709999999999999V10.72H14.7zM14.71 9.5H14.72V10.72H14.71zM14.72 9.5H14.73V10.72H14.72zM14.74 9.5H14.75V10.72H14.74zM14.75 9.5H14.76V10.72H14.75zM14.76 9.5H14.77V10.72H14.76zM14.78 9.5H14.79V10.72H14.78zM14.79 9.5H14.799999999999999V10.72H14.79z"/></g><g><path d="M11.53 9.5H12.75V10.72H11.53z"/><g clip-path="url(#d)"><path d="M11.53 9.5H11.54V10.72H11.53zM11.55 9.5H11.56V10.72H11.55zM11.56 9.5H11.57V10.72H11.56zM11.58 9.5H11.59V10.72H11.58zM11.59 9.5H11.6V10.72H11.59zM11.6 9.5H11.61V10.72H11.6zM11.62 9.5H11.629999999999999V10.72H11.62zM11.63 9.5H11.64V10.72H11.63zM11.64 9.5H11.65V10.72H11.64zM11.66 9.5H11.67V10.72H11.66zM11.67 9.5H11.68V10.72H11.67zM11.68 9.5H11.69V10.72H11.68zM11.7 9.5H11.709999999999999V10.72H11.7zM11.71 9.5H11.72V10.72H11.71zM11.72 9.5H11.73V10.72H11.72zM11.74 9.5H11.75V10.72H11.74zM11.75 9.5H11.76V10.72H11.75zM11.76 9.5H11.77V10.72H11.76zM11.78 9.5H11.79V10.72H11.78zM11.79 9.5H11.799999999999999V10.72H11.79zM11.81 9.5H11.82V10.72H11.81zM11.82 9.5H11.83V10.72H11.82zM11.83 9.5H11.84V10.72H11.83zM11.85 9.5H11.86V10.72H11.85zM11.86 9.5H11.87V10.72H11.86zM11.87 9.5H11.879999999999999V10.72H11.87zM11.89 9.5H11.9V10.72H11.89zM11.9 9.5H11.91V10.72H11.9zM11.91 9.5H11.92V10.72H11.91zM11.93 9.5H11.94V10.72H11.93zM11.94 9.5H11.95V10.72H11.94zM11.95 9.5H11.959999999999999V10.72H11.95zM11.97 9.5H11.98V10.72H11.97zM11.98 9.5H11.99V10.72H11.98zM12 9.5H12.01V10.72H12zM12.01 9.5H12.02V10.72H12.01zM12.02 9.5H12.03V10.72H12.02zM12.04 9.5H12.049999999999999V10.72H12.04zM12.05 9.5H12.06V10.72H12.05zM12.06 9.5H12.07V10.72H12.06zM12.08 9.5H12.09V10.72H12.08zM12.09 9.5H12.1V10.72H12.09zM12.1 9.5H12.11V10.72H12.1zM12.12 9.5H12.129999999999999V10.72H12.12zM12.13 9.5H12.14V10.72H12.13zM12.14 9.5H12.15V10.72H12.14zM12.16 9.5H12.17V10.72H12.16zM12.17 9.5H12.18V10.72H12.17zM12.18 9.5H12.19V10.72H12.18zM12.2 9.5H12.209999999999999V10.72H12.2zM12.21 9.5H12.22V10.72H12.21zM12.23 9.5H12.24V10.72H12.23zM12.24 9.5H12.25V10.72H12.24zM12.25 9.5H12.26V10.72H12.25zM12.27 9.5H12.28V10.72H12.27zM12.28 9.5H12.29V10.72H12.28zM12.29 9.5H12.299999999999999V10.72H12.29zM12.31 9.5H12.32V10.72H12.31zM12.32 9.5H12.33V10.72H12.32zM12.33 9.5H12.34V10.72H12.33zM12.35 9.5H12.36V10.72H12.35zM12.36 9.5H12.37V10.72H12.36zM12.37 9.5H12.379999999999999V10.72H12.37zM12.39 9.5H12.4V10.72H12.39zM12.4 9.5H12.41V10.72H12.4zM12.41 9.5H12.42V10.72H12.41zM12.43 9.5H12.44V10.72H12.43zM12.44 9.5H12.45V10.72H12.44zM12.46 9.5H12.47V10.72H12.46zM12.47 9.5H12.48V10.72H12.47zM12.48 9.5H12.49V10.72H12.48zM12.5 9.5H12.51V10.72H12.5zM12.51 9.5H12.52V10.72H12.51zM12.52 9.5H12.53V10.72H12.52zM12.54 9.5H12.549999999999999V10.72H12.54zM12.55 9.5H12.56V10.72H12.55zM12.56 9.5H12.57V10.72H12.56zM12.58 9.5H12.59V10.72H12.58zM12.59 9.5H12.6V10.72H12.59zM12.6 9.5H12.61V10.72H12.6zM12.62 9.5H12.629999999999999V10.72H12.62zM12.63 9.5H12.64V10.72H12.63zM12.65 9.5H12.66V10.72H12.65zM12.66 9.5H12.67V10.72H12.66zM12.67 9.5H12.68V10.72H12.67zM12.69 9.5H12.7V10.72H12.69zM12.7 9.5H12.709999999999999V10.72H12.7zM12.71 9.5H12.72V10.72H12.71zM12.73 9.5H12.74V10.72H12.73zM12.74 9.5H12.75V10.72H12.74z"/></g></g></g></g></svg>