<svg width="32" height="32" viewBox="0 0 32 32" xmlns="http://www.w3.org/2000/svg"><g fill="none" fill-rule="evenodd"><path d="M31,5 L31,27 L1,27 L1,5 L31,5 Z M26.594,7 L5.406,7 L10.361232,10.1860197 C9.84267062,10.4760171 9.39083535,10.8191955 9.00572618,11.2155551 C9.00095031,11.3742785 8.99916189,11.5323709 9.00036093,11.6898325 L3,7.832 L3,25 L29,25 L29,7.831 L22.9795228,11.7024938 C22.9885644,11.5415332 22.9953901,11.3792203 23,11.2155551 C22.6354657,10.8069465 22.1955252,10.4548568 21.6801786,10.159286 L26.594,7 Z M15.9698874,10 C18.7884675,10 20.798505,10.6330158 22,11.8990473 C21.9394185,14.1932605 21.4323715,16.143311 20.478859,17.7491985 C19.5253466,19.355086 18.0332116,20.7720198 16.0024541,22 C14.0444599,20.9507578 12.5402996,19.5416669 11.4899733,17.7727273 C10.439647,16.0037876 9.94462524,14.0458943 10.0049082,11.8990473 C11.162981,10.6330158 13.1513074,10 15.9698874,10 Z M15.9698874,12 C14.2099213,12 12.9416911,12.2703535 12.1206786,12.7454969 L12.017,12.808 L12.0283156,12.9965481 C12.1240054,14.2425003 12.462275,15.3916945 13.0447594,16.4617516 L13.2096749,16.7516365 C13.8406644,17.8143369 14.6724564,18.7193141 15.719226,19.4736559 L15.957,19.638 C17.1099924,18.8154707 17.9834569,17.9320066 18.597973,16.9872772 L18.7591574,16.7281077 C19.3742846,15.6921223 19.7665147,14.4495916 19.9254248,12.9858068 L19.943,12.798 L19.8780084,12.7594706 C19.0798646,12.3036703 17.8973088,12.0349921 16.295788,12.0031878 L15.9698874,12 Z M16.0909091,13 L16.7922438,14.4210593 L18.3604758,14.6489367 L17.2256924,15.7550771 L17.4935784,17.3169724 L16.0909091,16.5795455 L14.6882397,17.3169724 L14.9561257,15.7550771 L13.8213424,14.6489367 L15.3895744,14.4210593 L16.0909091,13 Z" fill="#0052D9" fill-rule="nonzero"/></g></svg>