<svg   width="48px"   height="48px"  viewBox="0 0 32 32" version="1.1" xmlns="http://www.w3.org/2000/svg" xmlns:xlink="http://www.w3.org/1999/xlink">
    <title>EventBridge-32</title>
    <g id="EventBridge-32" stroke="none" stroke-width="1" fill="none" fill-rule="evenodd">
        <rect id="Rectangle-Copy" fill="#444444" opacity="0" x="0" y="0" width="32" height="32"></rect>
        <g id="Group" fill="#006EFF" fill-rule="nonzero">
            <path d="M31.842542,13.0004945 L29.7932368,13.0004945 C28.4147469,6.70988283 22.7906191,2 16.0621652,2 C8.30013742,2 2.00777065,8.2680135 2.00777065,16 C2.00777065,23.7319865 8.30013742,30 16.0621652,30 C23.1423399,30 28.9997166,24.7848417 29.9741601,18.0004945 L32,18.0004945 C31.0117595,25.8928783 24.2529307,32 16.0621652,32 C7.19127631,32 0,24.836556 0,16 C0,7.163444 7.19127631,0 16.0621652,0 C23.9038566,0 30.433063,5.59766728 31.842542,13.0004945 Z" id="Combined-Shape"></path>
        </g>
        <path d="M9.177,12.0224919 L10.331,14.0214919 L9.059,16.227 L12.655,22.454 L15.199,22.4534919 L16.354,24.4534919 L11.5,24.4544827 L6.75,16.2272413 L9.177,12.0224919 Z M21,8 L25.75,16.2272413 L23.296,20.4764919 L22.14,18.4754919 L23.44,16.227 L19.844,10 L17.247,9.99949192 L16.092,7.99949192 L21,8 Z" id="形状结合" fill="#006EFF" fill-rule="nonzero"></path>
        <g id="编组-2" transform="translate(16.000000, 16.000000) rotate(-30.000000) translate(-16.000000, -16.000000) translate(12.535898, 6.000000)" fill="#006EFF">
            <path d="M2.46408891,11.996 L4.46410162,12.235 L4.46410162,18 L2.46408891,18 L2.46408891,11.996 Z M4.46410162,2 L4.46410162,7.401 L2.46408891,7.401 L2.46408891,2 L4.46410162,2 Z" id="形状" fill-rule="nonzero"></path>
            <path d="M3.46410162,6 L6.92820323,8 L6.92820323,12 L3.46410162,14 L0,12 L0,8 L3.46410162,6 Z M3.46410162,8.309 L1.99910162,9.155 L1.99910162,10.844 L3.46410162,11.69 L4.92810162,10.844 L4.92810162,9.155 L3.46410162,8.309 Z" id="多边形备份" fill-rule="nonzero"></path>
            <circle id="椭圆形" cx="3.46410162" cy="2" r="2"></circle>
            <circle id="椭圆形备份-2" cx="3.46410162" cy="18" r="2"></circle>
        </g>
    </g>
</svg>