<svg width="32" height="32" viewBox="0 0 32 32" xmlns="http://www.w3.org/2000/svg"><g fill="#0052D9" fill-rule="nonzero"><path d="M27.9164415,9.31721714 L22.1063827,18.6110142 C21.9464766,18.8668009 21.6811522,19.0347333 21.3863637,19.0727198 L21.2584433,19.0809211 L20.0030323,19.0809211 C19.8265218,19.0809211 19.6539755,19.0342203 19.5024962,18.9466384 L19.3931039,18.8733776 L16.1396199,16.369124 L7.763,16.369 L7.67457554,16.6342068 L5.65567767,16.6342068 L6.59051212,13.787124 L8.62627315,13.787124 L8.431,14.369 L16.480114,14.3694439 C16.6566246,14.3694439 16.8291709,14.4161446 16.9806502,14.5037266 L17.0900424,14.5769873 L20.3426199,17.080124 L20.7036199,17.080124 L25.7136224,9.31721714 L27.9164415,9.31721714 Z M6.1818114,13.0337783 L4.87622895,17.0152844 L2.75307897,17.0152844 L4.13928673,13.0337783 L6.1818114,13.0337783 Z M3.42873244,13.0337783 L2.12314998,17.0152844 L-4.17443857e-14,17.0152844 L1.38620777,13.0337783 L3.42873244,13.0337783 Z M18.5738119,7 L24.4527134,7.00718575 L23.1637564,9 L19.1616199,8.99912401 L18.834,9.587 L22.4468809,9.58712401 L21.2476547,11.587124 L17.723,11.587 L17.4946199,11.999124 L21.8689342,11.999124 L20.5213987,14 L15.795161,14 C15.0707449,14 14.5995535,13.2606484 14.871828,12.6152441 L14.9210686,12.5142404 L17.6997195,7.51424043 C17.8565094,7.2321072 18.1382935,7.04523073 18.4540069,7.00718575 L18.5738119,7 Z" transform="translate(0 3)"/><path d="M17.2123479.362341585C23.0565517-.572106535 27.1274702.362341585 29.5189332 2.45815474 31.9103963 4.55396789 32.0356213 8.67473798 30.5711195 12.5425175L30.3977002 12.9194903 27.8041413 12.9194903C29.4239199 9.49790089 29.623555 5.99081147 27.8041413 4.22412765 25.9623301 2.43569534 22.6168338 1.85105705 17.708403 2.60608677L17.2123479 2.68606034 17.2123479.362341585zM26.8712144 14.9762921L29.5777829 14.9762921C25.5140206 21.4598754 21.7633196 23.6540085 17.7550007 24.6580026L16.848528 24.8914852 16.848528 22.4398209C21.0455187 21.5335938 23.847461 19.4005861 26.5422095 15.4527785L26.8712144 14.9762921zM2.49715973 17.4766787C3.17098402 22.7556808 6.59962861 24.3996617 13.5595637 23.1311275L14.4307788 22.9340871 14.4307788 25.4714413C6.07502605 27.1094801 1.05760087 24.5261426.0478843311 17.8211616L-5.24708482e-14 17.4766787 2.49715973 17.4766787zM14.9565338.874337287L14.9565338 3.42315584C10.6340228 4.61785387 7.07121261 7.51598137 4.24474767 12.1797115L3.95498046 12.6684671 1.32972187 12.6684671C3.95498046 6.77140218 8.91251594 2.68781144 13.8227706 1.1895187L14.9565338.874337287z" transform="translate(0 3)"/></g></svg>