<svg width="32" height="32" viewBox="0 0 32 32" xmlns="http://www.w3.org/2000/svg"><g fill="#0052D9" fill-rule="evenodd"><g transform="translate(0 3)"><path d="M3 1H30V3H3zM2 23H30V25H2z"/><path d="M2 8H4V25H2zM28 1H30V18H28z"/><circle cx="2" cy="2" r="2"/><circle cx="29" cy="24" r="2"/></g><path d="M2,14 L0,14 C0,11.239 2.239,9 5,9 L5,11 C3.346,11 2,12.346 2,14 Z M14,14 L12,14 C12,12.346 10.654,11 9,11 L9,9 C11.761,9 14,11.238 14,14 Z M9,11 L5,11 L5,9 L9,9 L9,11 Z M3,4 C3,1.791 4.791,0 7,0 C9.209,0 11,1.791 11,4 C11,6.209 9.209,8 7,8 C4.791,8 3,6.209 3,4 Z M7,5.969 C8.105,5.969 9,5.074 9,3.969 C9,2.864 8.105,1.969 7,1.969 C5.895,1.969 5,2.864 5,3.969 C5,5.074 5.895,5.969 7,5.969 Z" transform="translate(9 9)"/></g></svg>