<svg width="32" height="32" viewBox="0 0 32 32" xmlns="http://www.w3.org/2000/svg"><g fill="#0052D9" fill-rule="evenodd"><g transform="translate(1 3)"><path d="M3 1L29 1 29 3 3 3zM1 23H29V25H1z"/><path d="M1 8H3V25H1zM27 1H29V18H27z"/><circle cx="2" cy="2" r="2"/><circle cx="28" cy="24" r="2"/></g><path d="M23,24 L21,24 L23,24 Z M21,23 L21,22.7 C21,21.3 19.5,20 18,20 L14,20 C12.5,20 11,21.3 11,22.7 L11,23 L9,23 L9,22.7 C9,20.2 11.3,18 14,18 L18,18 C20.7,18 23,20.2 23,22.7 L23,23 L21,23 Z M11,24 L9,24 L11,24 Z M16,17 C13.8,17 12,15.2 12,13 C12,10.8 13.8,9 16,9 L16,11 C14.9,11 14,11.9 14,13 C14,14.1 14.9,15 16,15 L16,17 Z M17,15 L19,15 L19,17 L17,17 L17,15 Z M17,9 L19,9 L19,11 L17,11 L17,9 Z M20,10 L22,10 L22,12 L20,12 L20,10 Z M19,13 L21,13 L21,15 L19,15 L19,13 Z M22,12 L24,12 L24,14 L22,14 L22,12 Z M21,15 L23,15 L23,17 L21,17 L21,15 Z" fill-rule="nonzero"/></g></svg>