<svg width="32" height="32" viewBox="0 0 32 32" xmlns="http://www.w3.org/2000/svg"><g fill="none" fill-rule="evenodd"><path d="M31.7193022,13.0004945 L29.6779284,13.0004945 C28.3047737,6.70988283 22.7024129,2 16,2 C8.2680135,2 2,8.2680135 2,16 C2,23.7319865 8.2680135,30 16,30 C23.0527724,30 28.8874794,24.7848417 29.8581515,18.0004945 L31.8761508,18.0004945 C30.8917351,25.8928783 24.1590649,32 16,32 C7.163444,32 -2.0250468e-13,24.836556 -2.0250468e-13,16 C-2.0250468e-13,7.163444 7.163444,0 16,0 C23.8113418,0 30.3152783,5.59766728 31.7193022,13.0004945 Z" fill="#0052D9" fill-rule="nonzero"/><g fill-rule="nonzero" stroke="#0052D9" stroke-width="2"><path d="M17.3655161,8.29025271 L17.1433548,7.9514627 C16.1678687,6.46410679 15.0425268,5.08072758 13.7850102,3.82307914 L13.670349,3.70841789 C11.1999942,1.23800613 7.26731742,1.10843808 4.64121581,3.33854493 C4.9602473,3.30304702 5.2827575,3.28509133 5.60763399,3.28509133 C6.8876119,3.28509133 8.13009384,3.56388162 9.26619179,4.09450376 C9.32473319,4.12183859 9.38290007,4.14979897 9.44093441,4.17850502 C9.55626797,4.23559243 9.67029332,4.29522604 9.78282168,4.35729468 C10.0635109,4.51207517 10.3353885,4.68242003 10.5972789,4.86746645 C10.7023012,4.9416822 10.805038,5.01769969 10.9051643,5.09532839 C11.0063312,5.17370364 11.1055482,5.25412999 11.2030076,5.33679234 C11.2428379,5.37059737 11.2929454,5.41526077 11.3222214,5.44343153 C11.3766682,5.48874171 11.429841,5.53563279 11.4913046,5.59311619 C11.5878823,5.68565243 11.8259181,5.94757567 11.9148438,6.06542676 C12.4185835,6.7330219 12.6850844,7.55173083 12.6597817,8.40628542 C12.6329533,9.31164736 12.2774299,10.1387238 11.7085836,10.7708224 C11.9342944,10.7921841 12.162146,10.8029782 12.3916044,10.8029782 C12.4872657,10.8029782 12.5823626,10.8011139 12.6771885,10.7973787 C14.5227742,10.7250858 16.2488835,9.79870667 17.3655161,8.29025266 Z M1.03876008,4.56323359 C1.01800755,4.57263956 0.997410614,4.58285274 0.977003849,4.59388704 C1.00276011,4.57993038 1.02864979,4.56605985 1.05426151,4.55249002 Z" transform="translate(7 7)"/><path d="M16.3655161,13.2902527 L16.1433548,12.9514627 C15.1678687,11.4641068 14.0425268,10.0807276 12.7850102,8.82307914 L12.670349,8.70841789 C10.1999942,6.23800613 6.26731742,6.10843808 3.64121581,8.33854493 C3.9602473,8.30304702 4.2827575,8.28509133 4.60763399,8.28509133 C5.8876119,8.28509133 7.13009384,8.56388162 8.26619179,9.09450376 C8.32473319,9.12183859 8.38290007,9.14979897 8.44093441,9.17850502 C8.55626797,9.23559243 8.67029332,9.29522604 8.78282168,9.35729468 C9.0635109,9.51207517 9.33538851,9.68242003 9.59727888,9.86746645 C9.70230119,9.9416822 9.80503799,10.0176997 9.90516435,10.0953284 C10.0063312,10.1737036 10.1055482,10.25413 10.2030076,10.3367923 C10.2428379,10.3705974 10.2929454,10.4152608 10.3222214,10.4434315 C10.3766682,10.4887417 10.429841,10.5356328 10.4913046,10.5931162 C10.5878823,10.6856524 10.8259181,10.9475757 10.9148438,11.0654268 C11.4185835,11.7330219 11.6850844,12.5517308 11.6597817,13.4062854 C11.6329533,14.3116474 11.2774299,15.1387238 10.7085836,15.7708224 C10.9342944,15.7921841 11.162146,15.8029782 11.3916044,15.8029782 C11.4872657,15.8029782 11.5823626,15.8011139 11.6771885,15.7973787 C13.5227742,15.7250858 15.2488835,14.7987067 16.3655161,13.2902527 Z M0.0387600818,9.56323359 C0.018007555,9.57263956 -0.00258938612,9.58285274 -0.0229961506,9.59388704 C0.00276011096,9.57993038 0.0286497901,9.56605985 0.0542615131,9.55249002 Z" transform="rotate(180 12.421 14.78)"/></g></g></svg>