<svg data-name="图层 1" xmlns="http://www.w3.org/2000/svg" width="32" height="32" viewBox="0 0 32 32"><path fill="#0052D9" d="M16,2A23.71,23.71,0,0,1,29,6.07,29.16,29.16,0,0,1,16,29.63,29.16,29.16,0,0,1,3,6.07,23.71,23.71,0,0,1,16,2m0-2A26,26,0,0,0,1,5S0,22.21,16,32h0C32,22.21,31,5,31,5A26,26,0,0,0,16,0Z"/><path fill="none" stroke="#0052D9" stroke-miterlimit="10" stroke-width="2" d="M21.2 8H17a1 1 0 00-1 1 1 1 0 00-1-1H10.77A1 1 0 009.82 9v9.17H15a1 1 0 01.79.4.23.23 0 00.38 0 1 1 0 01.79-.4h5.2V9A1 1 0 0021.2 8zM16 14.62L16 8.98"/><path fill="none" stroke="#0052D9" stroke-miterlimit="10" stroke-width="1.7" d="M11.68 10.77L14.14 10.77M11.68 13.31L14.14 13.31"/></svg>