<svg width="32" height="32" viewBox="0 0 32 32" xmlns="http://www.w3.org/2000/svg"><g fill="#0052D9" fill-rule="evenodd"><path d="M9 9H22V11H9zM12 13H18V15H12zM12 17H16V19H12zM24 18H26V20H24z"/><path d="M21.0025216 19.5718923L19.912262 21.8069912 19.3185577 21.8069912 16 21.8069912 16 19.8069912 18.6628767 19.8069912 19.892181 17.2865439 21.007403 15 23.0057863 19.1039223 23.6368497 17.8100507 25.8579254 17.8100507 24.1174889 21.3869383 23.0007724 23.6765463 21.8887839 21.3941166 21.0025216 19.5718923zM9 22H15V24H9z"/><path d="M9 9H11V24H9zM20 9H22V14H20z"/><path d="M31.7193022,13.0004945 L29.6779284,13.0004945 C28.3047737,6.70988283 22.7024129,2 16,2 C8.2680135,2 2,8.2680135 2,16 C2,23.7319865 8.2680135,30 16,30 C23.0527724,30 28.8874794,24.7848417 29.8581515,18.0004945 L31.8761508,18.0004945 C30.8917351,25.8928783 24.1590649,32 16,32 C7.163444,32 -2.0250468e-13,24.836556 -2.0250468e-13,16 C-2.0250468e-13,7.163444 7.163444,0 16,0 C23.8113418,0 30.3152783,5.59766728 31.7193022,13.0004945 Z" fill-rule="nonzero"/></g></svg>