<svg width="32" height="32" viewBox="0 0 32 32" xmlns="http://www.w3.org/2000/svg"><g fill="none" fill-rule="evenodd"><g transform="translate(1 3)" fill="#0052D9" fill-rule="nonzero"><path d="M3 1H29V3H3zM1 23H29V25H1z"/><path d="M1 8H3V25H1zM27 1H29V18H27z"/><circle cx="2" cy="2" r="2"/><circle cx="28" cy="24" r="2"/></g><path d="M15 16C13.3508417 16 12 14.6491583 12 13 12 11.3508417 13.3508417 10 15 10 16.6491583 10 18 11.3508417 18 13 18 14.6644068 16.6620333 16 15 16zM9 23L9 22.5384615C9 20.5873391 10.8356749 19 13.0725869 19L16.9274131 19" stroke="#0052D9" stroke-width="2"/><path d="M20,17.9022247 L20,16.2818617 C20,15.8886708 20.2304144,15.5319703 20.5888312,15.3703025 L21.7177662,14.861084 C21.7436137,14.8494252 21.7716448,14.8433958 21.8,14.8433958 C21.9104569,14.8433958 22,14.9329389 22,15.0433958 L22,17.9022247 L23,17.9022247 L23,22.9022247 L19,22.9022247 L19,17.9022247 L20,17.9022247 Z M20.5002797,17.9022247 L20.5002797,17.9022247 L20.5002797,17.1907583 L20.5002797,16.4792919 L20.5002797,17.9022247 Z M20.6,21.4736532 L21.4,21.4736532 L21.4,19.3307961 L20.6,19.3307961 L20.6,21.4736532 Z" fill="#0052D9" fill-rule="nonzero"/></g></svg>