<svg width="32" height="32" viewBox="0 0 32 32" xmlns="http://www.w3.org/2000/svg"><g fill="#0052D9" fill-rule="nonzero"><path d="M31.7193022,13.0004945 L29.6779284,13.0004945 C28.3047737,6.70988283 22.7024129,2 16,2 C8.2680135,2 2,8.2680135 2,16 C2,23.7319865 8.2680135,30 16,30 C23.0527724,30 28.8874794,24.7848417 29.8581515,18.0004945 L31.8761508,18.0004945 C30.8917351,25.8928783 24.1590649,32 16,32 C7.163444,32 0,24.836556 0,16 C0,7.163444 7.163444,0 16,0 C23.8113418,0 30.3152783,5.59766728 31.7193022,13.0004945 Z"/><path d="M19.6232539,23.4829009 C19.4960622,22.7944357 19.1337999,22.1883863 18.6228167,21.7511025 L22.6014789,19.4540208 L22.6014789,15.0305288 C22.6253432,15.0310893 22.6492765,15.0313711 22.6732757,15.0313711 C23.4074669,15.0313711 24.0800588,14.767633 24.6014789,14.3297292 L24.6014789,20.6087214 L19.6232539,23.4829009 L19.6232539,23.4829009 Z M13.7232974,23.4829009 L8.74507244,20.6087214 L8.74507244,14.3297292 C9.26649252,14.767633 9.93908442,15.0313711 10.6732757,15.0313711 C10.6972748,15.0313711 10.7212081,15.0310893 10.7450724,15.0305288 L10.7450724,19.4540208 L14.7237346,21.7511025 C14.2127515,22.1883863 13.8504891,22.7944357 13.7232974,23.4829009 L13.7232974,23.4829009 Z M19.8483188,11.0191837 L16.6732757,9.18607165 L13.4982325,11.0191837 C13.2620692,10.3601443 12.8018349,9.80778438 12.2093468,9.4539211 L16.6732757,6.87667057 L21.1372045,9.4539211 C20.5447165,9.80778438 20.0844822,10.3601443 19.8483188,11.0191837 L19.8483188,11.0191837 Z M14.7237346,13.7511025 C14.2127515,14.1883863 13.8504891,14.7944357 13.7232974,15.4829009 L11.6839515,14.305484 L12.7177299,12.5929351 L14.7237346,13.7511025 Z M18.6228167,13.7511025 L20.4703317,12.6844392 L21.7271061,14.2682413 L19.6232539,15.4829009 C19.4960622,14.7944357 19.1337999,14.1883863 18.6228167,13.7511025 Z" transform="rotate(45 16.673 15.18)"/><path d="M13.6569003,20.3668668 L13.6569003,17.0254554 C12.4917079,16.613619 11.6569003,15.5023799 11.6569003,14.1961611 C11.6569003,12.5393068 13.0000461,11.1961611 14.6569003,11.1961611 C16.3137546,11.1961611 17.6569003,12.5393068 17.6569003,14.1961611 C17.6569003,15.5023799 16.8220927,16.613619 15.6569003,17.0254554 L15.6569003,20.3668668 C16.8220927,20.7787032 17.6569003,21.8899423 17.6569003,23.1961611 C17.6569003,24.8530153 16.3137546,26.1961611 14.6569003,26.1961611 C13.0000461,26.1961611 11.6569003,24.8530153 11.6569003,23.1961611 C11.6569003,21.8899423 12.4917079,20.7787032 13.6569003,20.3668668 L13.6569003,20.3668668 Z M14.6569003,24.1961611 C15.2091851,24.1961611 15.6569003,23.7484458 15.6569003,23.1961611 C15.6569003,22.6438763 15.2091851,22.1961611 14.6569003,22.1961611 C14.1046156,22.1961611 13.6569003,22.6438763 13.6569003,23.1961611 C13.6569003,23.7484458 14.1046156,24.1961611 14.6569003,24.1961611 Z M20.6569003,14.1961611 C19.0000461,14.1961611 17.6569003,12.8530153 17.6569003,11.1961611 C17.6569003,9.53930684 19.0000461,8.19616109 20.6569003,8.19616109 C22.3137546,8.19616109 23.6569003,9.53930684 23.6569003,11.1961611 C23.6569003,12.8530153 22.3137546,14.1961611 20.6569003,14.1961611 Z M20.6569003,12.1961611 C21.2091851,12.1961611 21.6569003,11.7484458 21.6569003,11.1961611 C21.6569003,10.6438763 21.2091851,10.1961611 20.6569003,10.1961611 C20.1046156,10.1961611 19.6569003,10.6438763 19.6569003,11.1961611 C19.6569003,11.7484458 20.1046156,12.1961611 20.6569003,12.1961611 Z M8.65690032,14.1961611 C7.00004607,14.1961611 5.65690032,12.8530153 5.65690032,11.1961611 C5.65690032,9.53930684 7.00004607,8.19616109 8.65690032,8.19616109 C10.3137546,8.19616109 11.6569003,9.53930684 11.6569003,11.1961611 C11.6569003,12.8530153 10.3137546,14.1961611 8.65690032,14.1961611 Z M8.65690032,12.1961611 C9.20918507,12.1961611 9.65690032,11.7484458 9.65690032,11.1961611 C9.65690032,10.6438763 9.20918507,10.1961611 8.65690032,10.1961611 C8.10461557,10.1961611 7.65690032,10.6438763 7.65690032,11.1961611 C7.65690032,11.7484458 8.10461557,12.1961611 8.65690032,12.1961611 Z M14.6569003,15.1961611 C15.2091851,15.1961611 15.6569003,14.7484458 15.6569003,14.1961611 C15.6569003,13.6438763 15.2091851,13.1961611 14.6569003,13.1961611 C14.1046156,13.1961611 13.6569003,13.6438763 13.6569003,14.1961611 C13.6569003,14.7484458 14.1046156,15.1961611 14.6569003,15.1961611 Z" transform="rotate(45 14.657 17.196)"/></g></svg>