<svg width="32" height="32" viewBox="0 0 32 32" xmlns="http://www.w3.org/2000/svg"><g fill="#0052D9" fill-rule="nonzero"><path d="M31.7193022,13.0004945 L29.6779284,13.0004945 C28.3047737,6.70988283 22.7024129,2 16,2 C8.2680135,2 2,8.2680135 2,16 C2,23.7319865 8.2680135,30 16,30 C23.0527724,30 28.8874794,24.7848417 29.8581515,18.0004945 L31.8761508,18.0004945 C30.8917351,25.8928783 24.1590649,32 16,32 C7.163444,32 -2.0250468e-13,24.836556 -2.0250468e-13,16 C-2.0250468e-13,7.163444 7.163444,0 16,0 C23.8113418,0 30.3152783,5.59766728 31.7193022,13.0004945 Z"/><path d="M16.926,7 L11,18 L14.926,18 L14.926,25 L21,13 L16.926,13 L16.926,7 Z M17,15.1863501 L16.2594993,17 L16.2594993,16.3732938 L14.5575847,16.3732938 L14,16.3732938 L14.4921944,15 L14.4921944,15.1863501 L16.3248895,15.1863501 L17,15.1863501 Z"/><path d="M12 11.1333333L12 9 8 9 8 10.0666667 8 11.1333333 6 11.1333333 6 13.2666667 8 13.2666667 8 15.4 6 15.4 6 17.5333333 8 17.5333333 8 19.6666667 6 19.6666667 6 21.8 8 21.8 8 23.9333333 12 23.9333333 12 21.8 10 21.8 10 18.6 10 11.1333333zM26 13.2666667L26 11.1333333 24 11.1333333 24 10.0666667 24 9 20 9 20 11.1333333 22 11.1333333 22 13.2666667 22 21.8 20 21.8 20 23.9333333 24 23.9333333 24 21.8 26 21.8 26 19.6666667 24 19.6666667 24 17.5333333 26 17.5333333 26 15.4 24 15.4 24 13.2666667z"/></g></svg>