<svg width="32" height="32" viewBox="0 0 32 32" xmlns="http://www.w3.org/2000/svg"><g fill="#0052D9" fill-rule="evenodd"><g transform="translate(1 3)"><path d="M3 1H29V3H3zM1 23H29V25H1z"/><path d="M1 8H3V25H1zM27 1H29V18H27z"/><circle cx="2" cy="2" r="2"/><circle cx="28" cy="24" r="2"/></g><path d="M10,23 L8,23 C8,20.239 10.239,18 13,18 L13,20 C11.346,20 10,21.346 10,23 Z M18,19 L18,17 L18,19 Z M16,20 L13,20 L13,18 L16,18 L16,20 Z M10,13 C10,10.791 11.791,9 14,9 C16.209,9 18,10.791 18,13 C18,15.209 16.209,17 14,17 C11.791,17 10,15.209 10,13 Z M14,15 C15.105,15 16,14.105 16,13 C16,11.895 15.105,11 14,11 C12.895,11 12,11.895 12,13 C12,14.105 12.895,15 14,15 Z"/><path fill-rule="nonzero" d="M22 15L23.4142136 16.4142136 20.4142136 19.4142136 19 18z"/><path fill-rule="nonzero" transform="matrix(-1 0 0 1 38.414 0)" d="M20 15L21.4142136 16.4142136 18.4142136 19.4142136 17 18z"/><path fill-rule="nonzero" d="M17 18H23V20H17zM17 21H23V23H17z"/><path fill-rule="nonzero" d="M19 18H21V24H19z"/></g></svg>