<svg width="32" height="32" viewBox="0 0 32 32" xmlns="http://www.w3.org/2000/svg"><g transform="translate(1 3)" fill="none" fill-rule="evenodd"><circle fill="#0052D9" cx="2" cy="2.388" r="2"/><circle fill="#0052D9" cx="28" cy="24.388" r="2"/><path fill="#0052D9" d="M1 8.388H3V25.387999999999998H1zM27 1.388H29V18.389000000000003H27z"/><path fill="#0052D9" transform="rotate(90 14.637 24.388)" d="M13.637474 11.2853931L15.637474 11.2853931 15.637474 37.4906826 13.637474 37.4906826z"/><path fill="#0052D9" transform="rotate(90 15.609 2.397)" d="M14.6085333 -11L16.6085333 -11 16.6085333 15.7938881 14.6085333 15.7938881z"/><path d="M9,20.3880379 C9,18.1788989 11.2385763,16.3880379 14,16.3880379 C14.3758384,16.3880379 14.6577172,16.3880379 14.8456364,16.3880379 C15.1021616,16.3880379 15.4869495,16.3880379 16,16.3880379" stroke="#0052D9" stroke-width="2"/><path d="M21.7047263,20.2894123 C21.7047263,19.8191294 21.8515494,19.3626512 22.135578,18.9444194 L20.4810462,17.8207981 C19.9767361,18.5633945 19.7047263,19.4090826 19.7047263,20.2894123 L21.7047263,20.2894123 Z" fill="#0052D9" fill-rule="nonzero" transform="matrix(-1 0 0 1 41.84 0)"/><path d="M17.9971944,17.9063579 C18.4557818,17.6425814 18.9837086,17.455372 19.5498225,17.3605724 L19.219508,15.3880379 C18.4207388,15.5217973 17.6667909,15.7891565 17,16.1726903 L17.9971944,17.9063579 Z" fill="#0052D9" fill-rule="nonzero" transform="matrix(-1 0 0 1 36.55 0)"/><circle stroke="#0052D9" stroke-width="2" cx="15" cy="10.388" r="3"/><path d="M15,5.38803787 L15,20.3880379" stroke="#0052D9" stroke-width="2"/></g></svg>