<svg xmlns="http://www.w3.org/2000/svg" width="32" height="32" viewBox="0 0 32 32"><path fill="#0052D9" d="M28 22.8L16 29.7 4 22.8 4 9.2 16 2.3 28 9.2 28 9.1 30 8 16 0 2 8 2 24 16 32 30 24 30 12 28 13.1z"/><path fill="#0052D9" d="M16 25c-4.4 0-8-3.6-8-8h2c0 3.3 2.7 6 6 6s6-2.7 6-6h2C24 21.4 20.4 25 16 25zM13 12H15V14H13zM13 15H15V17H13z"/><path fill="#0052D9" d="M16,20c-1.7,0-3-1.3-3-3v-5c0-1.7,1.3-3,3-3h4c-0.9-1.2-2.3-2-4-2c-2.8,0-5,2.2-5,5v5c0,2.8,2.2,5,5,5	s5-2.2,5-5h-2C19,18.7,17.7,20,16,20z"/><g fill="#0052D9"><path d="M19 10H21V16H19z"/><path d="M17 12H23V14H17z"/></g></svg>