<svg width="32" height="32" viewBox="0 0 32 32" xmlns="http://www.w3.org/2000/svg"><g transform="translate(1 6)" fill="none" fill-rule="evenodd"><path stroke="#0052D9" stroke-width="2" d="M2 3H28V19H2z"/><path fill="#0052D9" d="M14 0H16V2H14zM6 10H12V12H6z"/><path fill="#0052D9" transform="rotate(90 9 11)" d="M6 10H12V12H6z"/><path fill="#0052D9" d="M0 8H2V14H0zM28 8L30 8 30 14 28 14z"/><rect fill="#0052D9" x="20" y="8" width="2" height="2" rx="1"/><rect fill="#0052D9" x="18" y="10" width="2" height="2" rx="1"/><rect fill="#0052D9" x="22" y="10" width="2" height="2" rx="1"/><rect fill="#0052D9" x="20" y="12" width="2" height="2" rx="1"/></g></svg>