<svg width="32" height="32" viewBox="0 0 32 32" xmlns="http://www.w3.org/2000/svg"><g fill="none" fill-rule="evenodd"><path d="M0 0H32V33H0z"/><path d="M4,11 L4,26 L27.3,26 C27.6,25.4 28.3,25 29,25 C30.1,25 31,25.9 31,27 C31,28.1 30.1,29 29,29 C28.3,29 27.6,28.6 27.3,28 L27.3,28 L2,28 L2,11 L4,11 Z M22.8930402,11.9358933 C24.704692,15.003664 24.2926301,19.0210784 21.6568542,21.6568542 C19.0210784,24.2926301 15.003664,24.704692 11.9358933,22.8930402 L11.0502525,23.7781746 L10.3431458,20.2426407 L13.8786797,20.9497475 L13.4136436,21.4157535 C15.6437827,22.4807694 18.3955495,22.0897318 20.2426407,20.2426407 C22.0897318,18.3955495 22.4807694,15.6437827 21.4157535,13.4136436 L22.8930402,11.9358933 Z M3,3 C3.7,3 4.4,3.4 4.7,4 L4.7,4 L30,4 L30,21 L28,21 L28,6 L4.7,6 C4.4,6.6 3.7,7 3,7 C1.9,7 1,6.1 1,5 C1,3.9 1.9,3 3,3 Z M20.0649976,9.10748604 L20.9497475,8.22182541 L21.6568542,11.7573593 L18.1213203,11.0502525 L18.5873208,10.5847072 C16.3570107,9.51911787 13.6047167,9.9100019 11.7573593,11.7573593 C9.9100019,13.6047167 9.51911787,16.3570107 10.5847072,18.5873208 L9.10748604,20.0649976 C7.29522818,16.9971139 7.70711476,12.9791767 10.3431458,10.3431458 C12.9791767,7.70711476 16.9971139,7.29522818 20.0649976,9.10748604 Z M16,12 C18.209139,12 20,13.790861 20,16 C20,18.209139 18.209139,20 16,20 C13.790861,20 12,18.209139 12,16 C12,13.790861 13.790861,12 16,12 Z M16,14 C14.8954305,14 14,14.8954305 14,16 C14,17.1045695 14.8954305,18 16,18 C17.1045695,18 18,17.1045695 18,16 C18,14.8954305 17.1045695,14 16,14 Z" fill="#0052D9"/></g></svg>