<svg xmlns="http://www.w3.org/2000/svg" width="32" height="32" viewBox="0 0 32 32"><g fill-rule="evenodd" clip-rule="evenodd" fill="#0052D9"><path d="M4.723 6H28v15h2V6 4h-2H4.723C4.376 3.405 3.738 3 3 3 1.895 3 1 3.895 1 5s.895 2 2 2C3.738 7 4.376 6.595 4.723 6zM29 25c-.738 0-1.376.405-1.723 1H4V11H2v15 2h2 23.277c.346.595.984 1 1.723 1 1.105 0 2-.895 2-2S30.105 25 29 25z"/><path d="M14.41,11.213C14.775,11.691,15.351,12,16,12 c1.105,0,2-0.895,2-2s-0.895-2-2-2c-0.734,0-1.376,0.396-1.724,0.985L9,12.001v8L16,24l7-3.999v-8l-1.14-0.652l-4.989,2.85 C16.608,14.072,16.312,14,16,14c-1.105,0-2,0.895-2,2s0.895,2,2,2c1.105,0,2-0.895,2-2c0-0.047-0.002-0.094-0.005-0.14l3.004-1.716 v4.696L16,21.696l-5-2.856v-5.679L14.41,11.213z"/></g></svg>