<svg width="32" height="32" viewBox="0 0 32 32" xmlns="http://www.w3.org/2000/svg"><path d="M26.2675644,23 C26.6133738,22.4021986 27.2597176,22 28,22 C29.1045695,22 30,22.8954305 30,24 C30,25.1045695 29.1045695,26 28,26 C27.2597176,26 26.6133738,25.5978014 26.2675644,25 L1,25 L1,23 L1,8 L3,8 L3,23 L26.2675644,23 Z M3.73243561,1 L29,1 L29,3 L29,18 L27,18 L27,3 L3.73243561,3 C3.38662619,3.59780137 2.74028236,4 2,4 C0.8954305,4 0,3.1045695 0,2 C0,0.8954305 0.8954305,0 2,0 C2.74028236,0 3.38662619,0.40219863 3.73243561,1 Z M24.0118075,12.4111756 L19.1748435,12.4111756 L19.1748435,11.3914116 L17.7174153,11.3909109 L17.6903675,16.692701 L19.1748435,16.692701 L19.1895327,21.6031256 L11.1910001,21.6031256 L11.1763109,16.692701 L12.5937083,16.692701 L12.5937083,11.3891505 L11.1763109,11.3886636 L11.1763109,12.3364951 L6.34891216,12.3772193 L6.34891216,10.4236101 L6.36962067,5 L23.9758401,5 L24.0063874,10.4296784 L24.0118075,12.4111756 Z M21.9870604,7 L8.36314661,7 L8.35225172,10.3602479 L9.1763109,10.3532961 L9.1763109,9.38797633 L14.5937083,9.38983755 L14.5937083,18.692701 L13.1823027,18.692701 L13.1850262,19.6031256 L17.1835409,19.6031256 L17.1808174,18.692701 L15.6801382,18.692701 L15.727596,9.39022711 L21.1748435,9.39209859 L21.1748435,10.4111756 L22.0062517,10.4111756 L21.9870604,7 Z" transform="translate(1 3)" fill="#0052D9" fill-rule="evenodd"/></svg>