<svg width="32" height="32" viewBox="0 0 32 32" xmlns="http://www.w3.org/2000/svg"><g fill="none" fill-rule="evenodd"><g transform="translate(1 3)" fill="#0052D9"><path d="M2 1H29V3H2zM1 23H29V25H1z"/><path d="M1 8H3V25H1zM27 1H29V18H27z"/><circle cx="2" cy="2" r="2"/><circle cx="28" cy="24" r="2"/></g><path d="M2.32779694,9.73552499 L0.972801764,8.26447501 C1.87456511,7.43385402 2.39606574,6.26985495 2.39606574,5.01977787 C2.39606574,3.75294596 1.8603598,2.57473895 0.937366647,1.74279282 L2.27640933,0.25720718 C3.61585537,1.46452594 4.39606574,3.18048475 4.39606574,5.01977787 C4.39606574,6.8346908 3.63648995,8.53007805 2.32779694,9.73552499 Z" transform="rotate(-45 19.772 -13.68)" fill="#0052D9" fill-rule="nonzero"/><path d="M8.47862363,11.4375955 C7.13896512,12.7662793 8.71343409,15.9293063 11.9307955,19.119578 C15.1225256,22.2859085 18.2796874,23.8317527 19.6257219,22.547843 L20.8259534,21.3575447 C21.0076532,21.1773334 21.3176231,20.8314816 21.7619371,20.3140573 L22,20.036822 L21.727067,19.7932253 C21.2991612,19.411313 20.9946428,19.1380962 20.8139765,18.9739994 L20.7389555,18.8983933 L20.7058492,18.8689827 L18.9797786,17.508446 C18.7844291,17.3467249 18.4598515,17.1159957 18.0084194,16.8176455 L17.7637963,16.6559747 L17.5458186,16.8515689 C17.1430584,17.2129709 16.8649848,17.4697033 16.7085762,17.6248318 L16.1689055,18.1605796 C15.4716674,17.7181872 14.8794705,17.2559608 14.3659514,16.7472327 C13.8501799,16.235108 13.3817558,15.6433986 12.9322975,14.9444259 L13.4525283,14.3642792 C13.5966738,14.2224279 13.8766945,13.9571229 14.2755896,13.5861613 L14.525691,13.3535738 L14.3161581,13.0844434 C13.9548572,12.6203775 13.6999346,12.2998824 13.5492573,12.1204569 L12.182904,10.4158275 C12.0285552,10.2167142 11.7091308,9.84706045 11.2232326,9.30495252 L10.9498999,9 L10.6670153,9.29626365 C10.2591728,9.72339512 9.96580241,10.0048366 9.79860217,10.1322283 L9.75955596,10.16648 C9.7690984,10.1568655 9.34212096,10.5805707 8.47862363,11.4375955 Z" stroke="#0052D9" stroke-width="2"/></g></svg>