<svg width="32" height="32" viewBox="0 0 32 32" xmlns="http://www.w3.org/2000/svg"><path d="M29.8278011,7.9834847 L27.5859041,8.99852594 L16,2.30940108 L4.14359354,9.15470054 L4.14359354,22.8452995 L16,29.6905989 L27.8564065,22.8452995 L27.8564065,14.1594935 L29.8564065,13.2539735 L29.8564065,24 L16,32 L2.14359354,24 L2.14359354,8 L16,0 L29.8278011,7.9834847 Z M8.44189888,20.7496856 L15.3495475,24.5210049 L22.3277504,20.3125944 L17.5302962,17.7027958 L10.5960993,21.7031227 L10.5960993,13.4757941 L13.3880675,11.8438321 L13.3880675,9.16420257 L8.44189888,12.1969896 L8.44189888,20.7496856 Z M6.57345121,21.9658037 L6.44189888,21.9658037 L6.44189888,11.0709491 L15.3880675,5.61193248 L15.3880675,10.6747916 L19.024348,8.54931204 L19.1426266,14.4636957 L19.808429,14.0795954 L21.0731964,13.2814097 L21.0764403,15.6317421 L20.8106849,15.7881979 L20.8202711,15.8048146 L19.5615128,16.5309902 L26.348701,20.2231972 L15.3990611,26.8266997 L6.55560067,21.9984992 L6.57345121,21.9658037 Z M22.1952761,14.8673892 L22.1920322,12.6090603 L24.3633736,11.2387422 L24.3666175,13.5890747 L22.1952761,14.8673892 Z M12.5960993,18.2403767 L17.1650422,15.6045609 L17.0928548,11.9949133 L12.5960993,14.623358 L12.5960993,18.2403767 Z M16.6962426,22.4345119 L15.1722161,21.6065339 L18.7232806,19.566145 L20.2359555,20.3306445 L16.6962426,22.4345119 Z" fill="#0052D9" fill-rule="nonzero"/></svg>