<svg width="32" height="32" viewBox="0 0 32 32" xmlns="http://www.w3.org/2000/svg"><g transform="translate(2)" fill="#0052D9" fill-rule="evenodd"><path d="M13 9H15V14H13zM13 17H15V22H13z"/><path d="M13 12L19 12 20.5168086 14 13 14zM7.50434875 17L15 17 15 19 9 19z"/><circle cx="14" cy="8" r="2"/><circle cx="14" cy="23" r="2"/><path transform="scale(1 -1) rotate(60 32.913 0)" d="M6.63127645 11.5042823L17.0336966 11.5042823 17.0336966 13.5042823 5.47680169 13.5038912z"/><path transform="scale(-1 1) rotate(60 0 -10.517)" d="M12.1312764 17.5042823L22.5336966 17.5042823 22.5336966 19.5042823 10.9768017 19.5038912z"/><path d="M26.001 12.334L26.001 23.143 14.001 30 2 23.143 2 8.857 14.001 2 25.577 8.615 27.192 7.539 14.001 0 1.0125234e-13 8 1.0125234e-13 10 1.0125234e-13 22 1.0125234e-13 24 14.001 32 28.001 24 28.001 22 28.001 11z"/></g></svg>