<svg width="32" height="32" viewBox="0 0 32 32" xmlns="http://www.w3.org/2000/svg"><g fill="#0052D9" fill-rule="nonzero"><path d="M31.7193022,13.0004945 L29.6779284,13.0004945 C28.3047737,6.70988283 22.7024129,2 16,2 C8.2680135,2 2,8.2680135 2,16 C2,23.7319865 8.2680135,30 16,30 C23.0527724,30 28.8874794,24.7848417 29.8581515,18.0004945 L31.8761508,18.0004945 C30.8917351,25.8928783 24.1590649,32 16,32 C7.163444,32 -2.0250468e-13,24.836556 -2.0250468e-13,16 C-2.0250468e-13,7.163444 7.163444,0 16,0 C23.8113418,0 30.3152783,5.59766728 31.7193022,13.0004945 Z"/><path d="M19,13 L13,13 L13,19 L19,19 L19,13 Z M15,17 L15,15 L17,15 L17,17 L15,17 Z"/><path d="M10,17 L10,15 L8,15 L8,13 L10,13 L10,10 L13,10 L13,8 L15,8 L15,10 L17,10 L17,8 L19,8 L19,10 L22,10 L22,13 L24,13 L24,15 L22,15 L22,17 L24,17 L24,19 L22,19 L22,22 L19,22 L19,24 L17,24 L17,22 L15,22 L15,24 L13,24 L13,22 L10,22 L10,19 L8,19 L8,17 L10,17 Z M19,13 L19,19 L13,19 L13,13 L19,13 Z M15,17 L17,17 L17,15 L15,15 L15,17 Z M12,12 L12,20 L20,20 L20,12 L12,12 Z"/></g></svg>