<svg width="32" height="32" viewBox="0 0 32 32" xmlns="http://www.w3.org/2000/svg"><path d="M27.2675644,24 C27.6133738,23.4021986 28.2597176,23 29,23 C30.1045695,23 31,23.8954305 31,25 C31,26.1045695 30.1045695,27 29,27 C28.2597176,27 27.6133738,26.5978014 27.2675644,26 L1,26 L1,24 L1,9 L3,9 L3,24 L27.2675644,24 Z M3.73243561,1 L30,1 L30,3 L30,18 L28,18 L28,3 L3.73243561,3 C3.38662619,3.59780137 2.74028236,4 2,4 C0.8954305,4 0,3.1045695 0,2 C0,0.8954305 0.8954305,0 2,0 C2.74028236,0 3.38662619,0.40219863 3.73243561,1 Z M11.795752,13.1132993 L11.795752,7.77777778 C11.795752,6.75605098 12.6240252,5.92777778 13.645752,5.92777778 C13.6966448,5.92777778 13.7470577,5.92983281 13.7969121,5.9338644 C13.8317359,4.94276899 14.6461633,4.15 15.645752,4.15 C16.4137283,4.15 17.072409,4.61795029 17.3522129,5.28426972 C17.4478146,5.26902841 17.5458587,5.26111111 17.645752,5.26111111 C18.6674787,5.26111111 19.495752,6.08938433 19.495752,7.11111111 L19.495752,7.71154877 C19.5452283,7.70757887 19.5952539,7.7055556 19.645752,7.7055556 C20.6674788,7.7055556 21.495752,8.53382878 21.495752,9.5555556 C21.495752,10.3681609 21.5240437,11.0138371 21.6003606,12.2489688 C21.6389441,12.8734137 21.6486367,13.0356453 21.6638004,13.3290304 C21.7297458,14.6049368 21.7267442,15.5852772 21.6280969,16.6556439 C21.539391,17.6181431 21.3764636,18.4592026 21.1465927,19.2680854 C21.084598,19.4862357 21.0198926,19.6949941 20.9451699,19.92215 C20.9042763,20.0464658 20.7828996,20.405377 20.7772731,20.4222524 C20.6905082,20.6824833 20.6581597,20.8094553 20.6581597,20.8286133 L20.6581597,21.4338078 L18.9581597,21.4338078 L18.9581597,20.8286133 C18.9581597,20.456237 19.523425,18.7608572 19.5113423,18.8033746 C19.7135327,18.0918958 19.8565804,17.3534585 19.9352711,16.4996295 C20.0253894,15.5218055 20.0281564,14.6180879 19.9660665,13.4167781 C19.9513179,13.1314241 19.9417783,12.9717533 19.9035965,12.3538092 C19.8252489,11.0858118 19.795752,10.4126314 19.795752,9.5555556 C19.795752,9.47271289 19.7285947,9.4055556 19.645752,9.4055556 C19.5629092,9.4055556 19.495752,9.47271284 19.495752,9.5555556 L19.495752,13.4312066 L17.795752,13.4312066 L17.795752,7.11111111 C17.795752,7.02826842 17.7285947,6.96111111 17.645752,6.96111111 C17.5629093,6.96111111 17.495752,7.02826837 17.495752,7.11111111 L17.495752,13.061849 L15.795752,13.061849 L15.795752,6 C15.795752,5.91715731 15.7285947,5.85 15.645752,5.85 C15.5629093,5.85 15.495752,5.91715726 15.495752,6 L15.495752,13.0650871 L13.795752,13.0650871 L13.795752,7.77777778 C13.795752,7.69493509 13.7285947,7.62777778 13.645752,7.62777778 C13.5629093,7.62777778 13.495752,7.69493504 13.495752,7.77777778 L13.495752,15.7149794 L13.495752,16.7886656 L12.4219905,16.4956644 C11.8715329,16.345459 11.451738,15.9181366 11.1077124,15.2735849 C11.076954,15.2159572 10.8468179,14.7756558 10.7856729,14.6642375 C10.5385836,14.2139916 10.3961767,14.0620165 10.2132554,14.0094224 C10.1748138,13.9983696 10.136181,13.9896387 10.09723,13.9832945 C10.6229316,15.5713759 11.0207735,16.6012437 11.2685283,17.031869 C11.4605308,17.3655906 11.7854558,17.8049474 12.1904361,18.2928448 C12.4665872,18.6255359 12.7371713,18.9304598 12.9557572,19.1662678 C13.3193772,19.5585369 13.7925168,20.19903 13.904135,20.5504287 C13.9817569,20.7947996 14.0141168,21.0838203 14.0141168,21.4338078 L12.3141168,21.4338078 C12.3141168,21.2432902 12.2997463,21.1149409 12.2839076,21.0650772 C12.2735036,21.0323231 11.9046866,20.5330523 11.7090106,20.3219592 C11.4709547,20.0651473 11.1806998,19.7380562 10.8823517,19.3786233 C10.420647,18.8223877 10.0457223,18.3154222 9.79500247,17.8796435 C9.42139772,17.2302771 8.89853911,15.8313268 8.19036951,13.6162353 L7.9672867,12.9184522 L8.62450544,12.5948307 C9.30473917,12.2598764 10.0036996,12.1802968 10.6830122,12.3756144 C11.1505398,12.5100392 11.4924993,12.7455322 11.795752,13.1132993 Z" transform="translate(0 3)" fill="#0052D9" fill-rule="nonzero"/></svg>