<svg xmlns="http://www.w3.org/2000/svg" viewBox="0 0 32 32"><path fill="none" d="M0 0H32V32H0z"/><path fill="#0052D9" d="M16.1,1.9C8.3,1.9,2,8.1,2,15.9C1.9,23.7,8.3,30,16,30c7,0,13-5.1,13.9-12.1h1.3 c-1.1,8.4-8.7,14.4-17.1,13.3C5.7,30.2-0.3,22.5,0.8,14.1C1.9,5.7,9.6-0.3,18,0.7c6.9,0.9,12.5,6.3,13.3,13.3H30 C29.1,7.1,23.1,1.9,16.1,1.9z"/><g fill="none" stroke="#0052D9" stroke-width="2" stroke-linecap="round"><path stroke-miterlimit="10" d="M13.4 19.3L21.3 11.2M6.4 19.3L14.3 11.3M22.2 19.5L14.3 11.3"/><path stroke-linejoin="round" d="M21.4,11.2c0.7,0,1.5,0.3,2.1,0.7c2,1.2,2.7,3.8,1.4,5.7c-0.7,1-1.7,1.7-2.8,1.9"/></g></svg>