<svg width="32" height="32" viewBox="0 0 32 32" xmlns="http://www.w3.org/2000/svg"><g fill="none" fill-rule="evenodd" stroke="#0052D9" stroke-width="2"><path d="M19.5764706 10L22.1153846 10 23 5.35794183 19.4615385 4.10794183 16.8076923 0 6.19230769 5.68434189e-13 3.53846154 4.10794183 0 5.35794183.884615385 10 3.53846154 10M7.17647059 4.5L15.8263845 4.5" transform="translate(4.824 10)"/><path d="M9.97777778,12 L6,12 C4.8954305,12 4,11.1045695 4,10 L4,10 C4,8.8954305 4.8954305,8 6,8 L9.52871171,8 C9.81434953,8 10.0863536,8.1221478 10.276121,8.33563616 L13.2349901,11.6643638 C13.4247575,11.8778522 13.6967616,12 13.9823994,12 L16.8,12 C17.9045695,12 18.8,11.1045695 18.8,10 L18.8,10 C18.8,8.8954305 17.9045695,8 16.8,8 L13.5333333,8" transform="translate(4.824 10)"/><circle cx="16" cy="16" r="15"/></g></svg>