<svg width="32" height="32" viewBox="0 0 32 32" xmlns="http://www.w3.org/2000/svg"><g fill="none" fill-rule="evenodd"><path d="M2,26 L3.19744231e-14,26 L3.19744231e-14,7 L2,7 L21,7 L23,7 L23,26 L21,26 L2,26 Z M2,24 L21,24 L21,9 L2,9 L2,24 Z M26,18.6625093 L30,20.5255743 L30,13.1423536 L26,15.0064586 L26,18.6625093 Z M24,19.9382369 L24,17.7309768 L24,15.9385111 L24,13.7317909 L32,10 L32,12.2103011 L32,21.4571068 L32,23.6699768 L24,19.9382369 Z" fill="#0052D9"/><g transform="rotate(-45 21.4 .379)"><circle stroke="#0052D9" stroke-width="2" cx="3" cy="3" r="3"/><path fill="#0052D9" d="M2 5H4V10H2z"/></g></g></svg>