<svg data-name="图层 1" xmlns="http://www.w3.org/2000/svg" width="32" height="32" viewBox="0 0 32 32"><path fill="#0052D9" d="M16.21,2.15a22.37,22.37,0,0,1,12.86,4v.13A27.56,27.56,0,0,1,16.2,29.52,27.6,27.6,0,0,1,3.34,6.33V6.18a22.36,22.36,0,0,1,12.87-4m0-2A24.47,24.47,0,0,0,1.51,5l-.15.11v.18c0,.33,0,.66,0,1A29.5,29.5,0,0,0,16,31.74l.19.11.19-.11A29.49,29.49,0,0,0,31.07,6.32c0-.33,0-.66,0-1V5.15L30.91,5A24.51,24.51,0,0,0,16.21.15Z"/><path fill="#0052D9" d="M25,15.65H7.45v-1a8.76,8.76,0,0,1,17.51,0Zm-15.43-2H22.88a6.73,6.73,0,0,0-13.35,0Z"/><path fill="#0052D9" d="M15.77 8.52L14.84 11.05 15.97 11.05 15.57 13.23 17.47 10.11 16.34 10.11 16.88 8.52 15.77 8.52zM16.22 7.77a1 1 0 01-1-1V5.13a1 1 0 112 0V6.77A1 1 0 0116.22 7.77zM16.21 20.72a1 1 0 01-1-1V14.65a1 1 0 112 0v5.07A1 1 0 0116.21 20.72z"/><path fill="#0052D9" d="M14.35,22.58a2.86,2.86,0,0,1-2.86-2.86,1,1,0,0,1,2,0,.86.86,0,0,0,1.72,0,1,1,0,0,1,2,0A2.87,2.87,0,0,1,14.35,22.58Z"/></svg>