<svg width="32" height="32" viewBox="0 0 32 32" xmlns="http://www.w3.org/2000/svg"><g fill="#0052D9" fill-rule="evenodd"><path d="M15.0743669,28 C7.85876993,28 2.00991558,22.18 2.00991558,15 C2.00991558,7.82 7.85876993,2 15.0743669,2 C21.6045826,2 26.999196,6.772 27.9689803,13 L30,13 C29.0141364,5.664 22.7160659,0 15.0743669,0 C6.74929653,0 0,6.716 0,15 C0,23.284 6.74929653,30 15.0743669,30 C22.7160659,30 29.0141364,24.336 29.998995,17 L27.9679753,17 C26.999196,23.228 21.6045826,28 15.0743669,28 Z" transform="translate(1 1)" fill-rule="nonzero"/><path d="M16,17 C17.6568542,17 19,15.6568542 19,14 C19,12.3431458 17.6568542,11 16,11 C14.3431458,11 13,12.3431458 13,14 C13,15.6568542 14.3431458,17 16,17 Z M16,15 C15.4477153,15 15,14.5522847 15,14 C15,13.4477153 15.4477153,13 16,13 C16.5522847,13 17,13.4477153 17,14 C17,14.5522847 16.5522847,15 16,15 Z" fill-rule="nonzero"/><path d="M11.7659038 22L20.2340962 22C19.6843763 21.3865916 18.8864193 21 18 21L18 19C20.761 19 23 21.238 23 24L21 24 11 24 9 24C9 21.239 11.239 19 14 19L14 21C13.1135807 21 12.3156237 21.3865916 11.7659038 22zM18 21L14 21 14 19 18 19 18 21zM9.03400279 8.03445317L9.03460431 7.9999921 13 8.06920833 12.9653957 10.0516877 11 10.0173816 11 12 9.01700202 12 9.01700202 9.9827682 9 9.98247143 9.01700202 9.00842617 9.01700202 8.03445317 9.03400279 8.03445317z"/><path d="M19.0340028,8.03445317 L19.0346043,7.9999921 L23,8.06920833 L22.9653957,10.0516877 L21,10.0173816 L21,12 L19.017002,12 L19.017002,9.9827682 L19,9.98247143 L19.017002,9.00842617 L19.017002,8.03445317 L19.0340028,8.03445317 Z" transform="matrix(-1 0 0 1 42 0)"/><path d="M19.0340028,15.0344532 L19.0346043,14.9999921 L23,15.0692083 L22.9653957,17.0516877 L21,17.0173816 L21,19 L19.017002,19 L19.017002,16.9827682 L19,16.9824714 L19.017002,16.0084262 L19.017002,15.0344532 L19.0340028,15.0344532 Z" transform="rotate(180 21 17)"/><path d="M9.03400279,15.0344532 L9.03460431,14.9999921 L13,15.0692083 L12.9653957,17.0516877 L11,17.0173816 L11,19 L9.01700202,19 L9.01700202,16.9827682 L9,16.9824714 L9.01700202,16.0084262 L9.01700202,15.0344532 L9.03400279,15.0344532 Z" transform="matrix(1 0 0 -1 0 34)"/><path d="M10 22H13V24H10z"/></g></svg>