<svg width="32" height="32" viewBox="0 0 32 32" xmlns="http://www.w3.org/2000/svg"><g fill="#0052D9" fill-rule="evenodd"><path d="M2,26 L3.19744231e-14,26 L3.19744231e-14,7 L2,7 L21,7 L23,7 L23,26 L21,26 L2,26 Z M2,24 L21,24 L21,9 L2,9 L2,24 Z M26,18.6625093 L30,20.5255743 L30,13.1423536 L26,15.0064586 L26,18.6625093 Z M24,19.9382369 L24,17.7309768 L24,15.9385111 L24,13.7317909 L32,10 L32,12.2103011 L32,21.4571068 L32,23.6699768 L24,19.9382369 Z"/><path d="M13.5,22.5 L7.5,22.5 L5.5,22.5 L5.5,21.5 L5.5,12.5 L5.5,10.5 L7.5,10.5 L11.5,10.5 L11.5,12.5 L7.5,12.5 L7.5,20.5 L13.5,20.5 L15.5,20.5 L15.5,16.5 L17.5,16.5 L17.5,20.5 L17.5,22.5 L15.5,22.5 L13.5,22.5 Z M9.37867966,17.2071068 L15.7426407,10.8431458 L17.1568542,12.2573593 L10.7928932,18.6213203 L9.37867966,17.2071068 Z"/></g></svg>