<svg width="32" height="32" viewBox="0 0 32 32" xmlns="http://www.w3.org/2000/svg"><path d="M31.7193022,13.0004945 L29.6779284,13.0004945 C28.3047737,6.70988283 22.7024129,2 16,2 C8.2680135,2 2,8.2680135 2,16 C2,23.7319865 8.2680135,30 16,30 C23.0527724,30 28.8874794,24.7848417 29.8581515,18.0004945 L31.8761508,18.0004945 C30.8917351,25.8928783 24.1590649,32 16,32 C7.163444,32 -2.06057393e-13,24.836556 -2.06057393e-13,16 C-2.06057393e-13,7.163444 7.163444,0 16,0 C23.8113418,0 30.3152783,5.59766728 31.7193022,13.0004945 Z M19.5946285,12.2439273 C20.1427183,11.2202689 21.2224358,10.5239437 22.4647887,10.5239437 C24.2616588,10.5239437 25.7183099,11.9805947 25.7183099,13.7774648 C25.7183099,15.5743349 24.2616588,17.0309859 22.4647887,17.0309859 C21.9292349,17.0309859 21.4239036,16.9015876 20.978354,16.6723502 L17.3717466,20.2789576 C17.6633815,20.7666026 17.8309859,21.3369677 17.8309859,21.9464789 C17.8309859,23.743349 16.3743349,25.2 14.5774648,25.2 C12.7805947,25.2 11.3239437,23.743349 11.3239437,21.9464789 C11.3239437,20.7544133 11.9650387,19.7120836 12.9212551,19.1454633 L11.214599,13.918829 C11.1161,13.9278068 11.0163322,13.9323944 10.915493,13.9323944 C9.11862286,13.9323944 7.66197183,12.4757433 7.66197183,10.6788732 C7.66197183,8.88200314 9.11862286,7.42535211 10.915493,7.42535211 C12.7123631,7.42535211 14.1690141,8.88200314 14.1690141,10.6788732 C14.1690141,10.704086 14.1687273,10.7292319 14.1681568,10.7543076 L19.5946285,12.2439273 Z M19.5659962,15.2562809 C19.40326,14.9379207 19.2914279,14.589217 19.2412344,14.2209042 L13.5066641,12.6467085 C13.3740146,12.8211072 13.2241608,12.9817087 13.0596328,13.1259831 L14.8820134,18.7070238 C15.228177,18.7391587 15.55861,18.8255238 15.8647351,18.957542 L19.5659962,15.2562809 Z M10.915493,9.42535211 C10.2231924,9.42535211 9.66197183,9.98657264 9.66197183,10.6788732 C9.66197183,11.3711738 10.2231924,11.9323944 10.915493,11.9323944 C11.6077936,11.9323944 12.1690141,11.3711738 12.1690141,10.6788732 C12.1690141,9.98657264 11.6077936,9.42535211 10.915493,9.42535211 Z M14.5774648,20.6929577 C13.8851642,20.6929577 13.3239437,21.2541783 13.3239437,21.9464789 C13.3239437,22.6387795 13.8851642,23.2 14.5774648,23.2 C15.2697654,23.2 15.8309859,22.6387795 15.8309859,21.9464789 C15.8309859,21.2541783 15.2697654,20.6929577 14.5774648,20.6929577 Z M22.4647887,12.5239437 C21.7724881,12.5239437 21.2112676,13.0851642 21.2112676,13.7774648 C21.2112676,14.4697654 21.7724881,15.0309859 22.4647887,15.0309859 C23.1570893,15.0309859 23.7183099,14.4697654 23.7183099,13.7774648 C23.7183099,13.0851642 23.1570893,12.5239437 22.4647887,12.5239437 Z" fill="#0052D9" fill-rule="nonzero"/></svg>