<svg width="32" height="32" viewBox="0 0 32 32" xmlns="http://www.w3.org/2000/svg"><g fill="none" fill-rule="evenodd"><circle fill="#0052D9" cx="25.899" cy="6.101" r="1.333"/><circle fill="#0052D9" cx="21.704" cy="18.101" r="1.333"/><path d="M15.1111111 9.33333333L18 9.33333333 18 13.6666667C18 16.0599006 16.0599006 18 13.6666667 18 11.2734328 18 9.33333333 16.0599006 9.33333333 13.6666667L9.33333333 9.33333333 9.33333333 9.33333333 12.2222222 9.33333333M21.6666667 18.3615013L21.6666667 19.6948346C21.6666667 21.9039736 19.8758057 23.6948346 17.6666667 23.6948346 15.4575277 23.6948346 13.6666667 21.9039736 13.6666667 19.6948346L13.6666667 18.3615013" stroke="#0052D9" stroke-width="1.333"/><circle fill="#0052D9" cx="6.101" cy="25.899" r="1.333"/><path d="M25.5823811,5.79317947 C23.0777855,3.44088991 19.7071617,2 16,2 C8.2680135,2 2,8.2680135 2,16 C2,17.5049797 2.23747016,18.9544953 2.67698421,20.3131205 M6.20470087,26.0026121 C8.72954297,28.4754477 12.1867323,30 16,30 C23.7319865,30 30,23.7319865 30,16 C30,14.4891351 29.760669,13.034169 29.3178504,11.6709452" stroke="#0052D9" stroke-width="1.333" stroke-linecap="round"/></g></svg>