<svg width="32" height="32" viewBox="0 0 32 32" xmlns="http://www.w3.org/2000/svg"><g fill="none" fill-rule="evenodd"><g transform="translate(10.04 12.307)" stroke="#0052D9" stroke-width="1.5"><path d="M10.96,5.69333333 C10.5450786,6.30062281 9.88513288,6.69333333 9.14190419,6.69333333 L2.77503663,6.69333333 C2.03363188,6.69333333 1.37510181,6.30254794 0.96,5.69780056"/><rect x="8.96" y=".693" width="1" height="3" rx=".32"/><rect x="2.96" y=".693" width="1" height="3" rx=".32"/></g><path d="M3.38396788,6 L4.74214915,7.37806337 L4.61757406,7.54922154 C0.550940813,13.1365138 1.09543895,20.9649418 5.98518465,25.9262672 C10.4395899,30.4458794 17.2842638,31.3389752 22.6805162,28.2457265 C22.6789041,28.2161958 22.6781131,28.1862955 22.6781131,28.1559717 C22.6781131,27.2252296 23.4217428,26.4707141 24.3390565,26.4707141 C25.2563703,26.4707141 26,27.2252296 26,28.1559717 C26,29.0867137 25.2563703,29.8412293 24.3390565,29.8412293 C24.1816625,29.8412293 24.0270569,29.8189412 23.8786999,29.7755932 C17.7126493,33.4702815 9.77880276,32.508286 4.63846548,27.2927007 C-0.976835617,21.5951986 -1.54549338,12.5809002 3.21510152,6.22543897 L3.38396788,6 Z M27.3615345,4.70729932 C32.9768356,10.4048014 33.5454934,19.4190998 28.7848985,25.774561 L28.6160321,26 L27.2578508,24.6219366 L27.3824259,24.4507785 C31.4490592,18.8634861 30.9045611,11.0350582 26.0148153,6.07373277 C21.5604101,1.55412062 14.7157362,0.661024788 9.31948384,3.75427349 C9.32109587,3.78380417 9.32188693,3.81370449 9.32188693,3.84402834 C9.32188693,4.7747704 8.57825721,5.52928593 7.66094346,5.52928593 C6.74362971,5.52928593 5.99999999,4.7747704 5.99999999,3.84402834 C5.99999999,2.91328627 6.74362971,2.15877075 7.66094346,2.15877075 C7.8183375,2.15877075 7.97294312,2.18105882 8.12130012,2.22440684 C14.2873507,-1.47028153 22.2211972,-0.508286043 27.3615345,4.70729932 Z" fill="#0052D9" fill-rule="nonzero" transform="matrix(-1 0 0 1 32 0)"/><path d="M7.66666667,9 L24.3333333,9 C24.7015232,9 25,9.29847683 25,9.66666667 L25,21.3333333 C25,21.7015232 24.7015232,22 24.3333333,22 L7.66666667,22 C7.29847683,22 7,21.7015232 7,21.3333333 L7,9.66666667 C7,9.29847683 7.29847683,9 7.66666667,9 Z" stroke="#0052D9" stroke-width="2"/></g></svg>