<svg width="32" height="32" viewBox="0 0 32 32" xmlns="http://www.w3.org/2000/svg"><g fill="none" fill-rule="evenodd"><g transform="translate(1 3)" fill="#0052D9"><path d="M2 1H29V3H2zM1 23H28V25H1z"/><path d="M1 8H3V25H1zM27 1H29V18H27z"/><circle cx="2" cy="2" r="2"/><circle cx="28" cy="24" r="2"/></g><path d="M21.9983213,14.6358467 L19.9959097,14.3347823 C19.8792889,11.9812926 17.282841,10 14,10 C10.6406121,10 8,12.0747666 8,14.5 C8,15.8011184 8.7568953,17.03741 10.0854164,17.9011295 L10.6769947,18.2857359 L10.3925773,19.4755612 L12.3238247,18.8248635 L12.5785968,18.8717428 C13.0399592,18.9566357 13.5159607,19 14,19 C14.7818881,19 15.5248391,18.8876073 16.2046223,18.6845622 L16.3235445,19.5 L17.2183553,20.4546581 C16.2303692,20.806091 15.1405347,21 14,21 C13.4852774,21 12.9764827,20.9606682 12.4785985,20.8831871 L9.66166921,21.8322988 C9.44814211,21.9042427 9.21867333,21.9146157 8.99952602,21.8622305 C8.35494444,21.7081488 7.95731565,21.0607044 8.11139726,20.4161228 L8.4118276,19.1593092 C6.89607622,17.960453 6,16.3006042 6,14.5 C6,10.8501011 9.62740144,8 14,8 C18.3725986,8 22,10.8501011 22,14.5 C22,14.5454073 21.9994386,14.5906909 21.9983213,14.6358467 Z" fill="#0052D9" fill-rule="nonzero"/><circle stroke="#0052D9" stroke-width="2" cx="20" cy="18" r="4"/><path d="M21.9976042,20.495083 L24.9994894,23.5478" stroke="#0052D9" stroke-width="2"/><circle fill="#0052D9" cx="12" cy="13" r="1"/><circle fill="#0052D9" cx="16" cy="13" r="1"/><path d="M0 0H32V32H0z"/></g></svg>