<svg width="32" height="32" viewBox="0 0 32 32" xmlns="http://www.w3.org/2000/svg"><g transform="translate(5 1)" fill="none" fill-rule="evenodd"><path fill="#0052D9" d="M22 24L22 0 0 0 0 30 22 30 22 28 2 28 2 2 20 2 20 24z"/><path fill="#0052D9" d="M13 24L13 22 9 22 9 24z"/><path d="M8.0342001,14.3474505 C8.90894794,14.7627513 9.92122653,15 11,15 C14.3137085,15 17,12.7614237 17,10 C17,7.23857625 14.3137085,5 11,5 C7.6862915,5 5,7.23857625 5,10 C5,11.0170414 5.3643882,11.96316 5.99030458,12.752639 L5.99030458,14.6785487 L8.0342001,14.3474505 Z" stroke="#0052D9" stroke-width="2"/><circle fill="#0052D9" cx="8" cy="10" r="1"/><circle fill="#0052D9" cx="11" cy="10" r="1"/><circle fill="#0052D9" cx="14" cy="10" r="1"/></g></svg>