<svg data-name="图层 1" xmlns="http://www.w3.org/2000/svg" width="32" height="32" viewBox="0 0 32 32"><g fill="#0052D9"><path d="M31.1,5.23A26.55,26.55,0,0,0,16,.28a26.55,26.55,0,0,0-15.1,5A30.84,30.84,0,0,0,16,31.89h0A30.84,30.84,0,0,0,31.1,5.23ZM16,29.56A28.62,28.62,0,0,1,2.87,6.29,24.18,24.18,0,0,1,16,2.25a24.18,24.18,0,0,1,13.13,4A28.6,28.6,0,0,1,16,29.56Z"/><path d="M18,10.94a11.58,11.58,0,0,1,1.26,5.25,11.12,11.12,0,0,1-.09,1.41c0,.35-.1.7-.17,1A11.57,11.57,0,0,1,16.25,24h0a16.83,16.83,0,0,0,5.81-5.68c.27-.44.51-.87.72-1.3a17.58,17.58,0,0,0,1.78-6.67,10.6,10.6,0,0,0-6.54.61Zm3.34,5.36c-.16.34-.35.68-.55,1,0-.37.05-.75.05-1.13a13.2,13.2,0,0,0-.72-4.3,9,9,0,0,1,2.08-.24c.2,0,.41,0,.61,0A16.18,16.18,0,0,1,21.36,16.3Z"/><path d="M12.83,7A14.8,14.8,0,0,0,8.89,8.67a10.44,10.44,0,0,0,3.3,6.18,11.62,11.62,0,0,1,4.37-4.35c.31-.17.62-.32.94-.47a11.44,11.44,0,0,1,4.72-1,11.85,11.85,0,0,1,2.32.23,14.58,14.58,0,0,0-8.29-2.71,12.39,12.39,0,0,0-1.94.15A11.75,11.75,0,0,0,12.83,7Zm3.42,1.13a12.06,12.06,0,0,1,1.5.1q-.45.16-.9.36a10.56,10.56,0,0,0-1.06.54A13,13,0,0,0,12,12.3a8.9,8.9,0,0,1-1.35-2.81,12.25,12.25,0,0,1,2.54-1,10.3,10.3,0,0,1,1.32-.27A10.85,10.85,0,0,1,16.25,8.13Z"/><path d="M12.54,16.48c-.29-.21-.57-.44-.84-.67A11.48,11.48,0,0,1,7.94,9.28h0a17.1,17.1,0,0,0,2.87,9.56,15,15,0,0,0,.93,1.25,16.74,16.74,0,0,0,3.63,3.31A10.53,10.53,0,0,0,18,18.56,11.44,11.44,0,0,1,12.54,16.48Zm2.55,4.76A14.93,14.93,0,0,1,13,19.1c-.24-.28-.46-.59-.69-.91a13.18,13.18,0,0,0,3.65,1.59A9.1,9.1,0,0,1,15.09,21.24Z"/><path d="M18.24,14.85a2,2,0,1,0-2,2A2,2,0,0,0,18.24,14.85Z"/></g></svg>