<svg width="32" height="32" viewBox="0 0 32 32" xmlns="http://www.w3.org/2000/svg"><g fill="none" fill-rule="evenodd"><path d="M15.0360687,28.0004791 C8.11442647,28.0085887 2.40020596,22.5918552 2.03859105,15.6796607 C1.67697614,8.76746629 6.79479207,2.78404937 13.6794961,2.06987306 C20.5642002,1.35569675 26.8011952,6.16123631 27.8660687,13.0004791 L29.8660687,13.0004791 C28.8133703,5.17573571 21.8753549,-0.493528697 13.9977603,0.0339993612 C6.12016569,0.561527419 -4.34097203e-14,7.10524111 -4.4408921e-14,15.0004791 C-4.54081217e-14,22.8957171 6.12016569,29.4394308 13.9977603,29.9669588 C21.8753549,30.4944869 28.8133703,24.8252225 29.8660687,17.0004791 L27.8660687,17.0004791 C26.8811903,23.3260041 21.4378026,27.9929773 15.0360687,28.0004791 Z" transform="translate(1 1)" fill="#0052D9"/><g stroke="#0052D9" stroke-width="2"><path transform="rotate(90 7.505 17.621)" d="M6.00516796 1.32299742L13.126615 12.9198966 -1.11627907 12.9198966z"/><path stroke-linecap="square" d="M0.485788114 0.558139535L4.09747565 6.43501467 11.1868273 7.16405431" transform="translate(12 9)"/><path d="M3.98584774,6.41860465 L0.206718346,13.8756926" transform="translate(12 9)"/></g></g></svg>