<svg width="32" height="32" viewBox="0 0 32 32" xmlns="http://www.w3.org/2000/svg"><g fill-rule="nonzero" fill="none"><path d="M16,29.8666667 C7.89664485,29.8666667 2.13333333,24.0666942 2.13333333,16 C2.13333333,7.93330583 7.89664485,2.13333333 16,2.13333333 C23.265077,2.13333333 28.818819,6.70399857 29.8666667,13.8666667 L32,13.913786 C30.8124393,5.15168715 22.7789407,-1.03741441 13.9770204,0.144773529 C5.1751002,1.32696147 -1.04212918,9.32411517 0.145431486,18.086214 C1.33299215,26.8483128 9.36649079,33.0374144 18.168411,31.8552265 C25.3636316,30.8816599 31.0220089,25.2488821 32,18.086214 L29.8666667,18.1333333 C28.818819,25.2960014 23.265077,29.8666667 16,29.8666667 Z" fill="#0052D9"/><path stroke="#0052D9" stroke-width="2" d="M9 11H19V21H9zM23 12.2757809L19 14.2510895 19 17.7489105 23 19.7242191 23 12.2757809z"/></g></svg>