<svg xmlns="http://www.w3.org/2000/svg" width="32" height="32" viewBox="0 0 32 32"><g fill="#0052D9"><path d="M28.8,18c-1,6.2-6.3,11-12.8,11C8.8,29,3,23.2,3,16S8.8,3,16,3c6.5,0,12,4.8,12.8,11h2C30,6.7,23.6,1,16,1 C7.8,1,1,7.7,1,16s6.7,15,15,15c7.6,0,14-5.7,15-13H28.8z"/><path d="M16.3 13L13.7 19 15.7 19 18.3 13z"/><path d="M14 15L11 13.3 11 13.3 16 10.4 20.9 13.3 20.9 14.4 22.9 15.5 22.9 12.1 16 8.1 9 12.1 9 14.4 11 15.6 11 15.6 12 16.2M17.9 17.2L20.9 19 16 21.8 11 19 11 17.9 9 16.7 9 20.1 16 24.2 22.9 20.1 22.9 17.8 20.9 16.7 20.9 16.7 19.9 16.1"/></g></svg>