<svg width="32" height="32" viewBox="0 0 32 32" xmlns="http://www.w3.org/2000/svg"><g transform="translate(1 1)" fill="none" fill-rule="evenodd"><path d="M16.3461941,10.2898449 L7.28984489,10.2898449 L7.28984489,19.3461941 L16.3461941,19.3461941 L16.3461941,10.2898449 Z" stroke="#0052D9" stroke-width="2" transform="rotate(45 11.818 14.818)"/><path d="M14.2898449,19.3461941 L23.3461941,19.3461941 L23.3461941,10.2898449 L14.2898449,10.2898449 L14.2898449,19.3461941 Z" stroke="#0052D9" stroke-width="2" transform="rotate(45 18.818 14.818)"/><circle fill="#0052D9" cx="12" cy="15" r="2"/><circle fill="#0052D9" cx="19" cy="15" r="2"/><path d="M15.0360687,28.0004791 C8.11442647,28.0085887 2.40020596,22.5918552 2.03859105,15.6796607 C1.67697614,8.76746629 6.79479207,2.78404937 13.6794961,2.06987306 C20.5642002,1.35569675 26.8011952,6.16123631 27.8660687,13.0004791 L29.8660687,13.0004791 C28.8133703,5.17573571 21.8753549,-0.493528697 13.9977603,0.0339993612 C6.12016569,0.561527419 -4.34097203e-14,7.10524111 -4.4408921e-14,15.0004791 C-4.54081217e-14,22.8957171 6.12016569,29.4394308 13.9977603,29.9669588 C21.8753549,30.4944869 28.8133703,24.8252225 29.8660687,17.0004791 L27.8660687,17.0004791 C26.8811903,23.3260041 21.4378026,27.9929773 15.0360687,28.0004791 Z" fill="#0052D9"/></g></svg>