<svg width="32" height="32" viewBox="0 0 32 32" xmlns="http://www.w3.org/2000/svg"><g transform="translate(1 1)" fill="#0052D9" fill-rule="evenodd"><path d="M7 9H9V22H7zM15 13H17V22H15zM11 13H13V17H11zM18 13H20V22H18zM22 12L24 12.5934109 24 22 22 22z"/><path d="M7 20H23V22H7zM12 13H19V15H12zM7 9L20.411026 9 20 11 7 11z"/><path transform="rotate(45 21.604 11.604)" d="M18.9215729 10.6035534L23.9885492 10.6035534 24.2814336 10.8964378 24.2855339 12.6035534 18.9215729 12.6035534z"/><circle cx="12" cy="18" r="2"/><path d="M15.0360687,28.0004791 C8.11442647,28.0085887 2.40020596,22.5918552 2.03859105,15.6796607 C1.67697614,8.76746629 6.79479207,2.78404937 13.6794961,2.06987306 C20.5642002,1.35569675 26.8011952,6.16123631 27.8660687,13.0004791 L29.8660687,13.0004791 C28.8133703,5.17573571 21.8753549,-0.493528697 13.9977603,0.0339993612 C6.12016569,0.561527419 -4.34097203e-14,7.10524111 -4.4408921e-14,15.0004791 C-4.54081217e-14,22.8957171 6.12016569,29.4394308 13.9977603,29.9669588 C21.8753549,30.4944869 28.8133703,24.8252225 29.8660687,17.0004791 L27.8660687,17.0004791 C26.8811903,23.3260041 21.4378026,27.9929773 15.0360687,28.0004791 Z"/></g></svg>