<svg xmlns="http://www.w3.org/2000/svg" width="32" height="32" viewBox="0 0 32 32"><path fill="#0052D9" d="M29.028,4V2h-26v15.225c0,0,0.099,10.801,13,13.775c12.901-2.974,13-13.775,13-13.775V8h-2v9.217	c0,0.022-0.047,2.281-1.404,4.846c-1.812,3.428-5.075,5.741-9.596,6.88c-10.68-2.696-11-11.365-11-11.718V4H29.028z"/><path fill="#0052D9" d="M7.028 10H13.027999999999999V12H7.028z"/><path fill="#0052D9" d="M9.028 10H11.028V20H9.028zM15.028 10H17.028V20H15.028zM19.028 10H21.028V20H19.028zM23.028 20V10l0 0c1.105 0 2 .895 2 2v6C25.028 19.105 24.132 20 23.028 20L23.028 20zM21.028 10H23.028V12H21.028zM21.028 18H23.028V20H21.028z"/></svg>