<svg width="32" height="32" viewBox="0 0 32 32" xmlns="http://www.w3.org/2000/svg"><g fill="#0052D9" fill-rule="evenodd"><path d="M4,11 L4,26 L27.2676063,25.9999275 C27.6134261,25.4021661 28.2597476,25 29,25 C30.1045695,25 31,25.8954305 31,27 C31,28.1045695 30.1045695,29 29,29 C28.2601625,29 27.6141507,28.5982846 27.2681881,28.0010775 L2,28 L2,11 L4,11 Z M3,3 C3.74025244,3 4.38657394,3.40216612 4.73239368,3.99992752 L30,4 L30,21 L28,21 L28,6 L4.73181186,6.0010775 C4.38584934,6.59828461 3.7398375,7 3,7 C1.8954305,7 1,6.1045695 1,5 C1,3.8954305 1.8954305,3 3,3 Z"/><path d="M9,22 L9,23 L7,23 L7,22 L9,22 Z M9,19 L9,21 L7,21 L7,19 L9,19 Z M20.1516922,10.9912014 L20.1516922,12.9912014 L9,12.9902014 L9,18 L7,18 L7,11 L7.848,10.9992014 L7.8483078,10.9912014 L20.1516922,10.9912014 Z"/><path d="M14,20.0087986 L14,21.0087986 L12,21.0087986 L12,20.0087986 L14,20.0087986 Z M14,17.0087986 L14,19.0087986 L12,19.0087986 L12,17.0087986 L14,17.0087986 Z M25.1516922,9 L25.1516922,11 L14,10.999 L14,16.0087986 L12,16.0087986 L12,9.00879858 L12.848,9.008 L12.8483078,9 L25.1516922,9 Z" transform="rotate(180 18.576 15.004)"/><path d="M12.152 15H20.152V17H12.152z"/></g></svg>