<svg width="32" height="32" viewBox="0 0 32 32" xmlns="http://www.w3.org/2000/svg"><g fill-rule="nonzero" fill="none"><g transform="translate(8 7)"><circle stroke="#0052D9" stroke-width="2" cx="8" cy="8" r="7"/><path fill="#0052D9" d="M7.48391226 4L9.41188107 4 8.36015593 7.31347272 10 7.31347272 6.66282655 12 7.48391226 8.51955368 6 8.51955368z"/></g><path d="M24,6 L24,15.2 C24,15.2 24,17.5 22.6,20 C20.8,23.4 17.5,25.7 13,26.9 C2.3,24.3 2,15.6 2,15.2 L2,2 L22,2 L24,2 L26,2 L26,0 L0,0 L0,15.2 C0,15.2 0.1,26 13,29 C25.9,26 26,15.2 26,15.2 L26,6 L24,6 Z" fill="#0052D9" transform="translate(3 2)"/></g></svg>