<svg width="32" height="32" viewBox="0 0 32 32" xmlns="http://www.w3.org/2000/svg"><g fill="#0052D9" fill-rule="evenodd"><g fill-rule="nonzero"><circle cx="2" cy="2.019" r="2" transform="translate(0 2)"/><circle cx="2" cy="2.667" r="2" transform="translate(27 25.333)"/><path d="M30 18.6666667L28 18.6666667 28 2.66666667 0.666666667 2.66666667 1 0.666666667 30 0.666666667z" transform="translate(1 2.333)"/><path d="M29.6666667 19.3333333L0.666666667 19.3333333 0.666666667 0.333333333 2.66666667 0.333333333 2.66666667 17.3333333 29.6666667 17.3333333z" transform="translate(.333 9.667)"/></g><path d="M16.8888889,22.2222222 L16.8888889,24 L15.1111111,24 L15.1111111,22.2222222 L16.8888889,22.2222222 Z M24,18.6666667 L24,24 L18.6666667,24 L18.6666667,18.6666667 L24,18.6666667 Z M13.3333333,18.6666667 L13.3333333,24 L8,24 L8,18.6666667 L13.3333333,18.6666667 Z M22.2222222,20.4444444 L20.4444444,20.4444444 L20.4444444,22.2222222 L22.2222222,22.2222222 L22.2222222,20.4444444 Z M11.5555556,20.4444444 L9.77777778,20.4444444 L9.77777778,22.2222222 L11.5555556,22.2222222 L11.5555556,20.4444444 Z M16.8888889,18.6666667 L16.8888889,20.4444444 L15.1111111,20.4444444 L15.1111111,18.6666667 L16.8888889,18.6666667 Z M21,15 L21,17 L19,17 L19,15 L21,15 Z M24,15 L24,17 L22,17 L22,15 L24,15 Z M16.8888889,8 L16.8888889,16.8888889 L8,16.8888889 L8,8 L16.8888889,8 Z M15.1111111,9.77777778 L9.77777778,9.77777778 L9.77777778,15.1111111 L15.1111111,15.1111111 L15.1111111,9.77777778 Z M13.3333333,11.5555556 L13.3333333,13.3333333 L11.5555556,13.3333333 L11.5555556,11.5555556 L13.3333333,11.5555556 Z M24,8 L24,13.3333333 L18.6666667,13.3333333 L18.6666667,8 L24,8 Z M22.2222222,9.77777778 L20.4444444,9.77777778 L20.4444444,11.5555556 L22.2222222,11.5555556 L22.2222222,9.77777778 Z"/></g></svg>