<svg data-name="图层 1" xmlns="http://www.w3.org/2000/svg" width="32" height="32" viewBox="0 0 32 32"><path fill="#0052D9" d="M16,2A23.62,23.62,0,0,1,29,6.07,29.54,29.54,0,0,1,16,29.63,29.16,29.16,0,0,1,3,6.07,23.71,23.71,0,0,1,16,2m0-2A26,26,0,0,0,1,5S0,22.21,16,32h0C32,22.21,31,5,31,5A26,26,0,0,0,16,0Z"/><path fill="#0052D9" d="M20,7.82v5H12v-5h8m2-2H10v9H22Z"/><path fill="#0052D9" d="M17,8.82H15a1,1,0,0,0,0,2h2A.93.93,0,0,0,18,10V9.82A1,1,0,0,0,17,8.82Z"/><path fill="none" stroke="#0052D9" stroke-miterlimit="10" stroke-width="2" d="M18 15.82L18 17.92 17.4 19.02 18 20.12 18 21.82 16 23.82 14 21.82 14 15.82"/></svg>