<svg xmlns="http://www.w3.org/2000/svg" width="32" height="32" viewBox="0 0 32 32"><path fill="#0052D9" d="M23,8v3v3l2.8-1.2l4.2-1.8v9.1l-4.5-1.1L23,18.5V21v3H2V8H23 M25,6H0v20h25v-5l7,1.7V8.1L25,11V6L25,6z"/><path fill="#0052D9" d="M11.9,22.6c-0.1,0-0.3,0-0.4-0.1c-0.6-0.2-0.9-0.7-0.9-1.2v-2.1h-3c-0.5,0-0.9-0.3-1.2-0.7s-0.2-1,0.1-1.4l5-7 c0.3-0.5,0.9-0.6,1.5-0.5c0.5,0.2,0.9,0.7,0.9,1.2v2.2h2.5c0.5,0,0.9,0.3,1.1,0.7s0.2,0.9-0.1,1.3L12.9,22 C12.7,22.4,12.3,22.6,11.9,22.6z M9,17.2h3.6V19l2.6-3.9h-3.2v-2L9,17.2z M8.2,18.3L8.2,18.3C8.2,18.3,8.2,18.3,8.2,18.3z"/></svg>