<svg xmlns="http://www.w3.org/2000/svg" width="32" height="32" viewBox="0 0 32 32"><g fill="#0052D9"><path d="M29.858,18.001C28.887,24.785,23.053,30,16,30C8.268,30,2,23.732,2,16S8.268,2,16,2 c6.702,0,12.305,4.71,13.678,11l2.041,0C30.315,5.597,23.811,0,16,0C7.163,0,0,7.163,0,16s7.163,16,16,16 c8.159,0,14.892-6.107,15.876-13.999L29.858,18.001z"/><path d="M10.125,24.5H9V26h1h10h1v-1.5h-1.125L19,14V9h1l-5-5l-5,5h1v5L10.125,24.5z M15.5,24.119V24.5h-1 v-0.381V23c0-0.276,0.224-0.5,0.5-0.5s0.5,0.224,0.5,0.5V24.119z M17,24.5V23c0-1.105-0.895-2-2-2c-1.105,0-2,0.895-2,2v1.5h-1.37 l0.75-9h5.24l0.75,9H17z M15.5,14h-1v-1c0-0.276,0.224-0.5,0.5-0.5s0.5,0.224,0.5,0.5V14z M15,6.121L16.379,7.5h-2.757L15,6.121z M12.5,9h5v5H17v-1c0-1.105-0.895-2-2-2c-1.105,0-2,0.895-2,2v1h-0.5V9z"/><path transform="rotate(-80.538 23 13.5)" d="M22.25 10.459H23.751V16.542H22.25z"/><path transform="rotate(-9.46 23 10.499)" d="M19.959 9.75H26.042V11.251H19.959z"/></g></svg>