<svg width="32" height="32" viewBox="0 0 32 32" xmlns="http://www.w3.org/2000/svg"><g fill="#0052D9" fill-rule="evenodd"><g transform="translate(1 3)"><path d="M2 1H29V3H2zM1 23H29V25H1z"/><path d="M1 8H3V25H1zM27 1H29V18H27z"/><circle cx="2" cy="2" r="2"/><circle cx="29" cy="24" r="2"/></g><path d="M15,16 L11.9411765,9.11764706 L9,15 L6,15 L6,13 L8,13 L11,7 L13,7 L16.0588235,13.8823529 L19,8 L23,8 L23,10 L20,10 L17,16 L15,16 Z" fill-rule="nonzero" transform="translate(1 3)"/><path d="M10.9375,18.8125 L15,5 L17,5 L20.2328767,17.1232877 L22,13 L24,13 L26,13 L26,15 L23.1428571,15 L21,20 L19,20 L15.951049,8.56643357 L12,22 L10,22 L8.66666667,18 L4,18 L4,16 L10,16 L10.9375,18.8125 Z" fill-rule="nonzero" transform="translate(1 3)"/></g></svg>