<svg data-name="图层 1" xmlns="http://www.w3.org/2000/svg" width="32" height="32" viewBox="0 0 32 32"><path fill="#0052D9" d="M16.21,2.16a22.34,22.34,0,0,1,12.85,4v.13A27.55,27.55,0,0,1,16.2,29.51,27.6,27.6,0,0,1,3.35,6.34V6.19a22.35,22.35,0,0,1,12.86-4m0-2A24.46,24.46,0,0,0,1.52,5.05l-.15.11v.18c0,.32,0,.65,0,1A29.47,29.47,0,0,0,16,31.73l.19.11.19-.11A29.47,29.47,0,0,0,31.06,6.32c0-.33,0-.66,0-1V5.16l-.14-.11A24.5,24.5,0,0,0,16.21.16Z"/><circle fill="none" stroke="#0052D9" stroke-miterlimit="10" stroke-width="2" cx="16.31" cy="9.35" r="3.7"/><path fill="none" stroke="#0052D9" stroke-miterlimit="10" stroke-width="2" d="M16.3 13.05s-7.14-.22-7.14 6.63M17.39 15.68L21.19 19.48M20.48 18.77L25.34 13.91"/></svg>