<svg width="32" height="32" viewBox="0 0 32 32" xmlns="http://www.w3.org/2000/svg"><path d="M16.0360687,29.0004791 C22.4378026,28.9929773 27.8811903,24.3260041 28.8660687,18.0004791 L30.8660687,18.0004791 C29.8133703,25.8252225 22.8753549,31.4944869 14.9977603,30.9669588 C7.12016569,30.4394308 1,23.8957171 1,16.0004791 C1,8.10524111 7.12016569,1.56152742 14.9977603,1.03399936 C22.8753549,0.506471303 29.8133703,6.17573571 30.8660687,14.0004791 L28.8660687,14.0004791 C27.8011952,7.16123631 21.5642002,2.35569675 14.6794961,3.06987306 C7.79479207,3.78404937 2.67697614,9.76746629 3.03859105,16.6796607 C3.40020596,23.5918552 9.11442647,29.0085887 16.0360687,29.0004791 Z M16,14 C14.9,14 14,14.9 14,16 C14,17.1 14.9,18 16,18 C17.1,18 18,17.1 18,16 C18,14.9 17.1,14 16,14 Z M16,20 C13.8,20 12,18.2 12,16 C12,13.8 13.8,12 16,12 C18.2,12 20,13.8 20,16 C20,18.2 18.2,20 16,20 Z M10.3932717,20.1925147 L8.9677727,21.6180137 C6.34407577,18.3421539 6.34407577,13.6578461 8.9677727,10.3819863 L10.3932717,11.8074853 C8.53557609,14.2853317 8.53557609,17.7146683 10.3932717,20.1925147 Z M11.8074853,21.6067283 C14.2853317,23.4644239 17.7146683,23.4644239 20.1925147,21.6067283 L21.6180137,23.0322273 C18.3421539,25.6559242 13.6578461,25.6559242 10.3819863,23.0322273 L11.8074853,21.6067283 Z M21.6180137,8.9677727 L20.1925147,10.3932717 C17.7146683,8.53557609 14.2853317,8.53557609 11.8074853,10.3932717 L10.3819863,8.9677727 C13.6578461,6.34407577 18.3421539,6.34407577 21.6180137,8.9677727 Z M23.0322273,10.3819863 C25.6559242,13.6578461 25.6559242,18.3421539 23.0322273,21.6180137 L21.6067283,20.1925147 C23.4644239,17.7146683 23.4644239,14.2853317 21.6067283,11.8074853 L23.0322273,10.3819863 Z" fill="#0052D9" fill-rule="evenodd"/></svg>