<svg width="32" height="32" viewBox="0 0 32 32" xmlns="http://www.w3.org/2000/svg"><g fill="none" fill-rule="evenodd"><path d="M13.5182277,2.34906262 C13.5287382,2.34579975 13.5392435,2.34255999 13.5497437,2.33934332 C14.2729974,2.11777822 15.0713316,2.00471186 15.944746,2.00014422 C15.9632099,2.00005567 15.9815986,2 16,2 C20.9232384,2 24.9352087,5.98482232 25.2525055,11.0051515 C28.0464809,11.9580823 30,14.6869819 30,17.8235294 C30,21.7773272 26.9168369,25 23.0909091,25 L20.8,25 L18.4,23 L23.0909091,23 C25.7919829,23 28,20.6920726 28,17.8235294 C28,15.3402368 26.3309879,13.2295819 24.0651733,12.7488342 L23.2727273,12.5806975 L23.2727273,11.6470588 C23.2727273,7.41404741 20.0064741,4 16,4 L16,5.72327544 L11.2575529,3.36078473 C11.2708614,3.35312084 11.2841626,3.3454894 11.2974565,3.33789042 C11.2957008,3.3383742 11.2939456,3.3388585 11.2921907,3.33934332 C11.2863769,3.3409495 11.2805617,3.34256398 11.2747453,3.34418675 C11.9690558,2.9155476 12.721956,2.57846445 13.5182277,2.34906262 Z M9.60412199,4.66173328 L11.5253836,5.61882623 C9.82374916,7.01681271 8.72727273,9.19447325 8.72727273,11.6470588 L8.72727273,12.5806975 L7.93482665,12.7488342 C5.66901209,13.2295819 4,15.3402368 4,17.8235294 C4,20.6920726 6.2080171,23 8.90909091,23 L13,23 L13,21 L17.8,25 L14,25 L8.90909091,25 C5.08316313,25 2,21.7773272 2,17.8235294 C2,14.6869819 3.95351915,11.9580823 6.74749451,11.0051515 C6.90478666,8.51644599 7.97002202,6.28220991 9.60412199,4.66173328 Z M7,28 L25,28 L25,30 L7,30 L7,28 Z M14.6666667,18 C14.5555556,18 14.4444444,17.9423868 14.3333333,17.8847737 C14.1111111,17.7695473 14,17.5390947 14,17.308642 L14,11.6625514 C14,11.4320988 14.1111111,11.2016461 14.3333333,11.0864198 C14.5555556,10.9711934 14.7777778,10.9711934 14.9444444,11.0864198 L19.6666667,13.909465 C19.8888889,14.0246914 20,14.255144 20,14.4855967 C20,14.7160494 19.8888889,14.9465021 19.6666667,15.0617284 L14.9444444,17.8847737 C14.8888889,17.9423868 14.7777778,18 14.6666667,18 Z" fill="#0052D9" fill-rule="nonzero"/><path d="M0 0H32V32H0z"/></g></svg>