<svg data-name="图层 1" xmlns="http://www.w3.org/2000/svg" width="32" height="32" viewBox="0 0 32 32"><path fill="#0052D9" d="M16.21,2.15a22.37,22.37,0,0,1,12.86,4v.13A27.56,27.56,0,0,1,16.2,29.52,27.6,27.6,0,0,1,3.34,6.33V6.18a22.36,22.36,0,0,1,12.87-4m0-2A24.47,24.47,0,0,0,1.51,5l-.15.11v.18c0,.33,0,.66,0,1A29.5,29.5,0,0,0,16,31.74l.19.11.19-.11A29.49,29.49,0,0,0,31.07,6.32c0-.33,0-.66,0-1V5.15L30.91,5A24.51,24.51,0,0,0,16.21.15Z"/><path fill="#0052D9" d="M13.11 20.34L8.18 20.34 9.34 7.97 22.62 7.97 23.19 11.77 21.51 12.03 21.16 9.67 10.89 9.67 10.05 18.64 13.11 18.64 13.11 20.34zM15.63 18.64H24.060000000000002V20.34H15.63z"/><path fill="#0052D9" d="M22.74,20.34h-5.8v-3a2.9,2.9,0,0,1,5.8,0Zm-4.1-1.7H21V17.36a1.21,1.21,0,0,0-2.4,0Z"/><path fill="#0052D9" transform="rotate(-43.24 16.726 14.555)" d="M15.88 13.81H17.580000000000002V15.31H15.88z"/><path fill="#0052D9" d="M19.01 12.39H20.71V13.89H19.01z"/><path fill="#0052D9" transform="rotate(-47.7 22.89 14.555)" d="M22.09 13.71H23.69V15.41H22.09z"/><path fill="#0052D9" d="M19.91,10.77h-1.7V7.4a2,2,0,0,0-2-2,2,2,0,0,0-2,2v3.39h-1.7V7.39a3.69,3.69,0,0,1,7.38-.22h0Z"/></svg>