<svg width="32" height="32" viewBox="0 0 32 32" xmlns="http://www.w3.org/2000/svg"><path d="M18,28 L18,24 L24,30 L19,30 L1,30 L1,6 L3,6 L3,28 L18,28 Z M5,0 L23,0 L23,24 L21,24 L21,2 L6,2 L6,6 L0,0 L5,0 Z M10,22 L14,22 L14,24 L10,24 L10,22 Z M11.1,9.5 L11.1,12.5 L13.5,11 L11.1,9.5 Z M9.5,6 C9.6,6 9.7,6 9.8,5.9 L16.7,10.4 C17,10.6 17,11.1 16.7,11.3 L9.8,15.8 C9.7,15.9 9.6,15.9 9.5,15.9 C9.3,15.9 9,15.7 9,15.4 L9,6.5 C9,6.2 9.3,6 9.5,6 Z" transform="translate(3 1)" fill="#0052D9" fill-rule="nonzero"/></svg>