<svg width="32" height="32" viewBox="0 0 32 32" xmlns="http://www.w3.org/2000/svg"><g transform="translate(2 2)" fill="#0052D9" fill-rule="evenodd"><path d="M4 0H28V2H4zM0 4H2V19H0z"/><path d="M4 0L0 4 2 5 5 2zM4 26H24V28H4zM0 19H2V24H0zM26 5H28V24H26z"/><path d="M4 28L0 24 2 23 5 26zM24 28L28 24 26 23 23 26z"/><path fill-rule="nonzero" d="M10 14L12.857 19 15.16 19 12.303 14 15.16 9 12.857 9z"/><path fill-rule="nonzero" d="M11 15L11 13 19 13 19 15z"/><path d="M17.792,17.332 L16.839,19 L11.16,19 L8.303,14 L11.16,9 L16.839,9 L17.792,10.668 C18.353,10.295 19.018,10.076 19.73,10.028 L18,7 L10,7 L6,14 L10,21 L18,21 L19.73,17.973 C19.018,17.924 18.354,17.705 17.792,17.332 Z" fill-rule="nonzero"/><circle fill-rule="nonzero" cx="20" cy="14" r="2"/></g></svg>