<svg width="32" height="32" viewBox="0 0 32 32" xmlns="http://www.w3.org/2000/svg"><g fill="none" fill-rule="evenodd"><path fill="#0052D9" d="M10 10H18V12H10zM20 10H22V12H20zM9 18H11V20H9zM13 18H21V20H13z" transform="translate(1 1)"/><path stroke="#0052D9" stroke-width="2" transform="rotate(45 12.108 12.399)" d="M15.4256093 13.3025388L10.360236 13.146718 10.2044152 8.0813447"/><path stroke="#0052D9" stroke-width="2" transform="scale(-1 1) rotate(45 -1.707 -26.574)" d="M21.0674826 21.3025388L16.0021092 21.146718 15.8462885 16.0813447"/><path d="M15.0743669,28 C7.85876993,28 2.00991558,22.18 2.00991558,15 C2.00991558,7.82 7.85876993,2 15.0743669,2 C21.6045826,2 26.999196,6.772 27.9689803,13 L30,13 C29.0141364,5.664 22.7160659,0 15.0743669,0 C6.74929653,0 0,6.716 0,15 C0,23.284 6.74929653,30 15.0743669,30 C22.7160659,30 29.0141364,24.336 29.998995,17 L27.9679753,17 C26.999196,23.228 21.6045826,28 15.0743669,28 Z" fill="#0052D9" fill-rule="nonzero" transform="rotate(90 15 16)"/></g></svg>