<svg width="32" height="32" viewBox="0 0 32 32" xmlns="http://www.w3.org/2000/svg"><path d="M15.84,1.44521867e-05 C21.1403969,-0.00574548696 26.2992497,1.71036271 30.54,4.89002898 L30.54,4.89002898 L30.69,5.00002898 L30.69,6.16002898 C30.6650826,16.643564 25.0708174,26.3240419 16,31.580029 L16,31.580029 L15.81,31.680029 L15.63,31.580029 C6.588423,26.3124833 1.01958608,16.6440993 1,6.18002898 L1,6.18002898 L1,5.00002898 L1.15,4.89002898 C5.39176708,1.72312284 10.5464443,0.0177633235 15.84,0.0300289772 L15.84,0.0300289772 Z M15.84,1.99980584 L15.84,2.03002898 C11.2440211,2.00938993 6.75342404,3.40615418 2.98,6.03002898 L2.98,6.03002898 L2.98,6.18002898 C3.03024623,15.5897568 7.87451436,24.3245189 15.83,29.350029 C23.8084705,24.3213566 28.6602607,15.5609702 28.69,6.13002898 L28.69,6.13002898 L28.69,6.00002898 C24.9202391,3.37634585 20.4328628,1.9794972 15.84,1.99980584 L15.84,1.99980584 Z M16,4 C21.5228475,4 26,8.47715253 26,14 C26,19.5228475 21.5228475,24 16,24 C10.4771525,24 6,19.5228475 6,14 C6,8.47715253 10.4771525,4 16,4 Z M16,6 C11.581722,6 8,9.58172203 8,14 C8,18.418278 11.581722,22 16,22 C20.418278,22 24,18.418278 24,14 C24,9.58172203 20.418278,6 16,6 Z M18.5,8 C20.4329966,8 22,9.56700338 22,11.5 C22,13.3685634 20.5357224,14.8951264 18.6920352,14.9948211 C18.5577246,14.9470477 18.4772334,14.9160795 18.4505615,14.9019165 C18.0795288,14.704895 17.7325302,14.375383 17.7570801,13.9277649 C17.7834473,13.4470113 18.0310872,13.1377563 18.5,13 C19.3284271,13 20,12.3284271 20,11.5 C20,10.6715729 19.3284271,10 18.5,10 C17.7203039,10 17.0795513,10.5948881 17.0068666,11.35554 L17,11.5 L17,15.5636292 L16.993,15.564 L16.9927394,15.7265654 C16.9445005,16.4775171 16.6575396,17.1827215 16.1813094,17.7496989 L16.0328117,17.9155529 C15.3771882,18.6028573 14.4690569,19 13.5,19 C11.5670034,19 10,17.4329966 10,15.5 C10,14.5091546 10.3266342,13.7524478 11.0900981,12.9971431 C11.6283698,12.4646238 12.4471729,12.1468011 13.3365348,12.0257608 C13.3907766,12.0183786 14.3484497,12.0727844 14.3484497,12.9417725 C14.3484497,13.5210978 14.0038961,13.871905 13.3147888,13.994194 C12.8870212,14.0641909 12.6462474,14.225813 12.4530029,14.4169922 C12.0632568,14.8025732 12,15.1515503 12,15.5 C12,16.3284271 12.6715729,17 13.5,17 C13.9165447,17 14.3036315,16.8307197 14.585638,16.5350861 C14.8174304,16.2920931 14.960832,15.9817646 14.9930607,15.645554 L15,15.5 L15,11.5 C15,9.56700338 16.5670034,8 18.5,8 Z" fill="#0052D9" fill-rule="nonzero"/></svg>