<svg width="32" height="32" viewBox="0 0 32 32" xmlns="http://www.w3.org/2000/svg"><path d="M25.1184773,9.52413532 C17.7435237,4.35379419 11.2084224,1.46680167 7.40284139,0.338250055 C4.98826583,-0.370375379 3.17733417,0.0233054177 2.04878255,1.62427399 C0.631531679,3.59267798 0.106623949,11.9912017 0.0278877897,15.8755188 C-0.0770937562,20.2847438 0.106623949,24.6939687 0.710267838,28.315832 C1.44513866,32.2263946 4.77830274,32.4626031 7.92774912,31.57026 C15.6176474,29.3918929 23.5699995,23.1979817 28.0054698,19.0249652 C31.7323147,15.4555927 30.5250269,13.303471 25.1184773,9.52413532 Z M25.9219594,18.5559041 C22.1799626,22.0833916 14.2431157,28.0658197 7.97467508,29.5673853 C5.54356884,30.1632447 3.11246259,30.0202385 2.49276884,26.7072604 C1.99224697,23.632626 1.94457822,19.6046166 2.03991572,15.8864541 C2.11141884,12.573476 2.56427197,4.97031038 3.75599071,3.30190414 C4.73320009,1.94334476 6.37777196,1.87184164 8.45136258,2.63454164 C11.5975001,3.77859164 17.2462469,6.09052601 23.4908532,10.4998854 C28.9012563,14.3133854 29.0919313,15.5527729 25.9219594,18.5559041 Z M17.5821429,14.7751861 L10.3178571,10.1389966 C10.0607143,9.97689212 9.70714286,9.94447121 9.45,10.1065757 C9.16071429,10.2686803 9,10.5604684 9,10.8522566 L9,20.1570565 C9,20.4812655 9.16071429,20.7730537 9.45,20.9027373 C9.57857143,20.9675791 9.70714286,21 9.86785714,21 C10.0285714,21 10.1892857,20.9675791 10.35,20.8703164 L17.6142857,16.2341269 C17.8714286,16.0720224 18,15.8126551 18,15.520867 C17.9678571,15.1966579 17.8392857,14.9372907 17.5821429,14.7751861 Z M11,18 L11,13 L15,15.5088339 L11,18 Z" transform="translate(1)" fill="#0052D9" fill-rule="nonzero"/></svg>