<svg data-name="图层 1" xmlns="http://www.w3.org/2000/svg" width="32" height="32" viewBox="0 0 32 32"><path fill="#0052D9" d="M16.21,2.16a22.32,22.32,0,0,1,12.85,4v.13A27.55,27.55,0,0,1,16.2,29.51,27.58,27.58,0,0,1,3.35,6.34V6.19a22.35,22.35,0,0,1,12.86-4m0-2A24.46,24.46,0,0,0,1.52,5.05l-.15.11v.18c0,.32,0,.65,0,1A29.46,29.46,0,0,0,16,31.74l.18.1.19-.1A29.46,29.46,0,0,0,31.06,6.32c0-.33,0-.66,0-1V5.16l-.15-.11A24.46,24.46,0,0,0,16.21.16Z"/><path fill="#0052D9" d="M10.64,16.84v4.92H21.36V5.9H10.64Zm9,3.22H12.34V18.54h7.32Zm0-12.46v9.24H12.34V7.6Z"/><path fill="#0052D9" d="M13.83 8.87H18.17V10.569999999999999H13.83z"/></svg>