<svg width="32" height="33" viewBox="0 0 32 33" xmlns="http://www.w3.org/2000/svg"><g fill="none" fill-rule="evenodd"><path d="M0 1H32V33H0z"/><path d="M15.9848536,0.928324926 C21.1764244,0.918517173 26.2346674,2.54521329 30.4438683,5.5706578 L31,5.97891227 L31,7.15062779 C30.9711853,17.5783057 25.4948497,27.2192418 16.5841005,32.5863553 L16.1767082,32.8273595 L15.9949512,32.9283694 L15.8030966,32.8273595 C6.79656446,27.5950449 1.19302458,18.0379551 1.00481826,7.64385328 L1,7.17082979 L1,5.97891227 L1.15146415,5.86780131 C5.30078612,2.76887604 10.3152156,1.0554309 15.4841733,0.962630801 L15.9848536,0.958717287 L15.9848536,0.928324926 Z M15.9802179,2.95865092 C11.3954344,2.94808499 6.92289607,4.32640011 3.13536872,6.90870917 L2.999,7.003 L2.99999485,7.16629115 C3.02134422,16.5741018 7.80296525,25.2963677 15.5786738,30.3468152 L15.985,30.606 L16.3329177,30.3851053 C24.0566333,25.3776216 28.8186435,16.8453692 28.9950295,7.60560065 L29,7 L28.8492341,6.8949045 C25.4733361,4.58424567 21.5378737,3.23070885 17.4615054,2.9733997 L17.237,2.961 L15.9802179,2.95865092 Z M9.16418457,6.66666667 C10.489668,6.66666667 11.5742232,7.6982026 11.6588669,9.00229098 L11.6641846,9.16666667 L11.6648255,12.6975987 C12.104764,12.7674924 12.5289188,12.9732543 12.8712264,13.3156405 L15.0721462,15.5912738 L15.072,17.4882808 L15.1149902,17.4887695 L15.1149902,27.5318893 L8.98111979,21.3980189 L8.981,19.3976667 L6.66418457,17.0808802 L6.66418457,9.16666667 C6.66418457,7.78595479 7.7834727,6.66666667 9.16418457,6.66666667 Z M22.6666667,7.66666667 C23.9553311,7.66666667 25,8.71133558 25,10 L25,10 L25,17.7990606 L22.557,20.2416667 L22.5568848,22.2304148 L16.8850098,27.3746998 L16.8850098,17.4887695 L16.927,17.4882808 L16.9278538,15.5912738 L19.1287736,13.3156405 C19.4705642,12.9737715 19.8939547,12.7681143 20.3331809,12.6979164 L20.3333333,10 L20.3387164,9.84024568 C20.4208127,8.6260935 21.4316966,7.66666667 22.6666667,7.66666667 Z M22.6666667,9.66666667 C22.4825718,9.66666667 22.3333333,9.81590508 22.3333333,10 L22.3333333,10 L22.3334229,13.4442326 C23.0483074,14.2954932 23.0053679,15.5671081 22.2046044,16.3678715 L22.2046044,16.3678715 L20.650308,17.8290323 L19.2807576,16.3715235 L20.8127225,14.9320104 L20.8330666,14.8993162 C20.8528748,14.8479772 20.8424608,14.7700256 20.7903909,14.7179557 L20.7903909,14.7179557 L20.7471327,14.6867138 C20.6847101,14.6554718 20.6067585,14.6658858 20.5546886,14.7179557 L20.5546886,14.7179557 L18.9279155,16.3995402 L18.9278538,18.7304078 L18.885,18.7302808 L18.886,22.8596667 L20.557,21.3436667 L20.5568848,19.4137487 L23,16.9706667 L23,10 L22.9932279,9.93282171 C22.9621458,9.78092733 22.8277497,9.66666667 22.6666667,9.66666667 Z M9.16418457,8.66666667 C8.91872468,8.66666667 8.7145762,8.84354183 8.67224024,9.07679103 L8.66418457,9.16666667 L8.664,16.2516667 L10.9811198,18.5693883 L10.981,20.5696667 L13.114,22.7016667 L13.114,18.7302808 L13.0721462,18.7304078 L13.0720845,16.3995402 L11.4453114,14.7179557 C11.3932415,14.6658858 11.3152899,14.6554718 11.2528673,14.6867138 L11.2096091,14.7179557 C11.1575392,14.7700256 11.1471252,14.8479772 11.1669334,14.8993162 L11.1872775,14.9320104 L12.7192424,16.3715235 L11.349692,17.8290323 L9.79539555,16.3678715 C8.99555181,15.5680278 8.95179224,14.2984136 9.66411685,13.4471674 L9.66418457,9.16666667 C9.66418457,8.89052429 9.44032695,8.66666667 9.16418457,8.66666667 Z M18.3269235,5.3768176 L19.8338613,9.17127417 L16,13.1516383 L12.1661387,9.17127417 L13.6730765,5.3768176 L18.3269235,5.3768176 Z M16.969,7.37715093 L15.03,7.37715093 L14.5,8.71215093 L16,10.2691509 L17.499,8.71215093 L16.969,7.37715093 Z" fill="#0052D9" fill-rule="nonzero"/></g></svg>