<svg width="32" height="32" viewBox="0 0 32 32" xmlns="http://www.w3.org/2000/svg"><g fill="#0052D9" fill-rule="evenodd"><path d="M22,24 L22,0 L0,0 L0,30 L22,30 L22,28 L2,28 L2,2 L20,2 L20,24 L22,24 Z M13,24 L13,22 L9,22 L9,24 L13,24 Z" transform="translate(5 1)" fill-rule="nonzero"/><path d="M14.55,5.95 L13.43,8.76 L13.13,9.5 L13.43,10.24 L14.55,13.05 L11.74,11.93 L11,11.63 L10.26,11.93 L7.45,13.05 L8.57,10.24 L8.87,9.5 L8.57,8.76 L7.45,5.95 L10.26,7.07 L11,7.37 L11.74,7.07 L14.55,5.95 Z M15.28,3.5 L11,5.21 L6.71,3.5 L5,5.21 L6.71,9.5 L5,13.79 L6.71,15.5 L11,13.79 L15.29,15.5 L17,13.79 L15.29,9.5 L17,5.21 L15.29,3.5 L15.28,3.5 Z" fill-rule="nonzero" transform="translate(5 1)"/><path d="M12.27 8.99L13.03 7.47 11.51 8.23 11 8.48 10.49 8.23 8.97 7.47 9.73 8.99 9.98 9.5 9.73 10.01 8.97 11.53 10.49 10.77 11 10.52 11.51 10.77 13.03 11.53 12.27 10.01 12.02 9.5z" transform="translate(5 1)"/></g></svg>