<svg width="32" height="32" viewBox="0 0 32 32" xmlns="http://www.w3.org/2000/svg"><g fill="#0052D9" fill-rule="nonzero"><path d="M8.074 11H24.073999999999998V13H8.074zM8.074 22H24.073999999999998V24H8.074z"/><path d="M8.074 11H10.074V14H8.074zM8.074 21H10.074V24H8.074zM22.074 21H24.074V24H22.074zM22.074 11H24.074V14H22.074zM11.074 7H13.074V11H11.074zM19.074 7H21.074V11H19.074zM14.074 15L16.074 15 16.074 20 14.074 20zM11.074 15H13.074V20H11.074zM8.074 15H10.074V20H8.074zM17.074 15H19.074V20H17.074z"/><path d="M15.074 15H18.073999999999998V16H15.074zM20.074 15H24.074V16H20.074zM15.074 17H18.073999999999998V18H15.074z"/><path d="M21.074 15H23.074V20H21.074zM9.074 15L11.074 20 12.074 20 10.074 15z"/><path d="M31.7193022,13.0004945 L29.6779284,13.0004945 C28.3047737,6.70988283 22.7024129,2 16,2 C8.2680135,2 2,8.2680135 2,16 C2,23.7319865 8.2680135,30 16,30 C23.0527724,30 28.8874794,24.7848417 29.8581515,18.0004945 L31.8761508,18.0004945 C30.8917351,25.8928783 24.1590649,32 16,32 C7.163444,32 -2.0250468e-13,24.836556 -2.0250468e-13,16 C-2.0250468e-13,7.163444 7.163444,0 16,0 C23.8113418,0 30.3152783,5.59766728 31.7193022,13.0004945 Z"/></g></svg>