<?xml version="1.0" encoding="UTF-8"?>
<svg width="32px" height="32px" viewBox="0 0 32 32" version="1.1" xmlns="http://www.w3.org/2000/svg" xmlns:xlink="http://www.w3.org/1999/xlink">
    <title>网络入侵防护系统 32px</title>
    <g id="页面-2" stroke="none" stroke-width="1" fill="none" fill-rule="evenodd">
        <g id="网络入侵防护系统-32px" fill-rule="nonzero">
            <rect id="Rectangle-Copy" fill="#0052d9" opacity="0" x="0" y="0" width="32" height="32"></rect>
            <path d="M16,0 C21.3978215,0.0690612452 26.640306,1.81655607 31,5 C31,5 32,22.21 16,32 L16,32 L15.525082,31.7038046 C0.0199,21.85772 1,5 1,5 C5.35969398,1.81655607 10.6021785,0.0690612452 16,0 Z M16,2 C11.3610941,2.06054678 6.8415871,3.47897668 3,6.08 C3.22916236,15.5841698 8.08174322,24.3785394 16,29.64 C23.9156847,24.376171 28.7674626,15.5832566 29,6.08 C25.1584129,3.47897668 20.6389059,2.06054678 16,2 Z M8.46,6 C9.31,5.14 10.85,5.29 12.94,6.36 L12.94,6.36 L13.24,6.24 L13.5,6.15 C13.6633369,6.08950649 13.830337,6.03940644 14,6 L14,6 L14.33,5.9 L14.84,5.81 L15.15,5.81 C15.4333081,5.79811479 15.71705,5.80145293 16,5.82 C16.2797848,5.80447356 16.5602152,5.80447356 16.84,5.82 L16.84,5.82 L17.16,5.82 L17.67,5.91 L18,6 C18.1718561,6.06870617 18.3388993,6.14888691 18.5,6.24 L18.5,6.24 L18.76,6.33 L19.07,6.45 C21.14,5.35 22.68,5.2 23.54,6.05 C24.14,6.65 24.51,7.92 23.14,10.5 L23.14,10.5 L23.23,10.75 C23.28,10.87 23.36,10.99 23.36,11.11 C23.409243,11.240384 23.4493401,11.3740411 23.48,11.51 C23.52,11.65 23.56,11.76 23.59,11.91 C23.62,12.06 23.67,12.25 23.67,12.37 L23.67,12.37 L23.67,12.73 C23.7022078,13.0088582 23.7189002,13.2892902 23.72,13.57 C23.7182872,13.8506901 23.7015968,14.1310887 23.67,14.41 C23.67,14.53 23.7,14.62 23.67,14.77 C23.64,14.92 23.62,15.08 23.59,15.22 C23.56,15.36 23.48,15.49 23.48,15.62 C23.450614,15.759552 23.4104947,15.8966262 23.36,16.03 C23.32,16.15 23.28,16.27 23.23,16.39 L23.23,16.39 L23.14,16.63 L23.2698882,16.8756091 C24.5133611,19.2912279 24.1109677,20.4990323 23.54,21.07 C23.1446304,21.452191 22.6093409,21.654733 22.06,21.63 C20.9955406,21.5359432 19.9680016,21.1934302 19.06,20.63 C18.9590894,20.6759973 18.85558,20.7160654 18.75,20.75 L18.75,20.75 L18.48,20.85 L18,21 L17.67,21.08 C17.5018509,21.1196795 17.331574,21.1497283 17.16,21.17 L17.16,21.17 L16.84,21.22 C16.5611418,21.2522078 16.2807098,21.2689002 16,21.27 C15.7159751,21.2685868 15.4322318,21.251896 15.15,21.22 L15.15,21.22 L14.84,21.17 C14.668426,21.1497283 14.4981491,21.1196795 14.33,21.08 L14.33,21.08 L14,21 L13.5,20.84 L13.24,20.74 L12.94,20.63 L12.6646375,20.7935989 C11.8280171,21.2639695 10.8989192,21.5497316 9.94,21.63 C9.39065914,21.654733 8.8553696,21.452191 8.46,21.07 C7.87,20.48 7.49,19.21 8.87,16.62 C8.83,16.53 8.77,16.44 8.77,16.36 L8.77,16.36 L8.63,16 L8.63,16 L8.52,15.6 C8.48,15.46 8.49,15.34 8.41,15.19 C8.33,15.04 8.33,14.86 8.33,14.74 L8.33,14.38 C8.31508448,14.1001986 8.31508448,13.8198014 8.33,13.54 C8.31447356,13.2602152 8.31447356,12.9797848 8.33,12.7 C8.33,12.58 8.25,12.49 8.33,12.34 C8.41,12.19 8.38,12.01 8.41,11.88 C8.44,11.75 8.47,11.63 8.51,11.49 C8.55,11.35 8.64,11.21 8.64,11.07 L8.64,11.07 L8.76,10.73 L8.87,10.46 C7.46,7.87 7.87,6.6 8.46,6 Z M22.15,18.34 L22.06,18.44 C21.9040641,18.6391513 21.737138,18.829447 21.56,19.01 C21.5358574,19.0421519 21.5090997,19.0722543 21.48,19.1 L21.48,19.1 L21.443479,19.138976 L21.443479,19.138976 L21.4,19.17 C21.2149166,19.3529562 21.0178105,19.523336 20.81,19.68 C20.7886485,19.7114991 20.7614991,19.7386485 20.73,19.76 C21.74,20.17 22.28,20.12 22.4,20 L22.4,20 L22.4,19.93 C22.53,19.81 22.56,19.27 22.15,18.34 L22.15,18.34 Z M9.84,18.26 C9.43,19.27 9.47,19.81 9.6,19.93 C9.72,20.06 10.26,20.1 11.27,19.68 L11.27,19.68 L11.18,19.6 C10.9774285,19.4408032 10.7838005,19.2705442 10.6,19.09 L10.6,19.09 L10.51,19.02 L10.4848438,18.9990625 C10.458125,18.97375 10.43,18.94 10.43,18.94 C10.25,18.75 10.09,18.56 9.93,18.36 L9.93,18.36 L9.84,18.26 Z M20.45,15.38 C20.2801387,15.4414599 20.1006278,15.4719429 19.92,15.47 C19.764691,15.4703837 19.6100144,15.4502085 19.46,15.41 L19.46,15.41 L18.67,16.22 C18.28,16.62 17.88,16.99 17.48,17.36 L17.48,17.36 L17.11,17.68 C16.81,17.95 16.5,18.2 16.19,18.45 L16.19,18.45 L15.86,18.72 C15.47,19.02 15.09,19.31 14.71,19.57 L14.71,19.57 L15,19.62 L16.99,19.62 L17.39,19.55 L17.65,19.49 L18.06,19.36 L18.24,19.3 C18.42,19.2333333 18.6,19.1533333 18.78,19.06 L18.78,19.06 L19.0449168,18.9243452 C19.2189106,18.8290494 19.3875367,18.7241128 19.55,18.61 C19.65,18.54 19.73,18.46 19.82,18.39 C19.9798815,18.2679267 20.1334153,18.1377567 20.28,18 L20.28,18 L20.53,17.69 C20.6639631,17.5526112 20.7876306,17.4055472 20.9,17.25 C20.98,17.15 21.05,17.04 21.13,16.93 L21.13,16.93 L21.29,16.65 C21.2,16.49 21.11,16.35 21,16.18 C20.89,16.01 20.79,15.84 20.67,15.67 L20.67,15.67 L20.45,15.38 Z M12.89,8.24 L12.6,8.41 L12.28,8.62 L11.83,9 C11.74,9.09 11.65,9.16 11.57,9.25 C11.4194481,9.40398475 11.2791476,9.5676687 11.15,9.74 L11.15,9.74 L11,9.93 C10.9954192,9.95310851 10.9954192,9.97689149 11,10 C10.8248897,10.2344568 10.6677744,10.4818299 10.53,10.74 C10.5108521,10.7918486 10.4874386,10.8420204 10.46,10.89 C10.4,11.0233333 10.34,11.1633333 10.28,11.31 C10.2455896,11.3916791 10.2155472,11.4751302 10.19,11.56 C10.15,11.68 10.16,11.81 10.08,11.91 C10,12.01 10,12.11 10,12.21 L10,12.21 L9.94,12.58 L9.94,12.58 L9.94,12.86 C9.92477569,13.0830739 9.92477569,13.3069261 9.94,13.53 C9.92501984,13.7530821 9.92501984,13.9769179 9.94,14.2 L9.94,14.2 L9.94,14.49 L10,14.84 L10.1,15.16 C10.1240628,15.268248 10.1541089,15.3750787 10.19,15.48 C10.22,15.58 10.29,15.67 10.29,15.76 L10.29,15.76 L10.46,16.15 C10.490732,16.204663 10.5174685,16.261478 10.54,16.32 C10.674123,16.5812861 10.8278986,16.8320073 11,17.07 L11,17.07 L11,17.13 L11.18,17.35 C11.3015224,17.5135118 11.4317086,17.6704028 11.57,17.82 L11.57,17.82 L11.85,18.07 C11.9895506,18.2015561 12.1364533,18.325088 12.29,18.44 C12.3926536,18.5190059 12.499474,18.5924449 12.61,18.66 L12.61,18.66 L12.9,18.83 L13.39,18.52 L13.87,18.2 C14.12,18 14.37,17.84 14.61,17.66 L14.61,17.66 L15.09,17.29 L15.91,16.6 L16.33,16.24 C16.74,15.88 17.14,15.49 17.54,15.09 C17.79,14.84 18.02,14.59 18.26,14.33 C18.070527,13.8431095 18.1071648,13.2972054 18.36,12.84 C18.09,12.56 17.94,12.38 17.54,11.98 C17.14,11.58 16.74,11.2 16.33,10.83 L16.33,10.83 L15.9,10.47 C15.63,10.24 15.36,10 15.09,9.79 L15.09,9.79 L14.61,9.42 L13.87,8.87 L13.38,8.55 L12.89,8.24 Z M22.04,12.33 L21.5706543,12.97 L21.617559,13.0798797 C21.6769005,13.2426403 21.7114601,13.4134057 21.7200756,13.5864324 L21.72,13.76 C21.7169029,13.9508205 21.6831385,14.1399012 21.62,14.32 L21.62,14.32 L22.04,14.88 C22.08,14.67 22.14,14.45 22.14,14.24 L22.14,14.24 L22.14,13.61 C22.14,13.4 22.16,13.2 22.14,12.98 C22.12,12.76 22.04,12.54 22.04,12.33 L22.04,12.33 Z M16.62,7.43 C16.3969261,7.41477569 16.1730739,7.41477569 15.95,7.43 L15.95,7.43 L15.31,7.43 L14.99,7.48 L14.7,7.48 L15.0803704,7.7537037 C15.3344444,7.93888889 15.59,8.13 15.85,8.33 L15.85,8.33 L16.18,8.6 C16.4933333,8.84666667 16.8033333,9.10666667 17.11,9.38 L17.11,9.38 L17.46,9.7 C17.87,10.06 18.33,10.48 18.67,10.83 C19.01,11.18 19.35,11.54 19.67,11.9 L19.67,11.9 L20.26,11.9 C20.39,11.73 20.53,11.54 20.65,11.37 C20.77,11.2 20.87,11.04 20.98,10.87 L20.98,10.87 L21.27,10.4 C21.2192519,10.3031993 21.1624734,10.2096818 21.1,10.12 L21.1,10.12 L20.88,9.79 C20.77,9.64 20.64,9.5 20.51,9.35 L20.51,9.35 L20.25,9.08 C20.0993286,8.93277501 19.9389701,8.79580208 19.77,8.67 L19.77,8.67 L19.53,8.48 L19.2694313,8.30434553 C19.0924225,8.19237029 18.9089736,8.09074093 18.72,8 L18.72,8 L18.445,7.8725 L18.445,7.8725 L18.17,7.76 L18,7.7 L17.57,7.65 C17.4912486,7.62530116 17.4111095,7.60526641 17.33,7.59 L17.33,7.59 L16.91,7.51 L16.62,7.43 Z M22.4,7.12 C22.28,7 21.74,7 20.73,7.41 L20.73,7.41 L20.81,7.48 C21.0179753,7.6400641 21.2150768,7.81378066 21.4,8 L21.4,8 L21.5,8.13 L21.5368885,8.16311146 L21.5368885,8.16311146 L21.57,8.2 C21.747138,8.38055297 21.9140641,8.57084871 22.07,8.77 L22.07,8.77 L22.16,8.87 C22.56,7.87 22.53,7.33 22.4,7.2 L22.4,7.2 L22.4,7.12 Z M9.94,7 C9.8164026,7.00066034 9.69663031,7.04293291 9.6,7.12 C9.47,7.25 9.43,7.79 9.86,8.76 L9.86,8.76 L9.95,8.67 C10.1058494,8.46759903 10.2727709,8.27397016 10.45,8.09 L10.45,8.09 L10.53,8 L10.6,8 C10.7815206,7.78890918 10.9751819,7.58856995 11.18,7.4 L11.18,7.4 L11.27,7.33 C10.8510813,7.13814715 10.4000135,7.02622808 9.94,7 Z" id="形状结合" fill="#0052d9"></path>
        </g>
    </g>
</svg>