<svg width="32" height="32" viewBox="0 0 32 32" xmlns="http://www.w3.org/2000/svg"><g fill="#0052D9" fill-rule="evenodd"><g transform="translate(1 3)"><path d="M2 1H29V3H2zM1 23H29V25H1z"/><path d="M1 8H3V25H1zM27 1H29V18H27z"/><circle cx="2" cy="2" r="2"/><circle cx="28" cy="24" r="2"/></g><path d="M16.2,18.90403 L11,23.5262522 L11,21.7484744 L8,23.5262522 L8,11.7929189 L15,8.47440035 L15.0803623,8.43630269 L16.0006882,8 L16.0002217,8.00648043 L16.0066477,8.00347776 L24,11.7929189 L24,23.5262522 L16.2,18.90403 Z M15,17.0533107 L15,11.4025967 L13,12.8248189 L13,18.2384959 L15,17.0533107 Z M11,12.5840617 L10,13.0581358 L10,20.0162737 L11,19.4236811 L11,12.5840617 Z M17,10.6877654 L17,17.0533107 L22,20.0162737 L22,13.0581358 L17,10.6877654 Z" fill-rule="nonzero"/></g></svg>