<svg data-name="图层 1" xmlns="http://www.w3.org/2000/svg" width="32" height="32" viewBox="0 0 32 32"><g fill="none"><path d="M1 0H31V32H1z"/><path d="M0 0H32V32H0z"/></g><path fill="none" d="M1 0H31V32H1z"/><circle fill="#0052D9" cx="16.05" cy="13.83" r="1.02"/><g fill="#0052D9"><path d="M31,5A26,26,0,0,0,16,0,26,26,0,0,0,1,5S0,22.21,16,32h0C32,22.21,31,5,31,5ZM16,29.64A29.13,29.13,0,0,1,3,6.08,23.74,23.74,0,0,1,16,2,23.74,23.74,0,0,1,29,6.08,29.15,29.15,0,0,1,16,29.64Z"/><path d="M7.78,13.83A8.27,8.27,0,1,0,21.37,7.51l-.9,1.89a6.48,6.48,0,1,1-2.73-1.58L17,9.36a4.53,4.53,0,0,0-1-.11,4.59,4.59,0,1,0,4.59,4.58,4.48,4.48,0,0,0-.95-2.77L18.6,13.38a2.28,2.28,0,0,1,0,.45,2.59,2.59,0,1,1-2.59-2.58h.1l-1.06,2.27,1.82.84L21,5.56l-1.81-.84L18.6,6A8.25,8.25,0,0,0,7.78,13.83Z"/></g></svg>