<svg width="32" height="32" viewBox="0 0 32 32" xmlns="http://www.w3.org/2000/svg"><g fill="#0052D9" fill-rule="evenodd"><path d="M19.5622667,23.9682941 C18.3553602,24.6261639 16.9713371,25 15.5,25 C10.8055796,25 7,21.1944204 7,16.5 C7,15.4986318 7.17315876,14.537707 7.49116672,13.6455351 C7.88584482,14.246055 8.49033116,14.696382 9.20036302,14.8922536 C9.06953361,15.4064368 9,15.9450982 9,16.5 C9,20.0898509 11.9101491,23 15.5,23 C16.2034316,23 16.8807651,22.8882606 17.5152191,22.6815633 C17.9771081,23.3627481 18.7117545,23.8439556 19.5622667,23.9682941 Z M22.9682941,20.5622667 C22.8439556,19.7117545 22.3627481,18.9771081 21.6815633,18.5152191 C21.8882606,17.8807651 22,17.2034316 22,16.5 C22,12.9101491 19.0898509,10 15.5,10 C14.4882154,10 13.5304243,10.2311738 12.6765643,10.6435838 C12.3487578,9.99801728 11.7942621,9.48695826 11.1178598,9.21518934 C12.3974899,8.44377962 13.8969198,8 15.5,8 C20.1944204,8 24,11.8055796 24,16.5 C24,17.9713371 23.6261639,19.3553602 22.9682941,20.5622667 Z" fill-rule="nonzero"/><circle cx="9.5" cy="11.5" r="1.5"/><circle cx="20.5" cy="21.5" r="1.5"/><path transform="rotate(-45 15.222 16.222)" d="M7.42290379 15.2216606L23.0204175 15.2216606 23.0204175 17.2216606 7.42290379 17.2216606z"/><path d="M17.4232017 20.5251905C17.3123496 20.8383463 17.2520242 21.1753904 17.2520242 21.5265243 17.2520242 21.9423235 17.3366148 22.3383656 17.4895255 22.69838 14.0796016 21.5049778 11.3355765 18.8738737 10 15.5160882 10.0830925 15.5229995 10.1671467 15.5265243 10.2520242 15.5265243 10.8823636 15.5265243 11.4672977 15.3321211 11.9501412 15 13.00079 17.4730309 14.9715995 19.4549774 17.4232017 20.5251905zM19.2710816 18.2250139C17.9665591 15.7615914 15.7244793 13.8935248 13.0281909 13.080815 13.1392592 12.7673887 13.1997077 12.4300152 13.1997077 12.0785232 13.1997077 11.6983539 13.1289931 11.3347009 13 11 16.8850278 11.9599686 20.0565658 14.7316336 21.5605621 18.4040635 21.1519894 18.1959274 20.6895591 18.0785232 20.1997077 18.0785232 19.875592 18.0785232 19.5634812 18.1299222 19.2710816 18.2250139z" fill-rule="nonzero"/><path d="M31.7193022,13.0004945 L29.6779284,13.0004945 C28.3047737,6.70988283 22.7024129,2 16,2 C8.2680135,2 2,8.2680135 2,16 C2,23.7319865 8.2680135,30 16,30 C23.0527724,30 28.8874794,24.7848417 29.8581515,18.0004945 L31.8761508,18.0004945 C30.8917351,25.8928783 24.1590649,32 16,32 C7.163444,32 -2.0250468e-13,24.836556 -2.0250468e-13,16 C-2.0250468e-13,7.163444 7.163444,0 16,0 C23.8113418,0 30.3152783,5.59766728 31.7193022,13.0004945 Z" fill-rule="nonzero"/></g></svg>