<svg width="32" height="32" viewBox="0 0 32 32" xmlns="http://www.w3.org/2000/svg"><path d="M22,21 L22,19 L24,19 L24,21 L28,21 L28,4 L30,4 L30,26 L30,28 L0,28 L0,26 L0,2 L-1.42108547e-14,0 L30,0 L30,2 L2,2 L2,21 L22,21 Z M22,23 L2,23 L2,26 L28,26 L28,23 L24,23 L24,25 L22,25 L22,23 Z M12.7327056,17.7589562 C12.4533959,17.9174808 12.141918,18 11.8252641,18 C11.5084626,18 11.1967508,17.9172358 10.9178561,17.7586497 C10.3480975,17.4342582 10,16.8393919 10,16.1847532 L10,7.81512475 C10,7.16022247 10.3480416,6.56565151 10.9173785,6.24150033 C11.482171,5.91952512 12.1667293,5.91972168 12.7327223,6.24125686 L20.0829699,10.4266761 C20.6522211,10.7514957 21,11.345418 21,12.0001018 C21,12.6547387 20.6522284,13.2491946 20.0825075,13.5739792 L12.7327056,17.7589562 Z M12,15.8746668 L18.8044872,12.0001921 L12,8.12554276 L12,15.8746668 Z" transform="translate(1 2)" fill="#0052D9" fill-rule="evenodd"/></svg>