<svg width="32" height="32" viewBox="0 0 32 32" xmlns="http://www.w3.org/2000/svg"><g transform="translate(1 3)" fill="none" fill-rule="evenodd"><path d="M28 26C27.2897779 25.9957131 26.6351046 25.6150891 26.28 25L1 25 1 8 3 8 3 23 26.28 23C26.7660656 22.1581503 27.7870648 21.7877158 28.6998631 22.1220358 29.6126615 22.4563558 30.1528813 23.3985996 29.9802345 24.3552416 29.8075876 25.3118835 28.9720785 26.0058471 28 26zM27.0120508 3.00018082L3.73205081 3.00018082C3.27944513 3.78411685 2.35672894 4.16631841 1.48236191 3.93203247.607994882 3.69774653 1.11022302e-16 2.90539218 0 2.00018082-1.11022302e-16 1.09496946.607994882.302615105 1.48236191.0683291662 2.35672894-.165956773 3.27944513.216244788 3.73205081 1.00018082L29.0120508 1.00018082 29.0120508 18.0001808 27.0120508 18.0001808 27.0120508 3.00018082z" fill="#0052D9"/><path stroke="#0052D9" stroke-width="2" d="M8 17L13 10 18 17"/><circle fill="#0052D9" cx="23" cy="10" r="2"/><circle fill="#0052D9" cx="18" cy="17" r="2"/><circle fill="#0052D9" cx="13" cy="10" r="2"/><circle fill="#0052D9" cx="8" cy="17" r="2"/><path stroke="#0052D9" stroke-width="2" transform="matrix(1 0 0 -1 0 27)" d="M13 17L18 10 23 17"/></g></svg>