<svg width="32" height="32" viewBox="0 0 32 32" xmlns="http://www.w3.org/2000/svg"><g fill="#0052D9" fill-rule="evenodd"><g transform="translate(0 1)"><path d="M13 3L22.839 3 29.696 15 23 27C23.645 27.225 24.526 26.528 25 27L32 15 24 1 13 1 13 3zM19 27L9.161 27 2.304 15 9 3C8.355 2.775 7.474 3.472 7 3L0 15 8 29 19 29 19 27z" fill-rule="nonzero"/><circle cx="8.5" cy="2.5" r="2.5"/><circle cx="23.5" cy="27.5" r="2.5"/></g><path d="M23,9.3 L23,9 L9,9 L9,16.98 C9,16.98 9.06363636,22.44 16,24 C22.9363636,22.5 23,16.98 23,16.98 L23,9.3 Z M16,22.74 C10.4636364,21.42 10.2727273,17.16 10.2727273,16.98 L10.2727273,10.2 L21.7272727,10.2 L21.7272727,16.98 C21.7272727,17.04 21.6,21.42 16,22.74 Z" fill-rule="nonzero" transform="translate(0 1)"/><path d="M11,16.0163803 L11.0077174,16.0163082 C11.0190236,17.2267411 11.0784012,18.004357 11.1402348,18.1788216 C11.3702287,18.8277543 11.8627096,19.5457023 12.346955,20.030736 C12.8667521,20.5513793 14.1070667,21.2204006 16.0212684,21.9774834 C17.8186115,21.2533314 19.0099355,20.5886153 19.5637824,20.0319546 C19.6006973,19.9948522 19.7769781,19.819202 19.8252639,19.7705519 C19.9215923,19.6734964 19.9989757,19.5932183 20.0716569,19.5142826 C20.4609717,19.0914656 20.7157827,18.6975055 20.8958969,18.1826619 C20.9267478,18.0944768 20.9700412,17.567225 21,16.7266176 L21,11 L11,11 L11,16.0163803 Z M9.02790068,17 L9,17 L9,11 L9,9 L23,9 L23,11 L23,16.0465166 L23.0198692,16.0469398 C23.0141899,16.3136206 23.007656,16.5595379 23,16.7859958 L23,17 L22.992197,17 C22.9546726,17.9546648 22.8930908,18.5304298 22.7837063,18.8430978 C22.5048832,19.6400941 22.1044596,20.259184 21.5429583,20.8690047 C21.4511511,20.9687123 21.3573174,21.0660562 21.244784,21.1794389 C21.1915398,21.2330849 21.0140924,21.4098974 20.9815747,21.4425803 C20.1453361,22.2830674 18.6266793,23.1104815 16.3875635,23.983616 L16.0268443,24.1242771 L15.6654518,23.9853551 C13.2979918,23.0752858 11.7386384,22.2521595 10.9315917,21.4437989 C10.2521659,20.763267 9.59452295,19.8045427 9.25512992,18.8469382 C9.12913335,18.4914362 9.05998714,17.9004238 9.02790068,17 Z" transform="translate(0 1)"/><path d="M12 14H15V16H12zM12 17H20V19H12z" transform="translate(0 1)"/><path transform="rotate(-45 19.077 14.63)" d="M15.857 13.13H19.881999999999998V15.13H15.857z"/></g></svg>