<svg xmlns="http://www.w3.org/2000/svg" width="32" height="32" viewBox="0 0 32 32"><path fill="#0052D9" d="M16,0 C23.811235,0 30.3151005,5.59751424 31.7192447,13.000191 L29.677892,13.0003278 C28.3046747,6.70979962 22.7023537,2 16,2 C8.2680135,2 2,8.2680135 2,16 C2,23.7319865 8.2680135,30 16,30 C23.052652,30 28.8872801,24.7850199 29.8581018,18.0008423 L31.8761139,18.0007904 C30.8915668,25.8930309 24.1589629,32 16,32 C7.163444,32 3.97726296e-12,24.836556 3.97726296e-12,16 C3.97726296e-12,7.163444 7.163444,0 16,0 Z M12,8 L11.999,10 L19.999,10 L20,8 L22,8 L21.999,10 L24,10 L24,23 L8,23 L8,10 L9.999,10 L10,8 L12,8 Z M22,16 L10,16 L10,21 L22,21 L22,16 Z M22,12 L10,12 L10,14 L22,14 L22,12 Z"/></svg>