<svg data-name="图层 1" xmlns="http://www.w3.org/2000/svg" width="32" height="32" viewBox="0 0 32 32"><path fill="#0052D9" d="M16.21,2.16a22.32,22.32,0,0,1,12.85,4v.13A27.55,27.55,0,0,1,16.2,29.51,27.58,27.58,0,0,1,3.35,6.34V6.19a22.35,22.35,0,0,1,12.86-4m0-2A24.46,24.46,0,0,0,1.52,5.05l-.15.11v.18c0,.32,0,.65,0,1A29.46,29.46,0,0,0,16,31.74l.18.1.19-.1A29.46,29.46,0,0,0,31.06,6.32c0-.33,0-.66,0-1V5.16l-.15-.11A24.46,24.46,0,0,0,16.21.16Z"/><path fill="#0052D9" d="M15.54 21.09L9.5 21.09 9.5 6.36 22.22 6.36 22.22 13.46 20.22 13.46 20.22 8.36 11.5 8.36 11.5 19.09 15.54 19.09 15.54 21.09z"/><path fill="#0052D9" d="M12.63 9.93H19.11V11.93H12.63zM12.63 13.54H15.440000000000001V15.54H12.63zM21.8 20.02L19.29 17.51 17.5 19.29 16.09 17.88 19.29 14.68 21.8 17.19 24.03 14.96 25.45 16.38 21.8 20.02z"/></svg>