<svg width="32" height="32" viewBox="0 0 32 32" xmlns="http://www.w3.org/2000/svg"><g fill="#0052D9" fill-rule="evenodd"><path d="M22,24 L22,0 L0,0 L0,30 L22,30 L22,28 L2,28 L2,2 L20,2 L20,24 L22,24 Z M13,24 L13,22 L9,22 L9,24 L13,24 Z" transform="translate(5 1)" fill-rule="nonzero"/><path d="M3 5H12V7H3zM3 15H19V17H3zM14 5H19V7H14z" transform="translate(5 1)"/><path d="M17 5H19V10H17zM17 12H19V17H17zM3 5H5V17H3z" transform="translate(5 1)"/><path fill-rule="nonzero" d="M11.4486526 10.4103507L5.71555583 15.7707434 4.34962578 14.3098412 11.484961 7.63836852 13.4360492 9.56083518 16.9176634 5.40367284 18.450961 6.68780618 13.5770001 12.5074764z" transform="translate(5 1)"/></g></svg>