<svg width="33" height="33" viewBox="0 0 33 33" xmlns="http://www.w3.org/2000/svg"><g fill="none" fill-rule="evenodd"><path d="M0.628 0H31.975V32H0.628z" transform="translate(.629 .5)"/><path d="M20.204344,6.26679825 C21.1522206,6.38411222 21.7178839,7.19494166 22.1179553,8.41720118 C22.1445812,8.49572474 22.143101,8.58229153 22.1138068,8.65981866 C20.8572372,11.8650946 19.91481,14.2690515 19.2865252,15.8716894 C18.5213892,17.8234094 17.3736853,20.7509892 15.8434133,24.6544291 C15.7950348,24.7769698 15.7926732,24.915081 15.836833,25.0392706 C15.884486,25.1613989 15.9757628,25.2572346 16.0898082,25.3048808 L18.0525931,26.2185654 C18.1652108,26.2717146 18.2927828,26.2739878 18.407149,26.2248831 C18.5211497,26.1755586 18.6118753,26.0780922 18.6584886,25.9548693 C20.2253925,21.9592683 21.4005703,18.9625675 22.1840223,16.964767 C22.8319498,15.3125533 23.8038411,12.8342328 25.0996962,9.52980547 C25.1755042,9.33691781 25.3188923,9.18456831 25.4981768,9.10642077 C25.6774613,9.02827324 25.8778838,9.0307607 26.0551578,9.1133335 L27.7152055,9.87600884 C28.0833166,10.0464971 28.2541039,10.5085847 28.0969282,10.9088095 C28.0856332,10.9375945 28.0850792,10.9699937 28.0953832,10.9991636 C28.1060472,11.0276454 28.126752,11.0503058 28.1529034,11.0621167 L29.566593,11.7132833 C29.6421459,11.7481277 29.7272931,11.7496449 29.8039913,11.7175134 C29.8799336,11.6837509 29.9404224,11.6185757 29.972084,11.5363979 L31.2088102,8.37834043 C31.2411206,8.2963727 31.2420174,8.20387603 31.2113021,8.12133494 C31.1805867,8.03879385 31.120794,7.97302005 31.0451657,7.93857996 L29.6330177,7.28744086 C29.606521,7.27524319 29.5766716,7.27471131 29.5497741,7.28595757 C29.5220797,7.29666901 29.500197,7.32020769 29.4900795,7.3501695 C29.4139046,7.54228709 29.2711493,7.694277 29.0927152,7.77323858 C28.9133624,7.85122374 28.7127941,7.84764988 28.5362166,7.76332249 L27.0566125,7.08922286 C26.5957183,6.87693095 26.3751139,6.30459078 26.5590264,5.79827638 C25.159401,4.69811647 23.4930528,4.06686003 21.7651077,3.98221413 C19.9889052,3.88026767 17.6686065,4.0740985 15.5047074,6.17457245 L15.681142,6.58778109 C17.3909169,5.88515165 20.1197878,6.25190169 20.204344,6.26679825 Z M20.9405002,11.5143087 L23.8333143,12.6545012" stroke="#0052D9" stroke-width="2" transform="translate(.629 .5)"/><path d="M8.6258294,15.9161323 L8.64269574,16.0317233 L9.16563019,22.0088915 C9.21032678,22.5197759 8.86259382,22.9744844 8.37218222,23.0753756 L8.25659124,23.092242 L4.27181244,23.4408649 L3.5745665,15.4713073 L7.55934529,15.1226844 C8.07022964,15.0779878 8.52493819,15.4257207 8.6258294,15.9161323 Z M12.5403188,14.6869057 L12.5547153,14.8514582 L14.2337594,22.5693075 L12.24137,22.743619 L12.02663,21.7577644 L11.2844649,21.8226954 L11.2451753,22.8307747 L9.25278593,23.0050862 L9.56255778,15.0720814 L9.55173469,14.9483729 L9.56760243,14.9461626 L9.56830372,14.9450974 L11.5606931,14.7707859 L11.5599918,14.7718511 L12.5403188,14.6869057 Z M23.2915665,18.2514049 L24.0438376,21.7110369 L22.0514482,21.8853484 L22.0075665,21.6884049 L23.2915665,18.2514049 Z M6.73746208,17.2022295 L5.74126738,17.2893852 L6.08989036,21.274164 L7.08608505,21.1870083 L6.73746208,17.2022295 Z M18.2825665,14.1844049 L17.4595665,16.2634049 L17.121572,16.2937376 L17.1805665,16.9684049 L15.5355665,21.1234049 L15.1291826,16.4680491 L13.1367932,16.6423606 L12.9624817,14.6499712 L18.2825665,14.1844049 Z M11.3999445,18.8744116 L11.3631869,19.8081685 L11.5982889,19.7875997 L11.3999445,18.8744116 Z" fill="#0052D9" fill-rule="nonzero" transform="translate(.629 .5)"/><path d="M25.1410829,19.378648 L25.1039107,26.1818578 C25.1041729,26.4966069 24.8173252,26.7519504 24.4632183,26.7521835 C22.1476641,26.7506554 21.7734452,26.770882 20.615668,26.770159 M11.8566742,27.174172 C10.2085629,27.1729997 6.6836413,27.1805322 2.70567986,27.1777028 C2.36870692,27.1774631 2.09559901,26.9158281 2.09534947,26.5930116 L2.08267863,10.2090623 C2.08243484,9.88590699 2.3556896,9.62374382 2.69301623,9.62350452 L19.2567985,9.65954293" stroke="#0052D9" stroke-width="2" transform="rotate(-5 19.652 11.452)"/></g></svg>