<svg data-name="图层 1" xmlns="http://www.w3.org/2000/svg" width="32" height="32" viewBox="0 0 32 32"><path fill="#0052D9" d="M16.21,2.16a22.32,22.32,0,0,1,12.85,4v.13A27.55,27.55,0,0,1,16.2,29.51,27.58,27.58,0,0,1,3.35,6.34V6.19a22.35,22.35,0,0,1,12.86-4m0-2A24.46,24.46,0,0,0,1.52,5.05l-.15.11v.18c0,.32,0,.65,0,1A29.46,29.46,0,0,0,16,31.74l.18.1.19-.1A29.46,29.46,0,0,0,31.06,6.32c0-.33,0-.66,0-1V5.16l-.15-.11A24.46,24.46,0,0,0,16.21.16Z"/><path fill="#0052D9" d="M20.62,21.75a7.52,7.52,0,0,1-2.42-.45,16,16,0,0,1-5.85-3.88,16.09,16.09,0,0,1-3.88-5.85c-.76-2.19-.56-4,.56-5.13,2.19-2.19,6.91-.76,11,3.31h0A16.25,16.25,0,0,1,23.9,15.6c.76,2.19.56,4-.56,5.14A3.75,3.75,0,0,1,20.62,21.75ZM11.74,7.42a1.75,1.75,0,0,0-1.29.43c-.54.54-.58,1.66-.09,3.07A14.32,14.32,0,0,0,13.76,16a14.13,14.13,0,0,0,5.1,3.4c1.4.49,2.52.46,3.06-.09s.58-1.66.09-3.06a14.15,14.15,0,0,0-3.4-5.09h0C16.14,8.7,13.42,7.42,11.74,7.42Z"/><path fill="#0052D9" d="M11.74,21.75a3.74,3.74,0,0,1-2.71-1c-1.12-1.12-1.32-2.95-.56-5.14a16.25,16.25,0,0,1,3.88-5.85c4.08-4.07,8.8-5.5,11-3.31,1.12,1.12,1.32,2.94.56,5.13A16.09,16.09,0,0,1,20,17.42a16,16,0,0,1-5.85,3.88A7.58,7.58,0,0,1,11.74,21.75ZM20.63,7.42c-1.68,0-4.4,1.28-6.87,3.75h0a14.15,14.15,0,0,0-3.4,5.09c-.49,1.4-.45,2.52.09,3.06s1.66.58,3.06.09a14.13,14.13,0,0,0,5.1-3.4A14.32,14.32,0,0,0,22,10.92c.49-1.41.45-2.53-.09-3.07A1.75,1.75,0,0,0,20.63,7.42Z"/><circle fill="#0052D9" cx="16.19" cy="13.59" r="1.35"/></svg>