<svg width="32" height="32" viewBox="0 0 32 32" xmlns="http://www.w3.org/2000/svg"><g fill="none" fill-rule="evenodd"><path d="M22,24 L22,0 L0,0 L0,30 L22,30 L22,28 L2,28 L2,2 L20,2 L20,24 L22,24 Z M13,24 L13,22 L9,22 L9,24 L13,24 Z" fill="#0052D9" fill-rule="nonzero" transform="translate(5 1)"/><path stroke="#0052D9" stroke-width="2" d="M5 5H9V9H5zM13 14H17V18H13z" transform="translate(5 1)"/><path d="M10,17 L6,17 L4,17 L4,12 L6,12 L6,15 L9,15 L9,14 L9.98254529,15 L10,15 L10,15.0177648 L11.9476359,17 L10,17 Z" fill="#0052D9" transform="translate(5 1)"/><path d="M16,11 L12,11 L10,11 L10,6 L12,6 L12,9 L15,9 L15,8 L15.9825453,9 L16,9 L16,9.01776479 L17.9476359,11 L16,11 Z" fill="#0052D9" transform="rotate(180 16.474 9)"/></g></svg>