<svg width="32" height="32" viewBox="0 0 32 32" xmlns="http://www.w3.org/2000/svg"><path d="M2,26 L3.19744231e-14,26 L3.19744231e-14,7 L2,7 L21,7 L23,7 L23,26 L21,26 L2,26 Z M2,24 L21,24 L21,9 L2,9 L2,24 Z M26,18.6625093 L30,20.5255743 L30,13.1423536 L26,15.0064586 L26,18.6625093 Z M24,19.9382369 L24,17.7309768 L24,15.9385111 L24,13.7317909 L32,10 L32,12.2103011 L32,21.4571068 L32,23.6699768 L24,19.9382369 Z M9,17 C7.34314575,17 6,15.6568542 6,14 C6,12.3431458 7.34314575,11 9,11 C10.6568542,11 12,12.3431458 12,14 C12,15.6568542 10.6568542,17 9,17 Z M9,15 C9.55228475,15 10,14.5522847 10,14 C10,13.4477153 9.55228475,13 9,13 C8.44771525,13 8,13.4477153 8,14 C8,14.5522847 8.44771525,15 9,15 Z M15.5,18 C14.1192881,18 13,16.8807119 13,15.5 C13,14.1192881 14.1192881,13 15.5,13 C16.8807119,13 18,14.1192881 18,15.5 C18,16.8807119 16.8807119,18 15.5,18 Z M15.5,16 C15.7761424,16 16,15.7761424 16,15.5 C16,15.2238576 15.7761424,15 15.5,15 C15.2238576,15 15,15.2238576 15,15.5 C15,15.7761424 15.2238576,16 15.5,16 Z M6,22 L4,22 C4,19.7759197 5.89431438,18 8.2,18 L9.8,18 C12.1056856,18 14,19.7759197 14,22 L12,22 C12,20.9103718 11.0289368,20 9.8,20 L8.2,20 C6.97106322,20 6,20.9103718 6,22 Z M14.2,21 L14.2,19 L15.8,19 C17.5847128,19 19.1671844,20.0716455 19.7592966,21.6623725 C19.8017057,21.7763057 19.8386447,21.8920235 19.8700068,22.0092284 C19.8701235,22.0096644 17.7082321,22.0044024 17.7078985,22.0038758 C17.3250776,21.3994951 16.6086395,21 15.8,21 L14.2,21 Z" fill="#0052D9" fill-rule="evenodd"/></svg>