<svg data-name="图层 1" xmlns="http://www.w3.org/2000/svg" width="32" height="32" viewBox="0 0 32 32"><path fill="#0052D9" d="M31,5.34V5.16l-.14-.11a24.51,24.51,0,0,0-29.38,0l-.15.11v.18c0,.32,0,.65,0,1A29.47,29.47,0,0,0,16,31.73l.19.11.19-.11A29.47,29.47,0,0,0,31.06,6.32C31.06,6,31.05,5.66,31,5.34ZM16.2,29.51A27.6,27.6,0,0,1,3.35,6.34V6.19a22.52,22.52,0,0,1,25.71,0v.13A27.55,27.55,0,0,1,16.2,29.51Z"/><path fill="#0052D9" d="M21 9.35a4.7 4.7 0 10-8 3.28 7.49 7.49 0 00-2.73 1.65 7.22 7.22 0 00-2.07 5.4h2a5.3 5.3 0 011.45-3.95 7.23 7.23 0 014.66-1.68h0A4.71 4.71 0 0021 9.35zm-4.7-2.69a2.7 2.7 0 11-2.7 2.69A2.7 2.7 0 0116.31 6.66zM23.13 12.71L21.13 12.71 21.13 15.15 18.69 15.15 18.69 17.15 21.13 17.15 21.13 19.59 23.13 19.59 23.13 17.15 25.56 17.15 25.56 15.15 23.13 15.15 23.13 12.71z"/></svg>