<svg data-name="图层 1" xmlns="http://www.w3.org/2000/svg" width="32" height="32" viewBox="0 0 32 32"><path fill="#0052D9" d="M31.1,5.15A26.47,26.47,0,0,0,16,.2a26.47,26.47,0,0,0-15.1,5A30.82,30.82,0,0,0,16,31.8h0A30.82,30.82,0,0,0,31.1,5.15ZM16,29.48A28.62,28.62,0,0,1,2.87,6.2,24.26,24.26,0,0,1,16,2.17a24.26,24.26,0,0,1,13.13,4A28.62,28.62,0,0,1,16,29.48Z"/><g fill="#0052D9"><path d="M23.17,19.36H8.83V8.49H23.17Zm-12.64-1.7H21.47V10.19H10.53Z"/><path d="M11.18 12.6H22.32V14.299999999999999H11.18zM17.33 15.29H20.27V16.689999999999998H17.33zM15.14 15.29H16.560000000000002V16.689999999999998H15.14zM12.74 5.6H14.44V11.19H12.74zM17.56 5.6H19.259999999999998V11.19H17.56z"/></g></svg>