<svg xmlns="http://www.w3.org/2000/svg" width="32" height="32" viewBox="0 0 32 32"><path fill="#0052D9" d="M15.9756868,1 C20.610018,1 24.9871749,2.38136446 29.0856514,5.13031205 L29.5237065,5.43007462 L29.9233374,5.70899652 L29.9498884,6.19561475 C30.2528925,11.7489809 29.181555,16.7842298 26.7334391,21.280241 C24.3668227,25.6265768 21.0889532,28.9541535 16.9141029,31.2447184 L16.4633658,31.4861671 L16.0257118,31.715011 L15.5779745,31.506584 C10.9750913,29.3638876 7.41364116,25.9314151 4.91394238,21.2360916 C2.49946974,16.7008531 1.58491011,11.8124358 2.17234974,6.59773547 L2.23847735,6.0571209 L2.29526038,5.62677323 L2.64841095,5.37436859 C6.72240819,2.46259122 11.1737436,1 15.9756868,1 Z M15.9756868,3 C12.0714433,3 8.43252702,4.05637292 5.04000315,6.1786145 L4.61721959,6.44944679 L4.168,6.751 L4.10569535,7.34970328 C3.7120014,11.6241284 4.41780315,15.6337371 6.22458024,19.3976051 L6.44667827,19.8480909 L6.67934623,20.296225 C8.73984173,24.1665685 11.5579572,27.0775711 15.1483351,29.0486363 L15.5660375,29.2718967 L15.974,29.478 L16.3877046,29.2461521 C19.7314822,27.3166966 22.4215467,24.6444178 24.4678318,21.2166117 L24.7310884,20.7652208 L24.9769498,20.3238178 C26.9972471,16.6135035 28.0055027,12.5028245 28.0000131,7.97681959 L27.9940214,7.40890474 L27.975,6.794 L27.524008,6.49768902 C24.1676362,4.3453864 20.6410587,3.18984855 16.9293789,3.02152949 L16.4441957,3.00517264 L15.9756868,3 Z M13.9717137,5.89610917 L23,9.84598443 L23,17.618034 L14,22.118034 L9,19.618034 L9,8.38196601 L13.9717137,5.89610917 Z M10.9980211,10.942 L10.999,18.381 L12.9990211,19.381 L12.999,11.693 L10.9980211,10.942 Z M18.0320211,16.102 L14.9990211,17.618 L14.9990211,19.381 L19.9310211,16.916 L18.0320211,16.102 Z M17,10.618 L14.9990211,11.618 L14.9990211,15.381 L17,14.381 L17,10.618 Z M18.9990211,10.279 L18.9990211,14.34 L20.9980211,15.196 L20.999,11.154 L18.9990211,10.279 Z M14.028,8.104 L11.9260211,9.154 L13.9420211,9.91 L15.9080211,8.927 L14.028,8.104 Z" transform="translate(0 -.5)"/></svg>