<svg data-name="图层 1" xmlns="http://www.w3.org/2000/svg" width="32" height="32" viewBox="0 0 32 32"><path fill="#0052D9" d="M16,2A23.62,23.62,0,0,1,29,6.07,29.54,29.54,0,0,1,16,29.63,29.16,29.16,0,0,1,3,6.07,23.71,23.71,0,0,1,16,2m0-2A26,26,0,0,0,1,5S0,22.21,16,32h0C32,22.21,31,5,31,5A26,26,0,0,0,16,0Z"/><g fill="#0052D9"><path d="M13.12 14.22H18.869999999999997V16.22H13.12zM16.86 6H18.86V11H16.86z"/><path d="M16.86 10H22.39V12H16.86z"/><path d="M18.08,8l2.32,2.73V18H11.6V8h6.48M19,6H9.6V20H22.4V10L19,6Z"/></g></svg>