<svg width="32" height="32" viewBox="0 0 32 32" xmlns="http://www.w3.org/2000/svg"><g fill="none" fill-rule="evenodd"><path stroke="#0052D9" stroke-width="2" d="M7.959 10.03L7.959 20.68 13.959 23.873 19.985 20.803 19.985 10.03z" transform="translate(2)"/><path fill="#0052D9" fill-rule="nonzero" d="M13.934 18.518L7.619 15.219 8.545 13.446 13.984 16.287 19.316 13.795 20.164 15.606z" transform="translate(2)"/><path fill="#0052D9" fill-rule="nonzero" d="M13.935 21.673L7.619 18.374 8.545 16.601 13.984 19.442 19.316 16.949 20.164 18.762z" transform="translate(2)"/><path fill="#0052D9" d="M26.097 12.334L26.097 23.143 14.097 30 2.096 23.143 2.096 8.857 14.097 2 25.673 8.615 27.288 7.539 14.097 0 0.096 8 0.096 10 0.096 22 0.096 24 14.097 32 28.097 24 28.097 22 28.097 11z" transform="translate(2)"/></g></svg>