<svg width="32" height="32" viewBox="0 0 32 32" xmlns="http://www.w3.org/2000/svg"><g fill="#0052D9" fill-rule="evenodd"><path d="M31.7193022,13.0004945 L29.6779284,13.0004945 C28.3047737,6.70988283 22.7024129,2 16,2 C8.2680135,2 2,8.2680135 2,16 C2,23.7319865 8.2680135,30 16,30 C23.0527724,30 28.8874794,24.7848417 29.8581515,18.0004945 L31.8761508,18.0004945 C30.8917351,25.8928783 24.1590649,32 16,32 C7.163444,32 -2.0250468e-13,24.836556 -2.0250468e-13,16 C-2.0250468e-13,7.163444 7.163444,0 16,0 C23.8113418,0 30.3152783,5.59766728 31.7193022,13.0004945 Z" fill-rule="nonzero"/><path d="M22 12L24 12 24 20 22 20zM8 18L13 21 13 23 8 20zM8 14L13 11 13 9 8 12z"/><path d="M8 12L10 12 10 20 8 20zM24 20L19 23 19 21 24 18zM24 12L19 9 19 11 24 14z"/><path fill-rule="nonzero" d="M16 19L14 19 16 13 18 13z"/></g></svg>