<svg width="32" height="32" viewBox="0 0 32 32" xmlns="http://www.w3.org/2000/svg"><g fill="#0052D9" fill-rule="evenodd"><path d="M27,25 L25,25 L25,3 L7,3 L7,29 L27,29 L27,31 L5,31 L5,1 L27,1 L27,25 Z M18,25 L14,25 L14,23 L18,23 L18,25 Z" fill-rule="nonzero"/><path d="M0 4H2V11H0z" transform="translate(10 5)"/><path d="M1 9H11V11H1z" transform="translate(10 5)"/><path d="M10 4H12V11H10zM2 1H10V3H2z" transform="translate(10 5)"/><path d="M1 1H3V5H1zM9 1H11V5H9z" transform="translate(10 5)"/><path fill-rule="nonzero" transform="matrix(1 0 0 -1 10 7)" d="M4 0.0276527572L6.02303028 2 8 6.9388939e-18z"/><path fill-rule="nonzero" d="M12.5795205 9L11 10.5877343 15.9783138 13 21 10.6930317 19.4772204 9.07852292 16.0196537 10.666933z"/></g></svg>