<?xml version="1.0" encoding="UTF-8"?>
<svg width="32px" height="32px" viewBox="0 0 32 32" version="1.1" xmlns="http://www.w3.org/2000/svg" xmlns:xlink="http://www.w3.org/1999/xlink">
    <title>Serverless HTTP服务 32px</title>
    <g id="页面-2" stroke="none" stroke-width="1" fill="none" fill-rule="evenodd">
        <g id="Serverless-HTTP服务-32px">
            <rect id="矩形" x="0" y="0" width="32" height="32"></rect>
            <path d="M16,0 C23.811235,0 30.3151005,5.59751424 31.7192447,13.000191 L29.677892,13.0003278 C28.3046747,6.70979962 22.7023537,2 16,2 C8.2680135,2 2,8.2680135 2,16 C2,23.7319865 8.2680135,30 16,30 C23.052652,30 28.8872801,24.7850199 29.8581018,18.0008423 L31.8761139,18.0007904 C30.8915668,25.8930309 24.1589629,32 16,32 C7.163444,32 -1.77635684e-15,24.836556 -1.77635684e-15,16 C-1.77635684e-15,7.163444 7.163444,0 16,0 Z M9,21 L9,23 L23,23 L23,21 L25,21 L25,25 L7,25 L7,21 L9,21 Z M9,14 L9,16 L10,16 L10,14 L23,14 C24.3333333,14 25,14.6666667 25,16 L25.000276,16.0258393 C24.9995262,16.2445389 24.9326337,17.7825927 23.2066102,17.9829675 L23,18 L23,20 L21,20 L21,16 L19,16 L19,20 L17,20 L17,16 L15,16 L15,20 L13,20 L13,16 L12,16 L12,20 L10,20 L10,18 L9,18 L9,20 L7,20 L7,14 L9,14 Z M13,6 L13,9 L19,9 L19,6 L21,6 L21,9 L25,9 L25,13 L23,13 L23,11 L9,11 L9,13 L7,13 L7,9 L11,9 L11,6 L13,6 Z" id="形状结合" fill="#0052d9" fill-rule="nonzero"></path>
        </g>
    </g>
</svg>