<svg width="32" height="32" viewBox="0 0 32 32" xmlns="http://www.w3.org/2000/svg"><path d="M23.2,11 L25.2,11 L23,23 L22.1,23 L21,23 L20.2,23 L18.3,23 L18.2,23 L16.6,14.2 L15,23 L14.1,23 L13,23 L12.2,23 L10.3,23 L10.2,23 L8,11 L10,11 L11.8,21 L13.4,21 L15.2,11 L16,11 L17.2,11 L18,11 L19.8,21 L21.4,21 L23.2,11 Z M27.2675644,26 C27.6133738,25.4021986 28.2597176,25 29,25 C30.1045695,25 31,25.8954305 31,27 C31,28.1045695 30.1045695,29 29,29 C28.2597176,29 27.6133738,28.5978014 27.2675644,28 L2,28 L2,26 L2,11 L4,11 L4,26 L27.2675644,26 Z M4.73243561,4 L30,4 L30,6 L30,21 L28,21 L28,6 L4.73243561,6 C4.38662619,6.59780137 3.74028236,7 3,7 C1.8954305,7 1,6.1045695 1,5 C1,3.8954305 1.8954305,3 3,3 C3.74028236,3 4.38662619,3.40219863 4.73243561,4 Z" fill="#0052D9" fill-rule="evenodd"/></svg>