<?xml version="1.0" encoding="UTF-8"?>
<svg width="32px" height="32px" viewBox="0 0 32 32" version="1.1" xmlns="http://www.w3.org/2000/svg" xmlns:xlink="http://www.w3.org/1999/xlink">
    <title>智能媒资托管-32px</title>
    <g id="页面-2" stroke="none" stroke-width="1" fill="none" fill-rule="evenodd">
        <g id="智能媒资托管-32px">
            <rect id="矩形" fill="#0052d9" opacity="0" x="0" y="0" width="32" height="32"></rect>
            <path d="M16,0 L29.2,7.5 L27.6,8.6 L16,2 L4,8.9 L4,23.1 L16,30 L28,23.1 L28,12.3 L30,11 L30,24 L16,32 L2,24 L2,8 L16,0 Z M11.7,15.3 C12.8,15.4 13.8,15.7 14.6,16.3 C15.6,17 16.8,17.5 18,17.7 C18.6,17.7 19.1,18 19.5,18.5 C20.3,18.4 21,18 21.6,17.6 L21.6,17.6 L21.7,17.5 C22.4,16.8 23.5,16.4 24.5,16.7 C25.2,17 25.8,17.6 26.1,18.2 L26.1,18.2 L26.6,18.9 L26,19.5 C25.7,19.8 25.4,20.1 25.1,20.4 C24,21.6 22.7,22.7 21.3,23.5 C19.7,24.1 18.1,24.4 16.5,24.3 L16.5,24.3 L7.5,24.5 C7.5,24.5 7.4,22.3 7.4,22.1 C7.3,21.1 7.2,20.2 7.4,19.2 C7.4,18.7 7.6,18.2 7.8,17.8 C8.4,16.8 9.3,16 10.4,15.5 C10.8,15.4 11.3,15.3 11.7,15.3 Z M11.6,17.4 C11.4,17.4 11.2,17.4 11,17.5 C10.4,17.8 9.9,18.2 9.6,18.8 C9.5,19 9.4,19.3 9.3,19.6 C9.3,19.6095238 9.3,19.6247166 9.3000108,19.6450275 L9.30069107,19.95115 C9.30362812,20.7342404 9.31904762,22.5190476 9.4,22.6 L9.4,22.6 L16.5,22.5 C17.8,22.6 19.2,22.4 20.4,21.9 C21.6,21.2 22.7,20.3 23.6,19.2 L23.6,19.2 L23.9,18.9 C23.8,18.8 23.8,18.8 23.7,18.8 L23.7,18.8 L23.6,18.8 C23.4,18.8 23.2,19 22.8,19.3 L22.8,19.3 L22.7,19.4 C21.8,20.1 20.7,20.5 19.5,20.7 C19.4,21 19.2,21.2 19,21.4 C18.4,22 17.6,22.3 16.8,22.3 C16.2,22.3 15.6,22.2 15,21.9 C14.5,21.7 14.1,21.6 13.6,21.5 L13.6,21.5 L12.9,21.3 L13.5,19.3 C13.7,19.4 13.9,19.4 14.1,19.5 C14.7,19.6 15.2,19.8 15.8,20 C16.1,20.1 16.4,20.2 16.7,20.2 C17,20.2 17.3,20.1 17.5,19.9 L17.5,19.9 L17.6,19.8 L17.5,19.8 C16,19.5 14.6,18.9 13.4,18.1 C12.9,17.7 12.3,17.5 11.6,17.4 Z M18.6,11.3 L22.7,15.7 C22,15.9 21.4,16.2 20.9,16.7 L20.9,16.7 L18.6,14.2 L16.6,16.3 C16.1,16.1 15.6,15.9 15.2,15.6 L15.2,15.6 L14.8,15.2 L18.6,11.3 Z M24.8,8 L24.8,16.1 C24.6,16 24.3,15.9 24,15.8 C23.8,15.7 23.6,15.7 23.4,15.7 C23.3,15.7 23.1,15.7 22.9,15.8 L22.9,15.8 L22.9,10 L10.9,10 L10.9,14.5 C10.6,14.5 10.3,14.6 10,14.7 C9.6,14.8 9.2,15 8.9,15.2 L8.9,15.2 L8.9,8 L24.8,8 Z M13.9,11 C14.7284271,11 15.4,11.6715729 15.4,12.5 C15.4,13.3284271 14.7284271,14 13.9,14 C13.0715729,14 12.4,13.3284271 12.4,12.5 C12.4,11.6715729 13.0715729,11 13.9,11 Z" id="形状结合" fill="#0052d9" fill-rule="nonzero"></path>
        </g>
    </g>
</svg>