<svg width="32" height="32" viewBox="0 0 32 32" xmlns="http://www.w3.org/2000/svg"><path d="M15.85,0.999977321 C21.1537003,0.992781453 26.3161738,2.70892662 30.56,5.89 L30.56,5.89 L30.71,6 L30.71,7.17 C30.6856703,17.6458514 25.1000426,27.3207526 16.04,32.58 L16.04,32.58 L15.85,32.69 L15.66,32.58 C6.60688284,27.3200253 1.02580873,17.6502243 1,7.18 L1,7.18 L1,6 L1.16,5.89 C5.3983534,2.7130375 10.5531404,0.997114542 15.85,0.999977321 Z M15.85,2.99974544 C11.2571372,2.97946822 6.76976089,4.37631687 3,7 L3,7 L3,7.18 C3.04310227,16.5942635 7.88872226,25.3352341 15.85,30.36 C23.8300522,25.3280913 28.6817994,16.5640099 28.71,7.13 L28.71,7.13 L28.71,7 C24.937154,4.37494273 20.4461736,2.97805925 15.85,2.99974544 Z M13.48,7.15 L13.88,8.63 L14.64,11.47 L14.88,12.36 L12.71,15.55 C12.2448633,14.9653373 11.8395036,14.3355223 11.5,13.67 L11.5,13.67 L12.71,12 L12,9.15 L9.15,9.15 L9.15,9.15 L9.15,9.76 C9.16098712,15.7493543 14.0106584,20.6034953 20,20.62 L20,20.62 L20.55,20.62 L20.55,18.14 L17.62,17.26 L15.74,18.19 C15.0818744,17.8044718 14.4652772,17.3520772 13.9,16.84 L13.9,16.84 L17.39,15.1 L18.2,15.35 L21.13,16.23 L22.52,16.66 L22.52,22.55 L20.61,22.64 L20,22.64 C12.8950696,22.6014542 7.15887988,16.8250263 7.16998386,9.72 L7.16998386,9.72 L7.16998386,9 L7.28,7.15 L13.48,7.15 Z M16.27,10.52 C17.9268542,10.52 19.27,11.8631458 19.27,13.52 L17.27,13.52 C17.27,12.9677153 16.8222847,12.52 16.27,12.52 L16.27,10.52 Z M16.31,7.15 C17.999429,7.15 19.6196635,7.82112307 20.8142702,9.0157298 C22.0088769,10.2103365 22.68,11.830571 22.68,13.52 L20.68,13.52 C20.68,12.3610039 20.2195906,11.2494773 19.4000566,10.4299434 C18.5805227,9.61040939 17.4689961,9.15 16.31,9.15 L16.31,7.15 Z" fill="#0052D9" fill-rule="nonzero"/></svg>