<svg width="32" height="32" viewBox="0 0 32 32" xmlns="http://www.w3.org/2000/svg"><g fill="#0052D9" fill-rule="evenodd"><path d="M3.73205081 3.00018082L27.0120508 3.00018082 27.0120508 18.0001808 29.0120508 18.0001808 29.0120508 1.00018082 3.73205081 1.00018082C3.27944513.216244788 2.35672894-.165956773 1.48236191.0683291662.607994882.302615105-3.36397576e-14 1.09496946-3.37507799e-14 2.00018082-3.38618023e-14 2.90539218.607994882 3.69774653 1.48236191 3.93203247 2.35672894 4.16631841 3.27944513 3.78411685 3.73205081 3.00018082zM28 22C27.2897779 22.0042869 26.6351046 22.3849109 26.28 23L3 23 3 8 1 8 1 25 26.28 25C26.7660656 25.8418497 27.7870648 26.2122842 28.6998631 25.8779642 29.6126615 25.5436442 30.1528813 24.6014004 29.9802345 23.6447584 29.8075876 22.6881165 28.9720785 21.9941529 28 22z" transform="translate(1 3)"/><path d="M11,14.9434106 L11,18 L20,18 L20,14.9434106 L15.5,12.1741798 L11,14.9434106 Z M9,13.8273956 L15.5,9.82582019 L22,13.8273956 L22,20 L20,20 L11,20 L9,20 L9,14.9965075 L9,13.8273956 Z" transform="translate(1 3)"/><path d="M15.5 8.17417981L9.00622559 12.1835785 9.00622559 9.82198906 15.5 5.82582019 22.0028432 9.82510578 22.0028432 12.1835785z" transform="translate(1 3)"/></g></svg>