<svg width="32" height="32" viewBox="0 0 32 32" xmlns="http://www.w3.org/2000/svg"><g fill="#0052D9" fill-rule="nonzero"><path d="M21.5,1.6 C19.1,0.9 16.6,0.5 14.1,0.5 C14.1,0.5 9.4,0.5 5.8,1.8 C4.8,2.2 3.7,2.6 2.7,3.2 C0.6,4.3 0,5 0,5 C0,7.1 0.2,9.3 0.7,11.3 C1.3,13.8 2.1,16.2 3.3,18.4 C4.5,20.6 6,22.7 7.7,24.6 C9.5,26.5 11.7,28.1 14,29.4 C16.3,28.2 18.5,26.6 20.3,24.7 C22,22.8 23.5,20.7 24.6,18.5 C25.7,16.3 26.6,13.9 27.2,11.4 C27.8,9.4 28,7.2 28,5 C27.4,4.5 26.7,4 26,3.6 C24.6,2.7 23.1,2.1 21.5,1.6 Z M25.3,11 C24.7,13.3 23.9,15.5 22.8,17.6 C21.7,19.7 20.4,21.6 18.8,23.3 C17.4,24.8 15.7,26.1 13.9,27.1 C12.1,26 10.5,24.7 9.1,23.3 C7.5,21.5 6.1,19.6 5,17.5 C3.9,15.4 3.1,13.1 2.6,10.8 C2.3,9.3 2.1,7.6 2,6 C2.3,5.8 2.9,5.4 3.7,5 C4.6,4.4 5.5,4 6.5,3.7 C9.7,2.5 14,2.5 14.1,2.5 C16.4,2.5 18.8,2.9 21,3.6 C22.4,4 23.8,4.6 25.1,5.3 C25.4,5.5 25.8,5.7 26.1,5.9 C26,7.6 25.7,9.3 25.3,11 Z" transform="translate(2 1)"/><path d="M25.2,11.1 C25.2,11.1 21.9,12.7 18.7,13.8 C19.1,12.1 18.9,10.8 18.2,9.9 C17.4,8.8 15.9,8.3 13.8,8.3 C9.5,8.4 2.2,12.1 1.9,12.2 L2.8,14 C2.8,14 6.1,12.4 9.3,11.3 C8.9,13 9.1,14.3 9.8,15.2 C10.6,16.3 11.9,16.8 13.9,16.8 C14,16.8 14.1,16.8 14.2,16.8 C18.5,16.7 25.8,13 26.1,12.9 L25.2,11.1 Z M14.2,14.8 C13.2,14.8 11.9,14.7 11.4,14 C11,13.4 11,12.2 11.5,10.7 C12.3,10.5 13.1,10.4 13.8,10.4 C14.8,10.4 16.1,10.5 16.6,11.2 C17,11.8 17,13 16.5,14.6 C15.6,14.7 14.9,14.8 14.2,14.8 Z" transform="translate(2 1)"/></g></svg>