<svg width="32" height="32" viewBox="0 0 32 32" xmlns="http://www.w3.org/2000/svg"><g fill="#0052D9" fill-rule="evenodd"><path d="M10 25L1 25 1 8 3 8 3 23 10 23 10 25zM27.0120508 3.00018082L3.73205081 3.00018082C3.27944513 3.78411685 2.35672894 4.16631841 1.48236191 3.93203247.607994882 3.69774653-3.36397576e-14 2.90539218-3.37507799e-14 2.00018082-3.38618023e-14 1.09496946.607994882.302615105 1.48236191.0683291662 2.35672894-.165956773 3.27944513.216244788 3.73205081 1.00018082L29.0120508 1.00018082 29.0120508 14.0001808 27.0120508 14.0001808 27.0120508 3.00018082z" transform="translate(1 3)"/><path d="M14 8H16V14H14zM10 10H12V15H10zM18 10H20V14H18zM22 11H24V14H22zM6 11H8V15H6zM12 16H14V26H12zM21 16H23V26H21zM27 16H29V26H27z" transform="translate(1 3)"/><path d="M29,26 L26.7735027,26 L21,16 L23.3094011,16 L29,25.8564065 L29,26 Z" transform="translate(1 3)"/><path fill-rule="nonzero" d="M13 16H19V18H13zM13 20H19V22H13zM13 24H19V26H13z" transform="translate(1 3)"/></g></svg>