<svg width="32" height="32" viewBox="0 0 32 32" xmlns="http://www.w3.org/2000/svg"><g fill="none" fill-rule="evenodd"><path d="M28.8471036,18 L30.8678287,18 C29.8900443,25.3387189 23.6061537,31 16,31 C7.71572875,31 1,24.2842712 1,16 C1,7.71572875 7.71572875,1 16,1 C23.6061537,1 29.8900443,6.66128108 30.8678287,14 L28.8471036,14 C27.8850933,7.76981987 22.4995722,3 16,3 C8.82029825,3 3,8.82029825 3,16 C3,23.1797017 8.82029825,29 16,29 C22.4995722,29 27.8850933,24.2301801 28.8471036,18 Z" fill="#0052D9" fill-rule="nonzero"/><path stroke="#0052D9" stroke-width="2" d="M14 14H22V22H14z"/><path d="M13,19 L13,17 L17,17 L17,13 L19,13 L19,19 L13,19 Z M12,19 L9,19 L9,9 L19,9 L19,12 L17,12 L17,11 L11,11 L11,17 L12,17 L12,19 Z" fill="#0052D9" fill-rule="nonzero"/></g></svg>