<svg width="32" height="32" viewBox="0 0 32 32" xmlns="http://www.w3.org/2000/svg"><path d="M16,0 C24.836556,0 32,7.163444 32,16 C32,24.836556 24.836556,32 16,32 C7.163444,32 0,24.836556 0,16 C0,7.163444 7.163444,0 16,0 Z M16,2 C8.2680135,2 2,8.2680135 2,16 C2,23.7319865 8.2680135,30 16,30 C23.7319865,30 30,23.7319865 30,16 C30,8.2680135 23.7319865,2 16,2 Z M16,4 L19.5267115,11.145898 L27.4126782,12.2917961 L21.7063391,17.854102 L23.053423,25.7082039 L16,22 L8.94657697,25.7082039 L10.2936609,17.854102 L4.5873218,12.2917961 L12.4732885,11.145898 L16,4 Z M16,8.51910292 L13.8014195,12.9739136 L8.88524409,13.6882757 L12.442622,17.1558622 L11.602839,22.0521729 L16,19.7404485 L20.397161,22.0521729 L19.557378,17.1558622 L23.1147559,13.6882757 L18.1985805,12.9739136 L16,8.51910292 Z" fill="#0052D9" fill-rule="nonzero"/></svg>