<svg width="32" height="32" viewBox="0 0 32 32" xmlns="http://www.w3.org/2000/svg"><g transform="translate(3 2)" fill="none" fill-rule="evenodd"><path d="M24,6 L24,15.2 C24,15.2 24,17.5 22.6,20 C20.8,23.4 17.5,25.7 13,26.9 C2.3,24.3 2,15.6 2,15.2 L2,2 L22,2 L24,2 L26,2 L26,0 L0,0 L0,15.2 C0,15.2 0.1,26 13,29 C25.9,26 26,15.2 26,15.2 L26,6 L24,6 Z" fill="#0052D9" fill-rule="nonzero"/><circle stroke="#0052D9" stroke-width="2" cx="13" cy="13" r="6"/><path fill="#0052D9" d="M12 4H14V22H12z"/><path fill="#0052D9" transform="rotate(90 13 13)" d="M12 4H14V22H12z"/></g></svg>