<svg xmlns="http://www.w3.org/2000/svg" width="32" height="32" viewBox="0 0 32 32"><g fill="#0052D9"><path d="M12.385,10.005l-1-1.71c-4.258,2.564-5.631,8.095-3.067,12.353c0.757,1.257,1.81,2.31,3.067,3.067 l1-1.71C10.509,20.878,9.353,19.01,9.063,17h3.007v-2H9.062c0.129-0.894,0.434-1.778,0.928-2.601 C10.581,11.417,11.403,10.595,12.385,10.005z"/><path d="M2.985 16.005c.004-4.565 2.403-8.794 6.32-11.14l-1-1.71C1.208 7.429-1.081 16.646 3.193 23.743c1.262 2.095 3.017 3.85 5.112 5.112l1-1.71C5.388 24.799 2.989 20.57 2.985 16.005zM23.652 11.362c-.757-1.257-2.052-2.511-3.309-3.268l-.6-.342-3.753 6.253c-1.105 0-2 .895-2 2 0 1.105.895 2 2 2 1.105 0 2-.895 2-2 .002-.35-.087-.695-.26-1l2.66-4.426c1.396 1.132 2.258 2.726 2.508 4.421H20.07v2h2.833c-.128.897-.427 1.784-.923 2.611-.59.982-1.412 1.804-2.394 2.394l1 1.71C24.843 21.151 26.216 15.62 23.652 11.362z"/><path d="M28.807,8.257c-1.262-2.095-3.017-3.85-5.112-5.112v0.01l-1,1.71 c6.15,3.705,8.131,11.694,4.426,17.844c-1.093,1.814-2.612,3.333-4.426,4.426l1,1.71C30.792,24.571,33.081,15.354,28.807,8.257z"/></g></svg>