<?xml version="1.0" encoding="UTF-8"?>
<svg width="33px" height="32px" viewBox="0 0 33 32" version="1.1" xmlns="http://www.w3.org/2000/svg" xmlns:xlink="http://www.w3.org/1999/xlink">
    <title>Serverless SSR 32px</title>
    <g id="页面-2" stroke="none" stroke-width="1" fill="none" fill-rule="evenodd">
        <g id="Serverless-SSR-32px" transform="translate(0.500000, 0.000000)">
            <rect id="矩形" x="1.13686838e-13" y="0" width="32" height="32"></rect>
            <path d="M16,0 C23.811235,0 30.3151005,5.59751424 31.7192447,13.000191 L29.677892,13.0003278 C28.3046747,6.70979962 22.7023537,2 16,2 C8.2680135,2 2,8.2680135 2,16 C2,23.7319865 8.2680135,30 16,30 C23.052652,30 28.8872801,24.7850199 29.8581018,18.0008423 L31.8761139,18.0007904 C30.8915668,25.8930309 24.1589629,32 16,32 C7.163444,32 0,24.836556 0,16 C0,7.163444 7.163444,0 16,0 Z M16,6 L25,11 L25,15.064209 L20.0521851,18.0208333 L20.0521851,16 L23,14.2572021 L23,12 L21.0980909,11 L17.0162964,13.0004945 L17.0162964,20 L13.0202637,22.2888794 L16,24 L23.0077741,20.1775594 C23.0026277,20.1190594 23,20.0598366 23,20 C23,18.8954305 23.8954305,18 25,18 C26.1045695,18 27,18.8954305 27,20 C27,21.1045695 26.1045695,22 25,22 C24.5732345,22 24.1776886,21.8663329 23.8529443,21.6385808 L16,26.0006104 L7,21 L7,16.655 L12,14 L12,16 L9,17.5094299 L9,20 L11.0102539,21.1732178 L15.003418,18.8425293 L15.003418,12 L19.3848182,9.77916667 L16,7.95849609 L8.99659667,11.8823434 C8.9988551,11.921274 9,11.9605033 9,12 C9,13.1045695 8.1045695,14 7,14 C5.8954305,14 5,13.1045695 5,12 C5,10.8954305 5.8954305,10 7,10 C7.42720591,10 7.82312773,10.1339431 8.14806084,10.3621246 L16,6 Z" id="形状结合" fill="#0052d9" fill-rule="nonzero"></path>
        </g>
    </g>
</svg>