<svg width="32" height="32" viewBox="0 0 32 32" xmlns="http://www.w3.org/2000/svg"><g fill="#0052D9" fill-rule="nonzero"><path d="M3.7 3L27 3 27 18 29 18 29 1 3.7 1C3.4.4 2.7 0 2 0 .9 0 0 .9 0 2 0 3.1.9 4 2 4 2.7 4 3.4 3.6 3.7 3zM28 22C27.3 22 26.6 22.4 26.3 23L3 23 3 8 1 8 1 25 26.3 25C26.6 25.6 27.3 26 28 26 29.1 26 30 25.1 30 24 30 22.9 29.1 22 28 22z" transform="translate(1 3)"/><path d="M21 5C20.3 5 19.6 5.4 19.3 6L16.6 6C15.7 6 14.7 6.6 13.8 7.2 13.2 7.6 12.5 8 12.1 8L7 8 7 10 12.1 10C13 10 14 9.4 14.8 8.8 15.4 8.4 16.1 7.9 16.5 7.9L19.2 7.9C19.5 8.5 20.2 8.9 20.9 8.9 22 8.9 22.9 8 22.9 6.9 23 5.9 22.1 5 21 5zM21 11C20.3 11 19.6 11.4 19.3 12L7 12 7 14 19.3 14C19.6 14.6 20.3 15 21 15 22.1 15 23 14.1 23 13 23 11.9 22.1 11 21 11zM21 17C20.3 17 19.6 17.4 19.3 18L16.6 18C16.2 18 15.5 17.5 14.9 17.1 13.9 16.6 13 16 12.1 16L7 16 7 18 12.1 18C12.4 18 13.2 18.5 13.8 18.8 14.7 19.4 15.6 20 16.6 20L19.3 20C19.6 20.6 20.3 21 21 21 22.1 21 23 20.1 23 19 23 17.9 22.1 17 21 17z" transform="translate(1 3)"/></g></svg>