<svg data-name="图层 1" xmlns="http://www.w3.org/2000/svg" width="32" height="32" viewBox="0 0 32 32"><path fill="#0052D9" d="M16.24,2.17a22.22,22.22,0,0,1,12.82,4v.13A27.49,27.49,0,0,1,16.24,29.45,27.49,27.49,0,0,1,3.42,6.33V6.19a22.22,22.22,0,0,1,12.82-4m0-2A24.39,24.39,0,0,0,1.58,5.05l-.14.11v.18c0,.32,0,.65,0,1A29.42,29.42,0,0,0,16.05,31.68l.19.1.18-.1A29.4,29.4,0,0,0,31.06,6.32c0-.33,0-.66,0-1V5.16l-.15-.11A24.36,24.36,0,0,0,16.24.17Z"/><path fill="#0052D9" d="M17.77 22.1L14.16 11.28 11.46 19.01 9.44 14.26 6.28 14.26 6.28 12.26 10.76 12.26 11.27 13.47 14.2 5.1 17.72 15.63 20.25 7.63 22.68 12.39 25.72 12.39 25.72 14.39 21.45 14.39 20.69 12.89 17.77 22.1z"/></svg>