<svg width="32" height="32" viewBox="0 0 32 32" xmlns="http://www.w3.org/2000/svg"><g fill="#0052D9" fill-rule="evenodd"><path d="M0 0H2V24H0zM28 0H30V24H28z" transform="translate(1 4)"/><path d="M0 0H6V2H0zM0 22H6V24H0zM24 0H30V2H24zM24 22H30V24H24z" transform="translate(1 4)"/><g transform="translate(4 12)"><path d="M0 0H6V2H0zM8 0H11V2H8zM13 0H17V2H13zM19 0H23V2H19zM19 6H23V8H19zM13 4H17V6H13zM7 4L12 4 12 6 7 6zM2 2H4V8H2z"/><path d="M7 1H9V8H7zM10 1H12V8H10zM16 1H18V5H16zM22 1H24V7H22zM13 0H15V8H13zM19 0H21V8H19z"/><circle cx="23" cy="1" r="1"/><circle cx="17" cy="1" r="1"/><circle cx="11" cy="1" r="1"/><circle cx="8" cy="1" r="1"/><circle cx="17" cy="5" r="1"/><circle cx="23" cy="7" r="1"/></g></g></svg>