<svg width="32" height="32" viewBox="0 0 32 32" xmlns="http://www.w3.org/2000/svg"><g fill="#0052D9" fill-rule="nonzero"><path d="M24.1772575,19 C24.1772575,20.1 23.2742475,21 22.1705686,21 C21.9698997,21 21.7692308,21 21.5685619,20.9 L18.1571906,22.9 L18.1571906,23 C18.1571906,24.1 17.2541806,25 16.1505017,25 C15.0468227,25 14.1438127,24.1 14.1438127,23 L14.1438127,22.9 L10.7324415,20.9 C10.5317726,21 10.3311037,21 10.1304348,21 C9.02675585,21 8.12374582,20.1 8.12374582,19 C8.12374582,18.3 8.52508361,17.6 9.1270903,17.3 L9.1270903,13.7 C8.52508361,13.4 8.12374582,12.7 8.12374582,12 C8.12374582,10.9 9.02675585,10 10.1304348,10 C10.7324415,10 11.2341137,10.2 11.5351171,10.6 L14.1438127,9.1 L14.1438127,9 C14.1438127,7.9 15.0468227,7 16.1505017,7 C17.2541806,7 18.1571906,7.9 18.1571906,9 C18.1571906,9.1 18.1571906,9.1 18.1571906,9.1 L20.7658863,10.6 C21.1672241,10.2 21.6688963,10 22.1705686,10 C23.2742475,10 24.1772575,10.9 24.1772575,12 C24.1772575,12.7 23.7759197,13.4 23.173913,13.7 L23.173913,17.2 C23.7759197,17.6 24.1772575,18.3 24.1772575,19 Z M11.1337793,14.2 L11.1337793,17.3 C11.3344482,17.4 11.5351171,17.6 11.6354515,17.8 L14.2441472,16.1 L11.1337793,14.2 Z M15.1471572,10.7 C15.1471572,10.7 15.0468227,10.7 15.0468227,10.6 L12.0367893,12.4 L15.1471572,14.2 L15.1471572,10.7 Z M15.1471572,17.9 L12.3377926,19.7 L15.0468227,21.3 C15.0468227,21.3 15.1471572,21.3 15.1471572,21.2 L15.1471572,17.9 Z M21.1672241,17.3 L21.1672241,14 L18.0568562,16 L20.7658863,17.6 C20.8662207,17.5 20.9665552,17.4 21.1672241,17.3 Z M17.1538462,21.3 C17.1538462,21.3 17.2541806,21.3 17.2541806,21.4 L20.1638796,19.6 L17.1538462,17.8 L17.1538462,21.3 Z M17.2541806,10.7 C17.2541806,10.7 17.1538462,10.7 17.1538462,10.8 L17.1538462,14.3 L20.0635452,12.4 L17.2541806,10.7 Z"/><path d="M31.7193022,13.0004945 L29.6779284,13.0004945 C28.3047737,6.70988283 22.7024129,2 16,2 C8.2680135,2 2,8.2680135 2,16 C2,23.7319865 8.2680135,30 16,30 C23.0527724,30 28.8874794,24.7848417 29.8581515,18.0004945 L31.8761508,18.0004945 C30.8917351,25.8928783 24.1590649,32 16,32 C7.163444,32 -2.0250468e-13,24.836556 -2.0250468e-13,16 C-2.0250468e-13,7.163444 7.163444,0 16,0 C23.8113418,0 30.3152783,5.59766728 31.7193022,13.0004945 Z"/></g></svg>