<svg width="32" height="32" viewBox="0 0 32 32" xmlns="http://www.w3.org/2000/svg"><g fill="#0052D9" fill-rule="evenodd"><path d="M20,14.294695 L14,17.669695 L14,24.330305 L20,27.705305 L26,24.330305 L26,17.669695 L20,14.294695 Z M20,12 L28,16.5 L28,25.5 L20,30 L12,25.5 L12,16.5 L20,12 Z" fill-rule="nonzero" transform="translate(2 2)"/><path d="M16 18L22.9192982 18 24 20 17.2280702 20z" transform="translate(2 2)"/><path d="M19 19H21V25H19z" transform="translate(2 2)"/><path d="M10.3 26C5.6 25.7 2 24.5 2 23L9.05941988e-14 23C9.05941988e-14 25.5 4.5 27.6 10.3 27.9L10.3 27 10.3 27 10.3 26zM22 9.6L24 10.7 24 5C24 2.2 18.6 0 12 0 5.4 0 0 2.2 0 5L0 23 2 23 2 16.8C3.9 18 6.9 18.8 10.3 19L10.3 17C5.6 16.7 2 15.5 2 14L2 7.8C4.1 9.1 7.8 10 12 10 16.2 10 19.9 9.1 22 7.8L22 9.6zM12 8C6.5 8 2 6.7 2 5 2 3.3 6.5 2 12 2 17.5 2 22 3.3 22 5 22 6.7 17.5 8 12 8z" fill-rule="nonzero" transform="translate(2 2)"/></g></svg>