<svg width="32" height="32" viewBox="0 0 32 32" xmlns="http://www.w3.org/2000/svg"><g fill="none" fill-rule="evenodd"><g transform="rotate(110 15.555 15.812)" fill="#0052D9"><circle cx="28" cy="23" r="2"/><path d="M1.14645216,9.63961191 L2.99781033,10.3962313 C2.34174029,12.0015571 2,13.7261546 2,15.5 C2,22.9558441 8.04415588,29 15.5,29 C19.2521279,29 22.75638,27.4629503 25.2899216,24.7956039 L26.7400392,26.1729779 C23.8327114,29.2338513 19.8061465,31 15.5,31 C6.93958638,31 -2.27373675e-13,24.0604136 -2.27373675e-13,15.5 C-2.27373675e-13,13.4655725 0.392642965,11.4840938 1.14645216,9.63961191 Z M29.3557675,22.454532 L27.5689499,21.5560429 C28.5055507,19.6934328 29,17.6331378 29,15.5 C29,8.04415588 22.9558441,2 15.5,2 C11.2681351,2 7.36204144,3.95876116 4.81955318,7.24186852 L3.23827544,6.017303 C6.15561041,2.25015722 10.642796,-9.09494702e-13 15.5,-9.09494702e-13 C24.0604136,-9.09494702e-13 31,6.93958638 31,15.5 C31,17.9469462 30.4317603,20.3147142 29.3557675,22.454532 Z" fill-rule="nonzero"/><circle cx="2" cy="10" r="2"/></g><g fill-rule="nonzero"><path d="M1.22337843,9.76206196 L7.45952602,8.135198 L12.4707976,2.61312161 C11.2306262,1.58183318 9.66279983,1 8,1 C4.13400675,1 1,4.13400675 1,8 C1,8.60190103 1.07577273,9.1925547 1.22337801,9.76206209 Z" stroke="#0052D9" stroke-width="2" transform="translate(8 8)"/><path d="M13.4257164,5.43513802 L14.8660063,3.89178942 C15.5860493,5.09260403 16,6.49796033 16,8 C16,12.418278 12.418278,16 8,16 C5.24403903,16 2.81356611,14.6064199 1.37481818,12.4854967 L3.48392413,11.9504485 C4.58370519,13.2066731 6.19920688,14 8,14 C11.3137085,14 14,11.3137085 14,8 C14,7.08235737 13.7939979,6.21282912 13.4257164,5.43513802 Z" fill="#0052D9" transform="translate(8 8)"/></g></g></svg>