<svg width="32" height="32" viewBox="0 0 32 32" xmlns="http://www.w3.org/2000/svg"><g fill="#0052D9" fill-rule="evenodd"><path d="M22 24L22 0 0 0 0 30 22 30 22 28 2 28 2 2 20 2 20 24z" transform="translate(5 1)"/><path fill-rule="nonzero" d="M9 22H13V24H9zM8.31764706 16C6.48235294 16 5 14.5333333 5 12.7 5 11.16 6.05882353 9.84 7.61176471 9.47333333 7.96470588 9.4 8.31764706 9.62 8.45882353 9.98666667 8.52941176 10.3533333 8.31764706 10.72 7.96470588 10.7933333 7.04705882 11.0133333 6.41176471 11.7466667 6.41176471 12.7 6.41176471 13.7266667 7.32941176 14.6066667 8.38823529 14.6066667 9.44705882 14.6066667 10.3647059 13.7266667 10.3647059 12.7L10.3647059 8.37333333C10.2941176 6.46666667 11.8470588 5 13.6823529 5 15.5176471 5 17 6.46666667 17 8.3 17 9.84 16.0117647 11.0866667 14.5294118 11.5266667 14.1764706 11.6 13.8235294 11.38 13.6823529 11.0133333 13.6117647 10.6466667 13.8235294 10.28 14.1764706 10.2066667 15.0235294 9.98666667 15.5882353 9.25333333 15.5882353 8.37333333 15.5882353 7.34666667 14.6705882 6.46666667 13.6117647 6.46666667 12.4823529 6.46666667 11.6352941 7.34666667 11.6352941 8.37333333L11.6352941 12.7C11.7058824 14.5333333 10.1529412 16 8.31764706 16z" transform="translate(5 1)"/><path d="M10,12.5 L10,8.5 C10,6.56700338 11.5670034,5 13.5,5 C15.4329966,5 17,6.56700338 17,8.5 C17,10.4329966 15.4329966,12 13.5,12 L13.5,10 C14.3284271,10 15,9.32842712 15,8.5 C15,7.67157288 14.3284271,7 13.5,7 C12.6715729,7 12,7.67157288 12,8.5 L12,12.5 C12,14.4329966 10.4329966,16 8.5,16 C6.56700338,16 5,14.4329966 5,12.5 C5,10.5670034 6.56700338,9 8.5,9 L8.5,11 C7.67157288,11 7,11.6715729 7,12.5 C7,13.3284271 7.67157288,14 8.5,14 C9.32842712,14 10,13.3284271 10,12.5 Z" transform="translate(5 1)"/></g></svg>