<svg width="32" height="32" viewBox="0 0 32 32" xmlns="http://www.w3.org/2000/svg"><g fill="#0052D9" fill-rule="evenodd"><path d="M22,24 L22,0 L0,0 L0,30 L22,30 L22,28 L2,28 L2,2 L20,2 L20,24 L22,24 Z M13,24 L13,22 L9,22 L9,24 L13,24 Z" transform="translate(5 1)" fill-rule="nonzero"/><path d="M12.7307154,4.84529946 L10.7844274,3.72160954 L5,7.62325509 L5,9.56765277 L9.99879847,6.19592063 L10.534563,5.26794919 L12.7307154,6.54053278 L12.7307154,4.84529946 Z M14.7296945,4 L14.7307154,4 L14.7307154,9.44016377 L14.3054633,9.72905899 L14.3015093,9.74793041 L14.2886209,9.74050086 L13.9066396,10 L13.8991821,10 L11.0846198,11.8949257 L11.0872087,11.8964204 L9.23799707,13.1381786 L8.01406531,12.4315413 L6.00862316,11.2736987 L5.08257438,11.8941082 L5.08117439,11.8964204 L4.00302916,12.620551 L4.00046535,12.6190708 L3.99825591,12.620551 L3.99333356,12.6149533 L3.03109293,12.0594034 L3,12.0613973 L3,12.0414519 L0.00117919837,10.3100819 L0.00102091478,10 L-2.27373675e-13,10 L-2.27373675e-13,4.55983623 L0.425252149,4.27094101 L0.429206176,4.25206959 L0.442094519,4.25949914 L0.824075799,4 L0.831533364,4 L3.64609565,2.10507431 L3.64350679,2.10357963 L5.49271838,0.861821358 L6.71665013,1.56845869 L8.70127124,2.71428022 L9.65149958,2.07334311 L9.73625162,2.01617714 L10.6123296,1.42525505 L11.1132973,2.16797018 L11.6023425,2.00054123 L14.7295362,3.68991811 L14.7296945,4 Z M11.0681562,7.88404758 L7.86013791,10.0332702 L9.16117981,10.7844271 L12.3584477,8.62784268 L11.0681562,7.88404758 Z M3,9.73205081 L3,8.03892772 L2,7.45946722 L2,9.15470054 L3,9.73205081 Z M3.66014668,6.11456167 L6.85649362,3.95859844 L5.56953564,3.2155729 L2.37226776,5.37215732 L3.66014668,6.11456167 Z" transform="translate(9 5)"/><path d="M12.7307154,4.84529946 L10.7844274,3.72160954 L5,7.62325509 L5,9.56765277 L9.99879847,6.19592063 L10.534563,5.26794919 L12.7307154,6.54053278 L12.7307154,4.84529946 Z M14.7296945,4 L14.7307154,4 L14.7307154,9.44016377 L14.3054633,9.72905899 L14.3015093,9.74793041 L14.2886209,9.74050086 L13.9066396,10 L13.8991821,10 L11.0846198,11.8949257 L11.0872087,11.8964204 L9.23799707,13.1381786 L8.01406531,12.4315413 L6.00862316,11.2736987 L5.08257438,11.8941082 L5.08117439,11.8964204 L4.00302916,12.620551 L4.00046535,12.6190708 L3.99825591,12.620551 L3.99333356,12.6149533 L3.03109293,12.0594034 L3,12.0613973 L3,12.0414519 L0.00117919837,10.3100819 L0.00102091478,10 L-2.27373675e-13,10 L-2.27373675e-13,4.55983623 L0.425252149,4.27094101 L0.429206176,4.25206959 L0.442094519,4.25949914 L0.824075799,4 L0.831533364,4 L3.64609565,2.10507431 L3.64350679,2.10357963 L5.49271838,0.861821358 L6.71665013,1.56845869 L8.70127124,2.71428022 L9.65149958,2.07334311 L9.73625162,2.01617714 L10.6123296,1.42525505 L11.1132973,2.16797018 L11.6023425,2.00054123 L14.7295362,3.68991811 L14.7296945,4 Z M11.0681562,7.88404758 L7.86013791,10.0332702 L9.16117981,10.7844271 L12.3584477,8.62784268 L11.0681562,7.88404758 Z M3,9.73205081 L3,8.03892772 L2,7.45946722 L2,9.15470054 L3,9.73205081 Z M3.66014668,6.11456167 L6.85649362,3.95859844 L5.56953564,3.2155729 L2.37226776,5.37215732 L3.66014668,6.11456167 Z" transform="rotate(180 11.865 9.5)"/></g></svg>