<svg width="32" height="32" viewBox="0 0 32 32" xmlns="http://www.w3.org/2000/svg"><g fill="#0052D9" fill-rule="evenodd"><g transform="translate(1 3)" fill-rule="nonzero"><path d="M2 1H29V3H2zM1 23H29V25H1z"/><path d="M1 8H3V25H1zM27 1H29V18H27z"/><circle cx="2" cy="2" r="2"/><circle cx="28" cy="24" r="2"/></g><path d="M6 11H14V13H6zM6 15H13V17H6zM6 19H14V21H6z"/><path d="M5.66666667,-1.77635684e-14 C2.53705308,-1.77635684e-14 1.77635684e-14,2.53705308 1.77635684e-14,5.66666667 L0.00522313633,5.91117951 C0.0850803901,7.77788285 1.0753322,9.45567202 2.6096408,10.4390067 L2.666,10.474 L2.66694191,12.6666667 L8.66694606,12.6666667 L8.666,10.473 L8.72270328,10.4396415 C10.3242738,9.41366739 11.3333333,7.63109994 11.3333333,5.66666667 C11.3333333,2.53705308 8.79628025,-1.77635684e-14 5.66666667,-1.77635684e-14 Z M5.66666667,2 C7.69171075,2 9.33333333,3.64162258 9.33333333,5.66666667 C9.33333333,7.0972286 8.50711384,8.37807747 7.23718366,8.98117082 L6.6659922,9.25243122 L6.666,10.666 L4.666,10.666 L4.66600199,9.25195993 L4.0953739,8.98080229 C2.82586108,8.37754053 2,7.09692042 2,5.66666667 C2,3.64162258 3.64162258,2 5.66666667,2 Z" fill-rule="nonzero" transform="translate(14.667 10)"/><path d="M3.633 6H7.633V8H3.633z" transform="translate(14.667 10)"/><path d="M4.633 7H6.633V9H4.633z" transform="translate(14.667 10)"/></g></svg>