<svg width="32" height="32" viewBox="0 0 32 32" xmlns="http://www.w3.org/2000/svg"><g transform="translate(2 1)" fill="none" fill-rule="evenodd"><path d="M23.6244598,24.2131466 C23.6999045,24.141756 23.7708666,24.027018 23.8447089,23.9539813 C23.9378011,23.8619047 24.0296083,23.7685316 24.1201011,23.6738913 C24.2524937,23.535431 24.382073,23.3942584 24.5087475,23.2504651 C24.6916855,23.0428049 24.8685651,22.8296791 25.0391097,22.6113642 C25.107205,22.5241952 25.1742903,22.4361989 25.2403481,22.3473929 C26.9740779,20.0166218 28,17.1281194 28,14 C28,6.2680135 21.7319865,1.77635684e-15 14,1.77635684e-15 C6.2680135,1.77635684e-15 0,6.2680135 0,14" stroke="#0052D9" stroke-width="2"/><path d="M.081742599 13.1217268C.0277685297 13.5736236 0 14.0335689 0 14.5 0 20.8512746 5.14872538 26 11.5 26 17.8512746 26 23 20.8512746 23 14.5M23 14.5C23 14.0098777 22.9529864 13.530736 22.8632229 13.0668386 22.1943741 9.61023271 19.1520133 7 15.5 7 13.8154524 7 12.260618 7.55536832 11.0086047 8.49299709" stroke="#0052D9" stroke-width="2"/><path d="M11,14.5 C11,12.5670034 9.43299662,11 7.5,11 C5.56700338,11 4,12.5670034 4,14.5 C4,16.4329966 5.56700338,18 7.5,18" stroke="#0052D9" stroke-width="2"/><path fill="#0052D9" d="M7 17H15V19H7z"/><path d="M10,15 C10.5522847,15 11,14.5522847 11,14" stroke="#0052D9" stroke-width="2"/><circle fill="#0052D9" cx="15" cy="18" r="2"/><circle fill="#0052D9" cx="28" cy="29" r="2"/><path fill="#0052D9" transform="rotate(-45 25.46 26.607)" d="M24.459 22.607H26.459V30.607H24.459z"/></g></svg>