<svg width="32" height="32" viewBox="0 0 32 32" xmlns="http://www.w3.org/2000/svg"><path d="M30.285,28 L31,30 L25,30 L20,16 L26,16 L29.57,26 L27.447,26 L24.59,18 L22.838,18 L26.409,28 L30.285,28 Z M19,16 L22.0801264,24.403757 L20,30 L14,30 L19,16 Z M14,2 C20.4842105,2 25.810157,4.12348415 25.9950365,6.85319424 L26,7 L26,13.7481197 L24,13.7481197 L24,9.8 C21.9,11.1 18.2,12 14,12 C9.95,12 6.36492347,11.1631378 4.23107234,9.93773233 L4,9.8 L4,16 C4,17.4659091 7.43822314,18.6452996 11.9812793,18.9781579 L12.3,19 L16.1882442,19 L15.3251746,21 L12,21 L11.999,20.979 L11.8379595,20.9689553 C8.77516887,20.7373463 6.07078671,20.0153741 4.25400674,18.9542369 L4,18.8 L4,25 L4.00554916,25.1018008 C4.16051489,26.5203066 7.54387561,27.6530405 11.9812793,27.9781579 L12.3,28 L13.2753594,28 L12.5210445,29.9 L12.1258253,29.9 L12.126,29.889 L11.9668497,29.8807052 C6.43914144,29.5261735 2.17025205,27.5323324 2.00496985,25.143777 L2,25 L2,7 C2,4.2 7.4,2 14,2 Z M20.1503916,19.1444095 L16.8381264,28 L18.6101264,28 L21.0743916,21.6654095 L20.1503916,19.1444095 Z M14,4 C8.5,4 4,5.3 4,7 C4,8.7 8.5,10 14,10 C19.5,10 24,8.7 24,7 C24,5.3 19.5,4 14,4 Z" fill="#0052D9" fill-rule="nonzero"/></svg>