<svg width="32" height="32" viewBox="0 0 32 32" xmlns="http://www.w3.org/2000/svg"><g fill="#0052D9" fill-rule="evenodd"><path d="M20,26 L20,25 L14,25 L14,14 L28,14 L28,25 L22,25 L22,26 L25,26 L25,28 L17,28 L17,26 L20,26 Z M16,22 L16,23 L26,23 L26,22 L16,22 Z M16,16 L16,20 L26,20 L26,16 L16,16 Z" transform="translate(2 2)"/><path d="M2 16.8C3.8 18 6.8 18.8 10.2 19 10.3 18.3 10.5 17.7 10.8 17 5.8 16.8 2 15.5 2 14L2 7.8C4.1 9.1 7.8 10 12 10 16.2 10 19.9 9.1 22 7.8L22 10.1C22.7 10.2 23.4 10.3 24 10.5L24 5C24 2.2 18.6 0 12 0 5.4 0 0 2.2 0 5L0 23 2 23 2 16.8zM12 2C17.5 2 22 3.3 22 5 22 6.7 17.5 8 12 8 6.5 8 2 6.7 2 5 2 3.3 6.5 2 12 2zM2 23L0 23C0 25.8 5.4 28 12 28 12.2 28 12.3 28 12.5 28 12 27.4 11.6 26.7 11.2 26 6.1 25.9 2 24.6 2 23z" transform="translate(2 2)"/></g></svg>