<svg width="32" height="32" viewBox="0 0 32 32" xmlns="http://www.w3.org/2000/svg"><path d="M22,14 L30,18.5 L30,27.5 L22,32 L14,27.5 L14,18.5 L22,14 Z M14,2 C20.6,2 26,4.2 26,7 L26,7 L26,12.7 L24,11.6 L24,9.8 C21.9,11.1 18.2,12 14,12 C9.8,12 6.1,11.1 4,9.8 L4,9.8 L4,16 C4,17.5 7.6,18.7 12.3,19 L12.3,19 L12.3,21 C8.9,20.8 5.9,20 4,18.8 L4,18.8 L4,25 L4.00554916,25.1018008 C4.16420455,26.5540806 7.70681818,27.7068182 12.3,28 L12.3,28 L12.3,29.9 C6.5,29.6 2,27.5 2,25 L2,25 L2,7 C2,4.2 7.4,2 14,2 Z M22,16.2 L17.029,19.017 L19.1,20.2 C18.75,20.6375 18.4,21.1515625 18.1839844,21.7421875 L18.1,22 L16,20.8 L16,25.198 L18.2,24 C18.375,24.525 18.6265625,25.05 19.0216797,25.5080078 L19.2,25.7 L17.073,26.908 L22,29.7 L26.9,26.9 L24.8,25.7 C25.3,25.3 25.6,24.7 25.8,24 L25.8,24 L27.9,25.2 L27.9,20.7 L25.8,21.9 C25.6,21.3 25.3,20.7 24.8,20.2 L24.8,20.2 L26.9,19 L22,16.2 Z M22,21 C23.1045695,21 24,21.8954305 24,23 C24,24.1045695 23.1045695,25 22,25 C20.8954305,25 20,24.1045695 20,23 C20,21.8954305 20.8954305,21 22,21 Z M14,4 C8.5,4 4,5.3 4,7 C4,8.7 8.5,10 14,10 C19.5,10 24,8.7 24,7 C24,5.3 19.5,4 14,4 Z" fill="#0052D9" fill-rule="nonzero"/></svg>