<svg width="32" height="32" viewBox="0 0 32 32" xmlns="http://www.w3.org/2000/svg"><path d="M26.8319245,11.8650607 L27.8415763,6 L23.5857404,6 C22.6176954,6 21.8391842,5.15416123 22.0272855,4.18349363 L22.4495968,2 L16.6245185,2 L26.8319245,11.8650607 Z M26.6365482,13 L20.1026555,13 L17.948123,25 L24.5707858,25 L26.6365482,13 Z M11.4836681,25 L13.6357356,13 L9.56698082,13 L5.15362011,8.24335271 L2.26891016,25 L11.4836681,25 Z M5.36766722,7 L14.5116206,7 L15.4101165,2 L6.22843307,2 L5.36766722,7 Z M24.3354031,2.7820555 L24.0998394,4 L25.6677279,4 L24.3354031,2.7820555 Z M24.256294,0 L30,5.25060786 L26.3356575,26.5367487 C26.28943,26.8045899 26.0621655,27 25.7965447,27 L0.547576753,27 C0.207242305,27 -0.0506322554,26.6853218 0.00846399797,26.3419784 L4.46354688,0.46337926 C4.50964945,0.195282174 4.73703884,0 5.00265964,0 L24.256294,0 Z M16.8953078,5.04310771 L16.1842575,9 L8.58393355,9 L10.4395938,11 L16.0263215,11 L13.5155761,25 L15.9161425,25 L18.4297637,11 L20.1026555,11 L23.05913,11.000202 L16.8953078,5.04310771 Z" transform="translate(1 3)" fill="#0052D9" fill-rule="nonzero"/></svg>