<svg xmlns="http://www.w3.org/2000/svg" width="32" height="32" viewBox="0 0 32 32"><g fill="#0052D9"><path d="M30 2L6 2 2 6 2 26 6 30 26 30 30 26 30 7 28 7 28 25 25 28 7 28 4 25 4 7 7 4 30 4z"/><circle cx="22.803" cy="12.537" r="1.5"/><circle cx="9.206" cy="19.468" r="1.5"/><path d="M16.024,24.559l7.785-4.524l-0.003-4.355l-6.435-3.715l-6.35,3.678l-0.823-0.475l0.024-2.042 l5.784-3.358l3.369,1.945c0.107-0.318,0.249-0.624,0.422-0.911c0.171-0.293,0.387-0.558,0.639-0.786l-4.46-2.575l-7.785,4.524 l0.003,4.355l6.435,3.715l6.35-3.678l0.866,0.5l-0.024,2.042l-5.784,3.358l-3.464-2c-0.026,0.345-0.135,0.678-0.318,0.971 c-0.175,0.292-0.393,0.555-0.647,0.781L16.024,24.559z M14.633,17.728l-1.611-0.93l4.345-2.526l1.611,0.93L14.633,17.728z"/></g></svg>