<svg width="32" height="32" viewBox="0 0 32 32" xmlns="http://www.w3.org/2000/svg"><path d="M26,14 L26,29 L24,29 L24,14 L26,14 Z M22,14 L22,29 L20,29 L20,14 L22,14 Z M18,14 L18,29 L16,29 L16,14 L18,14 Z M14,27 L14,29 L12,29 L12,27 L14,27 Z M12,-2.13162821e-14 C18.4842105,-2.13162821e-14 23.810157,2.12348415 23.9950365,4.85319424 L24,5 L24,11.7481197 L22,11.7481197 L22,7.8 C19.9,9.1 16.2,10 12,10 C7.95,10 4.36492347,9.16313776 2.23107234,7.93773233 L2,7.8 L2,14 C2,15.4659091 5.43822314,16.6452996 9.98127935,16.9781579 L10.3,17 L10.3,19 C7.04782609,18.8086957 4.16162571,18.068431 2.25400674,16.9542369 L2,16.8 L2,23 L2.00554916,23.1018008 C2.16051489,24.5203066 5.54387561,25.6530405 9.98127935,25.9781579 L10.3,26 L10.3,27.9 C4.61153846,27.6057692 0.173557692,25.5801036 0.00496984524,23.143777 L9.05941988e-14,23 L0,5 C0,2.2 5.4,-2.13162821e-14 12,-2.13162821e-14 Z M14,14 L14,26 L12,26 L12,14 L14,14 Z M30,19 L30,24 L28,24 L28,19 L30,19 Z M12,2 C6.5,2 2,3.3 2,5 C2,6.7 6.5,8 12,8 C17.5,8 22,6.7 22,5 C22,3.3 17.5,2 12,2 Z" transform="translate(2 2)" fill="#0052D9" fill-rule="nonzero"/></svg>