<svg width="32" height="32" viewBox="0 0 32 32" xmlns="http://www.w3.org/2000/svg"><g fill="#0052D9" fill-rule="evenodd"><path d="M10.3,26 C5.6,25.7 2,24.5 2,23 L9.05941988e-14,23 C9.05941988e-14,25.5 4.5,27.6 10.3,27.9 L10.3,27 L10.3,27 L10.3,26 Z" fill-rule="nonzero" transform="translate(2 2)"/><path d="M12,0 C18.6,0 24,2.2 24,5 L24,5 L24,11.7481197 L22,11.7481197 L22,7.8 C19.9,9.1 16.2,10 12,10 C7.8,10 4.1,9.1 2,7.8 L2,7.8 L2,14 C2,15.5 5.6,16.7 10.3,17 L10.3,17 L10.3,19 C6.9,18.8 3.9,18 2,16.8 L2,16.8 L2,23 L0,23 L0,5 C0,2.2 5.4,0 12,0 Z M12,2 C6.5,2 2,3.3 2,5 C2,6.7 6.5,8 12,8 C17.5,8 22,6.7 22,5 C22,3.3 17.5,2 12,2 Z" transform="translate(2 2)"/><path d="M28,14 L28,28 L13,28 L13,17.1580212 L17.1729743,14 L28,14 Z M26,16 L17.843,16 L15,18.151 L15,26 L26,26 L26,16 Z M24.023665,20.4645734 L24.023665,22.7265734 L20.4884661,24.6014603 L16.981665,22.7415734 L16.981665,20.4795734 L20.488,22.338 L24.023665,20.4645734 Z M20.5060757,17.4348162 L24.0416096,19.3036834 L20.5060757,21.1725507 L16.9705418,19.3036834 L20.5060757,17.4348162 Z" fill-rule="nonzero" transform="translate(2 2)"/></g></svg>