<svg width="32" height="32" viewBox="0 0 32 32" xmlns="http://www.w3.org/2000/svg"><path d="M17.3232144,10.1731683 L17.3194289,15.2962544 L21.8964666,17.9128158 C21.5646392,18.3374547 21.2423659,19.2245029 21.1497804,19.779907 L16.3500879,17.0810702 L11.3692525,19.779907 C11.2753292,19.2250707 10.9774987,18.3365825 10.6447769,17.9128158 L15.2475283,15.3022715 L15.2311194,10.1721322 C15.4939466,10.2401632 15.9827875,10.2773874 16.2666667,10.2773874 C16.5505458,10.2773874 17.0603873,10.2411994 17.3232144,10.1731683 Z M9.16041738,16.9888402 C8.89759026,16.9208711 8.32832357,16.8847234 8.04444444,16.8847234 C7.76056532,16.8847234 7.48504934,16.9208711 7.22222222,16.9888402 L7.22222222,11.1033044 L13.1034956,7.88092155 C13.2584325,8.42645925 13.843319,8.91450084 14.2313043,9.30552022 L9.16041738,12.0838877 L9.16041738,16.9888402 Z M11.2117731,20.968768 L16.3304037,23.7732945 L21.4490343,20.968768 C21.6363875,21.5039313 21.8933841,22.2910986 22.3073561,22.6600827 L16.2666667,25.9698104 L10.2259772,22.6600827 C10.6399492,22.2910986 11.0244199,21.5039313 11.2117731,20.968768 Z M23.3254604,17.1518589 L23.3254604,12.2469064 L18.2545735,9.46853888 C18.6425588,9.07751951 19.2749009,8.42645925 19.4298377,7.88092155 L25.3111111,11.1033044 L25.3111111,16.9888402 C25.048284,16.9208711 24.772768,16.8847234 24.4888889,16.8847234 C24.2050098,16.8847234 23.5882875,17.0838897 23.3254604,17.1518589 Z M9.68888889,20.1333333 C9.68888889,21.0410667 8.95217778,21.7777778 8.04444444,21.7777778 C7.13671111,21.7777778 6.4,21.0410667 6.4,20.1333333 C6.4,19.2247778 7.13671111,18.4888889 8.04444444,18.4888889 C8.95217778,18.4888889 9.68888889,19.2247778 9.68888889,20.1333333 Z M26.1333333,20.1333333 C26.1333333,21.0410667 25.3966222,21.7777778 24.4888889,21.7777778 C23.5811556,21.7777778 22.8444444,21.0410667 22.8444444,20.1333333 C22.8444444,19.2247778 23.5811556,18.4888889 24.4888889,18.4888889 C25.3966222,18.4888889 26.1333333,19.2247778 26.1333333,20.1333333 Z M17.9111111,6.97777778 C17.9111111,7.88551111 17.1744,8.62222222 16.2666667,8.62222222 C15.3589333,8.62222222 14.6222222,7.88551111 14.6222222,6.97777778 C14.6222222,6.06922222 15.3589333,5.33333333 16.2666667,5.33333333 C17.1744,5.33333333 17.9111111,6.06922222 17.9111111,6.97777778 Z M3,16.0743669 C3,22.6045826 7.772,27.999196 14,28.9679753 L14,30.998995 C6.664,30.0141364 1,23.7160659 1,16.0743669 C1,7.74929653 7.716,1 16,1 C24.284,1 31,7.74929653 31,16.0743669 C31,23.7160659 25.336,30.0141364 18,31 L18,28.9689803 C24.228,27.999196 29,22.6045826 29,16.0743669 C29,8.85876993 23.18,3.00991558 16,3.00991558 C8.82,3.00991558 3,8.85876993 3,16.0743669 Z" fill="#0052D9" fill-rule="nonzero"/></svg>