<svg width="32" height="32" viewBox="0 0 32 32" xmlns="http://www.w3.org/2000/svg"><path d="M18,9 L18,12 L20,12 L20,9 L18,9 Z M20,23 L20,20 L18,20 L18,23 L20,23 Z M17,24 L17,20 L15,20 L15,24 L17,24 Z M17,13 L15,13 L15,19 L17,19 L17,13 Z M4.7,6 L28,6 L28,21 L30,21 L30,4 L4.7,4 C4.4,3.4 3.7,3 3,3 C1.9,3 1,3.9 1,5 C1,6.1 1.9,7 3,7 C3.7,7 4.4,6.6 4.7,6 Z M20,13 L18,13 L18,19 L20,19 L20,13 Z M23,20 L23,12 L21,12 L21,20 L23,20 Z M14,9 L12,9 L12,13 L14,13 L14,9 Z M11,20 L11,12 L9,12 L9,20 L11,20 Z M29,25 C28.3,25 27.6,25.4 27.3,26 L4,26 L4,11 L2,11 L2,28 L27.3,28 C27.6,28.6 28.3,29 29,29 C30.1,29 31,28.1 31,27 C31,25.9 30.1,25 29,25 Z M14,14 L12,14 L12,18 L14,18 L14,14 Z M15,8 L15,12 L17,12 L17,8 L15,8 Z M12,23 L14,23 L14,19 L12,19 L12,23 Z" fill="#0052D9" fill-rule="evenodd"/></svg>