<svg width="32" height="32" viewBox="0 0 32 32" xmlns="http://www.w3.org/2000/svg" xmlns:xlink="http://www.w3.org/1999/xlink"><defs><path d="M1.0001 3.1498L31 3.1498 31 28.8498 1.0001 28.8498z"/></defs><g fill="none" fill-rule="evenodd"><mask fill="#0052D9"><use xlink:href="#a"/></mask><path d="M16.0001 22.9998C14.7521 22.9998 13.5841 22.6698 12.5691 22.0988L11.5891 23.8408C12.8941 24.5758 14.3961 24.9998 16.0001 24.9998 17.6041 24.9998 19.1061 24.5758 20.4101 23.8408L19.4301 22.0988C18.4161 22.6698 17.2471 22.9998 16.0001 22.9998zM11.5891 8.1588L12.5691 9.9018C13.5841 9.3298 14.7521 8.9998 16.0001 8.9998 17.2471 8.9998 18.4161 9.3298 19.4301 9.9018L20.4101 8.1588C19.1061 7.4248 17.6041 6.9998 16.0001 6.9998 14.3961 6.9998 12.8941 7.4248 11.5891 8.1588zM15 19L17 19 17 13 15 13z" fill="#0052D9" mask="url(#b)"/><path d="M23,15 L20,15 L20,17 L23,17 L23,19 L19,19 C17.8954305,19 18,19.1045695 18,18 L18,14 C18,12.8954305 17.8954305,13 19,13 L23,13 L23,15 Z" fill="#0052D9" fill-rule="nonzero" mask="url(#b)"/><path fill="#0052D9" mask="url(#b)" d="M10 19L12 19 12 13 10 13z"/><path fill="#0052D9" fill-rule="nonzero" mask="url(#b)" d="M8 13H14V15H8z"/><path d="M23.7091 3.1498L22.6821 4.8638C26.4621 7.1378 29.0001 11.2678 29.0001 15.9998 29.0001 20.7328 26.4621 24.8618 22.6821 27.1368L23.7091 28.8498C28.0721 26.2268 31.0001 21.4608 31.0001 15.9998 31.0001 10.5388 28.0721 5.7738 23.7091 3.1498zM3.0001 15.9998C3.0001 11.2678 5.5371 7.1378 9.3181 4.8638L8.2901 3.1498C3.9281 5.7738 1.0001 10.5388 1.0001 15.9998 1.0001 21.4608 3.9281 26.2268 8.2901 28.8498L9.3181 27.1368C5.5371 24.8628 3.0001 20.7328 3.0001 15.9998z" fill="#0052D9" mask="url(#b)"/></g></svg>