<svg width="32" height="32" viewBox="0 0 32 32" xmlns="http://www.w3.org/2000/svg"><g fill="#0052D9" fill-rule="evenodd"><path d="M2,23 C2,24.6 6.1,25.9 11.2,26 C11.6,26.7 12,27.4 12.5,28 C12.3,28 12.2,28 12,28 C5.4,28 0,25.8 0,23 L0,5 C0,2.2 5.4,-1.13686838e-13 12,-1.13686838e-13 C18.6,-1.13686838e-13 24,2.2 24,5 L24,10.5 C23.4,10.3 22.7,10.2 22,10.1 L22,7.8 C19.9,9.1 16.2,10 12,10 C7.8,10 4.1,9.1 2,7.8 L2,14 C2,15.5 5.8,16.8 10.8,17 C10.5,17.7 10.3,18.3 10.2,19 C6.8,18.8 3.8,18 2,16.8 L2,23 Z M12,2 C6.5,2 2,3.3 2,5 C2,6.7 6.5,8 12,8 C17.5,8 22,6.7 22,5 C22,3.3 17.5,2 12,2 Z" transform="translate(2 2)"/><g transform="translate(15 14)"><circle cx="8.25" cy="6.25" r="1.25"/><path d="M1.029427,3.47254462 L0,1.85600117 C2.62200421,0.214465443 5.05358282,-0.354916204 7.26663543,0.214716286 C9.44769143,0.776112958 11.0263279,1.94522307 11.9055189,3.65674393 C13.5973034,6.53643747 13.9894107,10.1045932 13.1150021,14.3237383 C12.7161997,16.2480161 10.3646454,16.7870058 9.08032099,15.6330477 C8.40619316,15.0273477 8.10306786,14.1010794 8.10306786,12.9062685 L10.0312243,12.9062685 C10.0312243,13.6113811 10.1684602,14.0307365 10.3750547,14.2163605 C10.6188144,14.4353772 11.148585,14.3139508 11.2263101,13.9389163 C12.0114214,10.1506433 11.6714046,7.05650834 10.2137414,4.57239265 C9.57141672,3.32435376 8.4513355,2.49484149 6.78215161,2.06519902 C5.14496432,1.64379238 3.23675625,2.09062089 1.029427,3.47254462 Z" fill-rule="nonzero"/><path d="M4.91412596.650869046L6.11415414 2.14729257C6.07610345 2.17729167 5.98849124 2.25408284 5.86793853 2.3739055 5.65817476 2.58239897 5.44679261 2.82725999 5.24987115 3.10394169 3.98014302 4.88795511 3.92741784 6.88598047 5.94752104 9.20464149L4.48840546 10.4544249C1.84661361 7.42219383 1.92478117 4.46002724 3.67449022 2.00162347 4.12773013 1.36480518 4.58477166.910531428 4.91412596.650869046zM.703128738 14.2254959L0 12.4453266 4.35979454 10.7523602 4.35979454 14.072071 5.99142604 14.072071 5.99142604 10.2012651 6.78283151 10.0584103C9.44688313 9.57752812 11.7184916 8.99897052 13.5952936 8.32536072L14.501809 8 15.1580914 9.79766837 14.251576 10.1230291C12.4575067 10.766945 10.3474226 11.3224606 7.91958249 11.791509L7.91958249 15.9838895 2.4316381 15.9838895 2.4316381 13.5542927.703128738 14.2254959z" fill-rule="nonzero"/></g></g></svg>