<svg width="32" height="32" viewBox="0 0 32 32" xmlns="http://www.w3.org/2000/svg"><g transform="translate(1 3)" fill="#0052D9" fill-rule="evenodd"><path fill-rule="nonzero" d="M4 8H10V10H4zM20 8H26V10H20z"/><path fill-rule="nonzero" transform="rotate(90 7 13)" d="M2 12H12V14H2z"/><path fill-rule="nonzero" transform="rotate(90 23 13)" d="M18 12H28V14H18z"/><path fill-rule="nonzero" transform="rotate(90 12 13)" d="M7 12H17V14H7z"/><path fill-rule="nonzero" transform="rotate(90 18 13)" d="M13 12H23V14H13z"/><path d="M18,8 L18.8574611,8.51454884 L14.9994587,14.9436506 L11.1424752,8.51444267 L12,8 L13.1661471,8 L14.9996993,11.0563494 L16.8337663,8 L18,8 Z" fill-rule="nonzero"/><path d="M1 8H3V25H1zM2 1H29V3H2z"/><path d="M1 23H29V25H1zM27 1H29V18H27z"/><circle cx="2" cy="2" r="2"/><circle cx="28" cy="24" r="2"/></g></svg>