<svg xmlns="http://www.w3.org/2000/svg" width="32" height="32" viewBox="0 0 32 32"><path fill="none" d="M0 0H32V32H0z"/><g fill="#0052D9"><path d="M16,0c7.8,0,14.3,5.6,15.7,13l-2,0C28.3,6.7,22.7,2,16,2C8.3,2,2,8.3,2,16s6.3,14,14,14 c7.1,0,12.9-5.2,13.9-12l2,0c-1,7.9-7.7,14-15.9,14C7.2,32,0,24.8,0,16S7.2,0,16,0z"/><path d="M16,17v7H9v-7H16z M25,17v7h-7v-7H25z M14,19h-3v3h3V19z M23,19h-3v3h3V19z M16,7v8H9V7H16 z M14,9h-3v4h3V9z"/></g><g><path fill="#0052D9" d="M20,10.2l2.4,2.8H20V10.2 M19.9,7H18v8h7v-2L19.9,7L19.9,7z"/></g></svg>