<svg xmlns="http://www.w3.org/2000/svg" width="32" height="32" viewBox="0 0 32 32"><path fill-rule="evenodd" clip-rule="evenodd" fill="#0052D9" d="M28 6H4.7C4.4 6.6 3.7 7 3 7 1.9 7 1 6.1 1 5s.9-2 2-2c.7 0 1.4.4 1.7 1H30v2 15h-2V6zM4 26h23.3c.3-.6 1-1 1.7-1 1.1 0 2 .9 2 2s-.9 2-2 2c-.7 0-1.4-.4-1.7-1H2v-2V11h2V26z"/><path fill="#0052D9" d="M20 20.7L20 21 19.8 21 12.9 21 10 21 10 11 18.7 11 19.8 9 8 9 8 23 22 23 22 17.3z"/><path fill="#0052D9" d="M22.2 9L17.5 17 12 17 12 19 18.7 19 24.5 9z"/></svg>