<svg width="32" height="32" viewBox="0 0 32 32" xmlns="http://www.w3.org/2000/svg"><g fill="#0052D9" fill-rule="nonzero"><path d="M12.9,9.1 C12.6,6.4 11,4.1 8.1,1.1 L7,0 C7,0 5.2,1.8 5.1,1.9 C4.2,3 3,4.2 2,5.9 C1.5,6.9 1,8.3 1,9.1 C0.7,12.1 2.1,13.9 5.9,15 L5.9,17 L7.9,17 L7.9,15 C11.7,13.9 13.2,12.1 12.9,9.1 Z M6,13 C4.6,12.6 2.7,12.6 3,9 C3,7.5 4.5,4.7 6.1,3.4 L6,13 Z M8,13.1 L8,3.3 C10.3,5.8 10.8,7.2 11,9.1 C11.3,11.3 10.6,12.2 8,13.1 Z" transform="translate(17 13)"/><path d="M12 0C5.4 0 0 2.2 0 5L0 23 2 23 2 16.8C4.1 18.1 7.8 19 12 19 12.8 19 13.6 19 14.4 18.9 14.6 18.2 14.8 17.5 15.1 16.9 14.1 17 13.1 17.1 12 17.1 6.5 17.1 2 15.8 2 14.1L2 7.8C4.1 9.1 7.8 10 12 10 16.2 10 19.9 9.1 22 7.8L22 9 24 9 24 5C24 2.2 18.6 0 12 0zM12 8C6.5 8 2 6.7 2 5 2 3.3 6.5 2 12 2 17.5 2 22 3.3 22 5 22 6.7 17.5 8 12 8zM14.9 25.9C14 26 13 26 12 26 6.5 26 2 24.7 2 23L0 23C0 25.8 5.4 28 12 28 13.5 28 15 27.9 16.4 27.7 15.8 27.2 15.3 26.6 14.9 25.9z" transform="translate(2 2)"/></g></svg>