<svg width="32" height="32" viewBox="0 0 32 32" xmlns="http://www.w3.org/2000/svg"><g fill="#0052D9" fill-rule="evenodd"><path d="M10.3,26 C5.6,25.7 2,24.5 2,23 L9.05941988e-14,23 C9.05941988e-14,25.5 4.5,27.6 10.3,27.9 L10.3,27 L10.3,26 Z" fill-rule="nonzero" transform="translate(2 2)"/><path d="M24,9 L24,13 L22,13 L22,9 L22,7.8 C19.9,9.1 16.2,10 12,10 C7.8,10 4.1,9.1 2,7.8 L2,14 C2,15.5 5.6,16.7 10.3,17 L10.3,19 C6.9,18.8 3.9,18 2,16.8 L2,23 L0,23 L0,5 C0,2.2 5.4,0 12,0 C18.6,0 24,2.2 24,5 L24,9 Z M12,8 C17.5,8 22,6.7 22,5 C22,3.3 17.5,2 12,2 C6.5,2 2,3.3 2,5 C2,6.7 6.5,8 12,8 Z" transform="translate(2 2)"/><g><path d="M0 0H14V2H0zM0 10H15V12H0z" transform="translate(15 18)"/><path d="M13 0H15V7H13zM0 5H2V12H0zM4 4H6V8H4zM9 4H11V5H9zM9 7H11V8H9z" transform="translate(15 18)"/><path d="M3 5H7V7H3zM8 5H9V7H8zM11 5H12V7H11z" transform="translate(15 18)"/></g></g></svg>