<svg width="32" height="32" viewBox="0 0 32 32" xmlns="http://www.w3.org/2000/svg"><g fill="#0052D9" fill-rule="evenodd"><path d="M10.3,26 C5.6,25.7 2,24.5 2,23 L0,23 C0,25.5 4.5,27.6 10.3,27.9 L10.3,27 L10.3,27 L10.3,26 Z" fill-rule="nonzero" transform="translate(1 1)"/><path d="M12,0 C18.6,0 24,2.2 24,5 L24,5 L24,11 L22,11 L22,7.8 C19.9,9.1 16.2,10 12,10 C7.8,10 4.1,9.1 2,7.8 L2,7.8 L2,14 C2,15.5 5.6,16.7 10.3,17 L10.3,17 L10.3,19 C6.9,18.8 3.9,18 2,16.8 L2,16.8 L2,23 L0,23 L0,5 C0,2.2 5.4,0 12,0 Z M12,2 C6.5,2 2,3.3 2,5 C2,6.7 6.5,8 12,8 C17.5,8 22,6.7 22,5 C22,3.3 17.5,2 12,2 Z" transform="translate(1 1)"/><path d="M29 32C30.1045695 32 31 31.1045695 31 30 31 28.8954305 30.1045695 28 29 28 27.8954305 28 27 28.8954305 27 30 27 31.1045695 27.8954305 32 29 32zM24 28C25.1045695 28 26 27.1045695 26 26 26 24.8954305 25.1045695 24 24 24 22.8954305 24 22 24.8954305 22 26 22 27.1045695 22.8954305 28 24 28zM19 22C20.1045695 22 21 21.1045695 21 20 21 18.8954305 20.1045695 18 19 18 17.8954305 18 17 18.8954305 17 20 17 21.1045695 17.8954305 22 19 22zM14 18C15.1045695 18 16 17.1045695 16 16 16 14.8954305 15.1045695 14 14 14 12.8954305 14 12 14.8954305 12 16 12 17.1045695 12.8954305 18 14 18zM21 16C22.1045695 16 23 15.1045695 23 14 23 12.8954305 22.1045695 12 21 12 19.8954305 12 19 12.8954305 19 14 19 15.1045695 19.8954305 16 21 16zM29 14C30.1045695 14 31 13.1045695 31 12 31 10.8954305 30.1045695 10 29 10 27.8954305 10 27 10.8954305 27 12 27 13.1045695 27.8954305 14 29 14z"/><path fill-rule="nonzero" d="M20.0699852 13.6324779L21.9300148 14.3675221 19.9300148 19.4285221 18.0699852 18.6934779z"/><path d="M15 31C16.1045695 31 17 30.1045695 17 29 17 27.8954305 16.1045695 27 15 27 13.8954305 27 13 27.8954305 13 29 13 30.1045695 13.8954305 31 15 31zM27 21C28.1045695 21 29 20.1045695 29 19 29 17.8954305 28.1045695 17 27 17 25.8954305 17 25 17.8954305 25 19 25 20.1045695 25.8954305 21 27 21z"/><path d="M18.0679912 19.7223945L28.5088193 18.4069833 25.624 26.209 29.2071068 29.7928932 27.7928932 31.2071068 23.934 27.349 16.3648151 30.3151132 15.6351849 28.4529532 22.557 25.739 18.0679912 19.7223945zM25.491 20.803L21.724 21.277 24.126 24.496 25.491 20.803zM28.5584264 11.6631928L30.4415736 12.3368072 28.2953334 18.3368072 26.4121861 17.6631928z" fill-rule="nonzero"/><path fill-rule="nonzero" d="M13.7793406 17.194745L15.2743704 15.866255 19.1810937 20.2627256 16.3230141 28.8648648 14.4250328 28.2342563 16.919 20.728z"/></g></svg>