<svg width="33" height="32" viewBox="0 0 33 32" xmlns="http://www.w3.org/2000/svg"><path d="M15.0593249,6.41454351 L13.1680062,7.59029504 L12,6.8593499 L4,11.8657969 L4,20.1342031 L12,25.1406501 L13.1752896,24.405147 L15.0666083,25.5808985 L12,27.5 L2,21.2419413 L2,10.7580587 L12,4.5 L15.0593249,6.41454351 Z M20,4.5 L30,10.7580587 L30,21.2419413 L20,27.5 L10,21.2419413 L10,10.7580587 L20,4.5 Z M20,6.8593499 L12,11.8657969 L12,20.1342031 L20,25.1406501 L28,20.1342031 L28,11.8657969 L20,6.8593499 Z M15,13.4648295 L15,18.5351705 L20,21.6447649 L25,18.5351705 L25,13.4648295 L20,10.3552351 L15,13.4648295 Z M20,8 L27,12.3534321 L27,19.6465679 L20,24 L13,19.6465679 L13,12.3534321 L20,8 Z" fill="#0052D9" fill-rule="nonzero" transform="translate(1)"/></svg>