<svg width="32" height="32" viewBox="0 0 32 32" xmlns="http://www.w3.org/2000/svg"><g fill="none" fill-rule="evenodd"><path d="M16,0 C23.811235,0 30.3151005,5.59751424 31.7192447,13.000191 L29.677892,13.0003278 C28.3046747,6.70979962 22.7023537,2 16,2 C8.2680135,2 2,8.2680135 2,16 C2,23.7319865 8.2680135,30 16,30 C23.052652,30 28.8872801,24.7850199 29.8581018,18.0008423 L31.8761139,18.0007904 C30.8915668,25.8930309 24.1589629,32 16,32 C7.163444,32 2.48689958e-14,24.836556 2.48689958e-14,16 C2.48689958e-14,7.163444 7.163444,0 16,0 Z" fill="#0052D9" fill-rule="nonzero"/><path d="M18,16 L18,17.8447818 L14.3791273,17.8447818 C11.798675,17.8447818 9.63070411,19.6108245 9.01794666,22.0001776 L18,22 L18,24 L7,24 L7,23.2502899 L7.002,23.245 L7.00394424,23.1355508 C7.13245857,19.1729194 10.3852554,16 14.3791273,16 L18,16 Z M23,16 L23,18 L21,18 L21,20 L23,20 L23,16 C24.1045695,16 25,16.8954305 25,18 L25,24 L23,24 L23,22 L21,22 L21,24 L19,24 L19,18 C19,16.9456382 19.8158778,16.0818349 20.8507377,16.0054857 L21,16 L23,16 Z M16,5 C18.7614237,5 21,7.23857625 21,10 C21,12.7614237 18.7614237,15 16,15 C13.2385763,15 11,12.7614237 11,10 C11,7.23857625 13.2385763,5 16,5 Z M16,7 C14.3431458,7 13,8.34314575 13,10 C13,11.6568542 14.3431458,13 16,13 C17.6568542,13 19,11.6568542 19,10 C19,8.34314575 17.6568542,7 16,7 Z" fill="#0052D9"/></g></svg>