<svg width="32" height="32" viewBox="0 0 32 32" xmlns="http://www.w3.org/2000/svg"><g fill="none" fill-rule="evenodd"><path d="M0,23 L0,5 C0,2.2 5.4,0 12,0 C18.6,0 24,2.2 24,5 L24,10.7 L22,9.6 L22,7.8 C19.9,9.1 16.2,10 12,10 C7.8,10 4.1,9.1 2,7.8 L2,14 C2,15.5 5.6,16.7 10.3,17 L10.3,19 C6.9,18.8 3.9,18 2,16.8 L2,23 C2,24.5 5.6,25.7 10.3,26 L10.3,27 L10.3,27.9 C4.5,27.6 9.05941988e-14,25.5 9.05941988e-14,23 Z M12,8 C17.5,8 22,6.7 22,5 C22,3.3 17.5,2 12,2 C6.5,2 2,3.3 2,5 C2,6.7 6.5,8 12,8 Z" transform="translate(2 2)" fill="#0052D9" fill-rule="nonzero"/><path d="M26.6473216,30.5022653 C26.6473216,28.4674218 27.2934089,26.6333333 28.5855835,25 C30.5238454,22.55 30.0392799,15.5 23.2553632,15.5 C18.7327521,15.5 16.6329684,17.8333333 16.956012,22.5 L15.7909488,24.3032598 C15.3720718,24.9515885 15.5580792,25.8167296 16.2064079,26.2356065 C16.2139468,26.2404773 16.2215325,26.2452753 16.2291638,26.25 L17.0685112,26.7696495 C17.3056975,26.9164942 17.4707638,27.155739 17.5238463,27.4296056 L17.768199,28.6902848 C17.8593295,29.160451 18.2710114,29.5 18.7499279,29.5 C19.6056524,29.5 20.4613769,29.5 21.3171013,29.5" stroke="#0052D9" stroke-width="2" stroke-linejoin="round"/><path d="M22,19.6200622 C23,19.4082435 24.0100316,19.4082435 24.7888843,20.1934967 C25.4917487,20.902137 25.6877241,22.1211968 24.9848597,23.5475377" stroke="#0052D9" stroke-width="2" stroke-linecap="round"/></g></svg>