<svg width="32" height="32" viewBox="0 0 32 32" xmlns="http://www.w3.org/2000/svg"><g fill="#0052D9" fill-rule="evenodd"><path d="M2,23 C2,24.6 6.1,25.9 11.2,26 C11.6,26.7 12,27.4 12.5,28 C12.3,28 12.2,28 12,28 C5.4,28 0,25.8 0,23 L0,5 C0,2.2 5.4,-1.13686838e-13 12,-1.13686838e-13 C18.6,-1.13686838e-13 24,2.2 24,5 L24,10.5 C23.4,10.3 22.7,10.2 22,10.1 L22,7.8 C19.9,9.1 16.2,10 12,10 C7.8,10 4.1,9.1 2,7.8 L2,14 C2,15.5 5.8,16.8 10.8,17 C10.5,17.7 10.3,18.3 10.2,19 C6.8,18.8 3.8,18 2,16.8 L2,23 Z M12,2 C6.5,2 2,3.3 2,5 C2,6.7 6.5,8 12,8 C17.5,8 22,6.7 22,5 C22,3.3 17.5,2 12,2 Z" transform="translate(2 2)"/><path d="M20,27 C23.3137085,27 26,24.3137085 26,21 C26,17.6862915 23.3137085,15 20,15 C16.6862915,15 14,17.6862915 14,21 C14,24.3137085 16.6862915,27 20,27 Z M20,29 C15.581722,29 12,25.418278 12,21 C12,16.581722 15.581722,13 20,13 C24.418278,13 28,16.581722 28,21 C28,25.418278 24.418278,29 20,29 Z" fill-rule="nonzero" transform="translate(2 2)"/><path d="M19.3249921,24.5 L17,24.5 L17,23 L21,23 L21,21.8425246 L19,21.8425246 C17.2493416,21.8425246 17,20.6045695 17,19.5 C17,18.3954305 17.8954305,17.5 19,17.5 L19.3249921,17.5 L19.3249921,16.5 L21,16.5 L21,17.5 L23,17.5 L23,19 L19,19 L19,20.374065 L21,20.374065 C22.1045695,20.374065 23,21.3954305 23,22.5 C23,23.6045695 22.1045695,24.5 21,24.5 L21,25.5 L19.3249921,25.5 L19.3249921,24.5 Z" fill-rule="nonzero" transform="translate(2 2)"/></g></svg>