<svg width="32" height="32" viewBox="0 0 32 32" xmlns="http://www.w3.org/2000/svg"><g fill="#0052D9" fill-rule="evenodd"><path d="M4.14 1.1544981L5.14 2.8944981C7.2699511 1.69724081 9.8700489 1.69724081 12 2.8944981L13 1.1544981C10.2614914-.384832701 6.91850856-.384832701 4.18 1.1544981L4.14 1.1544981zM8.57 15.9C7.36837041 15.899372 6.18713433 15.5894266 5.14 15L4.14 16.74C6.87850856 18.2793308 10.2214914 18.2793308 12.96 16.74L11.96 15C10.9246879 15.5828263 9.75806657 15.8925487 8.57 15.9zM0 11L2 11 2 7 0 7zM0 7L6 7 6 5 2 5C.8954305 5-1.3527075e-16 5.8954305 0 7zM2 13L6 13 6 11 0 11 0 11C1.3527075e-16 12.1045695.8954305 13 2 13zM8 13L10 13 10 11 8 11zM8 10L10 10 10 8 8 8z" transform="translate(8 7)"/><path d="M2.94194469,15.86 C2.9463255,11.2945194 5.34529637,7.06595364 9.26194469,4.72 L8.26194469,3.01 C3.75556273,5.72366793 1,10.599632 1,15.86 C1,21.120368 3.75556273,25.9963321 8.26194469,28.71 L9.26194469,27 C5.34529637,24.6540464 2.9463255,20.4254806 2.94194469,15.86 Z M23.6519447,3.01 L22.6519447,4.72 C26.5559052,7.07222177 28.9428632,11.2971655 28.9428632,15.855 C28.9428632,20.4128345 26.5559052,24.6377782 22.6519447,26.99 L23.6519447,28.7 C28.1583266,25.9863321 30.9138894,21.110368 30.9138894,15.85 C30.9138894,10.589632 28.1583266,5.71366793 23.6519447,3 L23.6519447,3.01 Z"/><path fill-rule="nonzero" transform="scale(-1 1) rotate(20 0 -105.742)" d="M20.479 11.571H22.479V20.570999999999998H20.479z"/></g></svg>