<svg width="32" height="32" viewBox="0 0 32 32" xmlns="http://www.w3.org/2000/svg"><g fill="none" fill-rule="evenodd"><path d="M30.0206844,28.1376013 C29.1409886,26.3049017 27.454905,24.5455101 26.7218252,23.8124302 C26.2819773,23.3725823 26.2086693,22.7861185 26.5019012,22.2729626 C26.7951332,21.7598067 27.381597,21.5398827 27.9680609,21.6864987 C28.3346008,21.7598067 28.7011407,21.8331147 29.0676807,21.9064227 C28.0413689,21.3199588 27.0150571,21.1000348 26.2819773,20.8801109 C26.1353613,20.8068029 25.9887454,20.8068029 25.9154374,20.8068029 C25.3289735,20.6601869 24.8158176,20.220339 24.5225857,19.6338752 C24.1560458,18.8274874 23.7895059,18.3876395 22.0301143,16.1884 C20.8571865,14.7222403 18.1447911,13.8425445 17.1917874,13.6226205 L17.0451714,13.6226205 C16.8985554,13.6226205 16.8252474,13.5493126 16.7519395,13.4760046 L16.6786315,13.4026966 C16.3853995,13.1094647 16.0188596,12.9628487 15.7256277,12.7429247 C15.7989357,12.8895407 15.9455516,13.0361567 16.1654756,13.2560806 L16.3120916,13.4026966 C16.8985554,14.0624684 17.1184794,14.9421642 17.2650953,15.7485521 C17.3384033,15.968476 17.3384033,16.1884 17.4117113,16.3350159 C17.4850193,16.5549399 17.7049432,16.9947878 18.1447911,17.5812516 C18.4380231,18.0210995 18.5113311,18.4609474 18.4380231,18.9741033 C18.2180991,19.7804911 18.1447911,20.586879 18.1447911,21.2466508 C18.1447911,21.2466508 18.1447911,21.2466508 18.1447911,21.2466508 C18.4380231,20.9534189 18.804563,20.8068029 19.2444109,20.8801109 C20.0507987,20.9534189 20.3440306,21.5398827 21.0038025,22.6395025 C21.7368823,23.8857382 22.9098101,26.0116697 24.3759697,26.6714416 L23.7161979,27.9909853 C21.8834983,27.1112895 20.4906466,24.765434 19.7575668,23.3725823 C19.5376428,22.9327344 19.3177189,22.5661945 19.1711029,22.3462706 C19.1711029,22.4195785 19.0977949,22.7128105 19.0977949,23.5191983 C19.0977949,23.8857382 19.0977949,24.1789701 19.0244869,24.3988941 C18.951179,24.692126 18.731255,24.91205 18.4380231,24.985358 C18.1447911,25.0586659 17.8515592,24.985358 17.7049432,24.765434 C17.5583273,24.5455101 17.3384033,24.2522781 17.1917874,23.8857382 C16.3120916,22.1996546 16.8985554,19.4872592 17.1184794,18.6808714 C17.1184794,18.6075634 17.1184794,18.5342554 17.1184794,18.4609474 C16.6786315,17.8011756 16.3120916,17.2147117 16.1654756,16.7748638 C16.0921676,16.5549399 16.0921676,16.3350159 16.0188596,16.115092 C15.8722437,15.4553201 15.6523197,14.7222403 15.3590878,14.3557004 L15.1391638,14.2090844 C14.5527,13.5493126 13.3797722,12.1564609 14.406084,11.2767651 C15.3590878,10.3970693 17.2650953,11.8632289 17.7049432,12.2297689 C18.2180991,12.3763848 21.6635743,13.2560806 23.349658,15.3087042 C25.1823575,17.5812516 25.5488975,18.0210995 25.9887454,19.0474113 C26.0620533,19.2673353 26.2086693,19.3406432 26.4285933,19.4139512 C26.5019012,19.4139512 26.6485172,19.4872592 26.7951332,19.4872592 C27.8214449,19.7804911 29.5808365,20.220339 31.1936122,21.4665748 C31.5601521,21.7598067 31.853384,22.0530386 32,22.2729626 C32,22.3462706 32,22.5661945 32,22.7861185 C31.926692,23.0060424 31.780076,23.1526584 31.5601521,23.2259664 C30.9003802,23.5191983 29.2876046,23.3725823 28.1879849,23.1526584 C29.0676807,24.0323542 30.5338403,25.7184378 31.3402281,27.4778294 L30.0206844,28.1376013 Z" fill="#0052D9" fill-rule="nonzero" transform="translate(0 2)"/><g fill="#0052D9" fill-rule="nonzero"><path d="M12 0C5.4 0 0 2.2 0 5L0 23 2 23 2 16.8C4.1 18.1 7.8 19 12 19 12.8 19 13.6 19 14.4 18.9 14.6 18.2 14.8 17.5 15.1 16.9 14.1 17 13.1 17.1 12 17.1 6.5 17.1 2 15.8 2 14.1L2 7.8C4.1 9.1 7.8 10 12 10 16.2 10 19.9 9.1 22 7.8L22 9 24 9 24 5C24 2.2 18.6 0 12 0zM12 8C6.5 8 2 6.7 2 5 2 3.3 6.5 2 12 2 17.5 2 22 3.3 22 5 22 6.7 17.5 8 12 8zM14.9 25.9C14 26 13 26 12 26 6.5 26 2 24.7 2 23L0 23C0 25.8 5.4 28 12 28 13.5 28 15 27.9 16.4 27.7 15.8 27.2 15.3 26.6 14.9 25.9z" transform="translate(0 2)"/></g><path d="M31.2543939 27.604826C30.366824 26.0123635 29.3409133 24.5579611 28.1766619 23.241619M28.3212462 23.2374098C30.7012412 23.6016418 31.8912386 23.2320081 31.8912386 22.1285087 31.8912386 21.0250093 29.9774073 20.0841235 26.1497447 19.3058513 24.5548519 16.9998705 23.3433878 15.5043587 22.5153523 14.819316 19.9215463 12.6734325 17.6407332 12.2662548 17.6407332 12.2662548 17.6407332 12.2662548 15.0564285 11.0141794 14.5322744 11.5050297 13.939453 12.0601842 15.3983074 14.3662008 15.3983074 14.3662008 15.3983074 14.3662008 15.8281094 15.133438 16.1144946 15.7844746 16.2243125 16.0341225 16.445831 16.8679034 16.6541079 17.3819726 16.7730061 17.675437 16.9666271 18.0619359 17.2349709 18.5414693 17.1140166 20.2403264 17.1140166 21.5281867 17.2349709 22.40505 17.3559253 23.2819133 17.6589843 24.1910901 18.1441478 25.1325806 18.4865389 25.4368572 18.7190945 25.4368572 18.8418148 25.1325806 18.964535 24.8283039 19.0986666 23.919127 19.2442097 22.40505" transform="translate(0 2)"/></g></svg>