<svg width="32" height="32" viewBox="0 0 32 32" xmlns="http://www.w3.org/2000/svg"><g fill="#0052D9" fill-rule="evenodd"><path d="M10.3,26 C5.6,25.7 2,24.5 2,23 L0,23 C0,25.5 4.5,27.6 10.3,27.9 L10.3,27 L10.3,26 Z" fill-rule="nonzero" transform="translate(2 2)"/><path d="M24,9 L24,11 L22,11 L22,9 L22,7.8 C19.9,9.1 16.2,10 12,10 C7.8,10 4.1,9.1 2,7.8 L2,14 C2,15.5 5.6,16.7 10.3,17 L10.3,19 C6.9,18.8 3.9,18 2,16.8 L2,23 L0,23 L0,5 C0,2.2 5.4,0 12,0 C18.6,0 24,2.2 24,5 L24,9 Z M12,8 C17.5,8 22,6.7 22,5 C22,3.3 17.5,2 12,2 C6.5,2 2,3.3 2,5 C2,6.7 6.5,8 12,8 Z" transform="translate(2 2)"/><g fill-rule="nonzero"><path d="M2,2 L2,12 L12,12 L12,2 L2,2 Z M0,0 L14,0 L14,14 L0,14 L0,0 Z" transform="translate(15 16)"/><path d="M6 0H8V14H6z" transform="translate(15 16)"/><path transform="rotate(90 6.5 22.5)" d="M6 0H8V14H6z"/></g></g></svg>