<svg width="32" height="32" viewBox="0 0 32 32" xmlns="http://www.w3.org/2000/svg"><g fill="#0052D9" fill-rule="evenodd"><path d="M31.7193022,13.0004945 L29.6779284,13.0004945 C28.3047737,6.70988283 22.7024129,2 16,2 C8.2680135,2 2,8.2680135 2,16 C2,23.7319865 8.2680135,30 16,30 C23.0527724,30 28.8874794,24.7848417 29.8581515,18.0004945 L31.8761508,18.0004945 C30.8917351,25.8928783 24.1590649,32 16,32 C7.163444,32 0,24.836556 0,16 C0,7.163444 7.163444,0 16,0 C23.8113418,0 30.3152783,5.59766728 31.7193022,13.0004945 Z" fill-rule="nonzero"/><path d="M13,14 L13,10.6176886 L10,12.5076562 L10,14 L13,14 Z M15,14 L15,16 L8,16 L8,15.9789844 L8,13.762922 L8,11.4894922 L8.91291703,10.9160131 L12.9994547,8.28695009 L14.9998518,7 L15,8.1008977 L15.0001692,9.35760365 L15,14 Z"/><path d="M13,24 L13,20.6176886 L10,22.5076562 L10,24 L13,24 Z M15,24 L15,26 L8,26 L8,25.9789844 L8,23.762922 L8,21.4894922 L8.91291703,20.9160131 L12.9994547,18.2869501 L14.9998518,17 L15,18.1008977 L15.0001692,19.3576037 L15,24 Z" transform="matrix(1 0 0 -1 0 43)"/><path d="M22,14 L22,10.6176886 L19,12.5076562 L19,14 L22,14 Z M24,14 L24,16 L17,16 L17,15.9789844 L17,13.762922 L17,11.4894922 L17.912917,10.9160131 L21.9994547,8.28695009 L23.9998518,7 L24,8.1008977 L24.0001692,9.35760365 L24,14 Z" transform="matrix(-1 0 0 1 41 0)"/><path d="M22,24 L22,20.6176886 L19,22.5076562 L19,24 L22,24 Z M24,24 L24,26 L17,26 L17,25.9789844 L17,23.762922 L17,21.4894922 L17.912917,20.9160131 L21.9994547,18.2869501 L23.9998518,17 L24,18.1008977 L24.0001692,19.3576037 L24,24 Z" transform="rotate(180 20.5 21.5)"/></g></svg>