<svg width="32" height="32" viewBox="0 0 32 32" xmlns="http://www.w3.org/2000/svg"><g fill="#0052D9" fill-rule="evenodd"><path d="M2,16.8 C3.8,18 6.8,18.8 10.2,19 C10.3,18.3 10.5,17.7 10.8,17 C5.8,16.8 2,15.5 2,14 L2,7.8 C4.1,9.1 7.8,10 12,10 C16.2,10 19.9,9.1 22,7.8 L22,10.1 C22.7,10.2 23.4,10.3 24,10.5 L24,5 C24,2.2 18.6,0 12,0 C5.4,0 0,2.2 0,5 L0,23 L2,23 L2,16.8 Z M12,2 C17.5,2 22,3.3 22,5 C22,6.7 17.5,8 12,8 C6.5,8 2,6.7 2,5 C2,3.3 6.5,2 12,2 Z" transform="translate(2 2)"/><path d="M20 13C15.6 13 12 16.6 12 21 12 25.4 15.6 29 20 29 24.4 29 28 25.4 28 21 28 16.6 24.4 13 20 13zM20 27C16.7 27 14 24.3 14 21 14 17.7 16.7 15 20 15 23.3 15 26 17.7 26 21 26 24.3 23.3 27 20 27zM2 23L0 23C0 25.8 5.4 28 12 28 12.2 28 12.3 28 12.5 28 12 27.4 11.6 26.7 11.2 26 6.1 25.9 2 24.6 2 23z" transform="translate(2 2)"/><path d="M21 17L19 17 19 21.6 19 21.6 19 21.6 22.1 23.9 23.3 22.3 21 20.6z" transform="translate(2 2)"/></g></svg>