<svg width="32" height="32" viewBox="0 0 32 32" xmlns="http://www.w3.org/2000/svg" xmlns:xlink="http://www.w3.org/1999/xlink"><defs><path d="M0.0001 0.1498L30 0.1498 30 25.8498 0.0001 25.8498z"/></defs><g transform="translate(1 3)" fill="none" fill-rule="evenodd"><mask fill="#0052D9"><use xlink:href="#a"/></mask><path d="M15.0001,19.9998 C13.7521,19.9998 12.5841,19.6698 11.5691,19.0988 L10.5891,20.8408 C11.8941,21.5758 13.3961,21.9998 15.0001,21.9998 C16.6041,21.9998 18.1061,21.5758 19.4101,20.8408 L18.4301,19.0988 C17.4161,19.6698 16.2471,19.9998 15.0001,19.9998 Z M10.5891,5.1588 L11.5691,6.9018 C12.5841,6.3298 13.7521,5.9998 15.0001,5.9998 C16.2471,5.9998 17.4161,6.3298 18.4301,6.9018 L19.4101,5.1588 C18.1061,4.4248 16.6041,3.9998 15.0001,3.9998 C13.3961,3.9998 11.8941,4.4248 10.5891,5.1588 Z M20.0001,15.9998 L22.0001,15.9998 L22.0001,9.9998 L20.0001,9.9998 L20.0001,15.9998 Z M19.0001,12.9998 L19.0001,11.9998 C19.0001,10.8958 18.1041,9.9998 17.0001,9.9998 L14.0001,9.9998 L14.0001,15.9998 L16.0001,15.9998 L16.0001,14.9998 L17.0001,14.9998 L17.0001,12.9998 L16.0001,12.9998 L16.0001,11.9998 L17.0001,11.9998 L17.0001,12.9998 L17.0001,14.9998 C18.1041,14.9998 19.0001,14.1038 19.0001,12.9998 Z M22.7091,0.1498 L21.6821,1.8638 C25.4621,4.1378 28.0001,8.2678 28.0001,12.9998 C28.0001,17.7328 25.4621,21.8618 21.6821,24.1368 L22.7091,25.8498 C27.0721,23.2268 30.0001,18.4608 30.0001,12.9998 C30.0001,7.5388 27.0721,2.7738 22.7091,0.1498 Z M10.0001,12.9998 L11.0001,12.9998 L11.0001,11.9998 L10.0001,11.9998 L10.0001,12.9998 Z M11.0001,15.9998 L13.0001,15.9998 L13.0001,11.9998 C13.0001,10.8958 12.1041,9.9998 11.0001,9.9998 L10.0001,9.9998 C8.8951,9.9998 8.0001,10.8958 8.0001,11.9998 L8.0001,15.9998 L10.0001,15.9998 L10.0001,14.9998 L11.0001,14.9998 L11.0001,15.9998 Z M2.0001,12.9998 C2.0001,8.2678 4.5371,4.1378 8.3181,1.8638 L7.2901,0.1498 C2.9281,2.7738 0.0001,7.5388 0.0001,12.9998 C0.0001,18.4608 2.9281,23.2268 7.2901,25.8498 L8.3181,24.1368 C4.5371,21.8628 2.0001,17.7328 2.0001,12.9998 Z" fill="#0052D9" mask="url(#b)"/></g></svg>