<svg xmlns="http://www.w3.org/2000/svg" width="32" height="32" viewBox="0 0 32 32"><g fill="#0052D9"><g transform="translate(1 2)" fill-rule="evenodd" clip-rule="evenodd"><path d="M2 2H30V4H2zM0 24H29V26H0z"/><path d="M0 9H2V26H0zM28 2H30V19H28z"/><circle cx="1" cy="3" r="2"/><circle cx="29" cy="25" r="2"/></g><path d="M18.7 7.939H20.3V14.939H18.7zM14.1 7.939H15.7V14.939H14.1z"/><path d="M11.7 7.939H17.715V9.539H11.7z"/><g><path d="M6.5 22.339H11.5V23.939H6.5zM6.5 19.639H11.5V21.239H6.5z"/><path d="M6.5 16.939H8.1V23.939H6.5z"/><path d="M6.5 16.939H11.5V18.539H6.5zM20.5 22.339H25.5V23.939H20.5zM20.5 19.639H25.5V21.239H20.5z"/><path d="M20.5 16.939H22.1V20.939H20.5zM23.9 19.939H25.5V23.939H23.9z"/><path d="M20.5 16.939H25.5V18.539H20.5zM12.5 16.939H14.1V23.939H12.5zM15.2 16.939H16.8V23.939H15.2z"/><path d="M12.5 16.939H19.5V18.539H12.5z"/><path d="M17.9 17.639H19.5V23.939H17.9z"/></g></g></svg>