<svg width="32" height="32" viewBox="0 0 32 32" xmlns="http://www.w3.org/2000/svg"><path d="M29,5 L3.73243561,5 C3.38662619,5.59780137 2.74028236,6 2,6 C0.8954305,6 0,5.1045695 0,4 C0,2.8954305 0.8954305,2 2,2 C2.74028236,2 3.38662619,2.40219863 3.73243561,3 L31,3 L31,5 L31,22 L29,22 L29,5 Z M25.5448356,17 C25.2923345,19.2586867 23.3490722,21 21.0101,21 C19.2739279,21 17.6996663,19.8271576 16.0029679,17.6784819 L15.8065934,17.4297959 L15.4709408,17.7941381 C13.5538267,19.8751157 11.7922891,21 9.98958333,21 C7.30515637,21 5,19.0723431 5,16.5 C5,13.9276569 7.30515637,12 9.98958333,12 C11.7649822,12 13.5226984,13.0689943 15.4375079,15.0484953 L15.8090349,15.4325744 L16.0329801,15.1624781 C17.7287776,13.1172068 19.3033409,12 21.0101,12 C21.6420565,12 22.2451261,12.1271163 22.7937657,12.3572083 L21.7791656,14.1145473 C21.5363946,14.0401232 21.2780501,14 21.0101,14 C20.0666136,14 18.9207802,14.8130081 17.5726,16.4390244 C18.9207802,18.1463415 20.0666136,19 21.0101,19 C22.2498159,19 23.2839147,18.1411202 23.5213407,17 L22,17 L24.5,13 L27,17 L25.5448356,17 Z M9.98958333,19 C11.0903175,19 12.4271231,18.1463415 14,16.4390244 C12.4271231,14.8130081 11.0903175,14 9.98958333,14 C8.33848205,14 7,15.1192881 7,16.5 C7,17.8807119 8.33848205,19 9.98958333,19 Z M3,27 L28.2675644,27 C28.6133738,26.4021986 29.2597176,26 30,26 C31.1045695,26 32,26.8954305 32,28 C32,29.1045695 31.1045695,30 30,30 C29.2597176,30 28.6133738,29.5978014 28.2675644,29 L1,29 L1,27 L1,10 L3,10 L3,27 Z" fill="#0052D9" fill-rule="evenodd"/></svg>