<svg data-name="图层 1" xmlns="http://www.w3.org/2000/svg" width="32" height="32" viewBox="0 0 32 32"><path fill="#0052D9" d="M31,5A26,26,0,0,0,16,0,26,26,0,0,0,1,5S0,22.21,16,32A31.41,31.41,0,0,0,31,5.6C31,5.23,31,5,31,5ZM16,29.63A29.19,29.19,0,0,1,3,6.08,23.68,23.68,0,0,1,16,2,23.62,23.62,0,0,1,29,6.08,29.15,29.15,0,0,1,16,29.63Z"/><g fill="#0052D9"><path d="M22.9 9.35l-4.77 2.19 1.88-5 .26.16a8.16 8.16 0 012.47 2.39zM17.94 21.53l-.29.07a7.88 7.88 0 01-1.65.17 8.15 8.15 0 01-1.78-.19l-.29-.07L16 16.64zM13.9 11.6L9.12 9.42l.16-.24a8.25 8.25 0 012.46-2.39L12 6.63zM10.41 11.32L8.59 10.48M15.97 13.86L15.94 13.85 15.96 13.82 15.97 13.86zM16.07 13.79L16.05 13.8 16.06 13.77 16.07 13.79z"/><g><path d="M15.96 13.82L15.97 13.86 15.94 13.85 15.96 13.82zM16.06 13.77L16.07 13.79 16.05 13.8 16.06 13.77z"/></g><g><path d="M13.64 19.32l-.78 1.84a8.14 8.14 0 01-4.95-7.45 7.93 7.93 0 01.68-3.23l1.82.84a5.76 5.76 0 00-.5 2.39A6.13 6.13 0 0013.64 19.32zM19 6.16L18.24 8a6 6 0 00-4.48 0l-.71-1.88A8.12 8.12 0 0119 6.16zM24.11 13.71A8.09 8.09 0 0119 21.21l-.74-1.85a6.09 6.09 0 003.83-5.65 5.86 5.86 0 00-.52-2.45l1.81-.84A7.88 7.88 0 0124.11 13.71z"/></g><circle cx="16.02" cy="13.71" r=".94"/><path d="M16,9a4.66,4.66,0,0,0-1.72.33l.61,1.59A2.93,2.93,0,0,1,16,10.71a2.84,2.84,0,0,1,1,.2l.6-1.6A4.74,4.74,0,0,0,16,9Zm4.31,2.84-1.55.7h0A2.83,2.83,0,0,1,19,13.72a3,3,0,0,1-1.81,2.75l.63,1.58a4.7,4.7,0,0,0,2.88-4.33A4.64,4.64,0,0,0,20.34,11.85ZM13,13.72a2.87,2.87,0,0,1,.21-1.1l-1.55-.71A4.7,4.7,0,0,0,14.11,18l.66-1.57A3,3,0,0,1,13,13.72Z"/></g></svg>