<svg width="32" height="32" viewBox="0 0 32 32" xmlns="http://www.w3.org/2000/svg"><g fill="#0052D9" fill-rule="evenodd"><g transform="translate(1 3)"><path d="M3 1H29V3H3zM1 23H29V25H1z"/><path d="M1 8H3V25H1zM27 1H29V18H27z"/><circle cx="2" cy="2" r="2"/><circle cx="28" cy="24" r="2"/></g><path d="M16,14.5 C16,15.329 15.329,16 14.5,16 C13.671,16 13,15.329 13,14.5 C13,13.671 13.671,13 14.5,13 C15.329,13 16,13.671 16,14.5 Z M13,21 L11,21 L11,11 L21,11 L21,21 L13,21 Z M9,23 L23,23 L23,9 L9,9 L9,23 Z"/><path d="M14.8196726,21.469197 L12,21.469197 L17.4352879,16 L22.1735117,21.469197 L19.5273389,21.469197 L17.3347847,18.9383939 L14.8196726,21.469197 Z" fill-rule="nonzero"/></g></svg>