<svg width="32" height="32" viewBox="0 0 32 32" xmlns="http://www.w3.org/2000/svg"><g fill="#0052D9" fill-rule="evenodd"><path d="M26.097 12.334L26.097 23.143 14.097 30 2.096 23.143 2.096 8.857 14.097 2 25.673 8.615 27.288 7.539 14.097 0 0.096 8 0.096 10 0.096 22 0.096 24 14.097 32 28.097 24 28.097 22 28.097 11z" transform="translate(2)"/><path d="M6.1982,12.0338 C6.0572,12.0048 5.9182,12.0038 5.7812,12.0138 L3.1132,9.8648 C1.8242,8.8268 1.6202,6.9348 2.6582,5.6458 C3.6962,4.3578 5.5882,4.1538 6.8762,5.1918 L9.3632,7.1948 C9.3732,7.8838 9.8572,8.4988 10.5602,8.6418 C11.3722,8.8078 12.1652,8.2848 12.3312,7.4728 C12.4972,6.6618 11.9732,5.8688 11.1622,5.7028 C11.0002,5.6698 10.8402,5.6708 10.6832,5.6898 L8.1312,3.6338 C5.9892,1.9088 2.8252,2.2498 1.1002,4.3918 C-0.6248,6.5338 -0.2838,9.6968 1.8582,11.4228 L4.4012,13.4708 C4.3852,14.1808 4.8752,14.8248 5.5972,14.9718 C6.4082,15.1378 7.2012,14.6148 7.3672,13.8038 C7.5332,12.9918 7.0102,12.1998 6.1982,12.0338" transform="translate(8 9)"/><path d="M14.1416,3.3825 L11.5196,1.2705 C11.4256,0.6695 10.9736,0.1595 10.3426,0.0305 C9.5316,-0.1355 8.7386,0.3875 8.5726,1.1995 C8.4066,2.0115 8.9296,2.8035 9.7416,2.9695 C9.9726,3.0175 10.2006,3.0035 10.4136,2.9475 L12.8876,4.9405 C14.1756,5.9775 14.3796,7.8695 13.3416,9.1575 C12.3046,10.4465 10.4126,10.6505 9.1236,9.6125 L6.5566,7.5455 C6.5606,6.8435 6.0716,6.2135 5.3576,6.0675 C4.5456,5.9015 3.7536,6.4245 3.5876,7.2365 C3.4216,8.0475 3.9446,8.8405 4.7566,9.0065 C4.9076,9.0365 5.0566,9.0365 5.2026,9.0225 L7.8696,11.1705 C10.0106,12.8955 13.1746,12.5545 14.8996,10.4125 C16.6246,8.2715 16.2836,5.1075 14.1416,3.3825" transform="translate(8 9)"/></g></svg>