<svg width="32" height="32" viewBox="0 0 32 32" xmlns="http://www.w3.org/2000/svg"><g transform="translate(1 3)" fill="#0052D9" fill-rule="evenodd"><path fill-rule="nonzero" transform="rotate(90 3.5 15.5)" d="M-4 4H6V6H-4z"/><path d="M8.74285714,0 L10,0 L10,10 L8,10 L8,2.47619629 C7.28387097,2.92717087 6.94285714,2.92717087 6,3.19327731 L6,1.56862745 C6.45714286,1.45658263 6.94285714,1.2605042 7.45714286,0.980392157 C7.97142857,0.672268908 8.4,0.350140056 8.74285714,0 Z" transform="translate(13 8)"/><path fill-rule="nonzero" d="M0 0H6V2H0z" transform="translate(6 8)"/><path fill-rule="nonzero" transform="rotate(90 2 12)" d="M-2 4H8V6H-2z"/><path fill-rule="nonzero" transform="rotate(90 10 12)" d="M10 4H12V6H10z"/><path d="M1 8H3V25H1zM2 1H29V3H2z"/><path d="M1 23H29V25H1zM27 1H29V18H27z"/><circle cx="2" cy="2" r="2"/><circle cx="28" cy="24" r="2"/></g></svg>