<svg width="32" height="32" viewBox="0 0 32 32" xmlns="http://www.w3.org/2000/svg"><g fill="none" fill-rule="evenodd"><g fill="#0052D9"><g transform="translate(1 3)"><path d="M3 1L28.9488815 1 28.9488815 3 3 3z"/><path transform="rotate(90 27.949 9.5)" d="M19.4488815 8.5L36.4488815 8.5 36.4488815 10.5 19.4488815 10.5z"/><circle cx="2" cy="2" r="2"/></g><g transform="rotate(180 15.5 14.5)"><path d="M3 1L28.9488815 1 28.9488815 3 3 3z"/><path transform="rotate(90 27.949 9.5)" d="M19.4488815 8.5L36.4488815 8.5 36.4488815 10.5 19.4488815 10.5z"/><circle cx="2" cy="2" r="2"/></g><g><path d="M14.7888858,2.07481502 L15.8740083,4.02012577 L10.3951269,13.9849223 L7.52556956,13.9849223 L12.6532525,4.65731288 L7.48662727,4.65731288 L8.71241028,2.07481502 L14.7888858,2.07481502 Z M8.3484387,8.8817842e-16 L3.22075578,9.32760946 L8.3484387,9.32760946 L7.12265569,11.9101073 L1.08512248,11.9101073 L3.90798505e-14,9.96479657 L5.47888137,8.8817842e-16 L8.3484387,8.8817842e-16 Z M10.7009555,6.03315979 L9.51884348,8.00157224 L5.51884348,8.00157224 L6.70095548,6.03315979 L10.7009555,6.03315979 Z" transform="translate(8 9)"/></g></g><path d="M0 0H32V32H0z"/></g></svg>