<svg width="32" height="32" viewBox="0 0 32 32" xmlns="http://www.w3.org/2000/svg"><g fill="none" fill-rule="evenodd"><path d="M24,6 L24,15.2 C24,15.2 24,17.5 22.6,20 C20.8,23.4 17.5,25.7 13,26.9 C2.3,24.3 2,15.6 2,15.2 L2,2 L22,2 L24,2 L26,2 L26,0 L0,0 L0,15.2 C0,15.2 0.1,26 13,29 C25.9,26 26,15.2 26,15.2 L26,6 L24,6 Z" fill="#0052D9" fill-rule="nonzero" transform="translate(3 2)"/><g transform="translate(7 7)"><path fill="#0052D9" fill-rule="nonzero" d="M8 3L10 3 10 15 8 15z"/><path d="M9,2.43392854 L2.39529003,9.22153679 L9,16.009145 L15.60471,9.22153679 L9,2.43392854 Z" stroke="#0052D9" stroke-width="2"/><circle fill="#0052D9" cx="9" cy="2" r="2"/><circle fill="#0052D9" cx="9" cy="16" r="2"/><circle fill="#0052D9" cx="16" cy="9" r="2"/><circle fill="#0052D9" cx="2" cy="9" r="2"/></g></g></svg>