<svg xmlns="http://www.w3.org/2000/svg" width="32" height="32" viewBox="0 0 32 32"><g fill="#0052D9"><path d="M9 12.2L9 12.2 9 12.2 9 12.2 9 12.2 16 8 23 12.2 23 16.3 25 16 25 11 16 5.7 7 11 7 13.4zM23 19.8L23 19.9 22.7 20 22.7 20 22.7 20 16 24 9 19.9 9 15.6 7 16.1 7 21 16 26.3 25 21 25 18.7z"/><circle cx="8" cy="17" r="2" fill-rule="evenodd" clip-rule="evenodd"/><circle cx="24" cy="15" r="2" fill-rule="evenodd" clip-rule="evenodd"/></g><path fill-rule="evenodd" clip-rule="evenodd" fill="#0052D9" d="M13 12H15V20H13z"/><path fill="#0052D9" d="M16.5 16L19 20 16.5 20 14 16 16.5 12 19 12z"/><g><g fill="#0052D9"><path d="M6 2H30V4H6zM2 6H4V21H2z"/><path d="M6 2L2 6 4 7 7 4zM6 28H26V30H6zM2 21H4V26H2zM28 7H30V26H28z"/><path d="M6 30L2 26 4 25 7 28zM26 30L30 26 28 25 25 28z"/></g></g></svg>