<svg width="32" height="32" viewBox="0 0 32 32" xmlns="http://www.w3.org/2000/svg"><g fill="none" fill-rule="evenodd"><path d="M0.0004,-0.0001 L22.0004,-0.0001 L22.0004,23.9999 L20.0004,23.9999 L20.0004,1.9999 L2.0004,1.9999 L2.0004,27.9999 L22.0004,27.9999 L22.0004,29.9999 L0.0004,29.9999 L0.0004,-0.0001 Z M9.0004,23.9999 L9.0004,21.9999 L13.0004,21.9999 L13.0004,23.9999 L9.0004,23.9999 Z M9.4937,6.9961 L10.0877,6.0001 L8.9257,6.0001 C8.5667,6.0001 8.1847,6.2181 7.9977,6.5311 L7.4587,7.4821 L8.6607,7.4671 C9.0097,7.4671 9.3197,7.2861 9.4937,6.9961 Z M8.9487,4.0001 L13.6117,4.0001 L11.2087,8.0251 C10.6677,8.9261 9.7067,9.4671 8.6857,9.4671 L3.9997,9.5261 L6.2827,5.5021 C6.8237,4.6001 7.8447,4.0001 8.9257,4.0001 L8.9487,4.0001 Z M8.0776,14.27 C8.2566,14.568 8.5816,14.767 8.9256,14.767 L10.3276,14.767 L9.5966,13.502 C9.4136,13.198 9.0896,13 8.7456,13 L8.6856,13 L7.3786,13.051 L8.0776,14.27 Z M13.7916,16.767 L8.9256,16.767 C7.8446,16.767 6.8836,16.166 6.3426,15.265 L3.9996,11.18 L8.6856,11 L8.7456,11 C9.8276,11 10.7876,11.601 11.3286,12.502 L13.7916,16.767 Z M15.5273,11.0962 C15.7173,10.7772 15.7073,10.3972 15.5203,10.0662 L14.8523,8.9002 L14.1573,10.0202 C13.8983,10.4342 14.0063,10.8062 14.1413,11.0472 L14.8513,12.2782 L15.5273,11.0962 Z M14.9213,5.0002 L17.2633,9.0852 C17.8043,10.0462 17.8043,11.1872 17.2633,12.0882 L14.8613,16.2942 L12.3983,12.0282 C11.8573,11.0672 11.8573,9.9262 12.4583,8.9652 L14.9213,5.0002 Z" fill="#0052D9" transform="translate(5 1)"/></g></svg>