<svg data-name="图层 1" xmlns="http://www.w3.org/2000/svg" width="32" height="32" viewBox="0 0 32 32"><path fill="#0052D9" d="M8.51 6.79H18.560000000000002V8.79H8.51z"/><path fill="#0052D9" d="M12.53 7.54H14.53V16.21H12.53zM20.42 6.79H23.910000000000004V8.79H20.42zM19.12 10.81H23.91V12.81H19.12zM17.87 14.83H23.91V16.83H17.87zM8.6 18.65H23.9V20.65H8.6z"/><path fill="#0052D9" d="M16.21,2.15a22.28,22.28,0,0,1,12.85,4v.13A27.55,27.55,0,0,1,16.2,29.51,27.59,27.59,0,0,1,3.35,6.33V6.19a22.29,22.29,0,0,1,12.86-4m0-2a24.46,24.46,0,0,0-14.7,4.9l-.14.1v.18c0,.33,0,.66,0,1A29.48,29.48,0,0,0,16,31.73l.19.11.19-.11A29.45,29.45,0,0,0,31.06,6.32c0-.33,0-.66,0-1V5.15l-.14-.1A24.45,24.45,0,0,0,16.21.15Z"/></svg>