<svg width="32" height="32" viewBox="0 0 32 32" xmlns="http://www.w3.org/2000/svg"><g fill="#0052D9" fill-rule="evenodd"><path d="M28,21.992 L28,22 L2,22 L2,7 L28,7 L28,18.021 L30,18.021 L30,0 L0,0 L0,24 L30,24 L30,21.992 L28,21.992 Z M2,2 L28,2 L28,5 L2,5 L2,2 Z" transform="translate(1 4)"/><path d="M6.008 10H14.008V12H6.008zM6.008 13H14.008V15H6.008zM6.008 16.021L11 16.021 11 18.021 6.008 18.021z" transform="translate(1 4)"/><path transform="rotate(45 18.648 19.68)" d="M20.9760453 15.4720453L24.9760453 15.4720453 24.9760453 17.4720453 20.9760453 17.4720453z"/><path d="M22.929,11.004 C21.562,9.637 19.346,9.637 17.979,11.004 C16.612,12.371 16.612,14.587 17.979,15.954 C19.346,17.321 21.562,17.321 22.929,15.954 C24.296,14.587 24.296,12.371 22.929,11.004 Z M19.393,14.54 C18.807,13.954 18.807,13.004 19.393,12.419 C19.979,11.833 20.929,11.833 21.514,12.419 C22.1,13.005 22.1,13.955 21.514,14.54 C20.929,15.126 19.979,15.126 19.393,14.54 Z" transform="translate(1 4)"/></g></svg>