<svg width="32" height="32" viewBox="0 0 32 32" xmlns="http://www.w3.org/2000/svg"><path d="M28,22.6804 L28,9.2604 C28,9.0654 27.898,8.8874 27.734,8.7934 L16.248,2.0694 C16.094,1.9774 15.906,1.9774 15.745,2.0744 L4.272,8.7794 C4.101,8.8814 4,9.0574 4,9.2604 L4,22.6904 C4,22.8854 4.102,23.0634 4.265,23.1574 L15.752,29.8704 C15.906,29.9634 16.094,29.9634 16.255,29.8674 L27.729,23.1604 C27.899,23.0594 28,22.8834 28,22.6804 Z M28.738,7.0634 C29.52,7.5124 30,8.3534 30,9.2604 L30,22.6804 C30,23.5894 29.527,24.4174 28.744,24.8834 L17.271,31.5894 C16.486,32.0574 15.514,32.0574 14.735,31.5934 L3.262,24.8874 C2.48,24.4384 2,23.5974 2,22.6904 L2,9.2604 C2,8.3514 2.473,7.5234 3.255,7.0574 L14.728,0.3514 C15.514,-0.1166 16.486,-0.1166 17.266,0.3474 L28.738,7.0634 Z M6.5435,17.24 C6.2105,17.069 6.0005,16.725 6.0005,16.35 L6.0005,10.97 C6.0005,10.227 6.7825,9.743 7.4475,10.076 L16.0005,14.352 L22.8665,10.919 L16.4605,7.323 L16.4665,7.311 C16.1335,7.149 15.8985,6.815 15.8985,6.419 C15.8985,5.866 16.3465,5.419 16.8985,5.419 C17.0985,5.419 17.2745,5.492 17.4305,5.594 L17.4395,5.578 L25.4895,10.098 C26.1895,10.491 26.1655,11.506 25.4475,11.865 L16.4475,16.365 C16.1655,16.506 15.8345,16.506 15.5525,16.365 L8.0005,12.589 L8.0005,15.74 L15.9725,19.832 L20.7205,17.094 L20.7345,17.119 C20.8775,17.039 21.0355,16.981 21.2105,16.981 C21.7635,16.981 22.2105,17.429 22.2105,17.981 C22.2105,18.344 22.0075,18.648 21.7175,18.824 L21.7195,18.827 L21.6745,18.852 C21.6425,18.87 21.6155,18.893 21.5815,18.907 L16.4995,21.837 C16.2055,22.007 15.8455,22.015 15.5435,21.86 L6.5435,17.24 Z M24.9922,16.9812 C25.5302,16.9812 25.9612,17.4082 25.9842,17.9402 L26.0002,17.9402 L26.0002,21.1502 C26.0002,21.5192 25.7972,21.8582 25.4712,22.0322 L16.4722,26.8522 C16.1812,27.0072 15.8332,27.0092 15.5402,26.8582 L6.5912,22.2252 C6.2072,22.0852 5.9302,21.7262 5.9302,21.2932 C5.9302,20.7422 6.3772,20.2942 6.9302,20.2942 C7.1052,20.2942 7.2622,20.3512 7.4052,20.4302 L7.4202,20.4022 L15.9922,24.8402 L24.0002,20.5512 L24.0002,18.0202 C23.9992,18.0062 23.9922,17.9952 23.9922,17.9812 C23.9922,17.9672 23.9992,17.9562 24.0002,17.9422 L24.0002,17.9402 C24.0232,17.4082 24.4542,16.9812 24.9922,16.9812 Z" fill="#0052D9" fill-rule="evenodd"/></svg>