<svg xmlns="http://www.w3.org/2000/svg" xmlns:xlink="http://www.w3.org/1999/xlink" width="32" height="32" viewBox="0 0 32 32"><defs><path d="M16,0c7.811,0,14.315,5.598,15.719,13l-2.041,0C28.305,6.71,22.702,2,16,2C8.268,2,2,8.268,2,16 s6.268,14,14,14c7.053,0,12.887-5.215,13.858-11.999l2.018,0C30.892,25.893,24.159,32,16,32C7.163,32,0,24.837,0,16S7.163,0,16,0z"/></defs><use xlink:href="#a" overflow="visible" fill="#0052D9"/><path d="M16,8.288l7,3.889v7.646l-7,3.889l-7-3.889v-7.646L16,8.288 M16,6l-9,5v10l9,5l9-5V11L16,6L16,6z" fill="#0052D9"/><path fill="#0052D9" d="M19 13H21V19H19zM15 15H17V19H15z"/><g><path fill="#0052D9" d="M11 17H13V19H11z"/></g></svg>