<svg width="32" height="32" viewBox="0 0 32 32" xmlns="http://www.w3.org/2000/svg"><g fill="none" fill-rule="evenodd"><path d="M31.7193022,13.0004945 L29.6779284,13.0004945 C28.3047737,6.70988283 22.7024129,2 16,2 C8.2680135,2 2,8.2680135 2,16 C2,23.7319865 8.2680135,30 16,30 C23.0527724,30 28.8874794,24.7848417 29.8581515,18.0004945 L31.8761508,18.0004945 C30.8917351,25.8928783 24.1590649,32 16,32 C7.163444,32 0,24.836556 0,16 C0,7.163444 7.163444,0 16,0 C23.8113418,0 30.3152783,5.59766728 31.7193022,13.0004945 Z" fill="#0052D9" fill-rule="nonzero"/><path d="M0,5.12121212 L0,0 L14,0 L14,4.12121212 L14,4.72727273 L14,6 L3,6 M14,11 L14,15 L0,15 L0,11.8545455 L0,10 L11,10" stroke="#0052D9" stroke-width="2" transform="translate(9 8)"/><path d="M2.5,2 L5.21913004,2 L7,3.8524531 L8.78086996,2 L11.5,2 L7.96135765,5.68088023 L7.96135765,13.1164374 L6.03864235,13.0839047 L6.03864235,5.68088023 L2.5,2 Z" fill="#0052D9" fill-rule="nonzero" transform="translate(9 8)"/></g></svg>