<svg xmlns="http://www.w3.org/2000/svg" width="32" height="32" viewBox="0 0 32 32"><g fill="#0052D9"><path d="M2 21H4V26H2zM6 2H30V4H6zM2 6H4V21H2z"/><path d="M6 2L2 6 4 7 7 4zM6 28H26V30H6zM28 7H30V26H28z"/><path d="M6 30L2 26 4 25 7 28zM26 30L30 26 28 25 25 28z"/></g><circle cx="16" cy="7" r="2" fill="#0052D9"/><circle cx="16" cy="17" r="2" fill="#0052D9"/><circle cx="16" cy="25" r="2" fill="#0052D9"/><circle cx="8" cy="12" r="2" fill="#0052D9"/><circle cx="24" cy="12" r="2" fill="#0052D9"/><circle cx="8" cy="21" r="2" fill="#0052D9"/><circle cx="24" cy="21" r="2" fill="#0052D9"/><path fill="none" stroke="#0052D9" stroke-width="2" stroke-linecap="round" stroke-linejoin="round" stroke-miterlimit="10" d="M7 12L16 7 25 12 16 17z"/><g fill="none" stroke="#0052D9" stroke-width="2" stroke-linejoin="round"><path d="M25 20L24.126 20.486"/><path stroke-dasharray="1.6591,1.6591" d="M22.676 21.291L17.599 24.111"/><path d="M16.874 24.514L16 25 15.126 24.514"/><path stroke-dasharray="1.6591,1.6591" d="M13.676 23.709L8.599 20.889"/><path d="M7.874 20.486L7 20"/></g><path fill="#0052D9" d="M7 12H9V21H7zM15 18H17V25H15zM23 12H25V21H23z"/></svg>