<svg xmlns="http://www.w3.org/2000/svg" width="32" height="32" viewBox="0 0 32 32"><path fill-rule="evenodd" clip-rule="evenodd" fill="#0052D9" d="M22.968 10.886L21.701 11.605 21.666 19.179 15.953 22.417 14.727 21.73 20.441 18.492 20.466 13.263 20.466 12.305 13.613 16.189 13.619 14.664 20.466 10.783 20.466 9.482 16.041 7 8 11.534 8 20.535 9.03 21.112 10.297 20.394 10.332 12.82 16.047 9.581 17.272 10.269 11.557 13.507 11.532 19.041 11.532 19.694 18.387 15.809 18.38 17.335 11.532 21.216 11.532 22.516 15.959 25 24 20.465 24 11.465z"/><g fill="#0052D9"><path d="M6 2H30V4H6zM2 6H4V21H2z"/><path d="M6 2L2 6 4 7 7 4zM6 28H26V30H6zM2 21H4V26H2zM28 7H30V26H28z"/><path d="M6 30L2 26 4 25 7 28zM26 30L30 26 28 25 25 28z"/></g></svg>