<svg width="32" height="32" viewBox="0 0 32 32" xmlns="http://www.w3.org/2000/svg"><g fill="#0052D9" fill-rule="evenodd"><path d="M6,30 L2,26 L2,6 L6,2 L30,2 L30,4 L7,4 L4,7 L4,25 L7,28 L25,28 L28,25 L28,7 L30,7 L30,26 L26,30 L6,30 Z"/><path d="M15.4805466,8.97348262 L19.0290715,16.000207 C20.1202382,16.015754 21,16.9051373 21,18 C21,19.1045695 20.1045695,20 19,20 C17.8954305,20 17,19.1045695 17,18 C17,17.626371 17.1024535,17.2766713 17.2807992,16.9774623 L14.249,10.973 L10.408,10.973 L10.408,21.973 L13.4080965,21.9734826 L14.419326,23.9734826 L8.40809651,23.9734826 L8.40809651,8.97348262 L15.4805466,8.97348262 Z M24.3005088,8.97348262 L24.3005088,23.9734826 L16.2283062,23.9734826 L13.1936174,17.963382 C12.2722254,17.7847298 11.5765379,16.9736081 11.5765379,16 C11.5765379,14.8954305 12.4719684,14 13.5765379,14 C14.6811074,14 15.5765379,14.8954305 15.5765379,16 C15.5765379,16.4951038 15.396635,16.9481889 15.0986333,17.2974513 L17.4598528,21.9739652 L22.3006053,21.9739652 L22.3006053,10.9739652 L18.3007563,10.9734826 L17.2895268,8.97348262 L24.3005088,8.97348262 Z" fill-rule="nonzero"/></g></svg>