<svg width="32" height="32" viewBox="0 0 32 32" xmlns="http://www.w3.org/2000/svg"><g fill="none" fill-rule="evenodd"><g transform="translate(1 3)" fill="#0052D9"><path d="M2 1H29V3H2zM1 23H29V25H1z"/><path d="M1 8H3V25H1zM27 1H29V18H27z"/><circle cx="2" cy="2" r="2"/><circle cx="28" cy="24" r="2"/></g><path d="M21.3904303,20.4783178 L20.0354351,19.0072678 C20.9371985,18.1766468 21.4586991,17.0126478 21.4586991,15.7625707 C21.4586991,14.4957388 20.9229932,13.3175318 20,12.4855856 L21.3390427,11 C22.6784887,12.2073188 23.4586991,13.9232776 23.4586991,15.7625707 C23.4586991,17.5774836 22.6991233,19.2728709 21.3904303,20.4783178 Z" fill="#0052D9" fill-rule="nonzero"/><g stroke="#0052D9" stroke-width="2"><path d="M1 5H4V11H1zM4 4.61803399L4 11.381966 10 14.381966 10 1.61803399 4 4.61803399z" transform="translate(8 8)"/></g></g></svg>