<svg width="32" height="32" viewBox="0 0 32 32" xmlns="http://www.w3.org/2000/svg"><g fill="none" fill-rule="evenodd"><path d="M31,30 L1,30 L1,2 L31,2 L31,4 L3,4 L3,24 L29,24 L29,6 L31,6 L31,30 Z M29,28 L29,26 L3,26 L3,28 L29,28 Z" fill="#0052D9"/><path d="M7.20502398 8.5548227C7.07168342 8.74141877 7 8.96502568 7 9.19436779L7 18.8099576C7 19.4174708 7.49248678 19.9099576 8.1 19.9099576 8.32934211 19.9099576 8.55294901 19.8382742 8.73954509 19.7049336L15.4675478 14.8971387C15.9618294 14.5439277 16.0761898 13.8568992 15.7229788 13.3626176 15.6093392 13.2208263 15.6093392 13.2208263 15.4675478 13.1071867L8.73954509 8.29939177C8.28056932 7.97141013 7.65539851 8.04658947 7.28562961 8.45475227L7.20502398 8.5548227zM9 10.944L13.279 14.002 9 17.059 9 10.944zM17 8H25V10H17zM17 13H25V15H17zM17 18H25V20H17z" fill="#0052D9" fill-rule="nonzero"/><path d="M0 0H32V32H0z"/></g></svg>