<svg width="32" height="32" viewBox="0 0 32 32" xmlns="http://www.w3.org/2000/svg"><path d="M3.7,3 C3.4,3.6 2.7,4 2,4 C0.9,4 0,3.1 0,2 C0,0.9 0.9,0 2,0 C2.7,0 3.4,0.4 3.7,1 L29,1 L29,18 L27,18 L27,3 L3.7,3 Z M28,22 C29.1,22 30,22.9 30,24 C30,25.1 29.1,26 28,26 C27.3,26 26.6,25.6 26.3,25 L1,25 L1,8 L3,8 L3,23 L26.3,23 C26.6,22.4 27.3,22 28,22 Z M12.7327056,18.7589562 C12.4533959,18.9174808 12.141918,19 11.8252641,19 C11.5084626,19 11.1967508,18.9172358 10.9178561,18.7586497 C10.3480975,18.4342582 10,17.8393919 10,17.1847532 L10,8.81512475 C10,8.16022247 10.3480416,7.56565151 10.9173785,7.24150033 C11.482171,6.91952512 12.1667293,6.91972168 12.7327223,7.24125686 L20.0829699,11.4266761 C20.6522211,11.7514957 21,12.345418 21,13.0001018 C21,13.6547387 20.6522284,14.2491946 20.0825075,14.5739792 L12.7327056,18.7589562 Z M18.8044872,13.0001921 L12,9.12554276 L12,16.8746668 L18.8044872,13.0001921 Z" transform="translate(1 3)" fill="#0052D9" fill-rule="nonzero"/></svg>