<svg width="32" height="32" viewBox="0 0 32 32" xmlns="http://www.w3.org/2000/svg"><g fill="#0052D9" fill-rule="evenodd"><path d="M27.8,17 C26.8,23.2 21.5,28 15,28 C7.8,28 2,22.2 2,15 C2,7.8 7.8,2 15,2 C21.5,2 26.9,6.8 27.8,13 L29.8,13 C28.9,5.7 22.6,0 15,0 C6.7,0 0,6.7 0,15 C0,23.3 6.7,30 15,30 C22.6,30 28.9,24.3 29.9,17 L27.8,17 Z" transform="translate(1 1)" fill-rule="nonzero"/><path d="M-7.10542736e-15,0 L16,0 L16,0.868044275 L16,10.0095067 L16,10.9956665 L-7.10542736e-15,10.9956665 L-7.10542736e-15,10.0095067 L-7.10542736e-15,0.865812799 L-7.10542736e-15,0 Z M1.98010254,8.99864195 L14.0179488,9.03967285 L14.0179488,2.00445557 L1.98010254,2.00445557 L1.98010254,8.99864195 Z" fill-rule="nonzero" transform="translate(8 9)"/><path d="M3 4H5V7H3zM11 4H13V7H11zM7 5H9V7H7zM0 12H16V14H0z" transform="translate(8 9)"/></g></svg>