<svg width="32" height="32" viewBox="0 0 32 32" xmlns="http://www.w3.org/2000/svg"><g fill="#0052D9" fill-rule="evenodd"><path d="M26,0 L0,0 L0,15.2 C0,15.2 0.1,26 13,29 C25.9,26 26,15.2 26,15.2 L26,6 L24,6 L24,15.2 C23.8883505,16.8828428 23.4105534,18.5210042 22.6,20 C20.8,23.4 17.5,25.7 13,26.9 C2.3,24.3 2,15.6 2,15.2 L2,2 L26,2 L26,0 Z" transform="translate(3 2)"/><path d="M8,7 L8,10 L6,10 L6,7 L6,5 L8,5 L11,5 L11,7 L8,7 Z M20,7 L20,10 L18,10 L18,7 L15,7 L15,5 L18,5 L20,5 L20,7 Z M6,17 L6,14 L8,14 L8,17 L11,17 L11,19 L8,19 L6,19 L6,17 Z M20,19 L18,19 L15,19 L15,17 L18,17 L18,14 L20,14 L20,17 L20,19 Z M9,11 L17,11 L17,13 L9,13 L9,11 Z" transform="translate(3 2)"/></g></svg>