<svg width="32" height="32" viewBox="0 0 32 32" xmlns="http://www.w3.org/2000/svg"><g fill="none" fill-rule="evenodd"><path d="M4.7 6L28 6 28 21 30 21 30 4 4.7 4C4.4 3.4 3.7 3 3 3 1.9 3 1 3.9 1 5 1 6.1 1.9 7 3 7 3.7 7 4.4 6.6 4.7 6zM29 25C28.3 25 27.6 25.4 27.3 26L4 26 4 11 2 11 2 28 27.3 28C27.6 28.6 28.3 29 29 29 30.1 29 31 28.1 31 27 31 25.9 30.1 25 29 25z" fill="#0052D9" fill-rule="nonzero"/><g transform="translate(8 11)"><path d="M8,4.10131836 L8,6.10131836 L2,6.10131836 L2,8.10131836 L14,8.10131836 L14,6.10131836 L12,6.10131836 L12,4.10131836 L13.4821777,4.10131836 L15,4.10131836 C15.5522847,4.10131836 16,4.54903361 16,5.10131836 L16,9.10131836 C16,9.65360311 15.5522847,10.1013184 15,10.1013184 L1,10.1013184 C0.44771525,10.1013184 0,9.65360311 0,9.10131836 L0,5.10131836 C0,4.54903361 0.44771525,4.10131836 1,4.10131836 L8,4.10131836 Z" fill="#0052D9" fill-rule="nonzero"/><path d="M1.82788086,5.57543945 L3.28624566,0.712732923 C3.41311413,0.289708366 3.80245676,0 4.24409619,0 L11.8809064,0 C12.3264849,0 12.7183071,0.294804837 12.841759,0.722940191 L13.6719971,4.59899902" stroke="#0052D9" stroke-width="2"/><path fill="#0052D9" d="M1 9L4 9 4 12 1 12zM12 9L15 9 15 12 12 12z"/><circle stroke="#0052D9" stroke-width="2" cx="10" cy="4" r="2"/><path d="M12,2.78771973 L15.4369507,1" stroke="#0052D9" stroke-width="2"/></g></g></svg>