<svg width="32" height="32" viewBox="0 0 32 32" xmlns="http://www.w3.org/2000/svg"><g fill="none" fill-rule="evenodd"><path d="M15.052458,0 C15.9287901,0 16.7030575,0.570496799 16.9626756,1.40748932 L18.237084,5.518 L15.686084,4.045 L15.052458,2 L6.31607792,2 L5.24808396,5.715 L12.754084,5.715 L9.28908396,7.715 L4.35208396,7.715 L3.05191604,9.09268285 L3.67894395,14 L5.90618126,14 L6.66982538,11.6513007 L8.90308396,11.651 L8.90308396,13.651 L8.12261307,13.6513007 L7.80817397,14.6184042 C7.54030938,15.442261 6.77249033,16 5.90618126,16 L1.91823198,16 L0.948083958,8.40731715 L3.02768083,6.20586553 L4.39374582,1.44805861 C4.63991088,0.590701263 5.4240808,0 6.31607792,0 L15.052458,0 Z" transform="translate(4.54 6.98)" fill="#0052D9" fill-rule="nonzero"/><g transform="rotate(-180 15 16)"><g stroke="#0052D9" stroke-width="2"><path d="M24.1760155 24.7523164C21.4893853 27.4948239 17.747325 29.1351521 13.6616112 28.9912503 8.40287097 28.805967 3.90950872 25.7118376 1.59864603 21.2666667M18.3704062.644444444C21.9632574 1.66540898 25.1612018 4.18261549 27.0492458 7.9031308 29.4792623 12.6918548 29.1224039 18.2587381 26.5736177 22.5555556M.804657113 18.0444444C-.191196214 14.3580898.287196512 10.2865103 2.46560797 6.78483261 5.2694357 2.27778549 10.1780688-.141421414 15.1450677.00639526868" transform="translate(0 2)"/></g><circle fill="#0052D9" cx="2" cy="24" r="2"/><circle fill="#0052D9" cx="27" cy="24" r="2"/><circle fill="#0052D9" cx="14" cy="2" r="2"/></g><g stroke="#0052D9" stroke-width="2"><path d="M5.5 0L10.2631397 2.75 10.2631397 8.25 5.5 11 .736860279 8.25.736860279 2.75zM5.5 11L5.5 5.5M5.5 5.5L10.263 2.75" transform="translate(14.707 13.324)"/><path d="M0.736860279,5.5 C0.736860279,5.5 2.32457352,4.58333333 5.5,2.75" transform="matrix(-1 0 0 1 20.943 13.324)"/></g></g></svg>