<svg width="32" height="32" viewBox="0 0 32 32" xmlns="http://www.w3.org/2000/svg"><path d="M26.0182416,13.1298838 C26.0182416,13.0799829 26.0182416,13.030082 26.0182416,12.9801811 C26.0182416,7.46827927 21.5499624,3 16.0380606,3 C10.5261587,3 6.05787947,7.46827927 6.05787947,12.9801811 C6.05787947,13.030082 6.05787947,13.0799829 6.05787947,13.1298838 C2.35303782,13.8496291 -0.236455616,17.2149778 0.0171187265,20.9805568 C0.270693069,24.7461358 3.28800701,27.7339217 7.05589758,27.9504527 L14.0420243,27.9504527 L14.0420243,25.9544165 L7.50500573,25.9544165 L7.18563993,25.9544165 C4.42293573,25.7943537 2.21141155,23.602779 2.02632133,20.8416386 C1.84123111,18.0804982 3.74046346,15.6133632 6.45708671,15.0859993 L8.05391569,14.7566533 L8.05391569,13.0999433 C8.05391569,13.0500423 8.05391569,12.9801811 8.05391569,12.9801811 C8.05391569,8.57065963 11.6285391,4.99603622 16.0380606,4.99603622 C20.447582,4.99603622 24.0222054,8.57065963 24.0222054,12.9801811 C24.0222054,13.030082 24.0222054,13.0899631 24.0222054,13.139864 L24.0222054,14.796574 L25.6489749,15.12592 C28.2985208,15.7180459 30.1171784,18.1581566 29.9274748,20.8664252 C29.7377712,23.5746938 27.5967014,25.7374411 24.8904812,25.9544165 L24.6309965,25.9544165 L18.0340968,25.9544165 L18.0340968,27.9504527 L25.0202235,27.9504527 C28.7564928,27.6975212 31.7308969,24.7223313 31.9828414,20.9859953 C32.2347858,17.2496593 29.6867313,13.9020851 26.0182416,13.1498442 L26.0182416,13.1298838 Z M20.3494988,17.0421148 L13.8124802,12.9801811 C13.7321629,12.9283005 13.6386312,12.9005874 13.5430153,12.9003396 C13.2619083,12.9003396 13.034026,13.1282219 13.034026,13.4093289 L13.034026,21.573117 C13.0312815,21.7089321 13.0840251,21.8399963 13.1800806,21.9360517 C13.276136,22.0321071 13.4072001,22.0848508 13.5430153,22.0821062 C13.6386312,22.0818584 13.7321629,22.0541453 13.8124802,22.0022648 L20.3395186,17.9203707 C20.5019183,17.83511 20.604453,17.6676289 20.6065372,17.4842203 C20.6086214,17.3008118 20.509919,17.1310439 20.3494988,17.0421148 Z M15.0400424,18.8585077 L15.0400424,16.0840174 L17.2656228,17.4712626 L15.0400424,18.8585077 Z" fill="#0052D9" fill-rule="evenodd"/></svg>