<svg width="32" height="32" viewBox="0 0 32 32" xmlns="http://www.w3.org/2000/svg"><g fill="#0052D9" fill-rule="evenodd"><path d="M16.5,7 C13.5084576,7 11.0833333,9.38781467 11.0833333,12.3333333 L11.0833333,13.4 L10,13.4 L10,23 L23,23 L23,13.4 L21.9166667,13.4 L21.9166667,12.3333333 C21.9166667,9.38781467 19.4915424,7 16.5,7 Z M13.25,12 C13.25,10.3431458 14.7050746,9 16.5,9 C18.2949254,9 19.75,10.3431458 19.75,12 L19.75,13 L13.25,13 L13.25,12 Z M21,21 L12,21 L12,15 L21,15 L21,21 Z" fill-rule="nonzero"/><path d="M10 13H23V14H10z"/><path d="M31.7193022,13.0004945 L29.6779284,13.0004945 C28.3047737,6.70988283 22.7024129,2 16,2 C8.2680135,2 2,8.2680135 2,16 C2,23.7319865 8.2680135,30 16,30 C23.0527724,30 28.8874794,24.7848417 29.8581515,18.0004945 L31.8761508,18.0004945 C30.8917351,25.8928783 24.1590649,32 16,32 C7.163444,32 -2.0250468e-13,24.836556 -2.0250468e-13,16 C-2.0250468e-13,7.163444 7.163444,0 16,0 C23.8113418,0 30.3152783,5.59766728 31.7193022,13.0004945 Z" fill-rule="nonzero"/></g></svg>