<svg width="32" height="32" viewBox="0 0 32 32" xmlns="http://www.w3.org/2000/svg"><g fill="#0052D9" fill-rule="evenodd"><path d="M12 4L14 4 14 9 12 8.17198879z" transform="translate(9 8)"/><path d="M6.82461991,0.00636922311 L6.83892542,-6.09512441e-14 L6.84600132,0.0158927206 L13.9945979,3.19995117 L13.9945979,4.04829407 L13.4649814,5.1521186 L6.82462283,2.19564048 L5.68434189e-14,5.23415833 L0.000597567839,3.04461972 L6.80324794,0.0158846388 L6.81032023,1.23234756e-14 L6.82461991,0.00636922311 Z" transform="translate(9 8)"/><path transform="rotate(-152 8.467 9.33)" d="M0.137983927 5.45247188L4.58715552 5.45247188 5.80190224 5.45247188 5.80190224 7.45247188 1.20400781 7.45247188z"/><path d="M0.101680519 3L2 3 2 6 0 6 0 3.04056207z" transform="translate(9 8)"/><g><path d="M12 4L14 4 14 9 12 8.16454315z" transform="rotate(180 11.5 12.5)"/><path d="M6.82461991,0.00636922311 L6.83892542,-6.09512441e-14 L6.84600132,0.0158927206 L13.9945979,3.19995117 L13.9945979,4.04829407 L13.4649814,5.1521186 L6.82462283,2.19564048 L5.68434189e-14,5.23415833 L0.000597567839,3.04461972 L6.80324794,0.0158846388 L6.81032023,1.23234756e-14 L6.82461991,0.00636922311 Z" transform="rotate(180 11.5 12.5)"/><path transform="rotate(28 -12.755 46.712)" d="M0.137983927 5.45247188L4.58715552 5.45247188 5.80190224 5.45247188 5.80190224 7.45247188 1.20400781 7.45247188z"/><path d="M0.101680519 3L2 3 2 6 0 6 0 3.04056207z" transform="rotate(180 11.5 12.5)"/></g><path d="M15 15H17V18H15z"/><path d="M31.7193022,13.0004945 L29.6779284,13.0004945 C28.3047737,6.70988283 22.7024129,2 16,2 C8.2680135,2 2,8.2680135 2,16 C2,23.7319865 8.2680135,30 16,30 C23.0527724,30 28.8874794,24.7848417 29.8581515,18.0004945 L31.8761508,18.0004945 C30.8917351,25.8928783 24.1590649,32 16,32 C7.163444,32 -2.0250468e-13,24.836556 -2.0250468e-13,16 C-2.0250468e-13,7.163444 7.163444,0 16,0 C23.8113418,0 30.3152783,5.59766728 31.7193022,13.0004945 Z" fill-rule="nonzero"/></g></svg>