<svg width="32" height="32" viewBox="0 0 32 32" xmlns="http://www.w3.org/2000/svg"><g fill="#0052D9" fill-rule="evenodd"><g transform="translate(1 3)"><path d="M2 1H29V3H2zM1 23H29V25H1z"/><path d="M1 8H3V25H1zM27 1H29V18H27z"/><circle cx="2" cy="2" r="2"/><circle cx="28" cy="24" r="2"/></g><path d="M5 10L9 10C11.761 10 14 12.238 14 15L12 15C12 13.346 10.654 12 9 12L5 12C3.346 12 2 13.346 2 15L0 15C0 12.239 2.239 10 5 10zM3 5C3 2.791 4.791 1 7 1 9.209 1 11 2.791 11 5 11 7.209 9.209 9 7 9 4.791 9 3 7.209 3 5zM7 7C8.105 7 9 6.105 9 5 9 3.895 8.105 3 7 3 5.895 3 5 3.895 5 5 5 6.105 5.895 7 7 7z" transform="translate(8 9)"/><path d="M13.3277969,9.73552499 L11.9728018,8.26447501 C12.8745651,7.43385402 13.3960657,6.26985495 13.3960657,5.01977787 C13.3960657,3.75294596 12.8603598,2.57473895 11.9373666,1.74279282 L13.2764093,0.25720718 C14.6158554,1.46452594 15.3960657,3.18048475 15.3960657,5.01977787 C15.3960657,6.8346908 14.6364899,8.53007805 13.3277969,9.73552499 Z" fill-rule="nonzero" transform="translate(8 9)"/></g></svg>