<svg width="32" height="32" viewBox="0 0 32 32" xmlns="http://www.w3.org/2000/svg"><g fill="#0052D9" fill-rule="nonzero"><path d="M15,2 C22.1797017,2 28,7.82029825 28,15 C28,22.1797017 22.1797017,28 15,28 C7.82029825,28 2,22.1797017 2,15 C2,7.82029825 7.82029825,2 15,2 M15,-1.77635684e-15 C6.71572875,-1.77635684e-15 0,6.71572875 0,15 C0,23.2842712 6.71572875,30 15,30 C23.2842712,30 30,23.2842712 30,15 C30,11.0217527 28.4196474,7.20644396 25.6066017,4.39339828 C22.793556,1.58035261 18.9782473,-1.77635684e-15 15,-1.77635684e-15 Z" transform="translate(1 1)"/><path d="M8,23.14 C6.95455806,23.1235503 6.11886458,22.265512 6.13,21.22 L6.13,20.92 C5.20855608,20.5598909 4.60422299,19.6692948 4.60991846,18.68 L4.60991846,15.51 C4.61228975,15.1841265 4.67677766,14.861687 4.8,14.56 L5.62,12.64 L8.46,7.74 C9.01612329,6.76426262 10.0470162,6.15561737 11.17,6.14 L18.31,6.14 C19.4354459,6.15612124 20.469099,6.76415245 21.03,7.74 L23.93,12.74 L24.68,14.55 C24.808968,14.8464114 24.873721,15.1667685 24.87,15.49 L24.87,16.82 L22.87,16.82 L22.87,15.51 C22.8803334,15.4538044 22.8803334,15.3961956 22.87,15.34 L22.14,13.59 L19.32,8.74 C19.1171965,8.37628996 18.7363576,8.14778663 18.32,8.14 L11.19,8.14 C10.772458,8.14362151 10.3896858,8.37328484 10.19,8.74 L7.4,13.59 L6.67,15.34 C6.65515357,15.3956942 6.65515357,15.4543058 6.67,15.51 L6.67,18.68 C6.65217124,18.8720545 6.78887514,19.0440368 6.98,19.07 L8.15,19.07 L8.15,21.14 L10,21.14 L10,19.07 L14.42,19.07 L14.42,21.07 L12,21.07 L12,21.22 C12.005341,21.7273677 11.8075233,22.215794 11.4506237,22.5764505 C11.093724,22.937107 10.6073958,23.14 10.1,23.14 L8,23.14 Z" transform="translate(1 1)"/><path d="M5.77 13.5700048L4.77 13.5700048C4.67303665 13.5705597 4.58220933 13.5226212 4.52796006 13.442252 4.47371079 13.3618827 4.46321857 13.2597181 4.5 13.17L4.79 12.4C4.94631552 11.977796 5.34024279 11.6902291 5.79 11.67L6.68 11.67 5.77 13.5700048zM23.76 13.57L24.76 13.57C24.8568877 13.5690834 24.9473677 13.5214292 25.0029316 13.4420521 25.0584956 13.3626751 25.0723017 13.2613492 25.04 13.17L24.74 12.4C24.5859357 11.9760991 24.1906874 11.6875678 23.74 11.67L22.8 11.67 23.76 13.57zM15.7 23.3L15.81 21.25 15.7 21 15.7 21C14.5517759 19.8794536 14.456057 18.0651452 15.48 16.83 16.5180798 15.5379633 18.2088012 14.961404 19.82 15.35 20.6126755 15.5007338 21.3412337 15.8876714 21.91 16.46 22.5559059 17.0988964 22.916493 17.9715173 22.91 18.88L21 18.88C20.9922171 18.4993444 20.8297366 18.1382765 20.55 17.88 20.2608975 17.5838711 19.88705 17.3847187 19.48 17.31 18.5839505 17.0722414 17.6323789 17.3907427 17.06 18.12 16.571578 18.8416267 16.6773783 19.8107579 17.31 20.41 17.31 20.41 17.39 20.84 17.44 20.83 17.49 20.82 18.06 20.55 18.13 20.56L18.23 20.56 18.42 20.61C18.6948247 20.6551489 18.9751753 20.6551489 19.25 20.61L19.4 22.56C18.929933 22.6185327 18.4533952 22.5982544 17.99 22.5L17.99 22.5 15.7 23.3z" transform="translate(1 1)"/><path d="M22.33 22.57C21.9455104 22.4885931 21.5959618 22.2893504 21.33 22 21.3053017 21.9702668 21.2686532 21.9530662 21.23 21.9530662 21.1913468 21.9530662 21.1546983 21.9702668 21.13 22 21.0995966 22.0287221 21.0816487 22.0682076 21.08 22.11 21.0899068 22.1513327 21.1106125 22.1892931 21.14 22.22 21.4494708 22.5112472 21.6505099 22.8992174 21.71 23.32 21.7919389 23.6078998 22.0735391 23.7913666 22.37 23.75 22.6681241 23.7093043 22.8878646 23.4507861 22.88 23.15 22.8755004 22.8430121 22.6363167 22.590782 22.33 22.57L22.33 22.57zM24.2 20.93C23.9727127 20.8328722 23.7094478 20.8800241 23.53 21.05L23.53 21.05C23.4326334 21.1461839 23.3724169 21.273701 23.36 21.41 23.2825055 21.7959655 23.0826139 22.1466525 22.79 22.41 22.7667486 22.4572969 22.7667486 22.5127031 22.79 22.56 22.8114111 22.610825 22.8561472 22.648105 22.91 22.66 22.9641049 22.6669438 23.0177146 22.6439683 23.05 22.6 23.3382007 22.2865203 23.7276989 22.0846894 24.15 22.03 24.3920197 21.9673866 24.5683087 21.7590451 24.5900146 21.51 24.5917425 21.2548315 24.4369691 21.0246555 24.2 20.93zM22.2 20.39C22.5842093 20.4661024 22.9343514 20.662182 23.2 20.95 23.2418315 20.9800427 23.2981685 20.9800427 23.34 20.95 23.3946243 20.9340418 23.4341537 20.8866065 23.44 20.83 23.4469438 20.7758951 23.4239683 20.7222854 23.38 20.69 23.0685588 20.4002456 22.8671343 20.0115316 22.81 19.59 22.7565302 19.3862161 22.595013 19.2285445 22.39 19.18 22.1774735 19.1220479 21.9503632 19.1873185 21.801035 19.349266 21.6517067 19.5112135 21.6050345 19.7428621 21.68 19.95 21.7464919 20.1935715 21.958353 20.3694562 22.21 20.39L22.2 20.39zM21.73 20.52C21.782364 20.4597928 21.782364 20.3702072 21.73 20.31 21.6683675 20.2615966 21.5816325 20.2615966 21.52 20.31L21.52 20.31C21.2334945 20.6343913 20.83916 20.8439925 20.41 20.9 20.2007503 20.9510198 20.0359285 21.1120085 19.98 21.32 19.9227186 21.5351202 19.9892502 21.7642724 20.1528292 21.9152684 20.3164082 22.0662643 20.5501423 22.1142805 20.76 22.04 20.9757392 21.960408 21.1297066 21.7679487 21.16 21.54 21.2347059 21.145028 21.4387668 20.7861623 21.74 20.52L21.73 20.52zM14.76 15.05C11.6235836 15.1339247 8.49571484 14.6841879 5.51 13.72L6.24 11.86C8.99347208 12.7303199 11.8734367 13.1325685 14.76 13.05 17.6466051 13.133327 20.5266956 12.7310609 23.28 11.86L24 13.72C21.0178618 14.6847746 17.8931759 15.13454 14.76 15.05L14.76 15.05z" transform="translate(1 1)"/></g></svg>