<svg data-name="图层 1" xmlns="http://www.w3.org/2000/svg" width="32" height="32" viewBox="0 0 32 32"><g fill="#0052D9"><path d="M19.5,23.2a.9.9,0,0,1-.5-.1.88.88,0,0,1-.5-1l.9-8a1.07,1.07,0,0,1,.7-.9,1.13,1.13,0,0,1,1.1.3l5,6.2a.91.91,0,0,1,.1,1.1,1,1,0,0,1-1,.5L22.4,21l-2.2,2A1,1,0,0,1,19.5,23.2Zm1.6-6.5-.3,3,.6-.6a.78.78,0,0,1,.8-.2l.8.1Z"/><path d="M30 28.4L1 28.4 1 3.6 31 3.6 31 22.6 29 22.6 29 5.6 3 5.6 3 26.4 30 26.4 30 28.4z"/><path d="M2 8.9H30V10.9H2zM6.6 13.6H14.6V15.6H6.6zM6.6 17H14.6V19H6.6zM6.6 20.4H10.6V22.4H6.6z"/></g></svg>