<svg data-name="图层 1" xmlns="http://www.w3.org/2000/svg" width="32" height="32" viewBox="0 0 32 32"><path fill="#0052D9" d="M16.21,2.16a22.32,22.32,0,0,1,12.85,4v.13A27.55,27.55,0,0,1,16.2,29.51,27.58,27.58,0,0,1,3.35,6.34V6.19a22.35,22.35,0,0,1,12.86-4m0-2A24.46,24.46,0,0,0,1.52,5.05l-.15.11v.18c0,.32,0,.65,0,1A29.46,29.46,0,0,0,16,31.74l.18.1.19-.1A29.46,29.46,0,0,0,31.06,6.32c0-.33,0-.66,0-1V5.16l-.15-.11A24.46,24.46,0,0,0,16.21.16Z"/><path fill="#0052D9" d="M23.69 20.13L16.23 20.13 16.23 18.13 21.69 18.13 21.69 8.55 10.39 8.55 10.39 11.82 8.39 11.82 8.39 6.55 23.69 6.55 23.69 20.13z"/><path fill="#0052D9" d="M14.27 12.22H22.36V14.22H14.27z"/><path fill="#0052D9" d="M17.89 13.73H19.89V18.71H17.89zM15.08 7.72H17.08V12.54H15.08zM11.08 21.19a4.94 4.94 0 01-3-.83 2.8 2.8 0 01-1-3 6.36 6.36 0 01.31-1 2.44 2.44 0 00.23-.85l.08-1.43 1.34.84.26.16a1.94 1.94 0 00.22-1.31l-.23-1.5 1.4.58a3.84 3.84 0 011.57 1.41l.33-1.19 1 1s2.13 2.13 1.68 4.34a3.55 3.55 0 01-2.46 2.53A5.54 5.54 0 0111.08 21.19zM9 17.13a3.69 3.69 0 00-.18.56c-.15.79.08 1.11.27 1.28.79.7 2.8.52 3.2.39.84-.33 1.31-.76 1.42-1.3a2.7 2.7 0 00-.47-1.79 5.84 5.84 0 01-.38.47l-1.1 1.2-.35-1.59a4.15 4.15 0 00-.33-.91 7.27 7.27 0 01-.85 1.47l-.68 1z"/></svg>