<svg width="32" height="32" viewBox="0 0 32 32" xmlns="http://www.w3.org/2000/svg"><g fill="#0052D9" fill-rule="evenodd"><path d="M4.72,6 L28,6 L28,21 L30,21 L30,4 L4.72,4 C4.26739432,3.21606397 3.34467813,2.83386241 2.4703111,3.06814835 C1.59594407,3.30243429 0.987949192,4.09478864 0.987949192,5 C0.987949192,5.90521136 1.59594407,6.69756571 2.4703111,6.93185165 C3.34467813,7.16613759 4.26739432,6.78393603 4.72,6 Z M29,25 C28.2897779,25.0042869 27.6351046,25.3849109 27.28,26 L4,26 L4,11 L2,11 L2,28 L27.28,28 C27.7660656,28.8418497 28.7870648,29.2122842 29.6998631,28.8779642 C30.6126615,28.5436442 31.1528813,27.6014004 30.9802345,26.6447584 C30.8075876,25.6881165 29.9720785,24.9941529 29,25 Z"/><path d="M16.7341727,9 C20.600166,9 23.7341727,12.1340068 23.7341727,16 C23.7341727,19.7854517 20.7293894,22.8690987 16.9748225,22.995941 L16.7341727,23 L9.80091659,23 L10.697118,21 L16.7341727,21 C19.4955965,21 21.7341727,18.7614237 21.7341727,16 C21.7341727,13.3112453 19.611866,11.1181819 16.9510624,11.0046195 L16.7341727,11 L8.79850596,11 L10,9 L16.7341727,9 Z" fill-rule="nonzero"/><path d="M18.206662,12.5475215 L17.2755936,14.5475215 L15.4352715,14.5475215 L13.1212051,20.0230874 L11,20.0001113 L13.2722715,14.5475215 L10.8452715,14.5475215 L11.7763399,12.5475215 L18.206662,12.5475215 Z" fill-rule="nonzero"/><path d="M15.2856874 18.1511284L14.5259667 20.0001113 16.2663394 20.0230874 17.0071638 18.1511284z"/></g></svg>