<svg xmlns="http://www.w3.org/2000/svg" viewBox="0 0 32 32"><g fill="#0052D9" transform="translate(1 3)"><path d="M3 1L29 1 29 3 3 3zM1 23H29V25H1z"/><path d="M1 8H3V25H1zM27 1H29V18H27z"/><circle cx="2" cy="2" r="2"/><circle cx="28" cy="24" r="2"/></g><path fill="none" stroke="#0052D9" stroke-width="2" stroke-linecap="square" d="M24 18L24 14M15.2 11L12.5 16 16.5 16 13.8 21"/><path fill="#0052D9" d="M12 12L12 10 7 10 7 12 7 22 9 22 11 22 11 20 9 20 9 12zM20 10L18 10 18 12 20 12 20 20 17 20 17 22 22 22 22 20 22 10z"/></svg>