<svg width="32" height="32" viewBox="0 0 32 32" xmlns="http://www.w3.org/2000/svg"><path d="M27.1105505,25.4060606 L1.55151515,25.4060606 L1.55151515,8.04848485 L3.49090909,8.04848485 L3.49090909,23.4666667 L27.3225763,23.4666667 C27.6905606,22.9391077 28.3019408,22.5939394 28.9939394,22.5939394 C30.118592,22.5939394 31.030303,23.5056504 31.030303,24.630303 C31.030303,25.7549556 30.118592,26.6666667 28.9939394,26.6666667 C28.1439685,26.6666667 27.415625,26.1459175 27.1105505,25.4060606 Z M4.69551007,1.64848485 L30.2545455,1.64848485 L30.2545455,19.0060606 L28.3151515,19.0060606 L28.3151515,3.58787879 L4.48348433,3.58787879 C4.1155,4.1154378 3.50411979,4.46060606 2.81212121,4.46060606 C1.68746863,4.46060606 0.775757576,3.54889501 0.775757576,2.42424242 C0.775757576,1.29958984 1.68746863,0.387878788 2.81212121,0.387878788 C3.66209213,0.387878788 4.39043556,0.908627954 4.69551007,1.64848485 Z M10.6666667,20.8484848 L5.52727273,11.5393939 L10.569697,11.5393939 L12.4121212,13.769697 L15.8060606,8.24242424 L25.8909091,7.17575758 L14.2545455,20.8484848 L10.6666667,20.8484848 Z M13.3818182,18.9090909 L21.6242424,9.21212121 L16.969697,9.6969697 L12.6060606,16.8727273 L9.6969697,13.2848485 L8.72727273,13.2848485 L11.830303,18.9090909 L13.3818182,18.9090909 Z" transform="translate(0 2)" fill="#0052D9" fill-rule="evenodd"/></svg>