<svg width="32" height="32" viewBox="0 0 32 32" xmlns="http://www.w3.org/2000/svg"><g fill="#0052D9" fill-rule="nonzero"><path d="M13.6585886,10 L15.747965,10 C14.8598794,13.4504544 11.7276789,16 8,16 C3.581722,16 0,12.418278 0,8 C0,3.581722 3.581722,0 8,0 C11.7276789,0 14.8598794,2.54954557 15.747965,6 L13.6585886,6 C12.8349158,3.66961525 10.6124377,2 8,2 C4.6862915,2 2,4.6862915 2,8 C2,11.3137085 4.6862915,14 8,14 C10.6124377,14 12.8349158,12.3303847 13.6585886,10 Z" transform="rotate(-45 20.95 1.843)"/><path d="M7 7H19V9H7z" transform="rotate(-45 20.95 1.843)"/><path d="M9 5L9 9.04052734 5 9.04052734z" transform="rotate(-45 20.95 1.843)"/><path d="M24,7 L24,16.2 C24,16.2 24,18.5 22.6,21 C20.8,24.4 17.5,26.7 13,27.9 C2.3,25.3 2,16.6 2,16.2 L2,3 L22,3 L24,3 L26,3 L26,1 L0,1 L0,16.2 C0,16.2 0.1,27 13,30 C25.9,27 26,16.2 26,16.2 L26,7 L24,7 Z" transform="translate(3 1)"/></g></svg>