<svg width="32" height="32" viewBox="0 0 32 32" xmlns="http://www.w3.org/2000/svg"><path d="M8.01799221,23 L18,23 L18,25 L6,25 L6,24.2502899 L6.00115606,24.2471755 C6.07155038,20.2326741 9.34782309,17 13.3791273,17 L18,17 L18,18.8447818 L13.3791273,18.8447818 C10.798739,18.8447818 8.63081153,20.6107369 8.01799221,23 Z M6.77817459,3 L3,6.77817459 L3,12 L1,12 L1,6 L1.05025253,6 L1,5.94974747 L5.94974747,1 L6,1.05025253 L6,1 L12,1 L12,3 L6.77817459,3 Z M25.2218254,3 L20,3 L20,1 L26,1 L26,1.05025253 L26.0502525,1 L31,5.94974747 L30.9497475,6 L31,6 L31,12 L29,12 L29,6.77817459 L25.2218254,3 Z M25.2218254,29 L29,25.2218254 L29,20 L31,20 L31,26 L30.9497475,26 L31,26.0502525 L26.0502525,31 L26,30.9497475 L26,31 L20,31 L20,29 L25.2218254,29 Z M6.77817459,29 L12,29 L12,31 L6,31 L6,30.9497475 L5.94974747,31 L1,26.0502525 L1.05025253,26 L1,26 L1,20 L3,20 L3,25.2218254 L6.77817459,29 Z M21.2115502,24.7857956 C20.9830959,24.9258299 20.7238706,25 20.45848,25 C20.1928433,25 19.9333723,24.925595 19.705444,24.7856212 C19.2616373,24.5127259 19,24.0298428 19,23.5108519 L19,18.4890748 C19,17.969909 19.2616271,17.4872072 19.7049582,17.2146045 C20.1696338,16.9285115 20.745994,16.9286902 21.2115672,17.214337 L25.2953961,19.7258089 C25.7385752,19.9989213 26,20.4810877 26,21.0000611 C26,21.5189934 25.7386035,22.0015509 25.2947735,22.2748094 L21.2115502,24.7857956 Z M23.5495891,21.0001078 L21,19.4321621 L21,22.5679826 L23.5495891,21.0001078 Z M16,16 C13.2385763,16 11,13.7614237 11,11 C11,8.23857625 13.2385763,6 16,6 C18.7614237,6 21,8.23857625 21,11 C21,13.7614237 18.7614237,16 16,16 Z M16,14 C17.6568542,14 19,12.6568542 19,11 C19,9.34314575 17.6568542,8 16,8 C14.3431458,8 13,9.34314575 13,11 C13,12.6568542 14.3431458,14 16,14 Z" fill="#0052D9" fill-rule="evenodd"/></svg>