<svg width="32" height="32" viewBox="0 0 32 32" xmlns="http://www.w3.org/2000/svg"><g fill="#0052D9" fill-rule="evenodd"><path d="M26.097 12.334L26.097 23.143 14.097 30 2.096 23.143 2.096 8.857 14.097 2 25.673 8.615 27.288 7.539 14.097 0 0.096 8 0.096 10 0.096 22 0.096 24 14.097 32 28.097 24 28.097 22 28.097 11z" transform="translate(2)"/><path d="M16,15.4 L11,11.8 C11,10.8 10,10 9,10 C7.8,10 7,10.8 7,12 C7,13.2 7.8,14 9,14 C9.4,14 9.8,13.8 10,13.6 L15,17.2 L15,22.4 C14.4,22.8 14,23.4 14,24 C14,25.2 14.8,26 16,26 C17.2,26 18,25.2 18,24 C18,23.2 17.6,22.6 17,22.4 L17,17.2 L22,13.6 C22.2,13.8 22.6,14 23,14 C24.2,14 25,13.2 25,12 C25,10.8 24.2,10 23,10 C22,10 21,10.8 21,11.8 L16,15.4 Z" fill-rule="nonzero"/></g></svg>