<svg width="32" height="32" viewBox="0 0 32 32" xmlns="http://www.w3.org/2000/svg"><g fill="#0052D9" fill-rule="evenodd"><g transform="translate(1 3)"><path d="M3 1H29V3H3zM1 23H28V25H1z"/><path d="M1 8H3V25H1zM27 1H29V18H27z"/><circle cx="2" cy="2" r="2"/><circle cx="28" cy="24" r="2"/></g><path d="M18,6.71428571 L18,9.015 L16,7.87 L16,11.57 L20,13.86 L20,11 L22,11 L22,17 L15,21 L8,17 L8,9 L15,5 L18,6.71428571 Z M14,7.87 L10,10.16 L10,13.86 L14,11.57 L14,7.87 Z M15,13.3 L10.28,16 L15,18.7 L19.72,16 L15,13.3 Z" fill-rule="nonzero" transform="translate(1 3)"/><path d="M19 6H21V10H19z" transform="translate(1 3)"/><path d="M19 6H23V8H19z" transform="translate(1 3)"/></g></svg>