<svg xmlns="http://www.w3.org/2000/svg" viewBox="0 0 32 32"><path fill="#0052D9" d="M5 25.9H.3L11.4 6.4c1.2-1.9 3.1-3 5.3-3h4.6l-.8 1.5c-2.4 4.2-10.2 18-10.3 18.1C9.1 24.8 7.1 25.9 5 25.9zM3.7 23.9H5c1.5 0 2.7-.7 3.5-1.9.2-.3 5.8-10.2 9.4-16.6h-1.2c-1.5 0-2.7.7-3.6 2L3.7 23.9zM31.6 25.9h-7.1V15.5l7.1-12.1V25.9zM26.5 23.9h3.1V10.1l-3.1 5.6V23.9zM14.2 25.8H9.4L20.7 6.4C21.2 5.5 22 4.7 23.2 4c.9-.4 1.8-.6 2.7-.6h4.7l-.9 1.5c-3.5 6.1-10.2 17.7-10.4 18C18.2 24.7 16.3 25.8 14.2 25.8zM12.9 23.8h1.3c1.5 0 2.7-.7 3.5-1.9l0 0c0 0 .4-.8 9.5-16.5h-1.3c-.6 0-1.2.1-1.7.4-.8.5-1.4 1-1.7 1.6L12.9 23.8z"/></svg>